<?xml version="1.0" standalone="no"?>
<!DOCTYPE svg PUBLIC "-//W3C//DTD SVG 1.1//EN" "http://www.w3.org/Graphics/SVG/1.1/DTD/svg11.dtd" >
<svg xmlns="http://www.w3.org/2000/svg" xmlns:xlink="http://www.w3.org/1999/xlink" version="1.1">
<metadata>
Created by FontForge 20170731 at Fri Feb 23 22:41:00 2018
 By Aleksey,,,
Copyright (c) 2017 by TAE System &#38; Typefaces Co.. All rights reserved.
</metadata>
<defs>
<font id="Gugi-Regular" horiz-adv-x="1000" >
  <font-face 
    font-family="Gugi"
    font-weight="400"
    font-stretch="normal"
    units-per-em="1000"
    panose-1="0 0 0 0 0 0 0 0 0 0"
    ascent="858"
    descent="-142"
    x-height="602"
    cap-height="799"
    bbox="-22.0909 -169 997.256 866"
    underline-thickness="40"
    underline-position="-260"
    unicode-range="U+0020-D79D"
  />
<missing-glyph 
 />
    <glyph glyph-name=".notdef" 
 />
    <glyph glyph-name=".null" horiz-adv-x="0" 
 />
    <glyph glyph-name="nonmarkingreturn" horiz-adv-x="333" 
 />
    <glyph glyph-name="space" unicode=" " horiz-adv-x="300" 
 />
    <glyph glyph-name="exclam" unicode="!" horiz-adv-x="327" 
d="M224 261q0 -47 -60 -47q-58 0 -58 47v490q0 48 58 48q60 0 60 -48v-490zM246 81q0 -35 -23.5 -58.5t-57.5 -23.5t-57.5 23.5t-23.5 58.5q0 34 23.5 57t57.5 23t57.5 -23t23.5 -57z" />
    <glyph glyph-name="quotedbl" unicode="&#x22;" horiz-adv-x="331" 
d="M137 575q0 -31 -37 -31t-37 31v237q0 28 37 28t37 -28v-237zM277 575q0 -31 -37 -31t-37 31v237q0 28 37 28t37 -28v-237z" />
    <glyph glyph-name="numbersign" unicode="#" horiz-adv-x="777" 
d="M188 11q-10 -34 -52 -26q-41 8 -26 43l73 221h-119q-40 0 -41 39q-2 41 41 41h147l49 149h-136q-38 0 -40 40q-1 40 40 40h164l74 222q7 14 20 22.5t30 4.5q39 -10 28 -42l-69 -207h144l74 222v-1q16 37 53 28h-1q37 -11 27 -42l-69 -207h120q38 0 38 -40t-38 -40h-148
l-50 -149h149q37 0 37 -41q0 -39 -37 -39h-175l-80 -238q-8 -32 -51 -26q-39 7 -27 43l73 221h-143zM294 329h144l49 149h-144z" />
    <glyph glyph-name="dollar" unicode="$" horiz-adv-x="603" 
d="M284 819q0 19 23 20q24 1 24 -20v-45h49q26 0 53.5 -11t53.5 -28h-1q26 -19 40 -49t14 -72v-58q0 -48 -60 -48q-58 0 -58 48v50q0 26 -15.5 47t-52.5 21h-23v-217h49q26 0 53.5 -11t53.5 -29h-1q26 -18 40 -49t14 -71v-117q0 -82 -54 -121t-106 -39h-49v-51
q0 -23 -24 -21q-23 0 -23 21v51h-53q-26 0 -53.5 10t-53.5 29q-53 39 -53 121v46q0 47 58 47q60 0 60 -47v-38q0 -25 15 -46t52 -21h28v236h-53q-52 0 -107 38q-53 41 -53 121v98q0 82 53 121h-1q26 17 54 28t54 11h53v45zM331 357v-236h23q37 0 52.5 21t15.5 46v101
q0 25 -15.5 46.5t-52.5 21.5h-23zM189 524q0 -26 15 -46.5t52 -20.5h28v217h-28q-37 0 -52 -21t-15 -47v-82z" />
    <glyph glyph-name="percent" unicode="%" horiz-adv-x="849" 
d="M818 190q0 -36 -13 -71.5t-33 -63.5q-23 -27 -54.5 -42t-70.5 -15q-76 0 -121 55q-23 28 -36 61.5t-14 75.5q0 83 49 138t122 55q79 0 124 -55q24 -28 35.5 -62.5t11.5 -75.5zM250 -10q-6 -10 -16 -14.5t-21 0.5q-24 9 -13 30v-1q49 95 100.5 195t104 201t104 201
t100.5 195q18 29 40 21q11 -5 15.5 -13.5t-0.5 -16.5zM385 590q0 -36 -13 -71t-33 -64q-23 -27 -54.5 -42t-70.5 -15q-38 0 -68.5 13.5t-52.5 41.5q-23 28 -36.5 62t-14.5 75q0 82 50 138t122 56q79 0 124 -56q47 -56 47 -138zM725 190q0 48 -20.5 77t-57.5 29
q-39 0 -58 -31t-19 -75q0 -43 19 -73.5t58 -30.5q37 0 57.5 26t20.5 78zM291 590q0 48 -20.5 77t-56.5 29q-39 0 -58 -31t-19 -75q0 -42 19 -73.5t58 -31.5q36 0 56.5 26.5t20.5 78.5z" />
    <glyph glyph-name="ampersand" unicode="&#x26;" horiz-adv-x="658" 
d="M244 369q-20 -10 -35.5 -22t-20.5 -24v1q-5 -14 -7 -27.5t-2 -25.5v-103q0 -26 15 -47t52 -21h148q19 0 33.5 7.5t24.5 19.5zM637 83q7 -8 10 -16.5t3 -14.5q0 -10 -7.5 -22t-16.5 -21q-23 -18 -40 -18q-19 0 -34 18l-13 14l-12 11q-29 -18 -56.5 -26.5t-51.5 -8.5h-198
q-26 0 -53.5 10.5t-53.5 29.5q-53 39 -53 121v118q0 70 37 106q16 17 36.5 33t45.5 29l-30 34l-19 24q-24 25 -28 56q-1 12 -1.5 20.5t-0.5 10.5v44q0 81 53 120h-1q26 17 54 28t54 11h109q24 0 52.5 -11t54.5 -28h-1q26 -19 40 -49.5t14 -70.5v-54q0 -47 -60 -47
q-58 0 -58 47v45q0 25 -15.5 46t-52.5 21h-58q-37 0 -52.5 -21t-15.5 -46v-32q0 -22 5 -30q12 -15 30 -35l37.5 -42.5t52.5 -60.5l119 -137v63q0 39 58 39q60 0 60 -39v-201z" />
    <glyph glyph-name="quotesingle" unicode="'" horiz-adv-x="172" 
d="M122 565q0 -33 -36 -33q-37 0 -37 33v247q0 30 37 30q36 0 36 -30v-247z" />
    <glyph glyph-name="parenleft" unicode="(" horiz-adv-x="370" 
d="M245 812q36 43 57 32q23 -14 8 -42q-52 -97 -72.5 -206t-20.5 -243q0 -131 22.5 -243t70.5 -208q13 -28 -8 -41h1q-11 -6 -26 2.5t-32 27.5q-35 47 -65 103t-47 115q-20 61 -29 122t-9 122q0 126 37.5 244.5t112.5 214.5z" />
    <glyph glyph-name="parenright" unicode=")" horiz-adv-x="370" 
d="M280 353q0 -121 -38 -244q-18 -60 -47.5 -115t-66.5 -103q-34 -44 -56 -30q-11 7 -13.5 16.5t5.5 24.5q51 98 71.5 207.5t20.5 243.5t-20 243t-72 206q-15 29 8 42q11 7 25 -2t31 -30q76 -96 114 -214.5t38 -244.5z" />
    <glyph glyph-name="asterisk" unicode="*" horiz-adv-x="500" 
d="M307 628q23 -29 49 -63.5t49 -64.5l-68 -51l-85 134l-91 -132q-20 14 -33.5 24t-32.5 24l99 127q-32 10 -71.5 22t-70.5 21l26 81l134 -50v152h76v-152q29 11 66 25t69 26q8 -23 13 -43t12 -40z" />
    <glyph glyph-name="plus" unicode="+" horiz-adv-x="833" 
d="M459 354v-264q0 -41 -44 -39q-37 1 -37 36v264l-244 3q-31 0 -33 39q-1 18 7 29t26 11l244 -3v252q0 17 9 27.5t29 10.5q43 0 43 -35v-252h240q17 0 26 -11t9 -29q0 -39 -35 -39h-240z" />
    <glyph glyph-name="comma" unicode="," horiz-adv-x="284" 
d="M73 -79q32 17 50 33.5t20 44.5q-34 6 -57 29t-23 54q0 33 23 56.5t57 23.5q33 0 56 -22.5t25 -57.5q5 -89 -36 -128q-19 -21 -39.5 -35.5t-38.5 -20.5q-15 -6 -29 -6q-3 0 -7.5 2t-7.5 4q-9 14 7 23z" />
    <glyph glyph-name="hyphen" unicode="-" horiz-adv-x="334" 
d="M67 345q-46 0 -46 50q1 26 13 38.5t33 12.5h202q45 0 45 -51q2 -50 -45 -50h-202z" />
    <glyph glyph-name="period" unicode="." horiz-adv-x="284" 
d="M223 82q0 -34 -23 -57.5t-57 -23.5t-57 23.5t-23 57.5q0 33 23 56.5t57 23.5t57 -23.5t23 -56.5z" />
    <glyph glyph-name="slash" unicode="/" horiz-adv-x="370" 
d="M110 -113h-84q61 237 118.5 466.5t117.5 465.5h84z" />
    <glyph glyph-name="zero" unicode="0" horiz-adv-x="567" 
d="M337 794q25 0 53 -11t54 -28h-1q26 -19 40 -49.5t14 -70.5v-475q0 -42 -14 -71.5t-40 -49.5q-26 -19 -53 -29.5t-53 -10.5h-105q-26 0 -53.5 10.5t-53.5 29.5q-26 20 -40.5 49.5t-14.5 71.5v475q0 40 14.5 70.5t40.5 49.5h-1q26 17 54 28t54 11h105zM311 100
q37 0 52.5 21t15.5 47v458q0 25 -15.5 46t-52.5 21h-55q-37 0 -52.5 -21t-15.5 -46v-458q0 -26 15.5 -47t52.5 -21h55z" />
    <glyph glyph-name="one" unicode="1" horiz-adv-x="567" 
d="M106 612q-24 0 -25 33q-1 34 25 34q16 0 38 4t49 11q25 9 44 30.5t27 50.5q6 16 20 26t37 9q47 -2 47 -49v-730q0 -47 -59 -47t-59 47v581h-144z" />
    <glyph glyph-name="two" unicode="2" horiz-adv-x="567" 
d="M339 794q24 0 52.5 -11t54.5 -28h-1q26 -19 40 -49.5t14 -70.5v-98q0 -52 -40 -97.5t-114 -80.5q-76 -35 -115.5 -73t-39.5 -77v-109h285q38 0 39 -49q2 -52 -39 -52h-340q-38 0 -50 18.5t-12 42.5v158q0 63 39 110.5t114 81.5q74 31 114.5 66t40.5 69v81q0 25 -15.5 46
t-52.5 21h-55q-37 0 -52.5 -21t-15.5 -46v-40q0 -47 -59 -47q-58 0 -58 47v49q0 40 14 70.5t39 49.5h-1q26 17 54.5 28t54.5 11h105z" />
    <glyph glyph-name="three" unicode="3" horiz-adv-x="567" 
d="M232 -1q-26 0 -53.5 10.5t-53.5 29.5q-26 20 -40.5 49.5t-14.5 71.5v68q0 47 59 47t59 -47v-60q0 -26 15.5 -47t52.5 -21h55q37 0 52.5 21t15.5 47v121q0 25 -15 46.5t-53 21.5h-71q-38 0 -38 49q0 51 38 51h71q41 0 54.5 20.5t13.5 46.5v102q0 25 -15.5 46t-52.5 21h-55
q-37 0 -52.5 -21t-15.5 -46v-40q0 -47 -59 -47t-59 47v49q0 40 14.5 70.5t40.5 49.5h-1q26 17 54 28t54 11h105q25 0 53 -11t54 -28h-1q26 -19 40 -49.5t14 -70.5v-119q0 -48 -18 -77q-6 -8 -12 -17t-10 -14l14 -24l10 -11q16 -25 16 -76v-137q0 -42 -14 -71.5t-40 -49.5
q-26 -19 -53 -29.5t-53 -10.5h-105z" />
    <glyph glyph-name="four" unicode="4" horiz-adv-x="567" 
d="M89 145q-34 1 -49.5 14.5t-15.5 37.5q0 7 0.5 15t2.5 13l144 520q12 52 73 41q28 -6 40.5 -21.5t5.5 -40.5l1 1l-133 -480h173v506q0 48 58 48q60 0 60 -48v-506h45q40 0 39 -50q-2 -50 -39 -50h-45v-114q0 -47 -60 -47q-58 0 -58 47v114h-242z" />
    <glyph glyph-name="five" unicode="5" horiz-adv-x="567" 
d="M226 -1q-26 0 -53.5 10.5t-53.5 29.5q-53 39 -53 121v68q0 47 59 47q58 0 58 -47v-60q0 -26 15.5 -47t52.5 -21h65q37 0 52.5 21t15.5 47v157q0 25 -15 46.5t-53 21.5h-178q-30 0 -46.5 13t-16.5 45v283q0 8 2 17t6 21v-2q12 24 55 24h320q37 0 39 -50q2 -51 -39 -51
h-264v-200h148q52 0 106 -39q54 -36 54 -121v-173q0 -42 -14 -71.5t-40 -49.5q-26 -19 -53.5 -29.5t-52.5 -10.5h-116z" />
    <glyph glyph-name="six" unicode="6" horiz-adv-x="567" 
d="M383 324q0 25 -15.5 46.5t-52.5 21.5h-55q-37 0 -52.5 -21.5t-15.5 -46.5v-156q0 -26 15.5 -47t52.5 -21h55q37 0 52.5 21t15.5 47v156zM192 479q19 6 33 9.5t20 3.5h96q26 0 53.5 -11t53.5 -29h-1q26 -18 40 -49t14 -71v-172q0 -42 -14 -71.5t-40 -49.5
q-26 -19 -53 -29.5t-53 -10.5h-105q-52 0 -108 39h1q-55 38 -55 122v475q0 40 14.5 69.5t40.5 49.5h-1q26 18 54 29t54 11h105q25 0 53 -11t54 -28h-1q26 -19 40 -49.5t14 -70.5v-49q0 -47 -59 -47t-59 47v40q0 25 -15.5 46t-52.5 21h-55q-37 0 -52.5 -21t-15.5 -46v-147z
" />
    <glyph glyph-name="seven" unicode="7" horiz-adv-x="567" 
d="M518 696q-68 -98 -111 -187t-61 -166q-17 -74 -28.5 -154.5t-16.5 -157.5q-2 -27 -19.5 -39t-47.5 -10q-64 4 -59 49q5 73 16 147.5t28 149.5q19 72 62.5 164.5t112.5 200.5h-322q-36 0 -38 51q0 50 38 50h390q64 0 69 -36q2 -16 -1 -33t-12 -29z" />
    <glyph glyph-name="eight" unicode="8" horiz-adv-x="567" 
d="M61 297q1 27 8.5 45.5t21.5 31.5l37 34l-31 32q-22 25 -22 76v119q1 39 15 69.5t40 50.5h-1q26 17 54 28t54 11h105q25 0 53 -11t54 -28h-1q26 -19 40 -49.5t14 -70.5v-119q0 -49 -22 -76l-30 -33l37 -34q30 -24 30 -76v-137q0 -81 -54 -121q-26 -19 -53.5 -29.5
t-53.5 -10.5h-135q-26 0 -53.5 10.5t-53.5 29.5q-53 39 -53 121v137zM193 524q0 -26 15 -46.5t53 -20.5h55q38 0 53 20.5t15 46.5v102q0 25 -15.5 46t-52.5 21h-55q-37 0 -52.5 -21t-15.5 -46v-102zM179 168q0 -26 15 -47t52 -21h85q37 0 52 21t15 47v121q0 12 -3 24.5
t-10.5 22t-20.5 15.5t-33 6h-85q-20 0 -33 -6t-20.5 -15.5t-10.5 -22t-3 -24.5v-121z" />
    <glyph glyph-name="nine" unicode="9" horiz-adv-x="567" 
d="M501 160q0 -42 -14 -71.5t-40 -48.5h1q-26 -18 -53.5 -29.5t-53.5 -11.5h-105q-26 0 -53.5 10.5t-53.5 29.5q-26 20 -40.5 49.5t-14.5 71.5v47q0 49 59 49t59 -49v-39q0 -26 15.5 -47t52.5 -21h55q37 0 52.5 21t15.5 47v146q-38 -12 -53 -12h-94q-26 0 -53.5 10.5
t-53.5 28.5q-26 20 -40.5 50t-14.5 71v173q0 40 14.5 70.5t40.5 49.5h-1q26 17 54 28t54 11h105q52 0 107 -38h-1q54 -38 54 -121v-475zM383 626q0 25 -15.5 46t-52.5 21h-55q-37 0 -52.5 -21t-15.5 -46v-156q0 -25 15.5 -46t52.5 -21h55q37 0 52.5 21t15.5 46v156z" />
    <glyph glyph-name="colon" unicode=":" horiz-adv-x="307" 
d="M235 81q0 -35 -24 -58.5t-57 -23.5q-34 0 -57 23.5t-23 58.5q0 34 23 57t57 23q33 0 57 -23t24 -57zM235 521q0 -34 -24 -57.5t-57 -23.5q-34 0 -57 23.5t-23 57.5t23 57.5t57 23.5q33 0 57 -23.5t24 -57.5z" />
    <glyph glyph-name="semicolon" unicode=";" horiz-adv-x="307" 
d="M85 -79q32 17 49.5 34t20.5 44q-34 6 -57 29t-23 54q0 33 23 56.5t57 23.5q32 0 55.5 -22.5t26.5 -57.5q4 -86 -36 -128q-20 -22 -40.5 -36t-38.5 -20l1 1q-20 -7 -30 -7q-3 0 -7.5 2t-7.5 4q-9 14 7 23zM235 521q0 -34 -24 -57.5t-57 -23.5q-34 0 -57 23.5t-23 57.5
t23 57.5t57 23.5q33 0 57 -23.5t24 -57.5z" />
    <glyph glyph-name="less" unicode="&#x3c;" horiz-adv-x="833" 
d="M139 344v88q142 60 277.5 119t277.5 120v-89l-453 -194q23 -10 53.5 -23t80.5 -35t126.5 -55t192.5 -82v-89z" />
    <glyph glyph-name="equal" unicode="=" horiz-adv-x="833" 
d="M134 459v80h565v-80h-565zM134 237v81h565v-81h-565z" />
    <glyph glyph-name="greater" unicode="&#x3e;" horiz-adv-x="833" 
d="M139 104v89l455 194q-54 23 -111.5 47.5t-115.5 49.5l-116 50t-112 48v89q72 -31 141 -61t137 -59.5t137 -59t140 -59.5v-88z" />
    <glyph glyph-name="question" unicode="?" horiz-adv-x="541" 
d="M327 794q24 0 52.5 -11t54.5 -28h-1q26 -19 40 -49.5t14 -70.5v-48q0 -93 -90 -151q-90 -57 -90 -116v-77q0 -43 -60 -45q-58 0 -58 45v75q0 57 23.5 97t65.5 61q44 20 67.5 50.5t23.5 68.5v31q0 25 -15.5 46t-52.5 21h-65q-37 0 -52 -21t-15 -46v-40q0 -47 -60 -47
q-58 0 -58 47v49q0 81 53 120h-1q26 17 54 28t54 11h116zM329 81q0 -35 -23.5 -58.5t-57.5 -23.5t-57.5 23.5t-23.5 58.5q0 34 23.5 57t57.5 23t57.5 -23t23.5 -57z" />
    <glyph glyph-name="at" unicode="@" 
d="M970 446q0 -86 -32 -158t-95 -127q-32 -29 -74.5 -45t-91.5 -16q-35 0 -63.5 13.5t-49.5 45.5q-33 -28 -69 -43t-68 -15q-81 0 -123.5 44.5t-44.5 138.5q0 63 18 116.5t52 95.5q48 61 122 80q29 8 54 8q17 0 38.5 -6t37.5 -13l-4 1q3 -2 11 -11t28 -34l24 8q-1 6 -1 13
v12t2 12q17 40 62 26q23 -6 32.5 -17t7.5 -25l-72 -298l1 1q-3 -10 -3.5 -16t-0.5 -8q0 -12 6.5 -21t28.5 -6q17 2 35 10t38 26q42 41 62.5 95.5t20.5 114.5t-21.5 108t-65.5 87q-89 77 -228 77q-118 0 -208.5 -55t-147.5 -155q-18 -38 -30 -89.5t-12 -98.5q0 -152 97 -245
q97 -94 264 -94q84 0 155 25t143 81q9 8 21 8q8 0 17.5 -5.5t19.5 -13.5q12 -15 12 -31q0 -20 -20 -36h1q-87 -64 -171.5 -94.5t-175.5 -30.5q-163 0 -273 70q-55 35 -95.5 79.5t-65.5 98.5q-19 42 -29 87.5t-10 99.5q0 86 26 164.5t77 144.5q74 93 177.5 143t231.5 50
q66 0 126.5 -15t111.5 -44q50 -29 88.5 -70t61.5 -89q15 -34 24.5 -74.5t9.5 -84.5zM450 194q38 0 68 30.5t43 78.5l25 111q-4 17 -9.5 30.5t-14.5 24.5q-25 22 -67 18q-43 -6 -73 -56q-18 -30 -28.5 -67.5t-10.5 -81.5q0 -40 16 -64t51 -24z" />
    <glyph glyph-name="A" unicode="A" horiz-adv-x="686" 
d="M343 696l-219 -672v1q-6 -15 -16.5 -24.5t-25.5 -9.5q-8 0 -15.5 1.5t-15.5 3.5h1q-57 18 -42 64l228 693q5 16 17.5 27t29.5 13q17 3 33 4.5t25 1.5t25 -1.5t33 -3.5q14 -2 27.5 -15t20.5 -26q56 -172 113.5 -346.5t113.5 -346.5q14 -46 -42 -64q-8 -2 -14.5 -3.5
t-14.5 -1.5q-14 0 -25.5 9.5t-16.5 24.5v-1zM418 240q0 -32 -22.5 -54.5t-54.5 -22.5t-54 22.5t-22 54.5t22 54.5t54 22.5t54.5 -22.5t22.5 -54.5z" />
    <glyph glyph-name="B" unicode="B" horiz-adv-x="684" 
d="M495 295q0 23 -17 44.5t-60 24.5q-28 -34 -68 -34q-34 0 -58 24t-24 59t24 59t58 24q18 0 35.5 -10t31.5 -24q22 1 34 7t17.5 14.5t6.5 19.5t1 22v101q0 25 -15.5 46t-52.5 21h-209l-1 -660q0 -20 -18.5 -30.5t-40.5 -10.5q-59 0 -59 48v694q0 36 18.5 48t44.5 12h290
q26 0 55.5 -10t55.5 -27h-1q26 -19 38.5 -50t12.5 -72v-113q0 -40 -17 -65.5t-36 -40.5q13 -8 25 -16.5t20 -18.5q13 -14 20.5 -33t7.5 -45v-143q0 -82 -64 -121q-32 -20 -60.5 -30t-56.5 -10h-148q-17 0 -26.5 14t-9.5 37q0 50 42 50h137q37 0 52 21t15 47v127z" />
    <glyph glyph-name="C" unicode="C" horiz-adv-x="684" 
d="M619 160q0 -81 -54 -121q-26 -19 -53.5 -29.5t-53.5 -10.5h-218q-26 0 -53.5 10.5t-53.5 29.5q-26 20 -40 49.5t-14 71.5v475q0 40 14 70.5t40 49.5h-1q26 17 54 28t54 11h218q26 0 54 -11t54 -28h-1q26 -19 40 -49.5t14 -70.5v-69q0 -48 -60 -48q-59 0 -59 48v60
q0 25 -15 46t-52 21h-168q-37 0 -52 -21t-15 -46v-458q0 -26 15 -47t52 -21h168q37 0 52 21t15 47v58q0 47 59 47q60 0 60 -47v-66z" />
    <glyph glyph-name="D" unicode="D" horiz-adv-x="690" 
d="M433 100q37 0 52 21t15 47v458q0 25 -15 46t-52 21h-234l-1 -652q0 -22 -17 -35t-42 -13q-59 0 -59 48v693q0 36 18.5 48t44.5 12h315q26 0 54 -11t54 -28h-1q26 -19 40 -49.5t14 -70.5v-475q0 -81 -54 -121q-26 -19 -53.5 -29.5t-53.5 -10.5h-168q-17 0 -26.5 14
t-9.5 37q0 50 43 50h136z" />
    <glyph glyph-name="E" unicode="E" horiz-adv-x="576" 
d="M144 -1q-37 0 -50 19t-13 42v674q0 23 13 41.5t50 18.5h348q37 0 39 -50q2 -51 -39 -51h-293v-593h311q37 0 38 -49q2 -52 -38 -52h-366zM455 413q0 -35 -24.5 -59t-59.5 -24q-34 0 -58 24t-24 59t24 59t58 24q35 0 59.5 -24t24.5 -59z" />
    <glyph glyph-name="F" unicode="F" horiz-adv-x="551" 
d="M199 42q0 -48 -59 -48t-59 48v692q0 23 13 41.5t50 18.5h340q36 0 38 -50q2 -51 -38 -51h-285v-651zM455 413q0 -17 -6.5 -32.5t-18 -26.5t-26.5 -17.5t-33 -6.5q-34 0 -58 24t-24 59t24 59t58 24q18 0 33 -6.5t26.5 -18t18 -26.5t6.5 -32z" />
    <glyph glyph-name="G" unicode="G" horiz-adv-x="684" 
d="M491 361q0 49 60 49q59 0 59 -47v-203q0 -81 -54 -121q-26 -19 -53.5 -29.5t-53.5 -10.5h-208q-26 0 -53.5 10.5t-53.5 29.5q-26 20 -40 49.5t-14 71.5v475q0 41 14.5 71t39.5 49h-1q26 17 54 28t54 11h198q26 0 54 -11t54 -28h-1q53 -39 53 -120v-69q0 -48 -59 -48
t-59 48v60q0 25 -15 46t-52 21h-147q-38 0 -53 -21t-15 -46v-458q0 -13 3.5 -25t11.5 -21.5t21 -15.5t32 -6h157q37 0 52 21t15 47v193zM444 372q0 -17 -6.5 -32.5t-18 -26.5t-26.5 -17.5t-33 -6.5q-34 0 -58 24t-24 59q0 34 24 58t58 24q18 0 33 -6.5t26.5 -17.5t18 -26
t6.5 -32z" />
    <glyph glyph-name="H" unicode="H" horiz-adv-x="688" 
d="M503 751q0 48 59 48q60 0 60 -48v-709q0 -48 -60 -48q-59 0 -59 48v709zM199 42q0 -48 -60 -48q-59 0 -59 48v709q0 48 59 48q60 0 60 -48v-709zM433 413q0 -35 -24 -59t-59 -24q-34 0 -58 24t-24 59t24 59t58 24q35 0 59 -24t24 -59z" />
    <glyph glyph-name="I" unicode="I" horiz-adv-x="283" 
d="M203 42q0 -48 -60 -48q-59 0 -59 48v709q0 48 59 48q60 0 60 -48v-709z" />
    <glyph glyph-name="J" unicode="J" horiz-adv-x="540" 
d="M459 160q0 -81 -54 -121q-26 -19 -53.5 -29.5t-53.5 -10.5h-96q-26 0 -53.5 10.5t-53.5 29.5q-53 39 -53 121v66q0 47 58 47q60 0 60 -47v-58q0 -26 15 -47t52 -21h46q37 0 52 21t15 47v583q0 48 59 48q60 0 60 -48v-591z" />
    <glyph glyph-name="K" unicode="K" horiz-adv-x="651" 
d="M503 782q15 18 34 18q21 0 43 -19q11 -11 18.5 -22t7.5 -22q0 -18 -13 -31l-134 -156l-261 -307v-201q0 -48 -60 -48q-59 0 -59 48v709q0 48 59 48q60 0 60 -48v-327zM361 307q-10 14 -10 34q0 30 25 48h-1q20 14 40 14q19 0 32 -22l193 -282l-1 1q9 -14 9 -30
q0 -26 -26 -46h1q-11 -7 -21 -11t-18 -4t-16.5 6t-16.5 15z" />
    <glyph glyph-name="L" unicode="L" horiz-adv-x="580" 
d="M143 -1q-37 0 -50 19t-13 42v691q0 48 58 48q60 0 60 -48v-651h334q36 0 36 -49q2 -52 -36 -52h-389z" />
    <glyph glyph-name="M" unicode="M" horiz-adv-x="859" 
d="M693 799q32 0 70 -15q35 -14 35 -53v-689q0 -48 -59 -48t-59 48v514l-29 3l-40 -130l-120 -400q-11 -35 -54 -34q-19 1 -33 10t-19 26l-72 233q-22 69 -44 140.5t-48 158.5l-29 -4v-517q0 -48 -59 -48t-59 48v689q0 38 35 53q37 15 71 14q15 0 31 -4t30 -11.5t25 -19
t17 -26.5l157 -535q17 59 36 128t39 140t39.5 140.5t36.5 129.5q6 14 17 25t25 18.5t29.5 11.5t30.5 4z" />
    <glyph glyph-name="N" unicode="N" horiz-adv-x="710" 
d="M523 751q0 48 59 48t59 -48v-690q0 -35 -37 -51h1q-16 -7 -34 -11t-35 -4q-13 0 -27 2.5t-26.5 8t-23 15t-16.5 23.5l-217 541l-27 -3v-540q0 -48 -60 -48q-59 0 -59 48v689q0 41 36 55q33 13 70 13q26 0 52.5 -10.5t40.5 -39.5l216 -542l28 3v541z" />
    <glyph glyph-name="O" unicode="O" horiz-adv-x="690" 
d="M458 794q26 0 54 -11t54 -28h-1q26 -19 40 -49.5t14 -70.5v-475q0 -81 -54 -121q-26 -19 -53.5 -29.5t-53.5 -10.5h-218q-26 0 -53.5 10.5t-53.5 29.5q-26 20 -40 49.5t-14 71.5v475q0 40 14 70.5t40 49.5h-1q26 17 54 28t54 11h218zM433 100q37 0 52 21t15 47v458
q0 25 -15 46t-52 21h-168q-37 0 -52 -21t-15 -46v-458q0 -26 15 -47t52 -21h168z" />
    <glyph glyph-name="P" unicode="P" horiz-adv-x="667" 
d="M297 294q-17 0 -26.5 13.5t-9.5 36.5q0 51 42 51h106q37 0 52.5 21t15.5 46v164q0 25 -15.5 46t-52.5 21h-210v-653q0 -48 -60 -48q-58 0 -58 48v694q0 36 18 48t44 12h292q25 0 53 -11t54 -28h-1q26 -19 40 -49.5t14 -70.5v-181q0 -81 -54 -121q-26 -19 -53 -29t-53 -10
h-138z" />
    <glyph glyph-name="Q" unicode="Q" horiz-adv-x="701" 
d="M430 100q27 0 50 14.5t23 48.5l-2 463q0 25 -15 46t-53 21h-168q-37 0 -52.5 -21t-15.5 -46v-458q0 -26 15.5 -47t52.5 -21h165zM438 232q0 -35 -24 -59t-59 -24q-34 0 -58 24t-24 59q0 34 24 58t58 24q35 0 59 -24t24 -58zM659 8q10 -10 10 -25q0 -8 -4 -16t-13 -16
q-18 -19 -32 -19q-11 0 -24 13l-69 69q-39 -15 -68 -15h-218q-26 0 -53.5 10.5t-53.5 29.5q-54 40 -54 121v475q0 40 14 70.5t40 49.5h-1q25 17 53.5 28t54.5 11h218q25 0 53 -11t54 -28h-1q26 -19 40 -49.5t14 -70.5v-475q0 -24 -6.5 -46t-17.5 -41z" />
    <glyph glyph-name="R" unicode="R" horiz-adv-x="674" 
d="M363 329h-77q-17 0 -26.5 13.5t-9.5 36.5q0 51 42 51h117q37 0 52 21t15 46v129q0 25 -15 46t-52 21h-211v-652q0 -48 -59 -48t-59 48v693q0 36 18.5 48t44.5 12h291q26 0 54 -11t54 -28h-1q26 -19 40 -49.5t14 -70.5v-146q0 -81 -54 -121q-11 -8 -23.5 -15t-25.5 -14
l160 -264q3 -5 6 -13t3 -13q0 -24 -34 -46v1q-23 -14 -39 -14q-23 0 -37 23l1 -1z" />
    <glyph glyph-name="S" unicode="S" horiz-adv-x="697" 
d="M459 457q26 0 54 -11t54 -29h-1q26 -18 40 -49t14 -71v-137q0 -81 -54 -121q-26 -19 -53.5 -29.5t-53.5 -10.5h-218q-26 0 -53.5 10.5t-53.5 29.5q-54 40 -54 121v66q0 47 59 47q60 0 60 -47v-58q0 -26 15 -47t52 -21h168q37 0 52 21t15 47v121q0 25 -15 46.5t-52 21.5
h-193q-52 0 -107 38q-54 42 -54 121v119q0 40 14 70.5t40 49.5h-1q26 17 54 28t54 11h218q26 0 54 -11t54 -28h-1q26 -19 40 -49.5t14 -70.5v-59q0 -47 -60 -47q-59 0 -59 47v50q0 25 -15 46t-52 21h-168q-37 0 -52 -21t-15 -46v-102q0 -26 15 -46.5t52 -20.5h193z" />
    <glyph glyph-name="T" unicode="T" horiz-adv-x="567" 
d="M347 40q0 -48 -60 -48q-59 0 -59 48v653h-175q-36 0 -38 51q0 50 38 50h469q38 0 36 -50q0 -51 -36 -51h-175v-653z" />
    <glyph glyph-name="U" unicode="U" horiz-adv-x="692" 
d="M619 160q0 -81 -54 -121q-26 -19 -53.5 -29.5t-53.5 -10.5h-218q-26 0 -53.5 10.5t-53.5 29.5q-26 20 -40 49.5t-14 71.5v591q0 48 59 48q60 0 60 -48v-583q0 -26 15 -47t52 -21h168q37 0 52 21t15 47v583q0 48 59 48q60 0 60 -48v-591z" />
    <glyph glyph-name="V" unicode="V" horiz-adv-x="621" 
d="M315 -5q-20 0 -42.5 6.5t-32.5 24.5q-23 78 -48 160t-50 161q-28 93 -60 193.5t-60 192.5q-6 22 7 38.5t37 24.5q15 4 26 4q34 0 44 -34l74 -237q10 -36 23.5 -79t27.5 -88t28 -89.5t26 -82.5q19 63 41.5 136.5t46 149.5t46.5 150.5t43 139.5q11 34 43 34q12 0 28 -4
q55 -15 43 -63q-54 -175 -109 -353t-109 -354q-8 -20 -29.5 -25.5t-43.5 -5.5z" />
    <glyph glyph-name="W" unicode="W" horiz-adv-x="919" 
d="M792 761l-1 -1q6 22 23.5 32t46.5 5t41.5 -18t5.5 -36l-180 -717v1q-5 -17 -22.5 -26t-36.5 -9q-22 0 -41.5 6.5t-24.5 26.5l1 -1l-123 488h-27l-122 -487q-5 -17 -25 -25t-41 -8q-26 0 -41.5 7.5t-20.5 26.5l1 -1l-180 718q-5 20 9 34.5t40 19.5q56 9 68 -37l-1 1
l45 -181q9 -36 18 -73.5t20 -80t24 -92.5t29 -112l128 540q5 22 23 29t40 7q20 0 39 -7.5t24 -30.5l132 -535z" />
    <glyph glyph-name="X" unicode="X" horiz-adv-x="615" 
d="M489 776q8 11 16.5 18t22.5 7t32 -9q38 -18 38 -46q0 -7 -1.5 -14.5t-5.5 -12.5v1l-193 -328l188 -318q5 -12 5 -24q0 -29 -32 -46q-24 -12 -40 -12q-20 0 -36 23l-172 291q-19 -33 -41 -70t-44.5 -75.5t-45 -75.5t-41.5 -70q-8 -11 -16 -17t-20 -6q-17 0 -39 12
q-34 19 -34 46q0 7 2 12.5t5 12.5v-1q46 79 94.5 160t95.5 161l-191 325q-3 6 -6 14t-3 13q0 27 40 45q16 9 32 9q13 0 22 -7t17 -18l176 -296z" />
    <glyph glyph-name="Y" unicode="Y" horiz-adv-x="622" 
d="M372 40q0 -48 -59 -48t-59 48v266l-224 426q-6 13 -6 27q0 29 34 43h-1q22 8 35 8q26 0 40 -26l182 -342q20 38 43 81.5t46.5 88.5t46.5 89t44 83q8 12 17.5 19t23.5 7t33 -8h-1q35 -15 35 -44q0 -6 -1 -12.5t-5 -13.5q-9 -18 -22.5 -44t-38 -72.5t-63.5 -121
t-100 -191.5v-263z" />
    <glyph glyph-name="Z" unicode="Z" horiz-adv-x="601" 
d="M69 693q-35 0 -37 51q0 50 37 50h439q33 0 51 -10.5t20 -28.5q1 -17 -0.5 -32.5t-7.5 -23.5l-394 -599h362q37 0 37 -49q2 -52 -37 -52h-448q-66 0 -71 40q-2 17 0 31.5t8 22.5q18 28 37.5 58t43.5 66t53.5 81t67.5 102.5t85.5 129.5t107.5 163h-354z" />
    <glyph glyph-name="bracketleft" unicode="[" horiz-adv-x="382" 
d="M322 -46q29 0 30 -43q2 -44 -30 -44h-138q-35 0 -49 18t-14 41v854q0 23 14 41t49 18h138q32 0 30 -44q-1 -43 -30 -43h-90v-798h90z" />
    <glyph glyph-name="backslash" unicode="\" horiz-adv-x="360" 
d="M18 819h84q60 -236 117.5 -465.5t118.5 -466.5h-84z" />
    <glyph glyph-name="bracketright" unicode="]" horiz-adv-x="382" 
d="M262 -74q0 -23 -13 -41t-49 -18h-138q-32 0 -30 44q1 43 30 43h89v798h-89q-29 0 -30 43q-2 44 30 44h138q36 0 49 -18t13 -41v-854z" />
    <glyph glyph-name="asciicircum" unicode="^" 
d="M743 556q8 -11 8 -22q0 -14 -10 -18q-11 -7 -24 -5t-26 16l-190 194l-192 -194q-27 -27 -53 -15q-9 9 -9 20q0 5 2.5 12t6.5 12q44 58 89 119t88 118q27 31 65 33q20 1 37 -8t31 -25z" />
    <glyph glyph-name="underscore" unicode="_" horiz-adv-x="500" 
d="M11 -163v83h478v-83h-478z" />
    <glyph glyph-name="a" unicode="a" horiz-adv-x="610" 
d="M222 0q-31 0 -59 8.5t-54 24.5v-1q-49 31 -49 114v49q0 41 14.5 71.5t40.5 48.5h-1q25 17 53 25.5t54 8.5h221v93q0 25 -15.5 45.5t-52.5 20.5h-117q-38 0 -52.5 -18.5t-14.5 -43.5v-8q0 -52 -56 -52t-56 52v9q0 41 14.5 69t39.5 47h-1q26 17 54.5 28t54.5 11h152
q25 0 53.5 -11t53.5 -28h-1q26 -19 40 -49.5t14 -70.5v-401q0 -48 -55 -48q-11 0 -20.5 1t-17 5.5t-12 13t-4.5 22.5l-1 219h-202q-22 0 -34 -5t-19 -16q-8 -17 -11.5 -26.5t-3.5 -21.5v-39q0 -26 15.5 -39.5t53.5 -13.5h112q37 0 37 -47q0 -20 -9 -33.5t-28 -13.5h-131z
" />
    <glyph glyph-name="b" unicode="b" horiz-adv-x="604" 
d="M180 42q0 -24 -17 -36t-37 -12q-55 0 -55 48v710q0 48 55 48t55 -48v-150h211q51 0 106 -38q54 -38 54 -120v-298q0 -83 -49 -114q-49 -32 -112 -32h-118q-36 0 -38 47q0 47 38 47h100q37 0 53 13.5t16 39.5v288q0 26 -16 50l1 -1q-13 24 -53 24h-193z" />
    <glyph glyph-name="c" unicode="c" horiz-adv-x="606" 
d="M552 159q0 -82 -54 -121q-53 -38 -106 -38h-168q-53 0 -103 38q-24 20 -37 50.5t-13 70.5v285q0 81 50 120q25 18 51.5 28.5t51.5 10.5h168q24 0 53 -9.5t54 -25.5q24 -17 38.5 -47t14.5 -71v-50q0 -48 -55 -48t-55 48v43q0 25 -15.5 45.5t-52.5 20.5h-125
q-37 0 -52.5 -20.5t-15.5 -45.5v-283q0 -24 15.5 -45t52.5 -21h125q37 0 52.5 21t15.5 45v46q0 47 55 47t55 -47v-47z" />
    <glyph glyph-name="d" unicode="d" horiz-adv-x="613" 
d="M442 508h-193q-41 0 -54 -24q-14 -21 -14 -49v-288q0 -26 16 -39.5t53 -13.5h103q36 0 36 -47q0 -20 -8.5 -33.5t-27.5 -13.5h-121q-63 0 -112 32q-49 30 -49 114v298q0 41 13 71t41 49q53 38 106 38h211v150q0 48 55 48t55 -48v-710q0 -48 -55 -48q-21 0 -38 7.5
t-17 33.5v473z" />
    <glyph glyph-name="e" unicode="e" horiz-adv-x="608" 
d="M181 160q0 -24 15.5 -45t52.5 -21h125q37 0 52.5 18.5t15.5 42.5v11q0 47 55 47t55 -47v-12q0 -42 -13.5 -69t-40.5 -47q-53 -38 -106 -38h-168q-53 0 -103 38q-24 20 -37 50.5t-13 70.5v285q0 81 50 120q25 18 51.5 28.5t51.5 10.5h168q24 0 53 -9.5t54 -25.5
q24 -17 38.5 -47t14.5 -71v-135q0 -23 -13.5 -41t-49.5 -18h-216q-36 0 -38 47q0 47 38 47h170l-1 93q0 25 -15.5 45.5t-52.5 20.5h-125q-37 0 -52.5 -20.5t-15.5 -45.5v-283z" />
    <glyph glyph-name="f" unicode="f" horiz-adv-x="336" 
d="M210 42q0 -48 -56 -48q-55 0 -55 48v466h-48q-36 0 -38 47q0 47 38 47h48v48q0 41 11.5 69.5t37.5 43.5v-1q26 16 53.5 25t58.5 9h24q37 0 37 -47q2 -47 -37 -47h-16q-19 0 -30.5 -3.5t-17.5 -10.5t-8 -17t-2 -22v-47h75q39 0 37 -47q0 -47 -37 -47h-75v-466z" />
    <glyph glyph-name="g" unicode="g" horiz-adv-x="615" 
d="M232 70q-26 0 -53.5 9t-53.5 26q-54 35 -54 118v226q0 42 14.5 72t39.5 47q26 16 53 25t53 9h168q25 0 52 -11t50 -28q23 -19 37 -50t14 -70v-424q0 -42 -13.5 -71.5t-37.5 -49.5q-23 -19 -49.5 -29.5t-52.5 -10.5h-168q-53 0 -107 31q-28 16 -40.5 41t-12.5 58v12
q0 20 13 32t41 12q56 -6 56 -44v-11q0 -11 15.5 -24t52.5 -13h125q37 0 52.5 21t15.5 47v422q0 25 -15.5 45.5t-52.5 20.5h-125q-37 0 -52.5 -20.5t-15.5 -45.5v-211q0 -25 15.5 -46.5t52.5 -21.5h104q36 0 36 -46q0 -21 -8.5 -34t-27.5 -13h-121z" />
    <glyph glyph-name="h" unicode="h" horiz-adv-x="613" 
d="M181 42q0 -48 -55 -48t-55 48v710q0 48 55 48t55 -48v-150h211q51 0 106 -38q54 -38 54 -120v-402q0 -48 -55 -48t-55 48v393q0 26 -16 50l1 -1q-13 24 -53 24h-193v-466z" />
    <glyph glyph-name="i" unicode="i" horiz-adv-x="252" 
d="M184 42q0 -48 -55 -48q-56 0 -56 48v516q0 48 56 48q55 0 55 -48v-516zM205 732q0 -32 -22 -54t-54 -22t-54.5 22t-22.5 54q0 33 22.5 55t54.5 22t54 -22t22 -55z" />
    <glyph glyph-name="j" unicode="j" horiz-adv-x="271" 
d="M201 -23q0 -83 -49 -115v1q-26 -15 -53.5 -23.5t-59.5 -8.5h-24q-37 0 -37 46q-1 23 9 35t28 12h16q36 0 47.5 14.5t11.5 38.5v582q0 48 55 48q56 0 56 -48v-582zM218 732q0 -32 -22.5 -54t-54.5 -22t-54 22t-22 54q0 33 22 55t54 22t54.5 -22t22.5 -55z" />
    <glyph glyph-name="k" unicode="k" horiz-adv-x="533" 
d="M181 167v-127q0 -47 -55 -47t-55 47v712q0 48 55 48t55 -48v-424q25 30 55.5 64.5t61 70t60.5 70t56 64.5v-1q18 21 36 21q10 0 19.5 -4.5t20.5 -12.5h-1q24 -20 24 -40q0 -7 -3 -15.5t-10 -14.5zM515 67q7 -13 7 -27q0 -26 -30 -39q-20 -12 -36 -12q-11 0 -21 7.5
t-16 18.5l-100 193q-9 15 -9 30q0 25 26 42q7 5 14.5 9t16.5 6q11 2 21 -4t17 -16z" />
    <glyph glyph-name="l" unicode="l" horiz-adv-x="252" 
d="M185 39q0 -47 -55 -47q-56 0 -56 47v717q0 47 56 47q55 0 55 -47v-717z" />
    <glyph glyph-name="m" unicode="m" horiz-adv-x="854" 
d="M381 435q0 13 -4 25.5t-10 23.5q-13 24 -54 24h-64q-41 0 -55 -24q-12 -23 -12 -49v-396q0 -47 -55 -47q-57 0 -57 47v405q0 82 54 120q55 38 107 38h101q23 0 51 -9t54 -28q25 19 52.5 28t52.5 9h100q53 0 106 -38q55 -37 55 -120v-405q0 -47 -56 -47t-56 47v396
q0 13 -3 26t-11 24l1 -1q-8 13 -20 18.5t-35 5.5h-63q-42 0 -55 -24q-13 -22 -13 -49v-396q0 -47 -55 -47q-56 0 -56 47v396z" />
    <glyph glyph-name="n" unicode="n" horiz-adv-x="610" 
d="M181 42q0 -48 -55 -48t-55 48v402q0 41 13 71t41 49q53 38 106 38h161q51 0 106 -38q54 -38 54 -120v-402q0 -48 -55 -48t-55 48v393q0 26 -16 50l1 -1q-13 24 -53 24h-125q-41 0 -54 -24q-14 -21 -14 -49v-393z" />
    <glyph glyph-name="o" unicode="o" horiz-adv-x="606" 
d="M391 602q26 0 53.5 -11t53.5 -28h-1q26 -19 40 -49.5t14 -70.5v-284q0 -82 -54 -121q-53 -38 -106 -38h-160q-26 0 -53 9t-53 29q-54 38 -54 121v284q0 40 14 70.5t40 49.5h-1q25 17 53 28t54 11h160zM373 94q37 0 52.5 21t15.5 45v282q0 25 -15.5 45.5t-52.5 20.5h-124
q-37 0 -52.5 -20.5t-15.5 -45.5v-282q0 -24 15.5 -45t52.5 -21h124z" />
    <glyph glyph-name="p" unicode="p" horiz-adv-x="606" 
d="M273 0q-36 0 -38 47q0 47 38 47h101q37 0 52.5 21t15.5 45v282q0 25 -15.5 46.5t-53.5 19.5h-192v-601q0 -47 -55 -47t-55 48v635q0 35 18 47t44 12h259q26 0 52.5 -9t54.5 -25q24 -17 38.5 -47.5t14.5 -71.5v-296q0 -82 -53 -117q-56 -36 -107 -36h-119z" />
    <glyph glyph-name="q" unicode="q" horiz-adv-x="608" 
d="M232 0q-26 0 -56 6t-56 23q-28 17 -38.5 49.5t-10.5 74.5v296q0 42 14.5 72t39.5 47q26 16 53 25t53 9h161q26 0 52.5 -9t54.5 -25q24 -17 38.5 -47.5t14.5 -71.5v-544q0 -48 -55 -48t-55 47v538q0 25 -15.5 45.5t-52.5 20.5h-125q-37 0 -52.5 -20.5t-15.5 -45.5v-282
q0 -24 15.5 -45t52.5 -21h104q36 0 36 -47q0 -20 -8.5 -33.5t-27.5 -13.5h-121z" />
    <glyph glyph-name="r" unicode="r" horiz-adv-x="394" 
d="M179 42q0 -48 -55 -48q-57 0 -57 48v414q0 82 49 114t113 32h114q37 0 37 -47q2 -47 -37 -47h-106q-36 0 -47 -14t-11 -39v-413z" />
    <glyph glyph-name="s" unicode="s" horiz-adv-x="615" 
d="M396 350q25 0 53.5 -11.5t53.5 -28.5h-1q26 -19 40 -49t14 -72v-30q0 -82 -54 -121q-26 -20 -53 -29t-53 -9h-170q-26 0 -53 9t-53 29q-54 38 -54 121v12q0 43 55 42q56 0 56 -42v-11q0 -24 15 -45t53 -21h132q38 0 53 21t15 45v28q0 13 -3.5 25t-11.5 21.5t-21 15.5
t-32 6h-146q-51 0 -107 36q-53 34 -53 117v34q0 40 14 70.5t40 49.5h-1q25 17 53 28t54 11h160q26 0 53.5 -11t53.5 -28h-1q26 -19 40 -49.5t14 -70.5v-9q0 -21 -14 -30.5t-41 -10.5q-55 -1 -55 41v8q0 25 -15.5 45.5t-52.5 20.5h-124q-37 0 -52.5 -20.5t-15.5 -45.5v-24
q0 -26 15.5 -47t52.5 -21h147z" />
    <glyph glyph-name="t" unicode="t" horiz-adv-x="339" 
d="M202 508v-364q0 -26 11 -40t47 -14h26q39 0 37 -46q0 -47 -37 -47h-33q-32 0 -60 8.5t-54 24.5v-1q-49 32 -49 114v365h-39q-36 0 -38 47q0 47 38 47h39v107q0 48 57 48q55 0 55 -48v-107h83q39 0 37 -47q0 -47 -37 -47h-83z" />
    <glyph glyph-name="u" unicode="u" horiz-adv-x="606" 
d="M552 159q0 -40 -14 -71t-40 -50h1q-25 -17 -53 -27.5t-54 -10.5h-161q-25 0 -53.5 10.5t-53.5 27.5h1q-26 19 -40 50t-14 71v401q0 48 55 48t55 -48v-393q0 -28 14 -49q13 -24 54 -24h125q40 0 53 24l-1 -1q16 24 16 50v393q0 48 55 48t55 -48v-401z" />
    <glyph glyph-name="v" unicode="v" horiz-adv-x="552" 
d="M275 -6q-2 0 -5 0.5t-6 0.5h-14t-17 1q-17 1 -29 9.5t-17 20.5l-168 516q-5 21 5.5 37.5t33.5 24.5q7 2 14 3t12 1q31 0 43 -34l73 -227l77 -238l150 465q11 35 40 35q11 0 28 -5q26 -7 36 -23.5t3 -38.5l-167 -516q-9 -28 -47 -30q-2 0 -4.5 -0.5t-4.5 -0.5
q-8 -1 -14 -1h-11h-11z" />
    <glyph glyph-name="w" unicode="w" horiz-adv-x="718" 
d="M281 31l1 1q-7 -23 -27 -30t-40 -7q-19 0 -39.5 7t-26.5 30l1 -1l-131 518q-12 42 39 56q49 13 63 -34v1l81 -326h27l81 326q5 21 22.5 27.5t32.5 6.5q17 0 33.5 -7.5t22.5 -26.5q9 -36 16.5 -67t14.5 -60t13.5 -57t14.5 -58l22 -85h27q20 81 40.5 163.5t40.5 163.5
l-1 -1q14 47 63 34q51 -12 39 -56l-130 -518l1 1q-6 -23 -26.5 -30t-40.5 -7q-19 0 -39 7t-27 30l1 -1l-71 281h-27z" />
    <glyph glyph-name="x" unicode="x" horiz-adv-x="503" 
d="M320 306l168 -237q7 -10 7 -22q0 -21 -30 -42q-19 -13 -36 -13q-10 0 -20.5 7t-19.5 18l-137 193q-15 -21 -32.5 -46t-35.5 -50.5t-35.5 -50.5t-32.5 -46q-19 -25 -41 -25q-19 0 -36 13q-14 10 -21.5 19.5t-7.5 21.5t8 23l166 237q-37 53 -78 111t-78 112q-4 7 -7.5 15.5
t-3.5 13.5q0 21 28 39h-1q10 5 18.5 8.5t16.5 3.5q27 0 47 -29l126 -179l126 179q21 29 47 29q9 0 17 -3.5t18 -8.5h-1q29 -18 29 -39q0 -12 -12 -29z" />
    <glyph glyph-name="y" unicode="y" horiz-adv-x="495" 
d="M103 -140q-35 0 -37 47q0 47 37 47h44q35 0 46 21l14 37l5 16l-195 511v-1q-8 24 3.5 41t35.5 25q18 5 29 5q29 0 36 -34l79 -197l67 -164l107 359q9 36 42 36q8 0 26 -5q24 -7 34.5 -23t4.5 -38q-45 -153 -91.5 -308t-91.5 -307q-5 -11 -15.5 -22.5t-27.5 -22t-42 -17
t-58 -6.5h-52z" />
    <glyph glyph-name="z" unicode="z" horiz-adv-x="500" 
d="M64 508q-36 0 -38 47q0 47 38 47h347q32 0 50.5 -10.5t20.5 -28.5q1 -16 -0.5 -32t-7.5 -24l-307 -413h283q36 0 36 -47q2 -24 -8 -35.5t-28 -11.5h-359q-65 0 -70 38q-3 35 7 57l308 413h-272z" />
    <glyph glyph-name="braceleft" unicode="{" horiz-adv-x="500" 
d="M374 -135q-89 0 -123 28h1q-35 30 -35 117v158q0 38 -6 64.5t-20 43t-37.5 24t-58.5 7.5q-30 0 -32 43q-2 45 32 45q66 0 94 31.5t28 107.5v158q0 93 44 122q15 12 44 17.5t69 5.5h47q30 0 30 -43q1 -42 -31 -42h-32q-34 0 -60 -13q-5 -8 -10 -23.5t-5 -37.5v-173
q0 -57 -28.5 -95.5t-76.5 -59.5q48 -19 76.5 -56.5t28.5 -96.5v-173q0 -27 5.5 -42t14.5 -21q19 -11 55 -11h33q34 0 34 -42q1 -43 -34 -43h-47z" />
    <glyph glyph-name="bar" unicode="|" horiz-adv-x="500" 
d="M210 -163v1029h81v-1029h-81z" />
    <glyph glyph-name="braceright" unicode="}" horiz-adv-x="500" 
d="M405 307q-35 0 -58.5 -7.5t-37.5 -24t-19.5 -43t-5.5 -64.5v-158q0 -45 -9 -73.5t-26 -43.5h1q-36 -28 -124 -28h-47q-33 0 -33 43q0 42 33 42h33q20 0 33 3t22 8q10 6 15 21t5 42v173q0 60 28 97t78 56q-48 20 -77 58t-29 97v173q0 51 -20 63q-9 5 -22 8t-33 3h-33
q-31 0 -31 42q1 43 31 43h47q84 0 120 -27q38 -27 38 -118v-158q0 -76 27.5 -107.5t93.5 -31.5q37 0 32 -45q-1 -43 -32 -43z" />
    <glyph glyph-name="uni3131" unicode="&#x3131;" 
d="M838 99q0 -48 -59.5 -48t-59.5 48v436q0 4 -1 7t-8 3h-512q-37 0 -37.5 50.5t37.5 50.5h577q36 0 49.5 -18.5t13.5 -41.5v-487z" />
    <glyph glyph-name="uni3132" unicode="&#x3132;" 
d="M864 100q0 -48 -59.5 -48t-59.5 48v435q0 4 -1 7t-8 3h-209q-37 0 -37.5 50.5t37.5 50.5h274q36 0 49.5 -18.5t13.5 -41.5v-486zM454 100q0 -48 -59.5 -48t-59.5 48v435q0 4 -1 7t-8 3h-192q-37 0 -37.5 50.5t37.5 50.5h257q36 0 49.5 -18.5t13.5 -41.5v-486z" />
    <glyph glyph-name="uni3133" unicode="&#x3133;" 
d="M452 100q0 -48 -59.5 -48t-59.5 48v435q0 4 -1 7t-8 3h-210q-37 0 -37.5 50.5t37.5 50.5h275q36 0 49.5 -18.5t13.5 -41.5v-486zM579 81q-12 -34 -70 -24.5t-38 66.5l176 486q9 24 26 32.5t39 8.5q23 0 39.5 -8t25.5 -33l176 -486q21 -57 -37.5 -66.5t-70.5 24.5
l-133 368z" />
    <glyph glyph-name="uni3134" unicode="&#x3134;" 
d="M224 62q-36 0 -49.5 18.5t-13.5 41.5v485q0 48 59.5 48t59.5 -48v-434q0 -4 1 -7t8 -3h545q37 0 37.5 -50.5t-37.5 -50.5h-610z" />
    <glyph glyph-name="uni3135" unicode="&#x3135;" 
d="M471 538q-37 0 -37.5 50.5t37.5 50.5h394q39 0 38.5 -50.5t-38.5 -50.5h-134l178 -413q20 -57 -38 -66.5t-70 24.5l-133 320l-133 -320q-10 -27 -53 -26t-57 29q-4 -10 -12 -16.5t-20 -6.5h-210q-36 0 -49.5 18.5t-13.5 41.5v486q0 48 59.5 48t59.5 -48v-435q0 -4 1 -7
t8 -3h145q14 0 23 -10.5t13 -24.5l176 409h-134z" />
    <glyph glyph-name="uni3136" unicode="&#x3136;" 
d="M782 261q0 46 -30 76.5t-70 30.5t-70.5 -30.5t-30.5 -76.5t30.5 -76.5t70.5 -30.5t70 30.5t30 76.5zM183 73q-36 0 -49.5 18.5t-13.5 41.5v476q0 48 59.5 48t59.5 -48v-425q0 -4 1 -7t8 -3h175q37 0 37.5 -50.5t-37.5 -50.5h-240zM622 637q0 48 59.5 48t59.5 -48v-73h166
q39 0 38.5 -50.5t-38.5 -50.5h-173q72 -17 119 -73.5t47 -128.5q0 -85 -63.5 -146.5t-154.5 -61.5q-92 0 -156 61.5t-64 146.5q0 73 47 129.5t120 72.5h-186q-37 0 -37.5 50.5t37.5 50.5h179v73z" />
    <glyph glyph-name="uni3137" unicode="&#x3137;" 
d="M224 62q-36 0 -49.5 18.5t-13.5 41.5v465q0 23 13.5 41.5t49.5 18.5h586q38 0 39 -50.5t-39 -50.5h-521q-7 0 -8 -3t-1 -7v-363q0 -4 1 -7t8 -3h541q38 0 39 -50.5t-39 -50.5h-606z" />
    <glyph glyph-name="uni3138" unicode="&#x3138;" 
d="M186 63q-36 0 -49.5 18.5t-13.5 41.5v463q0 23 13.5 41.5t49.5 18.5h252q38 0 39 -50.5t-39 -50.5h-187q-7 0 -8 -3t-1 -7v-361q0 -4 1 -7t8 -3h200q38 0 39 -50.5t-39 -50.5h-265zM594 63q-36 0 -49.5 18.5t-13.5 41.5v463q0 23 13.5 41.5t49.5 18.5h252q38 0 39 -50.5
t-39 -50.5h-187q-7 0 -8 -3t-1 -7v-361q0 -4 1 -7t8 -3h200q38 0 39 -50.5t-39 -50.5h-265z" />
    <glyph glyph-name="uni3139" unicode="&#x3139;" 
d="M838 364q0 -23 -13.5 -41.5t-49.5 -18.5h-485q-7 0 -8 -3t-1 -7v-121q0 -4 1 -7t8 -3h546q38 0 37.5 -50.5t-37.5 -50.5h-611q-36 0 -49.5 18.5t-13.5 41.5v223q0 23 13.5 41.5t49.5 18.5h485q7 0 8 3t1 7v120q0 4 -1 7t-8 3h-511q-37 0 -37.5 50.5t37.5 50.5h576
q36 0 49.5 -18.5t13.5 -41.5v-222z" />
    <glyph glyph-name="uni313A" unicode="&#x313a;" 
d="M484 364q0 -23 -13.5 -41.5t-49.5 -18.5h-173q-7 0 -8 -3t-1 -7v-121q0 -4 1 -7t8 -3h244q38 0 37.5 -50.5t-37.5 -50.5h-309q-36 0 -49.5 18.5t-13.5 41.5v223q0 23 13.5 41.5t49.5 18.5h173q7 0 8 3t1 7v121q0 4 -1 7t-8 3h-204q-37 0 -37.5 50.5t37.5 50.5h269
q36 0 49.5 -18.5t13.5 -41.5v-223zM880 101q0 -48 -59.5 -48t-59.5 48v435q0 4 -1 7t-8 3h-198q-37 0 -37.5 50.5t37.5 50.5h263q36 0 49.5 -18.5t13.5 -41.5v-486z" />
    <glyph glyph-name="uni313B" unicode="&#x313b;" 
d="M470 364q0 -23 -13.5 -41.5t-49.5 -18.5h-159q-7 0 -8 -3t-1 -7v-121q0 -4 1 -7t8 -3h214q38 0 37.5 -50.5t-37.5 -50.5h-279q-36 0 -49.5 18.5t-13.5 41.5v223q0 23 13.5 41.5t49.5 18.5h159q7 0 8 3t1 7v121q0 4 -1 7t-8 3h-190q-37 0 -37.5 50.5t37.5 50.5h255
q36 0 49.5 -18.5t13.5 -41.5v-223zM880 122q0 -23 -13.5 -41.5t-49.5 -18.5h-227q-36 0 -49.5 18.5t-13.5 41.5v465q0 23 13.5 41.5t49.5 18.5h227q36 0 49.5 -18.5t13.5 -41.5v-465zM761 536q0 4 -1 7t-8 3h-97q-7 0 -8 -3t-1 -7v-363q0 -4 1 -7t8 -3h97q7 0 8 3t1 7v363z
" />
    <glyph glyph-name="uni313C" unicode="&#x313c;" 
d="M470 364q0 -23 -13.5 -41.5t-49.5 -18.5h-159q-7 0 -8 -3t-1 -7v-121q0 -4 1 -7t8 -3h214q38 0 37.5 -50.5t-37.5 -50.5h-279q-36 0 -49.5 18.5t-13.5 41.5v223q0 23 13.5 41.5t49.5 18.5h159q7 0 8 3t1 7v121q0 4 -1 7t-8 3h-190q-37 0 -37.5 50.5t37.5 50.5h255
q36 0 49.5 -18.5t13.5 -41.5v-223zM647 178q0 -4 1 -7t8 -3h96q7 0 8 3t1 7v197h-81q-12 0 -20 7.5t-13 18.5v-223zM761 603q0 48 59.5 48t59.5 -48v-476q-1 -23 -14 -41.5t-49 -18.5h-226q-36 0 -49.5 18.5t-13.5 41.5v476q0 48 59.5 48t59.5 -48v-152q5 11 13 18t20 7h81
v127z" />
    <glyph glyph-name="uni313D" unicode="&#x313d;" 
d="M482 69q-4 -3 -9 -5t-11 -2h-279q-36 0 -49.5 18.5t-13.5 41.5v223q0 23 13.5 41.5t49.5 18.5h173q7 0 8 3t1 7v121q0 4 -1 7t-8 3h-204q-37 0 -37.5 50.5t37.5 50.5h269q36 0 49.5 -18.5t13.5 -41.5v-223q0 -23 -13.5 -41.5t-49.5 -18.5h-173q-7 0 -8 -3t-1 -7v-121
q0 -4 1 -7t8 -3h214q6 0 11.5 -2t9.5 -5l164 453q9 24 26 32.5t39 8.5q23 0 39.5 -8t25.5 -33l176 -486q21 -57 -37.5 -66.5t-70.5 24.5l-133 368l-133 -368q-8 -23 -41.5 -26.5t-55.5 14.5z" />
    <glyph glyph-name="uni313E" unicode="&#x313e;" 
d="M470 366q0 -23 -13.5 -41.5t-49.5 -18.5h-159q-7 0 -8 -3t-1 -7v-123q0 -4 1 -7t8 -3h214q38 0 37.5 -50.5t-37.5 -50.5h-279q-36 0 -49.5 18.5t-13.5 41.5v225q0 23 13.5 41.5t49.5 18.5h159q7 0 8 3t1 7v119q0 4 -1 7t-8 3h-190q-37 0 -37.5 50.5t37.5 50.5h255
q36 0 49.5 -18.5t13.5 -41.5v-221zM837 407q38 0 37.5 -50.5t-37.5 -50.5h-191v-131q0 -4 1 -7t8 -3h207q38 0 39 -50.5t-39 -50.5h-272q-36 0 -49.5 18.5t-13.5 41.5v463q0 23 13.5 41.5t49.5 18.5h249q38 0 39 -50.5t-39 -50.5h-184q-7 0 -8 -3t-1 -7v-129h191z" />
    <glyph glyph-name="uni313F" unicode="&#x313f;" 
d="M524 550q-37 0 -37.5 48.5t37.5 48.5h341q39 0 38.5 -48.5t-38.5 -48.5h-341zM488 98q-3 -15 -12 -25.5t-24 -10.5h-269q-36 0 -49.5 18.5t-13.5 41.5v225q0 23 13.5 41.5t49.5 18.5h149q7 0 8 3t1 7v119q0 4 -1 7t-8 3h-180q-37 0 -37.5 50.5t37.5 50.5h245
q36 0 49.5 -18.5t13.5 -41.5v-221q0 -23 -13.5 -41.5t-49.5 -18.5h-149q-7 0 -8 -3t-1 -7v-123q0 -4 1 -7t8 -3h204q15 0 24 -10.5t12 -25.5q3 14 12 23.5t24 9.5h18v306q0 48 59.5 48t59.5 -48v-306h71v306q0 48 59.5 48t59.5 -48v-306h24q39 0 38.5 -48.5t-38.5 -48.5
h-351q-15 0 -24 10.5t-12 24.5z" />
    <glyph glyph-name="uni3140" unicode="&#x3140;" 
d="M473 366q0 -23 -13.5 -41.5t-49.5 -18.5h-162q-7 0 -8 -3t-1 -7v-123q0 -4 1 -7t8 -3h217q38 0 37.5 -50.5t-37.5 -50.5h-282q-36 0 -49.5 18.5t-13.5 41.5v225q0 23 13.5 41.5t49.5 18.5h162q7 0 8 3t1 7v119q0 4 -1 7t-8 3h-193q-37 0 -37.5 50.5t37.5 50.5h258
q36 0 49.5 -18.5t13.5 -41.5v-221zM800 255q0 43 -28 72t-65 29t-65.5 -29t-28.5 -72t28.5 -72t65.5 -29t65 29t28 72zM518 453q-37 0 -37.5 50.5t37.5 50.5h129v63q0 48 59.5 48t59.5 -48v-63h136q39 0 38.5 -50.5t-38.5 -50.5h-153q73 -14 121 -69.5t48 -128.5
q0 -82 -61.5 -142t-149.5 -60q-89 0 -151 59.5t-62 142.5q0 73 48.5 128.5t122.5 69.5h-147z" />
    <glyph glyph-name="uni3141" unicode="&#x3141;" 
d="M838 122q0 -23 -13.5 -41.5t-49.5 -18.5h-551q-36 0 -49.5 18.5t-13.5 41.5v465q0 23 13.5 41.5t49.5 18.5h551q36 0 49.5 -18.5t13.5 -41.5v-465zM719 536q0 4 -1 7t-8 3h-421q-7 0 -8 -3t-1 -7v-363q0 -4 1 -7t8 -3h421q7 0 8 3t1 7v363z" />
    <glyph glyph-name="uni3142" unicode="&#x3142;" 
d="M718 602q0 48 59.5 48t59.5 -48v-479q-1 -23 -14 -41.5t-49 -18.5h-549q-36 0 -49.5 18.5t-13.5 41.5v479q0 48 59.5 48t59.5 -48v-428q0 -4 1 -7t8 -3h419q7 0 8 3t1 7v189h-379q-37 0 -37.5 50.5t37.5 50.5h379v138z" />
    <glyph glyph-name="uni3143" unicode="&#x3143;" 
d="M239 178q0 -4 1 -7t8 -3h96q7 0 8 3t1 7v197h-81q-12 0 -20 7.5t-13 18.5v-223zM353 603q0 48 59.5 48t59.5 -48v-476q-1 -23 -14 -41.5t-49 -18.5h-226q-36 0 -49.5 18.5t-13.5 41.5v476q0 48 59.5 48t59.5 -48v-152q5 11 13 18t20 7h81v127zM647 178q0 -4 1 -7t8 -3h96
q7 0 8 3t1 7v197h-81q-12 0 -20 7.5t-13 18.5v-223zM761 603q0 48 59.5 48t59.5 -48v-476q-1 -23 -14 -41.5t-49 -18.5h-226q-36 0 -49.5 18.5t-13.5 41.5v476q0 48 59.5 48t59.5 -48v-152q5 11 13 18t20 7h81v127z" />
    <glyph glyph-name="uni3144" unicode="&#x3144;" 
d="M239 178q0 -4 1 -7t8 -3h118q7 0 8 3t1 7v191h-103q-12 0 -20 7.5t-13 18.5v-217zM480 85q-7 -8 -19 -13t-30 -5h-248q-36 0 -49.5 18.5t-13.5 41.5v481q0 48 59.5 48t59.5 -48v-163q5 11 13 18t20 7h103v138q0 48 59.5 48t59.5 -48v-446l153 452q8 25 25.5 33t39.5 8
q23 0 40 -7.5t25 -33.5l166 -491q20 -57 -38 -66.5t-70 24.5l-123 364l-123 -364q-10 -28 -53 -27t-56 31z" />
    <glyph glyph-name="uni3145" unicode="&#x3145;" 
d="M220 71q-28 -40 -77 -5.5t-21 73.5l318 488q11 16 26.5 21t34.5 5q18 0 35 -5t27 -21l318 -488q26 -40 -22 -74t-76 6l-281 432z" />
    <glyph glyph-name="uni3146" unicode="&#x3146;" 
d="M503 57q-19 0 -33.5 6.5t-21.5 25.5l-128 366l-129 -366q-17 -47 -70.5 -29t-37.5 64l182 498q7 18 21.5 24.5t32.5 6.5q19 0 33.5 -6.5t21.5 -24.5l128 -372l129 372q7 18 21.5 24.5t32.5 6.5q19 0 33.5 -6.5t21.5 -24.5l182 -498q17 -46 -37 -64t-71 29l-128 366
l-129 -366q-7 -19 -21.5 -25.5t-32.5 -6.5z" />
    <glyph glyph-name="uni3147" unicode="&#x3147;" 
d="M825 354q0 -130 -95.5 -222.5t-229.5 -92.5t-229.5 92.5t-95.5 222.5q0 131 95.5 223t229.5 92t229.5 -92t95.5 -223zM704 354q0 92 -58 152.5t-146 60.5t-146 -60.5t-58 -152.5q0 -91 58 -152t146 -61t146 61t58 152z" />
    <glyph glyph-name="uni3148" unicode="&#x3148;" 
d="M188 546q-37 0 -37.5 50.5t37.5 50.5h624q39 0 38.5 -50.5t-38.5 -50.5h-227l276 -407q26 -39 -22 -74.5t-76 6.5l-261 385l-262 -385q-26 -40 -76 -7t-22 75l275 407h-229z" />
    <glyph glyph-name="uni3149" unicode="&#x3149;" 
d="M158 546q-37 0 -37.5 50.5t37.5 50.5h684q39 0 38.5 -50.5t-38.5 -50.5h-101l161 -423q17 -46 -37 -64t-71 29l-114 313l-123 -313q-7 -19 -21 -25t-32 -6q-19 0 -34 6.5t-22 25.5l-114 313l-123 -313q-20 -49 -73.5 -30t-34.5 65l173 422h-118zM395 546l110 -307
l117 307h-227z" />
    <glyph glyph-name="uni314A" unicode="&#x314a;" 
d="M178 459q-37 0 -37.5 50.5t37.5 50.5h262v96q0 48 59.5 48t59.5 -48v-96h263q39 0 38.5 -50.5t-38.5 -50.5h-245l281 -320q33 -37 -12.5 -72t-80.5 4l-265 307l-265 -307q-34 -39 -80 -4t-13 72l280 320h-244z" />
    <glyph glyph-name="uni314B" unicode="&#x314b;" 
d="M150 294q-37 0 -37.5 50.5t37.5 50.5h569v140q0 4 -1 7t-8 3h-522q-37 0 -37.5 50.5t37.5 50.5h587q36 0 49.5 -18.5t13.5 -41.5v-487q0 -48 -59.5 -48t-59.5 48v195h-569z" />
    <glyph glyph-name="uni314C" unicode="&#x314c;" 
d="M800 407q38 0 37.5 -50.5t-37.5 -50.5h-519v-130q0 -4 1 -7t8 -3h535q38 0 39 -50.5t-39 -50.5h-600q-36 0 -49.5 18.5t-13.5 41.5v460q0 23 13.5 41.5t49.5 18.5h577q38 0 39 -50.5t-39 -50.5h-512q-7 0 -8 -3t-1 -7v-127h519z" />
    <glyph glyph-name="uni314D" unicode="&#x314d;" 
d="M183 546q-37 0 -37.5 50.5t37.5 50.5h634q39 0 38.5 -50.5t-38.5 -50.5h-634zM594 164v305q0 48 59.5 48t59.5 -48v-305h134q39 0 38.5 -50.5t-38.5 -50.5h-694q-37 0 -37.5 50.5t37.5 50.5h136v305q0 48 59.5 48t59.5 -48v-305h186z" />
    <glyph glyph-name="uni314E" unicode="&#x314e;" 
d="M649 300q0 70 -43.5 119t-105.5 49t-105 -49t-43 -119t43 -119t105 -49t105.5 49t43.5 119zM440 656q0 48 59.5 48t59.5 -48v-86h271q39 0 38.5 -50.5t-38.5 -50.5h-124q29 -34 45 -78t16 -93q0 -111 -78 -189t-189 -78t-189 78t-78 189q0 49 16.5 93t44.5 78h-124
q-37 0 -37.5 50.5t37.5 50.5h270v86z" />
    <glyph glyph-name="uni314F" unicode="&#x314f;" 
d="M708 420q0 -32 -22.5 -54.5t-54.5 -22.5t-54.5 22.5t-22.5 54.5t22.5 54.5t54.5 22.5t54.5 -22.5t22.5 -54.5zM521 -25q0 -48 -59.5 -48t-59.5 48v754q0 48 59.5 48t59.5 -48v-754z" />
    <glyph glyph-name="uni3150" unicode="&#x3150;" 
d="M445 -26q0 -48 -59.5 -48t-59.5 48v754q0 48 59.5 48t59.5 -48v-278h90q8 0 14 -2.5t10 -7.5v288q0 48 59.5 48t59.5 -48v-754q0 -48 -59.5 -48t-59.5 48v386q-4 -5 -10 -8t-14 -3h-90v-375z" />
    <glyph glyph-name="uni3151" unicode="&#x3151;" 
d="M706 240q0 -32 -22.5 -54.5t-54.5 -22.5t-54.5 22.5t-22.5 54.5t22.5 54.5t54.5 22.5t54.5 -22.5t22.5 -54.5zM519 -25q0 -48 -59.5 -48t-59.5 48v754q0 48 59.5 48t59.5 -48v-754zM706 530q0 -32 -22.5 -54.5t-54.5 -22.5t-54.5 22.5t-22.5 54.5t22.5 54.5t54.5 22.5
t54.5 -22.5t22.5 -54.5z" />
    <glyph glyph-name="uni3152" unicode="&#x3152;" 
d="M445 -26q0 -48 -59.5 -48t-59.5 48v754q0 48 59.5 48t59.5 -48v-158h90q8 0 14 -2.5t10 -7.5v168q0 48 59.5 48t59.5 -48v-754q0 -48 -59.5 -48t-59.5 48v226q-4 -5 -10 -8t-14 -3h-90v-215zM445 290h90q8 0 14 -2.5t10 -7.5v200q-4 -5 -10 -8t-14 -3h-90v-179z" />
    <glyph glyph-name="uni3153" unicode="&#x3153;" 
d="M458 410q0 -32 -22.5 -54.5t-54.5 -22.5t-54.5 22.5t-22.5 54.5t22.5 54.5t54.5 22.5t54.5 -22.5t22.5 -54.5zM601 -25q0 -48 -59.5 -48t-59.5 48v754q0 48 59.5 48t59.5 -48v-754z" />
    <glyph glyph-name="uni3154" unicode="&#x3154;" 
d="M363 728q0 48 59.5 48t59.5 -48v-754q0 -48 -59.5 -48t-59.5 48v381h-150q-37 0 -37.5 50.5t37.5 50.5h150v272zM696 -26q0 -48 -59.5 -48t-59.5 48v754q0 48 59.5 48t59.5 -48v-754z" />
    <glyph glyph-name="uni3155" unicode="&#x3155;" 
d="M517 540q0 -32 -22.5 -54.5t-54.5 -22.5t-54.5 22.5t-22.5 54.5t22.5 54.5t54.5 22.5t54.5 -22.5t22.5 -54.5zM660 -25q0 -48 -59.5 -48t-59.5 48v754q0 48 59.5 48t59.5 -48v-754zM517 270q0 -32 -22.5 -54.5t-54.5 -22.5t-54.5 22.5t-22.5 54.5t22.5 54.5t54.5 22.5
t54.5 -22.5t22.5 -54.5z" />
    <glyph glyph-name="uni3156" unicode="&#x3156;" 
d="M696 -26q0 -48 -59.5 -48t-59.5 48v754q0 48 59.5 48t59.5 -48v-754zM363 728q0 48 59.5 48t59.5 -48v-754q0 -48 -59.5 -48t-59.5 48v229h-150q-37 0 -37.5 50.5t37.5 50.5h150v191h-150q-37 0 -37.5 50.5t37.5 50.5h150v132z" />
    <glyph glyph-name="uni3157" unicode="&#x3157;" 
d="M861 164q39 0 38.5 -50.5t-38.5 -50.5h-722q-37 0 -37.5 50.5t37.5 50.5h302v434q0 48 59.5 48t59.5 -48v-434h301z" />
    <glyph glyph-name="uni3158" unicode="&#x3158;" 
d="M801 -25q0 -48 -59.5 -48t-59.5 48v754q0 48 59.5 48t59.5 -48v-754zM988 420q0 -32 -22.5 -54.5t-54.5 -22.5t-54.5 22.5t-22.5 54.5t22.5 54.5t54.5 22.5t54.5 -22.5t22.5 -54.5zM607 164q39 0 38.5 -50.5t-38.5 -50.5h-542q-37 0 -37.5 50.5t37.5 50.5h204v314
q0 48 59.5 48t59.5 -48v-314h219z" />
    <glyph glyph-name="uni3159" unicode="&#x3159;" 
d="M489 164q39 0 38.5 -50.5t-38.5 -50.5h-432q-37 0 -37.5 50.5t37.5 50.5h154v314q0 48 59.5 48t59.5 -48v-314h159zM668 -25q0 -48 -58.5 -48t-58.5 48v754q0 48 58.5 48t58.5 -48v-278h68q8 0 14 -2.5t10 -7.5v288q0 48 59.5 48t59.5 -48v-754q0 -48 -59.5 -48t-59.5 48
v386q-4 -5 -10 -8t-14 -3h-68v-375z" />
    <glyph glyph-name="uni315A" unicode="&#x315a;" 
d="M844 -25q0 -48 -59.5 -48t-59.5 48v754q0 48 59.5 48t59.5 -48v-754zM647 164q39 0 38.5 -50.5t-38.5 -50.5h-582q-37 0 -37.5 50.5t37.5 50.5h224v314q0 48 59.5 48t59.5 -48v-314h239z" />
    <glyph glyph-name="uni315B" unicode="&#x315b;" 
d="M861 164q39 0 38.5 -50.5t-38.5 -50.5h-722q-37 0 -37.5 50.5t37.5 50.5h152v434q0 48 59.5 48t59.5 -48v-434h181v434q0 48 59.5 48t59.5 -48v-434h151z" />
    <glyph glyph-name="uni315C" unicode="&#x315c;" 
d="M139 545q-37 0 -37.5 50.5t37.5 50.5h722q39 0 38.5 -50.5t-38.5 -50.5h-301v-460q0 -48 -59.5 -48t-59.5 48v460h-302z" />
    <glyph glyph-name="uni315D" unicode="&#x315d;" 
d="M677 187q0 -32 -22.5 -54.5t-54.5 -22.5t-54.5 22.5t-22.5 54.5t22.5 54.5t54.5 22.5t54.5 -22.5t22.5 -54.5zM844 -25q0 -48 -59.5 -48t-59.5 48v754q0 48 59.5 48t59.5 -48v-754zM75 333q-37 0 -37.5 50.5t37.5 50.5h542q39 0 38.5 -50.5t-38.5 -50.5h-219v-358
q0 -48 -59.5 -48t-59.5 48v358h-204z" />
    <glyph glyph-name="uni315E" unicode="&#x315e;" 
d="M55 333q-37 0 -37.5 50.5t37.5 50.5h452q39 0 38.5 -50.5t-38.5 -50.5h-183v-338q0 -48 -59.5 -48t-59.5 48v338h-150zM565 190q0 -32 -22.5 -54.5t-54.5 -22.5t-54.5 22.5t-22.5 54.5t22.5 54.5t54.5 22.5t54.5 -22.5t22.5 -54.5zM707 -25q0 -48 -59.5 -48t-59.5 48v754
q0 48 59.5 48t59.5 -48v-754zM895 -25q0 -48 -59.5 -48t-59.5 48v754q0 48 59.5 48t59.5 -48v-754z" />
    <glyph glyph-name="uni315F" unicode="&#x315f;" 
d="M844 -25q0 -48 -59.5 -48t-59.5 48v754q0 48 59.5 48t59.5 -48v-754zM75 303q-37 0 -37.5 50.5t37.5 50.5h582q39 0 38.5 -50.5t-38.5 -50.5h-239v-328q0 -48 -59.5 -48t-59.5 48v328h-224z" />
    <glyph glyph-name="uni3160" unicode="&#x3160;" 
d="M410 85q0 -48 -59.5 -48t-59.5 48v460h-152q-37 0 -37.5 50.5t37.5 50.5h722q39 0 38.5 -50.5t-38.5 -50.5h-151v-460q0 -48 -59.5 -48t-59.5 48v460h-181v-460z" />
    <glyph glyph-name="uni3161" unicode="&#x3161;" 
d="M139 294q-37 0 -37.5 50.5t37.5 50.5h722q39 0 38.5 -50.5t-38.5 -50.5h-722z" />
    <glyph glyph-name="uni3162" unicode="&#x3162;" 
d="M65 63q-37 0 -37.5 50.5t37.5 50.5h582q39 0 38.5 -50.5t-38.5 -50.5h-582zM844 -25q0 -48 -59.5 -48t-59.5 48v754q0 48 59.5 48t59.5 -48v-754z" />
    <glyph glyph-name="uni3163" unicode="&#x3163;" 
d="M560 -25q0 -48 -59.5 -48t-59.5 48v754q0 48 59.5 48t59.5 -48v-754z" />
    <glyph glyph-name="uniAC00" unicode="&#xac00;" horiz-adv-x="975" 
d="M956 467q0 -32 -22.5 -54.5t-54.5 -22.5t-54.5 22.5t-22.5 54.5t22.5 54.5t54.5 22.5t54.5 -22.5t22.5 -54.5zM769 22q0 -48 -59.5 -48t-59.5 48v754q0 48 59.5 48t59.5 -48v-754zM110 73q-57 -21 -77.5 25t19.5 63q110 47 231.5 156.5t121.5 251.5v122q0 4 -1 7t-8 3
h-309q-37 0 -37.5 50.5t37.5 50.5h374q36 0 49.5 -18.5t13.5 -41.5v-204q0 -105 -101 -246.5t-313 -218.5z" />
    <glyph glyph-name="uniAC01" unicode="&#xac01;" 
d="M951 -14q0 -48 -59.5 -48t-59.5 48v209q0 4 -1 7t-8 3h-440q-37 0 -37.5 50.5t37.5 50.5h505q36 0 49.5 -18.5t13.5 -41.5v-260zM956 589q0 -32 -22.5 -54.5t-54.5 -22.5t-54.5 22.5t-22.5 54.5t22.5 54.5t54.5 22.5t54.5 -22.5t22.5 -54.5zM769 375q0 -48 -59.5 -48
t-59.5 48v401q0 48 59.5 48t59.5 -48v-401zM524 614q0 -87 -97 -209t-317 -196q-57 -19 -77.5 27.5t19.5 60.5q112 40 232.5 131.5t120.5 196.5v66q0 4 -1 7t-8 3h-309q-37 0 -37.5 50.5t37.5 50.5h374q36 0 49.5 -18.5t13.5 -41.5v-128z" />
    <glyph glyph-name="uniAC04" unicode="&#xac04;" 
d="M421 -49q-36 0 -49.5 18.5t-13.5 41.5v247q0 48 59.5 48t59.5 -48v-196q0 -4 1 -7t8 -3h430q37 0 37.5 -50.5t-37.5 -50.5h-495zM524 614q0 -87 -97 -209t-317 -196q-57 -19 -77.5 27.5t19.5 60.5q112 40 232.5 131.5t120.5 196.5v66q0 4 -1 7t-8 3h-309
q-37 0 -37.5 50.5t37.5 50.5h374q36 0 49.5 -18.5t13.5 -41.5v-128zM956 547q0 -32 -22.5 -54.5t-54.5 -22.5t-54.5 22.5t-22.5 54.5t22.5 54.5t54.5 22.5t54.5 -22.5t22.5 -54.5zM769 258q0 -48 -59.5 -48t-59.5 48v518q0 48 59.5 48t59.5 -48v-518z" />
    <glyph glyph-name="uniAC07" unicode="&#xac07;" 
d="M420 -49q-36 0 -49.5 18.5t-13.5 41.5v235q0 23 13.5 41.5t49.5 18.5h495q38 0 39 -50.5t-39 -50.5h-430q-7 0 -8 -3t-1 -7v-133q0 -4 1 -7t8 -3h453q38 0 39 -50.5t-39 -50.5h-518zM524 614q0 -87 -97 -209t-317 -196q-57 -19 -77.5 27.5t19.5 60.5q112 40 232.5 131.5
t120.5 196.5v66q0 4 -1 7t-8 3h-309q-37 0 -37.5 50.5t37.5 50.5h374q36 0 49.5 -18.5t13.5 -41.5v-128zM769 375q0 -48 -59.5 -48t-59.5 48v401q0 48 59.5 48t59.5 -48v-401zM956 589q0 -32 -22.5 -54.5t-54.5 -22.5t-54.5 22.5t-22.5 54.5t22.5 54.5t54.5 22.5t54.5 -22.5
t22.5 -54.5z" />
    <glyph glyph-name="uniAC08" unicode="&#xac08;" 
d="M956 607q0 -32 -22.5 -54.5t-54.5 -22.5t-54.5 22.5t-22.5 54.5t22.5 54.5t54.5 22.5t54.5 -22.5t22.5 -54.5zM769 418q0 -48 -59.5 -48t-59.5 48v359q0 48 59.5 48t59.5 -48v-359zM951 150q0 -23 -13.5 -41.5t-49.5 -18.5h-403q-7 0 -8 -3t-1 -7v-41q0 -4 1 -7t8 -3h454
q38 0 37.5 -50.5t-37.5 -50.5h-519q-36 0 -49.5 18.5t-13.5 41.5v143q0 23 13.5 41.5t49.5 18.5h403q7 0 8 3t1 7v41q0 4 -1 7t-8 3h-429q-37 0 -37.5 50.5t37.5 50.5h494q36 0 49.5 -18.5t13.5 -41.5v-143zM524 614q0 -87 -97 -209t-317 -196q-57 -19 -77.5 27.5t19.5 60.5
q112 40 232.5 131.5t120.5 196.5v66q0 4 -1 7t-8 3h-309q-37 0 -37.5 50.5t37.5 50.5h374q36 0 49.5 -18.5t13.5 -41.5v-128z" />
    <glyph glyph-name="uniAC09" unicode="&#xac09;" 
d="M577 150q0 -23 -13.5 -41.5t-49.5 -18.5h-183q-7 0 -8 -3t-1 -7v-41q0 -4 1 -7t8 -3h244q38 0 37.5 -50.5t-37.5 -50.5h-309q-36 0 -49.5 18.5t-13.5 41.5v143q0 23 13.5 41.5t49.5 18.5h183q7 0 8 3t1 7v41q0 4 -1 7t-8 3h-214q-37 0 -38 50q-41 -18 -87 -33
q-57 -19 -77.5 27.5t19.5 60.5q112 40 232.5 116.5t120.5 181.5v36q0 4 -1 7t-8 3h-309q-37 0 -37.5 50.5t37.5 50.5h374q36 0 49.5 -18.5t13.5 -41.5v-98q0 -87 -97 -194q-48 -53 -125 -97h212q36 0 49.5 -18.5t13.5 -41.5v-143zM951 -28q0 -48 -59.5 -48t-59.5 48v270
q0 4 -1 7t-8 3h-196q-37 0 -37.5 50.5t37.5 50.5h261q36 0 49.5 -18.5t13.5 -41.5v-321zM769 418q0 -48 -59.5 -48t-59.5 48v359q0 48 59.5 48t59.5 -48v-359zM956 607q0 -32 -22.5 -54.5t-54.5 -22.5t-54.5 22.5t-22.5 54.5t22.5 54.5t54.5 22.5t54.5 -22.5t22.5 -54.5z
" />
    <glyph glyph-name="uniAC0A" unicode="&#xac0a;" 
d="M557 150q0 -23 -13.5 -41.5t-49.5 -18.5h-163q-7 0 -8 -3t-1 -7v-41q0 -4 1 -7t8 -3h214q38 0 37.5 -50.5t-37.5 -50.5h-279q-36 0 -49.5 18.5t-13.5 41.5v143q0 23 13.5 41.5t49.5 18.5h163q7 0 8 3t1 7v41q0 4 -1 7t-8 3h-194q-37 0 -38 50q-41 -18 -87 -33
q-57 -19 -77.5 27.5t19.5 60.5q112 40 232.5 116.5t120.5 181.5v36q0 4 -1 7t-8 3h-309q-37 0 -37.5 50.5t37.5 50.5h374q36 0 49.5 -18.5t13.5 -41.5v-98q0 -87 -97 -194q-48 -53 -125 -97h192q36 0 49.5 -18.5t13.5 -41.5v-143zM951 -12q0 -23 -13.5 -41.5t-49.5 -18.5
h-228q-36 0 -49.5 18.5t-13.5 41.5v305q0 23 13.5 41.5t49.5 18.5h228q36 0 49.5 -18.5t13.5 -41.5v-305zM769 418q0 -48 -59.5 -48t-59.5 48v359q0 48 59.5 48t59.5 -48v-359zM832 242q0 4 -1 7t-8 3h-98q-7 0 -8 -3t-1 -7v-203q0 -4 1 -7t8 -3h98q7 0 8 3t1 7v203z
M956 607q0 -32 -22.5 -54.5t-54.5 -22.5t-54.5 22.5t-22.5 54.5t22.5 54.5t54.5 22.5t54.5 -22.5t22.5 -54.5z" />
    <glyph glyph-name="uniAC10" unicode="&#xac10;" 
d="M769 375q0 -48 -59.5 -48t-59.5 48v401q0 48 59.5 48t59.5 -48v-401zM951 11q0 -23 -13.5 -41.5t-49.5 -18.5h-468q-36 0 -49.5 18.5t-13.5 41.5v235q0 23 13.5 41.5t49.5 18.5h468q36 0 49.5 -18.5t13.5 -41.5v-235zM832 195q0 4 -1 7t-8 3h-338q-7 0 -8 -3t-1 -7v-133
q0 -4 1 -7t8 -3h338q7 0 8 3t1 7v133zM524 614q0 -87 -97 -209t-317 -196q-57 -19 -77.5 27.5t19.5 60.5q112 40 232.5 131.5t120.5 196.5v66q0 4 -1 7t-8 3h-309q-37 0 -37.5 50.5t37.5 50.5h374q36 0 49.5 -18.5t13.5 -41.5v-128zM956 589q0 -32 -22.5 -54.5t-54.5 -22.5
t-54.5 22.5t-22.5 54.5t22.5 54.5t54.5 22.5t54.5 -22.5t22.5 -54.5z" />
    <glyph glyph-name="uniAC11" unicode="&#xac11;" 
d="M951 -1q-1 -23 -14 -41.5t-49 -18.5h-468q-36 0 -49.5 18.5t-13.5 41.5v289q0 48 59.5 48t59.5 -48v-238q0 -4 1 -7t8 -3h338q7 0 8 3t1 7v79h-303q-37 0 -37.5 50.5t37.5 50.5h303v58q0 48 59.5 48t59.5 -48v-289zM524 614q0 -87 -98.5 -206.5t-315.5 -198.5
q-56 -20 -77 27t19 61q112 40 232.5 131.5t120.5 196.5v66q0 4 -1 7t-8 3h-309q-37 0 -37.5 50.5t37.5 50.5h374q36 0 49.5 -18.5t13.5 -41.5v-128zM769 357q0 -48 -59.5 -48t-59.5 48v419q0 48 59.5 48t59.5 -48v-419zM956 579q0 -32 -22.5 -54.5t-54.5 -22.5t-54.5 22.5
t-22.5 54.5t22.5 54.5t54.5 22.5t54.5 -22.5t22.5 -54.5z" />
    <glyph glyph-name="uniAC12" unicode="&#xac12;" 
d="M959 25q29 -52 -24 -73t-74 16l-120 210l-119 -210q-21 -37 -74 -16q-9 4 -16 8q-13 -9 -38 -9h-228q-36 0 -49.5 18.5t-13.5 41.5v289v4q-44 -19 -93 -35q-57 -19 -77.5 27.5t19.5 60.5q112 40 232.5 116.5t120.5 181.5v36q0 4 -1 7t-8 3h-309q-37 0 -37.5 50.5
t37.5 50.5h374q36 0 49.5 -18.5t13.5 -41.5v-98q0 -87 -97 -194q-52 -57 -139 -105q34 -9 34 -45v-79q8 21 33 21h83v58q0 48 59.5 48t59.5 -48v-216l133 237q19 35 51 29q32 6 52 -29zM769 399q0 -48 -59.5 -48t-59.5 48v377q0 48 59.5 48t59.5 -48v-377zM956 579
q0 -32 -22.5 -54.5t-54.5 -22.5t-54.5 22.5t-22.5 54.5t22.5 54.5t54.5 22.5t54.5 -22.5t22.5 -54.5zM355 141q-24 0 -33 21v-100q0 -4 1 -7t8 -3h98q7 0 8 3t1 7v79h-83z" />
    <glyph glyph-name="uniAC13" unicode="&#xac13;" 
d="M956 587q0 -32 -22.5 -54.5t-54.5 -22.5t-54.5 22.5t-22.5 54.5t22.5 54.5t54.5 22.5t54.5 -22.5t22.5 -54.5zM769 342q0 -48 -59.5 -48t-59.5 48v434q0 48 59.5 48t59.5 -48v-434zM524 614q0 -87 -97 -209t-317 -196q-57 -19 -77.5 27.5t19.5 60.5q112 40 232.5 131.5
t120.5 196.5v66q0 4 -1 7t-8 3h-309q-37 0 -37.5 50.5t37.5 50.5h374q36 0 49.5 -18.5t13.5 -41.5v-128zM329 -46q-37 -36 -83.5 1t-7.5 73l281 271q11 11 25 15t28 4t28.5 -4t25.5 -15l281 -271q38 -37 -7.5 -73.5t-83.5 -0.5l-243 241z" />
    <glyph glyph-name="uniAC14" unicode="&#xac14;" 
d="M956 599q0 -32 -22.5 -54.5t-54.5 -22.5t-54.5 22.5t-22.5 54.5t22.5 54.5t54.5 22.5t54.5 -22.5t22.5 -54.5zM769 399q0 -48 -59.5 -48t-59.5 48v377q0 48 59.5 48t59.5 -48v-377zM524 644q0 -87 -97 -194t-317 -181q-57 -19 -77.5 27.5t19.5 60.5q112 40 232.5 116.5
t120.5 181.5v36q0 4 -1 7t-8 3h-309q-37 0 -37.5 50.5t37.5 50.5h374q36 0 49.5 -18.5t13.5 -41.5v-98zM563 -62q-16 -1 -29.5 4t-21.5 18l-119 216l-120 -216q-21 -37 -74 -16t-24 73l161 291q10 18 24 25t32 7q19 0 33 -7t24 -25l112 -202l112 202q10 18 24 25t32 7
q19 0 33 -7t24 -25l161 -291q29 -52 -24 -73t-74 16l-119 216l-120 -216q-7 -13 -20 -18t-27 -4z" />
    <glyph glyph-name="uniAC15" unicode="&#xac15;" 
d="M769 394q0 -48 -59.5 -48t-59.5 48v382q0 48 59.5 48t59.5 -48v-382zM524 614q0 -87 -97 -209t-317 -196q-57 -19 -77.5 27.5t19.5 60.5q112 40 232.5 131.5t120.5 196.5v66q0 4 -1 7t-8 3h-309q-37 0 -37.5 50.5t37.5 50.5h374q36 0 49.5 -18.5t13.5 -41.5v-128z
M956 599q0 -32 -22.5 -54.5t-54.5 -22.5t-54.5 22.5t-22.5 54.5t22.5 54.5t54.5 22.5t54.5 -22.5t22.5 -54.5zM928 113q0 -86 -69 -147.5t-168 -61.5q-100 0 -169.5 61t-69.5 148t69.5 148t169.5 61q99 0 168 -61.5t69 -147.5zM809 113q0 45 -34.5 76t-83.5 31t-83.5 -31
t-34.5 -76t34.5 -76t83.5 -31t83.5 31t34.5 76z" />
    <glyph glyph-name="uniAC16" unicode="&#xac16;" 
d="M329 217q-37 0 -38 50q0 16 3 27q-78 -49 -184 -85q-57 -19 -77.5 27.5t19.5 60.5q112 40 232.5 131.5t120.5 196.5v66q0 4 -1 7t-8 3h-309q-37 0 -37.5 50.5t37.5 50.5h374q36 0 49.5 -18.5t13.5 -41.5v-128q0 -87 -100 -209q-38 -47 -94 -87h248q9 3 18 2q10 2 21 -2
h266q39 0 38.5 -50.5t-38.5 -50.5h-158l182 -189q39 -36 -7 -73t-84 -1l-219 231l-218 -231q-37 -36 -83.5 1t-7.5 73l182 189h-141zM769 387q0 -48 -59.5 -48t-59.5 48v389q0 48 59.5 48t59.5 -48v-389zM956 589q0 -32 -22.5 -54.5t-54.5 -22.5t-54.5 22.5t-22.5 54.5
t22.5 54.5t54.5 22.5t54.5 -22.5t22.5 -54.5z" />
    <glyph glyph-name="uniAC17" unicode="&#xac17;" 
d="M291 197q-37 0 -38 50q0 13 2 23q-64 -34 -145 -61q-57 -19 -77.5 27.5t19.5 60.5q112 40 232.5 131.5t120.5 196.5v66q0 4 -1 7t-8 3h-309q-37 0 -37.5 50.5t37.5 50.5h374q36 0 49.5 -18.5t13.5 -41.5v-128q0 -87 -97 -209q-47 -59 -123 -107h234v58q0 48 59.5 48
t59.5 -48v-58h247q39 0 38.5 -50.5t-38.5 -50.5h-169l204 -169q38 -31 -4.5 -71t-86.5 -3l-249 211l-250 -211q-44 -37 -86 3t-5 71l204 169h-171zM769 419q0 -48 -59.5 -48t-59.5 48v357q0 48 59.5 48t59.5 -48v-357zM956 599q0 -32 -22.5 -54.5t-54.5 -22.5t-54.5 22.5
t-22.5 54.5t22.5 54.5t54.5 22.5t54.5 -22.5t22.5 -54.5z" />
    <glyph glyph-name="uniAC19" unicode="&#xac19;" 
d="M420 -72q-36 0 -49.5 18.5t-13.5 41.5v299q0 23 13.5 41.5t49.5 18.5h495q38 0 39 -50.5t-39 -50.5h-430q-7 0 -8 -3t-1 -7v-44h437q38 0 37.5 -50.5t-37.5 -50.5h-437v-52q0 -4 1 -7t8 -3h453q38 0 39 -50.5t-39 -50.5h-518zM524 614q0 -87 -97 -209t-317 -196
q-57 -19 -77.5 27.5t19.5 60.5q112 40 232.5 131.5t120.5 196.5v66q0 4 -1 7t-8 3h-309q-37 0 -37.5 50.5t37.5 50.5h374q36 0 49.5 -18.5t13.5 -41.5v-128zM769 418q0 -48 -59.5 -48t-59.5 48v359q0 48 59.5 48t59.5 -48v-359zM956 607q0 -32 -22.5 -54.5t-54.5 -22.5
t-54.5 22.5t-22.5 54.5t22.5 54.5t54.5 22.5t54.5 -22.5t22.5 -54.5z" />
    <glyph glyph-name="uniAC1A" unicode="&#xac1a;" 
d="M319 229q-37 0 -38 50v5q-73 -42 -171 -75q-57 -19 -77.5 27.5t19.5 60.5q112 40 232.5 131.5t120.5 196.5v66q0 4 -1 7t-8 3h-309q-37 0 -37.5 50.5t37.5 50.5h374q36 0 49.5 -18.5t13.5 -41.5v-128q0 -87 -97 -209q-32 -40 -77 -75h543q39 0 38.5 -50.5t-38.5 -50.5
h-574zM289 -61q-37 0 -37.5 50.5t37.5 50.5h116v132q0 48 59.5 48t59.5 -48v-132h166v132q0 48 59.5 48t59.5 -48v-132h114q39 0 38.5 -50.5t-38.5 -50.5h-634zM769 389q0 -48 -59.5 -48t-59.5 48v387q0 48 59.5 48t59.5 -48v-387zM956 589q0 -32 -22.5 -54.5t-54.5 -22.5
t-54.5 22.5t-22.5 54.5t22.5 54.5t54.5 22.5t54.5 -22.5t22.5 -54.5z" />
    <glyph glyph-name="uniAC1B" unicode="&#xac1b;" 
d="M339 194q-37 0 -37.5 50.5t37.5 50.5h229v58q0 48 59 48q15 0 26 -3q-3 9 -3 21v357q0 48 59.5 48t59.5 -48v-357q0 -48 -60 -48q-14 0 -26 3q4 -9 4 -21v-58h226q39 0 38.5 -50.5t-38.5 -50.5h-112q35 -45 35 -103q0 -76 -61 -131.5t-147 -55.5q-88 0 -149 55t-61 132
q0 57 34 103h-113zM524 614q0 -87 -97 -209t-317 -196q-57 -19 -77.5 27.5t19.5 60.5q112 40 232.5 131.5t120.5 196.5v66q0 4 -1 7t-8 3h-309q-37 0 -37.5 50.5t37.5 50.5h374q36 0 49.5 -18.5t13.5 -41.5v-128zM717 91q0 36 -26.5 61t-62.5 25q-37 0 -63.5 -25t-26.5 -61
t26.5 -61t63.5 -25q36 0 62.5 25t26.5 61zM956 599q0 -32 -22.5 -54.5t-54.5 -22.5t-54.5 22.5t-22.5 54.5t22.5 54.5t54.5 22.5t54.5 -22.5t22.5 -54.5z" />
    <glyph glyph-name="uniAC1C" unicode="&#xac1c;" horiz-adv-x="975" 
d="M678 22q0 -48 -59.5 -48t-59.5 48v754q0 48 59.5 48t59.5 -48v-278h59q15 0 24 -8v286q0 48 59.5 48t59.5 -48v-754q0 -48 -59.5 -48t-59.5 48v383q-9 -8 -24 -8h-59v-375zM110 73q-55 -23 -76.5 24t18.5 64q110 47 206 157t96 251v122q0 4 -1 7t-8 3h-258
q-37 0 -37.5 50.5t37.5 50.5h323q36 0 49.5 -18.5t13.5 -41.5v-194q0 -86 -77.5 -237.5t-285.5 -237.5z" />
    <glyph glyph-name="uniAC1D" unicode="&#xac1d;" 
d="M678 378q0 -48 -59.5 -48t-59.5 48v398q0 48 59.5 48t59.5 -48v-148h59q15 0 24 -8v156q0 48 59.5 48t59.5 -48v-398q0 -48 -59.5 -48t-59.5 48v157q-9 -8 -24 -8h-59v-149zM472 624q0 -73 -70 -204t-292 -211q-55 -20 -76.5 27t18.5 61q112 40 206.5 130t94.5 198v66
q0 4 -1 7t-8 3h-257q-37 0 -37.5 50.5t37.5 50.5h322q36 0 49.5 -18.5t13.5 -41.5v-118zM951 -12q0 -48 -59.5 -48t-59.5 48v207q0 4 -1 7t-8 3h-450q-37 0 -37.5 50.5t37.5 50.5h515q36 0 49.5 -18.5t13.5 -41.5v-258z" />
    <glyph glyph-name="uniAC20" unicode="&#xac20;" 
d="M678 259q0 -48 -59.5 -48t-59.5 48v517q0 48 59.5 48t59.5 -48v-188h59q15 0 24 -8v196q0 48 59.5 48t59.5 -48v-517q0 -48 -59.5 -48t-59.5 48v236q-9 -8 -24 -8h-59v-228zM472 624q0 -81 -70 -208t-292 -207q-55 -20 -76.5 27t18.5 61q112 40 206.5 130t94.5 198v66
q0 4 -1 7t-8 3h-257q-37 0 -37.5 50.5t37.5 50.5h322q36 0 49.5 -18.5t13.5 -41.5v-118zM421 -49q-36 0 -49.5 18.5t-13.5 41.5v247q0 48 59.5 48t59.5 -48v-196q0 -4 1 -7t8 -3h430q37 0 37.5 -50.5t-37.5 -50.5h-495z" />
    <glyph glyph-name="uniAC24" unicode="&#xac24;" 
d="M951 150q0 -23 -13.5 -41.5t-49.5 -18.5h-403q-7 0 -8 -3t-1 -7v-41q0 -4 1 -7t8 -3h454q38 0 37.5 -50.5t-37.5 -50.5h-519q-36 0 -49.5 18.5t-13.5 41.5v143q0 23 13.5 41.5t49.5 18.5h403q7 0 8 3t1 7v41q0 4 -1 7t-8 3h-434q-37 0 -37.5 50.5t37.5 50.5h499
q36 0 49.5 -18.5t13.5 -41.5v-143zM472 624q0 -81 -70 -207t-292 -208q-55 -20 -76.5 27t18.5 61q112 40 206.5 130t94.5 198v66q0 4 -1 7t-8 3h-257q-37 0 -37.5 50.5t37.5 50.5h322q36 0 49.5 -18.5t13.5 -41.5v-118zM678 423q0 -48 -59.5 -48t-59.5 48v353q0 48 59.5 48
t59.5 -48v-124h59q15 0 24 -8v132q0 48 59.5 48t59.5 -48v-353q0 -48 -59.5 -48t-59.5 48v136q-9 -8 -24 -8h-59v-128z" />
    <glyph glyph-name="uniAC2C" unicode="&#xac2c;" 
d="M951 11q0 -23 -13.5 -41.5t-49.5 -18.5h-468q-36 0 -49.5 18.5t-13.5 41.5v235q0 23 13.5 41.5t49.5 18.5h468q36 0 49.5 -18.5t13.5 -41.5v-235zM678 377q0 -48 -59.5 -48t-59.5 48v399q0 48 59.5 48t59.5 -48v-148h59q15 0 24 -8v156q0 48 59.5 48t59.5 -48v-399
q0 -48 -59.5 -48t-59.5 48v158q-9 -8 -24 -8h-59v-150zM472 624q0 -81 -70 -208t-292 -207q-55 -20 -76.5 27t18.5 61q112 40 206.5 130t94.5 198v66q0 4 -1 7t-8 3h-257q-37 0 -37.5 50.5t37.5 50.5h322q36 0 49.5 -18.5t13.5 -41.5v-118zM832 195q0 4 -1 7t-8 3h-338
q-7 0 -8 -3t-1 -7v-133q0 -4 1 -7t8 -3h338q7 0 8 3t1 7v133z" />
    <glyph glyph-name="uniAC2D" unicode="&#xac2d;" 
d="M951 -1q-1 -23 -14 -41.5t-49 -18.5h-468q-36 0 -49.5 18.5t-13.5 41.5v289q0 48 59.5 48t59.5 -48v-238q0 -4 1 -7t8 -3h338q7 0 8 3t1 7v79h-303q-37 0 -37.5 50.5t37.5 50.5h303v58q0 48 59.5 48t59.5 -48v-289zM678 395q0 -48 -59.5 -48t-59.5 48v381q0 48 59.5 48
t59.5 -48v-138h59q15 0 24 -8v146q0 48 59.5 48t59.5 -48v-381q0 -48 -59.5 -48t-59.5 48v150q-9 -8 -24 -8h-59v-142zM472 624q0 -79 -70 -206t-292 -209q-55 -20 -76.5 27t18.5 61q112 40 206.5 130t94.5 198v66q0 4 -1 7t-8 3h-257q-37 0 -37.5 50.5t37.5 50.5h322
q36 0 49.5 -18.5t13.5 -41.5v-118z" />
    <glyph glyph-name="uniAC2F" unicode="&#xac2f;" 
d="M678 372q0 -48 -59.5 -48t-59.5 48v404q0 48 59.5 48t59.5 -48v-138h59q15 0 24 -8v146q0 48 59.5 48t59.5 -48v-444q0 -48 -59.5 -48t-59.5 48v213q-9 -8 -24 -8h-59v-165zM472 624q0 -82 -70 -208.5t-292 -206.5q-55 -20 -76.5 27t18.5 61q112 40 206.5 130t94.5 198
v66q0 4 -1 7t-8 3h-257q-37 0 -37.5 50.5t37.5 50.5h322q36 0 49.5 -18.5t13.5 -41.5v-118zM369 -46q-37 -36 -83.5 1t-7.5 73l281 271q11 11 25 15t28 4t28.5 -4t25.5 -15l281 -271q38 -37 -7.5 -73.5t-83.5 -0.5l-243 241z" />
    <glyph glyph-name="uniAC30" unicode="&#xac30;" 
d="M593 -60q-16 -1 -29.5 4t-21.5 18l-119 216l-120 -216q-21 -37 -74 -16t-24 73l161 291q10 18 24 25t32 7q19 0 33 -7t24 -25l112 -202l112 202q10 18 24 25t32 7q19 0 33 -7t24 -25l161 -291q29 -52 -24 -73t-74 16l-119 216l-120 -216q-7 -13 -20 -18t-27 -4zM678 407
q0 -48 -59.5 -48t-59.5 48v369q0 48 59.5 48t59.5 -48v-128h59q15 0 24 -8v136q0 48 59.5 48t59.5 -48v-369q0 -48 -59.5 -48t-59.5 48v148q-9 -8 -24 -8h-59v-140zM472 624q0 -82 -70 -205.5t-292 -209.5q-55 -21 -76.5 26.5t18.5 61.5q112 40 206.5 130t94.5 198v66
q0 4 -1 7t-8 3h-257q-37 0 -37.5 50.5t37.5 50.5h322q36 0 49.5 -18.5t13.5 -41.5v-118z" />
    <glyph glyph-name="uniAC31" unicode="&#xac31;" 
d="M928 113q0 -86 -69 -147.5t-168 -61.5q-100 0 -169.5 61t-69.5 148t69.5 148t169.5 61q99 0 168 -61.5t69 -147.5zM678 386q0 -48 -59.5 -48t-59.5 48v390q0 48 59.5 48t59.5 -48v-128h59q15 0 24 -8v136q0 48 59.5 48t59.5 -48v-400q0 -48 -59.5 -48t-59.5 48v179
q-9 -8 -24 -8h-59v-161zM472 624q0 -76 -70 -205.5t-292 -209.5q-55 -20 -76.5 27t18.5 61q112 40 206.5 130t94.5 198v66q0 4 -1 7t-8 3h-257q-37 0 -37.5 50.5t37.5 50.5h322q36 0 49.5 -18.5t13.5 -41.5v-118zM809 113q0 45 -34.5 76t-83.5 31t-83.5 -31t-34.5 -76
t34.5 -76t83.5 -31t83.5 31t34.5 76z" />
    <glyph glyph-name="uniAC38" unicode="&#xac38;" horiz-adv-x="975" 
d="M956 287q0 -32 -22.5 -54.5t-54.5 -22.5t-54.5 22.5t-22.5 54.5t22.5 54.5t54.5 22.5t54.5 -22.5t22.5 -54.5zM769 22q0 -48 -59.5 -48t-59.5 48v754q0 48 59.5 48t59.5 -48v-754zM110 73q-57 -21 -77.5 25t19.5 63q110 47 239 156.5t129 251.5v122q0 4 -1 7t-8 3h-324
q-37 0 -37.5 50.5t37.5 50.5h389q36 0 49.5 -18.5t13.5 -41.5v-204q0 -105 -108.5 -246.5t-320.5 -218.5zM956 577q0 -32 -22.5 -54.5t-54.5 -22.5t-54.5 22.5t-22.5 54.5t22.5 54.5t54.5 22.5t54.5 -22.5t22.5 -54.5z" />
    <glyph glyph-name="uniAC39" unicode="&#xac39;" 
d="M951 -14q0 -48 -59.5 -48t-59.5 48v209q0 4 -1 7t-8 3h-440q-37 0 -37.5 50.5t37.5 50.5h505q36 0 49.5 -18.5t13.5 -41.5v-260zM769 375q0 -48 -59.5 -48t-59.5 48v401q0 48 59.5 48t59.5 -48v-401zM539 614q0 -87 -104.5 -209t-324.5 -196q-57 -19 -77.5 27.5
t19.5 60.5q112 40 240 131.5t128 196.5v66q0 4 -1 7t-8 3h-324q-37 0 -37.5 50.5t37.5 50.5h389q36 0 49.5 -18.5t13.5 -41.5v-128zM956 477q0 -32 -22.5 -54.5t-54.5 -22.5t-54.5 22.5t-22.5 54.5t22.5 54.5t54.5 22.5t54.5 -22.5t22.5 -54.5zM956 677q0 -32 -22.5 -54.5
t-54.5 -22.5t-54.5 22.5t-22.5 54.5t22.5 54.5t54.5 22.5t54.5 -22.5t22.5 -54.5z" />
    <glyph glyph-name="uniAC3C" unicode="&#xac3c;" 
d="M421 -49q-36 0 -49.5 18.5t-13.5 41.5v247q0 48 59.5 48t59.5 -48v-196q0 -4 1 -7t8 -3h430q37 0 37.5 -50.5t-37.5 -50.5h-495zM539 614q0 -87 -104.5 -209t-324.5 -196q-57 -19 -77.5 27.5t19.5 60.5q112 40 240 131.5t128 196.5v66q0 4 -1 7t-8 3h-324
q-37 0 -37.5 50.5t37.5 50.5h389q36 0 49.5 -18.5t13.5 -41.5v-128zM769 258q0 -48 -59.5 -48t-59.5 48v518q0 48 59.5 48t59.5 -48v-518zM956 417q0 -32 -22.5 -54.5t-54.5 -22.5t-54.5 22.5t-22.5 54.5t22.5 54.5t54.5 22.5t54.5 -22.5t22.5 -54.5zM956 647
q0 -32 -22.5 -54.5t-54.5 -22.5t-54.5 22.5t-22.5 54.5t22.5 54.5t54.5 22.5t54.5 -22.5t22.5 -54.5z" />
    <glyph glyph-name="uniAC40" unicode="&#xac40;" 
d="M539 614q0 -87 -105 -209q-23 -28 -53 -53q4 1 8 1h499q36 0 49.5 -18.5t13.5 -41.5v-143q0 -23 -13.5 -41.5t-49.5 -18.5h-403q-7 0 -8 -3t-1 -7v-41q0 -4 1 -7t8 -3h454q38 0 37.5 -50.5t-37.5 -50.5h-519q-36 0 -49.5 18.5t-13.5 41.5v143q0 23 13.5 41.5t49.5 18.5
h403q7 0 8 3t1 7v41q0 4 -1 7t-8 3h-434q-37 0 -38 50q0 18 5 30q-96 -73 -246 -123q-57 -19 -77.5 27.5t19.5 60.5q112 40 240 131.5t128 196.5v66q0 4 -1 7t-8 3h-324q-37 0 -37.5 50.5t37.5 50.5h389q36 0 49.5 -18.5t13.5 -41.5v-128zM769 418q0 -48 -59.5 -48t-59.5 48
v359q0 48 59.5 48t59.5 -48v-359zM956 517q0 -32 -22.5 -54.5t-54.5 -22.5t-54.5 22.5t-22.5 54.5t22.5 54.5t54.5 22.5t54.5 -22.5t22.5 -54.5zM956 697q0 -32 -22.5 -54.5t-54.5 -22.5t-54.5 22.5t-22.5 54.5t22.5 54.5t54.5 22.5t54.5 -22.5t22.5 -54.5z" />
    <glyph glyph-name="uniAC4B" unicode="&#xac4b;" 
d="M769 352q0 -48 -59.5 -48t-59.5 48v424q0 48 59.5 48t59.5 -48v-424zM539 614q0 -87 -104.5 -209t-324.5 -196q-57 -19 -77.5 27.5t19.5 60.5q112 40 240 131.5t128 196.5v66q0 4 -1 7t-8 3h-324q-37 0 -37.5 50.5t37.5 50.5h389q36 0 49.5 -18.5t13.5 -41.5v-128z
M329 -46q-37 -36 -83.5 1t-7.5 73l281 271q11 11 25 15t28 4t28.5 -4t25.5 -15l281 -271q38 -37 -7.5 -73.5t-83.5 -0.5l-243 241zM956 447q0 -32 -22.5 -54.5t-54.5 -22.5t-54.5 22.5t-22.5 54.5t22.5 54.5t54.5 22.5t54.5 -22.5t22.5 -54.5zM956 667q0 -32 -22.5 -54.5
t-54.5 -22.5t-54.5 22.5t-22.5 54.5t22.5 54.5t54.5 22.5t54.5 -22.5t22.5 -54.5z" />
    <glyph glyph-name="uniAC4D" unicode="&#xac4d;" 
d="M769 389q0 -48 -59.5 -48t-59.5 48v387q0 48 59.5 48t59.5 -48v-387zM539 614q0 -87 -104.5 -209t-324.5 -196q-57 -19 -77.5 27.5t19.5 60.5q112 40 240 131.5t128 196.5v66q0 4 -1 7t-8 3h-324q-37 0 -37.5 50.5t37.5 50.5h389q36 0 49.5 -18.5t13.5 -41.5v-128z
M928 113q0 -86 -69 -147.5t-168 -61.5q-100 0 -169.5 61t-69.5 148t69.5 148t169.5 61q99 0 168 -61.5t69 -147.5zM809 113q0 45 -34.5 76t-83.5 31t-83.5 -31t-34.5 -76t34.5 -76t83.5 -31t83.5 31t34.5 76zM956 477q0 -32 -22.5 -54.5t-54.5 -22.5t-54.5 22.5t-22.5 54.5
t22.5 54.5t54.5 22.5t54.5 -22.5t22.5 -54.5zM956 687q0 -32 -22.5 -54.5t-54.5 -22.5t-54.5 22.5t-22.5 54.5t22.5 54.5t54.5 22.5t54.5 -22.5t22.5 -54.5z" />
    <glyph glyph-name="uniAC54" unicode="&#xac54;" horiz-adv-x="975" 
d="M673 22q0 -48 -59.5 -48t-59.5 48v754q0 48 59.5 48t59.5 -48v-158h64q15 0 24 -8v166q0 48 59.5 48t59.5 -48v-754q0 -48 -59.5 -48t-59.5 48v243q-9 -8 -24 -8h-64v-235zM110 73q-55 -23 -76.5 24t18.5 64q110 47 206 157t96 251v122q0 4 -1 7t-8 3h-258
q-37 0 -37.5 50.5t37.5 50.5h323q36 0 49.5 -18.5t13.5 -41.5v-194q0 -86 -77.5 -237.5t-285.5 -237.5zM673 517v-159h64q15 0 24 -8v175q-9 -8 -24 -8h-64z" />
    <glyph glyph-name="uniAC58" unicode="&#xac58;" 
d="M678 259q0 -48 -59.5 -48t-59.5 48v517q0 48 59.5 48t59.5 -48v-88h59q15 0 24 -8v96q0 48 59.5 48t59.5 -48v-517q0 -48 -59.5 -48t-59.5 48v126q-9 -8 -24 -8h-59v-118zM472 624q0 -81 -70 -208t-292 -207q-55 -20 -76.5 27t18.5 61q112 40 206.5 130t94.5 198v66
q0 4 -1 7t-8 3h-257q-37 0 -37.5 50.5t37.5 50.5h322q36 0 49.5 -18.5t13.5 -41.5v-118zM421 -49q-36 0 -49.5 18.5t-13.5 41.5v247q0 48 59.5 48t59.5 -48v-196q0 -4 1 -7t8 -3h430q37 0 37.5 -50.5t-37.5 -50.5h-495zM678 587v-109h59q15 0 24 -8v125q-9 -8 -24 -8h-59z
" />
    <glyph glyph-name="uniAC5C" unicode="&#xac5c;" 
d="M951 150q0 -23 -13.5 -41.5t-49.5 -18.5h-403q-7 0 -8 -3t-1 -7v-41q0 -4 1 -7t8 -3h454q38 0 37.5 -50.5t-37.5 -50.5h-519q-36 0 -49.5 18.5t-13.5 41.5v143q0 23 13.5 41.5t49.5 18.5h403q7 0 8 3t1 7v41q0 4 -1 7t-8 3h-434q-37 0 -37.5 50.5t37.5 50.5h499
q36 0 49.5 -18.5t13.5 -41.5v-143zM678 423q0 -48 -59.5 -48t-59.5 48v353q0 48 59.5 48t59.5 -48v-48h59q15 0 24 -8v56q0 48 59.5 48t59.5 -48v-353q0 -48 -59.5 -48t-59.5 48v52q-9 -8 -24 -8h-59v-44zM472 624q0 -81 -70 -207t-292 -208q-55 -20 -76.5 27t18.5 61
q112 40 206.5 130t94.5 198v66q0 4 -1 7t-8 3h-257q-37 0 -37.5 50.5t37.5 50.5h322q36 0 49.5 -18.5t13.5 -41.5v-118zM678 627v-59h59q15 0 24 -8v75q-9 -8 -24 -8h-59z" />
    <glyph glyph-name="uniAC70" unicode="&#xac70;" horiz-adv-x="951" 
d="M689 457q0 -32 -22.5 -54.5t-54.5 -22.5t-54.5 22.5t-22.5 54.5t22.5 54.5t54.5 22.5t54.5 -22.5t22.5 -54.5zM110 73q-56 -22 -77 24.5t19 63.5q110 47 225 156.5t115 251.5v122q0 4 -1 7t-8 3h-296q-37 0 -37.5 50.5t37.5 50.5h361q36 0 49.5 -18.5t13.5 -41.5v-194
q0 -105 -94.5 -249t-306.5 -226zM832 22q0 -48 -59.5 -48t-59.5 48v754q0 48 59.5 48t59.5 -48v-754z" />
    <glyph glyph-name="uniAC71" unicode="&#xac71;" horiz-adv-x="951" 
d="M903 -14q0 -48 -59.5 -48t-59.5 48v209q0 4 -1 7t-8 3h-440q-37 0 -37.5 50.5t37.5 50.5h505q36 0 49.5 -18.5t13.5 -41.5v-260zM509 614q0 -87 -90.5 -208t-308.5 -197q-57 -19 -77.5 27.5t19.5 60.5q112 40 225 131.5t113 196.5v66q0 4 -1 7t-8 3h-294
q-37 0 -37.5 50.5t37.5 50.5h359q36 0 49.5 -18.5t13.5 -41.5v-128zM687 577q0 -32 -22.5 -54.5t-54.5 -22.5t-54.5 22.5t-22.5 54.5t22.5 54.5t54.5 22.5t54.5 -22.5t22.5 -54.5zM832 376q0 -48 -59.5 -48t-59.5 48v400q0 48 59.5 48t59.5 -48v-400z" />
    <glyph glyph-name="uniAC74" unicode="&#xac74;" horiz-adv-x="951" 
d="M373 -49q-36 0 -49.5 18.5t-13.5 41.5v247q0 48 59.5 48t59.5 -48v-196q0 -4 1 -7t8 -3h440q37 0 37.5 -50.5t-37.5 -50.5h-505zM509 614q0 -87 -89.5 -209t-309.5 -196q-57 -19 -77.5 27.5t19.5 60.5q112 40 225 131.5t113 196.5v66q0 4 -1 7t-8 3h-294
q-37 0 -37.5 50.5t37.5 50.5h359q36 0 49.5 -18.5t13.5 -41.5v-128zM832 258q0 -48 -59.5 -48t-59.5 48v518q0 48 59.5 48t59.5 -48v-518zM689 547q0 -32 -22.5 -54.5t-54.5 -22.5t-54.5 22.5t-22.5 54.5t22.5 54.5t54.5 22.5t54.5 -22.5t22.5 -54.5z" />
    <glyph glyph-name="uniAC77" unicode="&#xac77;" horiz-adv-x="951" 
d="M373 -49q-36 0 -49.5 18.5t-13.5 41.5v235q0 23 13.5 41.5t49.5 18.5h494q38 0 39 -50.5t-39 -50.5h-429q-7 0 -8 -3t-1 -7v-133q0 -4 1 -7t8 -3h452q38 0 39 -50.5t-39 -50.5h-517zM511 614q0 -87 -90.5 -209t-310.5 -196q-57 -19 -77.5 27.5t19.5 60.5
q112 40 226 131.5t114 196.5v66q0 4 -1 7t-8 3h-296q-37 0 -37.5 50.5t37.5 50.5h361q36 0 49.5 -18.5t13.5 -41.5v-128zM832 375q0 -48 -59.5 -48t-59.5 48v401q0 48 59.5 48t59.5 -48v-401zM689 587q0 -32 -22.5 -54.5t-54.5 -22.5t-54.5 22.5t-22.5 54.5t22.5 54.5
t54.5 22.5t54.5 -22.5t22.5 -54.5z" />
    <glyph glyph-name="uniAC78" unicode="&#xac78;" horiz-adv-x="951" 
d="M511 614q0 -87 -95 -209q-21 -27 -48 -52h473q36 0 49.5 -18.5t13.5 -41.5v-143q0 -23 -13.5 -41.5t-49.5 -18.5h-403q-7 0 -8 -3t-1 -7v-41q0 -4 1 -7t8 -3h454q38 0 37.5 -50.5t-37.5 -50.5h-519q-36 0 -49.5 18.5t-13.5 41.5v143q0 23 13.5 41.5t49.5 18.5h403
q7 0 8 3t1 7v41q0 4 -1 7t-8 3h-434q-37 0 -38 50q-80 -53 -194 -93q-57 -20 -77.5 27t19.5 61q112 40 226 131.5t114 196.5v66q0 4 -1 7t-8 3h-296q-37 0 -37.5 50.5t37.5 50.5h361q36 0 49.5 -18.5t13.5 -41.5v-128zM832 418q0 -48 -59.5 -48t-59.5 48v359q0 48 59.5 48
t59.5 -48v-359zM689 607q0 -32 -22.5 -54.5t-54.5 -22.5t-54.5 22.5t-22.5 54.5t22.5 54.5t54.5 22.5t54.5 -22.5t22.5 -54.5z" />
    <glyph glyph-name="uniAC7A" unicode="&#xac7a;" horiz-adv-x="951" 
d="M510 150q0 -23 -13.5 -41.5t-49.5 -18.5h-163q-7 0 -8 -3t-1 -7v-41q0 -4 1 -7t8 -3h214q38 0 37.5 -50.5t-37.5 -50.5h-279q-36 0 -49.5 18.5t-13.5 41.5v143q0 23 13.5 41.5t49.5 18.5h163q7 0 8 3t1 7v41q0 4 -1 7t-8 3h-194q-30 0 -36 32q-20 -8 -42 -15
q-57 -19 -77.5 27.5t19.5 60.5q112 40 225 116.5t113 181.5v36q0 4 -1 7t-8 3h-294q-37 0 -37.5 50.5t37.5 50.5h359q36 0 49.5 -18.5t13.5 -41.5v-98q0 -87 -90 -194q-44 -53 -119 -97h147q36 0 49.5 -18.5t13.5 -41.5v-143zM904 -12q0 -23 -13.5 -41.5t-49.5 -18.5h-228
q-36 0 -49.5 18.5t-13.5 41.5v305q0 23 13.5 41.5t49.5 18.5h228q36 0 49.5 -18.5t13.5 -41.5v-305zM832 418q0 -48 -59.5 -48t-59.5 48v359q0 48 59.5 48t59.5 -48v-359zM785 242q0 4 -1 7t-8 3h-98q-7 0 -8 -3t-1 -7v-203q0 -4 1 -7t8 -3h98q7 0 8 3t1 7v203zM687 607
q0 -32 -22.5 -54.5t-54.5 -22.5t-54.5 22.5t-22.5 54.5t22.5 54.5t54.5 22.5t54.5 -22.5t22.5 -54.5z" />
    <glyph glyph-name="uniAC80" unicode="&#xac80;" horiz-adv-x="951" 
d="M904 11q0 -23 -13.5 -41.5t-49.5 -18.5h-468q-36 0 -49.5 18.5t-13.5 41.5v235q0 23 13.5 41.5t49.5 18.5h468q36 0 49.5 -18.5t13.5 -41.5v-235zM785 195q0 4 -1 7t-8 3h-338q-7 0 -8 -3t-1 -7v-133q0 -4 1 -7t8 -3h338q7 0 8 3t1 7v133zM511 614q0 -87 -94.5 -209.5
t-306.5 -195.5q-57 -19 -77.5 27.5t19.5 60.5q112 40 226 131.5t114 196.5v66q0 4 -1 7t-8 3h-296q-37 0 -37.5 50.5t37.5 50.5h361q36 0 49.5 -18.5t13.5 -41.5v-128zM832 375q0 -48 -59.5 -48t-59.5 48v401q0 48 59.5 48t59.5 -48v-401zM689 577q0 -32 -22.5 -54.5
t-54.5 -22.5t-54.5 22.5t-22.5 54.5t22.5 54.5t54.5 22.5t54.5 -22.5t22.5 -54.5z" />
    <glyph glyph-name="uniAC81" unicode="&#xac81;" horiz-adv-x="951" 
d="M904 -1q-1 -23 -14 -41.5t-49 -18.5h-468q-36 0 -49.5 18.5t-13.5 41.5v289q0 9 2 17q-81 -56 -202 -96q-57 -19 -77.5 27.5t19.5 60.5q112 40 226 131.5t114 196.5v66q0 4 -1 7t-8 3h-296q-37 0 -37.5 50.5t37.5 50.5h361q36 0 49.5 -18.5t13.5 -41.5v-128
q0 -82 -91 -207q-28 -39 -69 -73q8 2 18 2q60 0 60 -48v-238q0 -4 1 -7t8 -3h338q7 0 8 3t1 7v79h-304q-37 0 -37.5 50.5t37.5 50.5h304v58q0 48 59.5 48t59.5 -48v-289zM832 400q0 -48 -59.5 -48t-59.5 48v377q0 48 59.5 48t59.5 -48v-377zM689 597q0 -32 -22.5 -54.5
t-54.5 -22.5t-54.5 22.5t-22.5 54.5t22.5 54.5t54.5 22.5t54.5 -22.5t22.5 -54.5z" />
    <glyph glyph-name="uniAC83" unicode="&#xac83;" horiz-adv-x="951" 
d="M511 614q0 -78 -90.5 -204.5t-310.5 -200.5q-57 -19 -77.5 27.5t19.5 60.5q112 40 226 131.5t114 196.5v66q0 4 -1 7t-8 3h-296q-37 0 -37.5 50.5t37.5 50.5h361q36 0 49.5 -18.5t13.5 -41.5v-128zM351 -46q-37 -36 -83.5 1t-7.5 73l281 271q11 11 25 15t28 4t28.5 -4
t25.5 -15l281 -271q38 -37 -7.5 -73.5t-83.5 -0.5l-243 241zM689 567q0 -32 -22.5 -54.5t-54.5 -22.5t-54.5 22.5t-22.5 54.5t22.5 54.5t54.5 22.5t54.5 -22.5t22.5 -54.5zM832 318q0 -48 -59.5 -48t-59.5 48v458q0 48 59.5 48t59.5 -48v-458z" />
    <glyph glyph-name="uniAC84" unicode="&#xac84;" horiz-adv-x="951" 
d="M511 644q0 -82 -90.5 -191.5t-310.5 -183.5q-57 -19 -77.5 27.5t19.5 60.5q112 40 226 116.5t114 181.5v36q0 4 -1 7t-8 3h-296q-37 0 -37.5 50.5t37.5 50.5h361q36 0 49.5 -18.5t13.5 -41.5v-98zM832 392q0 -48 -59.5 -48t-59.5 48v385q0 48 59.5 48t59.5 -48v-385z
M689 597q0 -32 -22.5 -54.5t-54.5 -22.5t-54.5 22.5t-22.5 54.5t22.5 54.5t54.5 22.5t54.5 -22.5t22.5 -54.5zM551 -61q-16 -1 -29.5 4t-21.5 18l-119 216l-120 -216q-21 -37 -74 -16t-24 73l161 291q10 18 24 25t32 7q19 0 33 -7t24 -25l112 -202l112 202q10 18 24 25t32 7
q19 0 33 -7t24 -25l161 -291q29 -52 -24 -73t-74 16l-119 216l-120 -216q-7 -13 -20 -18t-27 -4z" />
    <glyph glyph-name="uniAC85" unicode="&#xac85;" horiz-adv-x="951" 
d="M511 614q0 -79 -90.5 -205t-310.5 -200q-57 -19 -77.5 27.5t19.5 60.5q112 40 226 131.5t114 196.5v66q0 4 -1 7t-8 3h-296q-37 0 -37.5 50.5t37.5 50.5h361q36 0 49.5 -18.5t13.5 -41.5v-128zM880 113q0 -86 -69 -147.5t-168 -61.5q-100 0 -169.5 61t-69.5 148t69.5 148
t169.5 61q99 0 168 -61.5t69 -147.5zM761 113q0 45 -34.5 76t-83.5 31t-83.5 -31t-34.5 -76t34.5 -76t83.5 -31t83.5 31t34.5 76zM832 384q0 -48 -59.5 -48t-59.5 48v392q0 48 59.5 48t59.5 -48v-392zM689 587q0 -32 -22.5 -54.5t-54.5 -22.5t-54.5 22.5t-22.5 54.5
t22.5 54.5t54.5 22.5t54.5 -22.5t22.5 -54.5z" />
    <glyph glyph-name="uniAC86" unicode="&#xac86;" horiz-adv-x="951" 
d="M319 229q-37 0 -38 50v4q-74 -42 -171 -74q-57 -19 -77.5 27.5t19.5 60.5q112 40 240 131.5t128 196.5v66q0 4 -1 7t-8 3h-324q-37 0 -37.5 50.5t37.5 50.5h389q36 0 49.5 -18.5t13.5 -41.5v-128q0 -87 -105 -209q-34 -40 -81 -75h540q39 0 38.5 -50.5t-38.5 -50.5h-177
l201 -201q39 -36 -7 -73t-84 -1l-229 232l-228 -232q-37 -36 -83.5 1t-7.5 73l201 201h-160zM880 402q0 -48 -59.5 -48t-59.5 48v375q0 48 59.5 48t59.5 -48v-375zM737 597q0 -32 -22.5 -54.5t-54.5 -22.5t-54.5 22.5t-22.5 54.5t22.5 54.5t54.5 22.5t54.5 -22.5t22.5 -54.5
z" />
    <glyph glyph-name="uniAC89" unicode="&#xac89;" horiz-adv-x="951" 
d="M511 614q0 -79 -91 -205q-24 -34 -57 -64q5 1 10 1h495q38 0 39 -50.5t-39 -50.5h-430q-7 0 -8 -3t-1 -7v-32h437q38 0 37.5 -50.5t-37.5 -50.5h-437v-40q0 -4 1 -7t8 -3h453q38 0 39 -50.5t-39 -50.5h-518q-36 0 -49.5 18.5t-13.5 41.5v275q0 10 3 20q-82 -56 -203 -97
q-57 -19 -77.5 27.5t19.5 60.5q112 40 226 131.5t114 196.5v66q0 4 -1 7t-8 3h-296q-37 0 -37.5 50.5t37.5 50.5h361q36 0 49.5 -18.5t13.5 -41.5v-128zM832 418q0 -48 -59.5 -48t-59.5 48v359q0 48 59.5 48t59.5 -48v-359zM689 597q0 -32 -22.5 -54.5t-54.5 -22.5
t-54.5 22.5t-22.5 54.5t22.5 54.5t54.5 22.5t54.5 -22.5t22.5 -54.5z" />
    <glyph glyph-name="uniAC8A" unicode="&#xac8a;" horiz-adv-x="951" 
d="M271 229q-30 0 -36 31q-56 -28 -125 -51q-57 -19 -77.5 27.5t19.5 60.5q112 40 226 131.5t114 196.5v66q0 4 -1 7t-8 3h-296q-37 0 -37.5 50.5t37.5 50.5h361q36 0 49.5 -18.5t13.5 -41.5v-128q0 -78 -91 -205q-30 -42 -75 -79h500q39 0 38.5 -50.5t-38.5 -50.5h-574z
M241 -61q-37 0 -37.5 50.5t37.5 50.5h116v132q0 48 59.5 48t59.5 -48v-132h166v132q0 48 59.5 48t59.5 -48v-132h114q39 0 38.5 -50.5t-38.5 -50.5h-634zM832 402q0 -48 -59.5 -48t-59.5 48v375q0 48 59.5 48t59.5 -48v-375zM689 597q0 -32 -22.5 -54.5t-54.5 -22.5
t-54.5 22.5t-22.5 54.5t22.5 54.5t54.5 22.5t54.5 -22.5t22.5 -54.5z" />
    <glyph glyph-name="uniAC8B" unicode="&#xac8b;" horiz-adv-x="951" 
d="M311 194q-37 0 -37.5 50.5t37.5 50.5h239v73q0 48 59.5 48t59.5 -48v-73h236q39 0 38.5 -50.5t-38.5 -50.5h-122q35 -45 35 -103q0 -76 -61 -131.5t-147 -55.5q-88 0 -149 55t-61 132q0 57 34 103h-123zM511 614q0 -70 -90.5 -200.5t-310.5 -204.5q-57 -19 -77.5 27.5
t19.5 60.5q112 40 226 131.5t114 196.5v66q0 4 -1 7t-8 3h-296q-37 0 -37.5 50.5t37.5 50.5h361q36 0 49.5 -18.5t13.5 -41.5v-128zM832 402q0 -48 -59.5 -48t-59.5 48v375q0 48 59.5 48t59.5 -48v-375zM699 91q0 36 -26.5 61t-62.5 25q-37 0 -63.5 -25t-26.5 -61t26.5 -61
t63.5 -25q36 0 62.5 25t26.5 61zM689 607q0 -32 -22.5 -54.5t-54.5 -22.5t-54.5 22.5t-22.5 54.5t22.5 54.5t54.5 22.5t54.5 -22.5t22.5 -54.5z" />
    <glyph glyph-name="uniAC8C" unicode="&#xac8c;" horiz-adv-x="975" 
d="M110 73q-55 -23 -76.5 24t18.5 64q110 47 206 157t96 251v122q0 4 -1 7t-8 3h-258q-37 0 -37.5 50.5t37.5 50.5h323q36 0 49.5 -18.5t13.5 -41.5v-194q0 -23 -6 -50q9 6 22 6h90v272q0 48 59.5 48t59.5 -48v-754q0 -48 -59.5 -48t-59.5 48v381h-90q-33 0 -37 39
q-20 -57 -57 -130q-77 -153 -285 -239zM880 22q0 -48 -59.5 -48t-59.5 48v754q0 48 59.5 48t59.5 -48v-754z" />
    <glyph glyph-name="uniAC90" unicode="&#xac90;" 
d="M472 624q0 -16 -3 -35q8 5 20 5h90v182q0 48 59.5 48t59.5 -48v-517q0 -48 -59.5 -48t-59.5 48v234h-90q-30 0 -37 33q-17 -50 -50 -110q-70 -127 -292 -207q-55 -20 -76.5 27t18.5 61q112 40 206.5 130t94.5 198v66q0 4 -1 7t-8 3h-257q-37 0 -37.5 50.5t37.5 50.5h322
q36 0 49.5 -18.5t13.5 -41.5v-118zM421 -49q-36 0 -49.5 18.5t-13.5 41.5v247q0 48 59.5 48t59.5 -48v-196q0 -4 1 -7t8 -3h430q37 0 37.5 -50.5t-37.5 -50.5h-495zM880 259q0 -48 -59.5 -48t-59.5 48v517q0 48 59.5 48t59.5 -48v-517z" />
    <glyph glyph-name="uniAC94" unicode="&#xac94;" 
d="M951 150q0 -23 -13.5 -41.5t-49.5 -18.5h-403q-7 0 -8 -3t-1 -7v-41q0 -4 1 -7t8 -3h454q38 0 37.5 -50.5t-37.5 -50.5h-519q-36 0 -49.5 18.5t-13.5 41.5v143q0 23 13.5 41.5t49.5 18.5h403q7 0 8 3t1 7v41q0 4 -1 7t-8 3h-434q-37 0 -37.5 50.5t37.5 50.5h499
q36 0 49.5 -18.5t13.5 -41.5v-143zM698 423q0 -48 -59.5 -48t-59.5 48v130h-80q-25 0 -33 21q-14 -65 -64 -157q-70 -128 -292 -208q-55 -20 -76.5 27t18.5 61q112 40 206.5 130t94.5 198v66q0 4 -1 7t-8 3h-257q-37 0 -37.5 50.5t37.5 50.5h322q36 0 49.5 -18.5t13.5 -41.5
v-99q9 11 27 11h80v122q0 48 59.5 48t59.5 -48v-353zM880 423q0 -48 -59.5 -48t-59.5 48v353q0 48 59.5 48t59.5 -48v-353z" />
    <glyph glyph-name="uniAC9C" unicode="&#xac9c;" 
d="M951 11q0 -23 -13.5 -41.5t-49.5 -18.5h-468q-36 0 -49.5 18.5t-13.5 41.5v235q0 23 13.5 41.5t49.5 18.5h468q36 0 49.5 -18.5t13.5 -41.5v-235zM698 377q0 -48 -59.5 -48t-59.5 48v151h-90q-21 0 -31 16q-17 -54 -54 -122q-67 -122 -294 -213q-54 -22 -76 26t18 62
q112 40 206.5 130t94.5 198v66q0 4 -1 7t-8 3h-257q-37 0 -37.5 50.5t37.5 50.5h322q36 0 49.5 -18.5t13.5 -41.5v-117q7 4 17 4h90v147q0 48 59.5 48t59.5 -48v-399zM880 377q0 -48 -59.5 -48t-59.5 48v399q0 48 59.5 48t59.5 -48v-399zM832 195q0 4 -1 7t-8 3h-338
q-7 0 -8 -3t-1 -7v-133q0 -4 1 -7t8 -3h338q7 0 8 3t1 7v133z" />
    <glyph glyph-name="uniAC9D" unicode="&#xac9d;" 
d="M698 395q0 -48 -59.5 -48t-59.5 48v138h-90q-20 0 -29 13q-17 -59 -58 -130q-70 -121 -292 -207q-54 -21 -76 26.5t18 61.5q112 40 206.5 130t94.5 198v66q0 4 -1 7t-8 3h-257q-37 0 -37.5 50.5t37.5 50.5h322q36 0 49.5 -18.5t13.5 -41.5v-112q7 4 17 4h90v142
q0 48 59.5 48t59.5 -48v-381zM951 -1q-1 -23 -14 -41.5t-49 -18.5h-468q-36 0 -49.5 18.5t-13.5 41.5v289q0 48 59.5 48t59.5 -48v-238q0 -4 1 -7t8 -3h338q7 0 8 3t1 7v79h-303q-37 0 -37.5 50.5t37.5 50.5h303v58q0 48 59.5 48t59.5 -48v-289zM880 395q0 -48 -59.5 -48
t-59.5 48v381q0 48 59.5 48t59.5 -48v-381z" />
    <glyph glyph-name="uniAC9F" unicode="&#xac9f;" 
d="M472 620q7 4 17 4h90v152q0 48 59.5 48t59.5 -48v-404q0 -48 -59.5 -48t-59.5 48v151h-90q-22 0 -32 18q-17 -53 -53 -118q-67 -123 -294 -214q-54 -22 -76 26t18 62q112 40 206.5 130t94.5 198v66q0 4 -1 7t-8 3h-257q-37 0 -37.5 50.5t37.5 50.5h322q36 0 49.5 -18.5
t13.5 -41.5v-118v-4zM379 -46q-37 -36 -83.5 1t-7.5 73l281 271q11 11 25 15t28 4t28.5 -4t25.5 -15l281 -271q38 -37 -7.5 -73.5t-83.5 -0.5l-243 241zM880 332q0 -48 -59.5 -48t-59.5 48v444q0 48 59.5 48t59.5 -48v-444z" />
    <glyph glyph-name="uniACA0" unicode="&#xaca0;" 
d="M698 397q0 -48 -59.5 -48t-59.5 48v136h-90q-21 0 -30 15q-18 -56 -57 -130q-70 -129 -292 -209q-55 -20 -76.5 27t18.5 61q112 40 206.5 130t94.5 198v66q0 4 -1 7t-8 3h-257q-37 0 -37.5 50.5t37.5 50.5h322q36 0 49.5 -18.5t13.5 -41.5v-112q7 4 17 4h90v142
q0 48 59.5 48t59.5 -48v-379zM593 -61q-16 -1 -29.5 4t-21.5 18l-119 216l-120 -216q-21 -37 -74 -16t-24 73l161 291q10 18 24 25t32 7q19 0 33 -7t24 -25l112 -202l112 202q10 18 24 25t32 7q19 0 33 -7t24 -25l161 -291q29 -52 -24 -73t-74 16l-119 216l-120 -216
q-7 -13 -20 -18t-27 -4zM880 397q0 -48 -59.5 -48t-59.5 48v379q0 48 59.5 48t59.5 -48v-379z" />
    <glyph glyph-name="uniACA1" unicode="&#xaca1;" 
d="M698 386q0 -48 -59.5 -48t-59.5 48v147h-90q-21 0 -30 15q-18 -55 -57 -127q-70 -127 -292 -212q-55 -21 -76.5 26.5t18.5 61.5q112 40 206.5 130t94.5 198v66q0 4 -1 7t-8 3h-257q-37 0 -37.5 50.5t37.5 50.5h322q36 0 49.5 -18.5t13.5 -41.5v-112q7 4 17 4h90v142
q0 48 59.5 48t59.5 -48v-390zM928 113q0 -86 -69 -147.5t-168 -61.5q-100 0 -169.5 61t-69.5 148t69.5 148t169.5 61q99 0 168 -61.5t69 -147.5zM880 371q0 -48 -59.5 -48t-59.5 48v405q0 48 59.5 48t59.5 -48v-405zM809 113q0 45 -34.5 76t-83.5 31t-83.5 -31t-34.5 -76
t34.5 -76t83.5 -31t83.5 31t34.5 76z" />
    <glyph glyph-name="uniACA8" unicode="&#xaca8;" 
d="M689 587q0 -32 -22.5 -54.5t-54.5 -22.5t-54.5 22.5t-22.5 54.5t22.5 54.5t54.5 22.5t54.5 -22.5t22.5 -54.5zM832 22q0 -48 -59.5 -48t-59.5 48v754q0 48 59.5 48t59.5 -48v-754zM689 317q0 -32 -22.5 -54.5t-54.5 -22.5t-54.5 22.5t-22.5 54.5t22.5 54.5t54.5 22.5
t54.5 -22.5t22.5 -54.5zM110 73q-56 -22 -77 24.5t19 63.5q110 47 225 156.5t115 251.5v122q0 4 -1 7t-8 3h-296q-37 0 -37.5 50.5t37.5 50.5h361q36 0 49.5 -18.5t13.5 -41.5v-194q0 -105 -94.5 -249t-306.5 -226z" />
    <glyph glyph-name="uniACA9" unicode="&#xaca9;" horiz-adv-x="951" 
d="M903 -14q0 -48 -59.5 -48t-59.5 48v209q0 4 -1 7t-8 3h-440q-37 0 -37.5 50.5t37.5 50.5h505q36 0 49.5 -18.5t13.5 -41.5v-260zM509 614q0 -87 -90.5 -208t-308.5 -197q-57 -19 -77.5 27.5t19.5 60.5q112 40 225 131.5t113 196.5v66q0 4 -1 7t-8 3h-294
q-37 0 -37.5 50.5t37.5 50.5h359q36 0 49.5 -18.5t13.5 -41.5v-128zM687 662q0 -32 -22.5 -54.5t-54.5 -22.5t-54.5 22.5t-22.5 54.5t22.5 54.5t54.5 22.5t54.5 -22.5t22.5 -54.5zM832 376q0 -48 -59.5 -48t-59.5 48v400q0 48 59.5 48t59.5 -48v-400zM687 457
q0 -32 -22.5 -54.5t-54.5 -22.5t-54.5 22.5t-22.5 54.5t22.5 54.5t54.5 22.5t54.5 -22.5t22.5 -54.5z" />
    <glyph glyph-name="uniACAA" unicode="&#xacaa;" 
d="M509 614q0 -87 -91 -208q-36 -49 -93 -90h146q36 0 49.5 -18.5t13.5 -41.5v-270q0 -48 -59.5 -48t-59.5 48v219q0 4 -1 7t-8 3h-182q-26 0 -34 25q-38 -16 -80 -31q-57 -19 -77.5 27.5t19.5 60.5q112 40 225 131.5t113 196.5v66q0 4 -1 7t-8 3h-294q-37 0 -37.5 50.5
t37.5 50.5h359q36 0 49.5 -18.5t13.5 -41.5v-128zM904 -14q0 -48 -59.5 -48t-59.5 48v219q0 4 -1 7t-8 3h-182q-37 0 -37.5 50.5t37.5 50.5h247q36 0 49.5 -18.5t13.5 -41.5v-270zM832 376q0 -48 -59.5 -48t-59.5 48v400q0 48 59.5 48t59.5 -48v-400zM687 662
q0 -32 -22.5 -54.5t-54.5 -22.5t-54.5 22.5t-22.5 54.5t22.5 54.5t54.5 22.5t54.5 -22.5t22.5 -54.5zM687 467q0 -32 -22.5 -54.5t-54.5 -22.5t-54.5 22.5t-22.5 54.5t22.5 54.5t54.5 22.5t54.5 -22.5t22.5 -54.5z" />
    <glyph glyph-name="uniACAC" unicode="&#xacac;" horiz-adv-x="951" 
d="M373 -49q-36 0 -49.5 18.5t-13.5 41.5v247q0 48 59.5 48t59.5 -48v-196q0 -4 1 -7t8 -3h440q37 0 37.5 -50.5t-37.5 -50.5h-505zM509 614q0 -87 -89.5 -209t-309.5 -196q-57 -19 -77.5 27.5t19.5 60.5q112 40 225 131.5t113 196.5v66q0 4 -1 7t-8 3h-294
q-37 0 -37.5 50.5t37.5 50.5h359q36 0 49.5 -18.5t13.5 -41.5v-128zM832 258q0 -48 -59.5 -48t-59.5 48v518q0 48 59.5 48t59.5 -48v-518zM687 632q0 -32 -22.5 -54.5t-54.5 -22.5t-54.5 22.5t-22.5 54.5t22.5 54.5t54.5 22.5t54.5 -22.5t22.5 -54.5zM687 407
q0 -32 -22.5 -54.5t-54.5 -22.5t-54.5 22.5t-22.5 54.5t22.5 54.5t54.5 22.5t54.5 -22.5t22.5 -54.5z" />
    <glyph glyph-name="uniACAF" unicode="&#xacaf;" horiz-adv-x="951" 
d="M373 -61q-36 0 -49.5 18.5t-13.5 41.5v247q0 23 13.5 41.5t49.5 18.5h494q38 0 39 -50.5t-39 -50.5h-429q-7 0 -8 -3t-1 -7v-145q0 -4 1 -7t8 -3h452q38 0 39 -50.5t-39 -50.5h-517zM511 614q0 -87 -90.5 -209t-310.5 -196q-57 -19 -77.5 27.5t19.5 60.5
q112 40 226 131.5t114 196.5v66q0 4 -1 7t-8 3h-296q-37 0 -37.5 50.5t37.5 50.5h361q36 0 49.5 -18.5t13.5 -41.5v-128zM832 375q0 -48 -59.5 -48t-59.5 48v401q0 48 59.5 48t59.5 -48v-401zM687 457q0 -32 -22.5 -54.5t-54.5 -22.5t-54.5 22.5t-22.5 54.5t22.5 54.5
t54.5 22.5t54.5 -22.5t22.5 -54.5zM687 652q0 -32 -22.5 -54.5t-54.5 -22.5t-54.5 22.5t-22.5 54.5t22.5 54.5t54.5 22.5t54.5 -22.5t22.5 -54.5z" />
    <glyph glyph-name="uniACB0" unicode="&#xacb0;" horiz-adv-x="951" 
d="M511 614q0 -87 -95 -209q-21 -27 -48 -52h473q36 0 49.5 -18.5t13.5 -41.5v-143q0 -23 -13.5 -41.5t-49.5 -18.5h-403q-7 0 -8 -3t-1 -7v-41q0 -4 1 -7t8 -3h454q38 0 37.5 -50.5t-37.5 -50.5h-519q-36 0 -49.5 18.5t-13.5 41.5v143q0 23 13.5 41.5t49.5 18.5h403
q7 0 8 3t1 7v41q0 4 -1 7t-8 3h-434q-37 0 -38 50q-80 -53 -194 -93q-57 -20 -77.5 27t19.5 61q112 40 226 131.5t114 196.5v66q0 4 -1 7t-8 3h-296q-37 0 -37.5 50.5t37.5 50.5h361q36 0 49.5 -18.5t13.5 -41.5v-128zM832 418q0 -48 -59.5 -48t-59.5 48v359q0 48 59.5 48
t59.5 -48v-359zM690 682q0 -32 -22.5 -54.5t-54.5 -22.5t-54.5 22.5t-22.5 54.5t22.5 54.5t54.5 22.5t54.5 -22.5t22.5 -54.5zM690 492q0 -32 -22.5 -54.5t-54.5 -22.5t-54.5 22.5t-22.5 54.5t22.5 54.5t54.5 22.5t54.5 -22.5t22.5 -54.5z" />
    <glyph glyph-name="uniACB8" unicode="&#xacb8;" horiz-adv-x="951" 
d="M904 1q0 -23 -13.5 -41.5t-49.5 -18.5h-468q-36 0 -49.5 18.5t-13.5 41.5v245q0 23 13.5 41.5t49.5 18.5h468q36 0 49.5 -18.5t13.5 -41.5v-245zM785 195q0 4 -1 7t-8 3h-338q-7 0 -8 -3t-1 -7v-143q0 -4 1 -7t8 -3h338q7 0 8 3t1 7v143zM511 614q0 -87 -94.5 -209.5
t-306.5 -195.5q-57 -19 -77.5 27.5t19.5 60.5q112 40 226 131.5t114 196.5v66q0 4 -1 7t-8 3h-296q-37 0 -37.5 50.5t37.5 50.5h361q36 0 49.5 -18.5t13.5 -41.5v-128zM832 375q0 -48 -59.5 -48t-59.5 48v401q0 48 59.5 48t59.5 -48v-401zM687 652q0 -32 -22.5 -54.5
t-54.5 -22.5t-54.5 22.5t-22.5 54.5t22.5 54.5t54.5 22.5t54.5 -22.5t22.5 -54.5zM687 457q0 -32 -22.5 -54.5t-54.5 -22.5t-54.5 22.5t-22.5 54.5t22.5 54.5t54.5 22.5t54.5 -22.5t22.5 -54.5z" />
    <glyph glyph-name="uniACB9" unicode="&#xacb9;" horiz-adv-x="951" 
d="M904 -1q-1 -23 -14 -41.5t-49 -18.5h-468q-36 0 -49.5 18.5t-13.5 41.5v289q0 9 2 17q-81 -56 -202 -96q-57 -19 -77.5 27.5t19.5 60.5q112 40 226 131.5t114 196.5v66q0 4 -1 7t-8 3h-296q-37 0 -37.5 50.5t37.5 50.5h361q36 0 49.5 -18.5t13.5 -41.5v-128
q0 -82 -91 -207q-28 -39 -69 -73q8 2 18 2q60 0 60 -48v-238q0 -4 1 -7t8 -3h338q7 0 8 3t1 7v79h-304q-37 0 -37.5 50.5t37.5 50.5h304v58q0 48 59.5 48t59.5 -48v-289zM832 390q0 -48 -59.5 -48t-59.5 48v387q0 48 59.5 48t59.5 -48v-387zM687 682q0 -32 -22.5 -54.5
t-54.5 -22.5t-54.5 22.5t-22.5 54.5t22.5 54.5t54.5 22.5t54.5 -22.5t22.5 -54.5zM687 487q0 -32 -22.5 -54.5t-54.5 -22.5t-54.5 22.5t-22.5 54.5t22.5 54.5t54.5 22.5t54.5 -22.5t22.5 -54.5z" />
    <glyph glyph-name="uniACBB" unicode="&#xacbb;" horiz-adv-x="951" 
d="M511 614q0 -78 -90.5 -204.5t-310.5 -200.5q-57 -19 -77.5 27.5t19.5 60.5q112 40 226 131.5t114 196.5v66q0 4 -1 7t-8 3h-296q-37 0 -37.5 50.5t37.5 50.5h361q36 0 49.5 -18.5t13.5 -41.5v-128zM351 -46q-37 -36 -83.5 1t-7.5 73l281 271q11 11 25 15t28 4t28.5 -4
t25.5 -15l281 -271q38 -37 -7.5 -73.5t-83.5 -0.5l-243 241zM832 318q0 -48 -59.5 -48t-59.5 48v458q0 48 59.5 48t59.5 -48v-458zM687 662q0 -32 -22.5 -54.5t-54.5 -22.5t-54.5 22.5t-22.5 54.5t22.5 54.5t54.5 22.5t54.5 -22.5t22.5 -54.5zM687 457q0 -32 -22.5 -54.5
t-54.5 -22.5t-54.5 22.5t-22.5 54.5t22.5 54.5t54.5 22.5t54.5 -22.5t22.5 -54.5z" />
    <glyph glyph-name="uniACBC" unicode="&#xacbc;" horiz-adv-x="951" 
d="M511 644q0 -82 -90.5 -191.5t-310.5 -183.5q-57 -19 -77.5 27.5t19.5 60.5q112 40 226 116.5t114 181.5v36q0 4 -1 7t-8 3h-296q-37 0 -37.5 50.5t37.5 50.5h361q36 0 49.5 -18.5t13.5 -41.5v-98zM832 392q0 -48 -59.5 -48t-59.5 48v385q0 48 59.5 48t59.5 -48v-385z
M551 -62q-16 -1 -29.5 4t-21.5 18l-119 216l-120 -216q-21 -37 -74 -16t-24 73l161 291q10 18 24 25t32 7q19 0 33 -7t24 -25l112 -202l112 202q10 18 24 25t32 7q19 0 33 -7t24 -25l161 -291q29 -52 -24 -73t-74 16l-119 216l-120 -216q-7 -13 -20 -18t-27 -4zM687 672
q0 -32 -22.5 -54.5t-54.5 -22.5t-54.5 22.5t-22.5 54.5t22.5 54.5t54.5 22.5t54.5 -22.5t22.5 -54.5zM687 477q0 -32 -22.5 -54.5t-54.5 -22.5t-54.5 22.5t-22.5 54.5t22.5 54.5t54.5 22.5t54.5 -22.5t22.5 -54.5z" />
    <glyph glyph-name="uniACBD" unicode="&#xacbd;" horiz-adv-x="951" 
d="M511 614q0 -79 -90.5 -205t-310.5 -200q-57 -19 -77.5 27.5t19.5 60.5q112 40 226 131.5t114 196.5v66q0 4 -1 7t-8 3h-296q-37 0 -37.5 50.5t37.5 50.5h361q36 0 49.5 -18.5t13.5 -41.5v-128zM880 113q0 -86 -69 -147.5t-168 -61.5q-100 0 -169.5 61t-69.5 148t69.5 148
t169.5 61q99 0 168 -61.5t69 -147.5zM761 113q0 45 -34.5 76t-83.5 31t-83.5 -31t-34.5 -76t34.5 -76t83.5 -31t83.5 31t34.5 76zM832 374q0 -48 -59.5 -48t-59.5 48v402q0 48 59.5 48t59.5 -48v-402zM687 662q0 -32 -22.5 -54.5t-54.5 -22.5t-54.5 22.5t-22.5 54.5
t22.5 54.5t54.5 22.5t54.5 -22.5t22.5 -54.5zM687 457q0 -32 -22.5 -54.5t-54.5 -22.5t-54.5 22.5t-22.5 54.5t22.5 54.5t54.5 22.5t54.5 -22.5t22.5 -54.5z" />
    <glyph glyph-name="uniACC1" unicode="&#xacc1;" horiz-adv-x="951" 
d="M511 614q0 -79 -91 -205q-24 -34 -57 -64q5 1 10 1h495q38 0 39 -50.5t-39 -50.5h-430q-7 0 -8 -3t-1 -7v-32h437q38 0 37.5 -50.5t-37.5 -50.5h-437v-40q0 -4 1 -7t8 -3h453q38 0 39 -50.5t-39 -50.5h-518q-36 0 -49.5 18.5t-13.5 41.5v275q0 10 3 20q-82 -56 -203 -97
q-57 -19 -77.5 27.5t19.5 60.5q112 40 226 131.5t114 196.5v66q0 4 -1 7t-8 3h-296q-37 0 -37.5 50.5t37.5 50.5h361q36 0 49.5 -18.5t13.5 -41.5v-128zM832 418q0 -48 -59.5 -48t-59.5 48v359q0 48 59.5 48t59.5 -48v-359zM690 682q0 -32 -22.5 -54.5t-54.5 -22.5
t-54.5 22.5t-22.5 54.5t22.5 54.5t54.5 22.5t54.5 -22.5t22.5 -54.5zM690 492q0 -32 -22.5 -54.5t-54.5 -22.5t-54.5 22.5t-22.5 54.5t22.5 54.5t54.5 22.5t54.5 -22.5t22.5 -54.5z" />
    <glyph glyph-name="uniACC4" unicode="&#xacc4;" horiz-adv-x="975" 
d="M110 73q-55 -23 -76.5 24t18.5 64q110 47 206 157t96 251v122q0 4 -1 7t-8 3h-258q-37 0 -37.5 50.5t37.5 50.5h323q36 0 49.5 -18.5t13.5 -41.5v-101q7 3 16 3h90v132q0 48 59.5 48t59.5 -48v-754q0 -48 -59.5 -48t-59.5 48v241h-110q-37 0 -37.5 50.5t37.5 50.5h110
v179h-90q-9 0 -16 3q-1 -83 -78 -234q-77 -153 -285 -239zM880 22q0 -48 -59.5 -48t-59.5 48v754q0 48 59.5 48t59.5 -48v-754z" />
    <glyph glyph-name="uniACC8" unicode="&#xacc8;" 
d="M698 259q0 -48 -59.5 -48t-59.5 48v114h-95q-37 0 -37.5 50.5t37.5 50.5h95v109h-85q-16 0 -25 8q-10 -72 -67 -175q-70 -127 -292 -207q-55 -20 -76.5 27t18.5 61q112 40 206.5 130t94.5 198v66q0 4 -1 7t-8 3h-257q-37 0 -37.5 50.5t37.5 50.5h322q36 0 49.5 -18.5
t13.5 -41.5v-64q8 6 22 6h85v92q0 48 59.5 48t59.5 -48v-517zM421 -49q-36 0 -49.5 18.5t-13.5 41.5v247q0 48 59.5 48t59.5 -48v-196q0 -4 1 -7t8 -3h430q37 0 37.5 -50.5t-37.5 -50.5h-495zM880 259q0 -48 -59.5 -48t-59.5 48v517q0 48 59.5 48t59.5 -48v-517z" />
    <glyph glyph-name="uniACCC" unicode="&#xaccc;" 
d="M951 150q0 -23 -13.5 -41.5t-49.5 -18.5h-403q-7 0 -8 -3t-1 -7v-41q0 -4 1 -7t8 -3h454q38 0 37.5 -50.5t-37.5 -50.5h-519q-36 0 -49.5 18.5t-13.5 41.5v143q0 23 13.5 41.5t49.5 18.5h403q7 0 8 3t1 7v41q0 4 -1 7t-8 3h-434q-37 0 -37.5 50.5t37.5 50.5h499
q36 0 49.5 -18.5t13.5 -41.5v-143zM472 624q0 -78 -70 -206.5t-292 -208.5q-55 -20 -76.5 27t18.5 61q112 40 206.5 130t94.5 198v66q0 4 -1 7t-8 3h-257q-37 0 -37.5 50.5t37.5 50.5h322q36 0 49.5 -18.5t13.5 -41.5v-24q9 11 27 11h80v47q0 48 59.5 48t59.5 -48v-353
q0 -48 -59.5 -48t-59.5 48v30h-80q-37 0 -37.5 50.5t37.5 50.5h80v74h-80q-18 0 -27 11v-15zM880 423q0 -48 -59.5 -48t-59.5 48v353q0 48 59.5 48t59.5 -48v-353z" />
    <glyph glyph-name="uniACD5" unicode="&#xacd5;" 
d="M472 624q0 -87 -70 -208t-292 -207q-54 -21 -76 26.5t18 61.5q112 40 206.5 130t94.5 198v66q0 4 -1 7t-8 3h-257q-37 0 -37.5 50.5t37.5 50.5h322q36 0 49.5 -18.5t13.5 -41.5v-34q9 11 27 11h80v57q0 48 59.5 48t59.5 -48v-381q0 -48 -59.5 -48t-59.5 48v48h-80
q-37 0 -37.5 50.5t37.5 50.5h80v74h-80q-18 0 -27 11v-5zM951 -1q-1 -23 -14 -41.5t-49 -18.5h-468q-36 0 -49.5 18.5t-13.5 41.5v289q0 48 59.5 48t59.5 -48v-238q0 -4 1 -7t8 -3h338q7 0 8 3t1 7v79h-303q-37 0 -37.5 50.5t37.5 50.5h303v58q0 48 59.5 48t59.5 -48v-289z
M880 395q0 -48 -59.5 -48t-59.5 48v381q0 48 59.5 48t59.5 -48v-381z" />
    <glyph glyph-name="uniACD7" unicode="&#xacd7;" 
d="M698 372q0 -48 -59.5 -48t-59.5 48v57h-80q-37 0 -37.5 50.5t37.5 50.5h80v78h-80q-18 0 -27 11q-2 -77 -68 -196q-67 -123 -294 -214q-54 -22 -76 26t18 62q112 40 206.5 130t94.5 198v66q0 4 -1 7t-8 3h-257q-37 0 -37.5 50.5t37.5 50.5h322q36 0 49.5 -18.5
t13.5 -41.5v-44q9 11 27 11h80v67q0 48 59.5 48t59.5 -48v-404zM379 -44q-37 -36 -83.5 1t-7.5 73l281 271q11 11 25 15t28 4t28.5 -4t25.5 -15l281 -271q38 -37 -7.5 -73.5t-83.5 -0.5l-243 241zM880 332q0 -48 -59.5 -48t-59.5 48v444q0 48 59.5 48t59.5 -48v-444z" />
    <glyph glyph-name="uniACE0" unicode="&#xace0;" horiz-adv-x="785" 
d="M430 130q0 -23 -13.5 -41.5t-49.5 -18.5h-314q-38 0 -37.5 50.5t37.5 50.5h249q7 0 8 3t1 7v293q0 48 59.5 48t59.5 -48v-344zM704 175q0 -48 -59.5 -48t-59.5 48v516q0 4 -1 7t-8 3h-448q-37 0 -37.5 50.5t37.5 50.5h513q36 0 49.5 -18.5t13.5 -41.5v-567z" />
    <glyph glyph-name="uniACE1" unicode="&#xace1;" horiz-adv-x="856" 
d="M440 422q0 -23 -13.5 -41.5t-49.5 -18.5h-324q-38 0 -37.5 50.5t37.5 50.5h259q7 0 8 3t1 7v117q0 48 59.5 48t59.5 -48v-168zM714 425q0 -48 -59.5 -48t-59.5 48v266q0 4 -1 7t-8 3h-458q-37 0 -37.5 50.5t37.5 50.5h523q36 0 49.5 -18.5t13.5 -41.5v-317zM786 -12
q0 -48 -59.5 -48t-59.5 48v197q0 4 -1 7t-8 3h-433q-37 0 -37.5 50.5t37.5 50.5h498q36 0 49.5 -18.5t13.5 -41.5v-248z" />
    <glyph glyph-name="uniACE4" unicode="&#xace4;" horiz-adv-x="856" 
d="M440 392q0 -23 -13.5 -41.5t-49.5 -18.5h-324q-38 0 -37.5 50.5t37.5 50.5h259q7 0 8 3t1 7v157q0 48 59.5 48t59.5 -48v-208zM714 415q0 -48 -59.5 -48t-59.5 48v276q0 4 -1 7t-8 3h-458q-37 0 -37.5 50.5t37.5 50.5h523q36 0 49.5 -18.5t13.5 -41.5v-327zM254 -49
q-36 0 -49.5 18.5t-13.5 41.5v227q0 48 59.5 48t59.5 -48v-176q0 -4 1 -7t8 -3h430q39 0 38 -50.5t-39 -50.5h-494z" />
    <glyph glyph-name="uniACE7" unicode="&#xace7;" horiz-adv-x="856" 
d="M440 424q0 -23 -13.5 -41.5t-49.5 -18.5h-324q-38 0 -37.5 50.5t37.5 50.5h259q7 0 8 3t1 7v125q0 48 59.5 48t59.5 -48v-176zM714 427q0 -48 -59.5 -48t-59.5 48v264q0 4 -1 7t-8 3h-458q-37 0 -37.5 50.5t37.5 50.5h523q36 0 49.5 -18.5t13.5 -41.5v-315zM254 -59
q-36 0 -49.5 18.5t-13.5 41.5v225q0 23 13.5 41.5t49.5 18.5h495q38 0 39 -50.5t-39 -50.5h-430q-7 0 -8 -3t-1 -7v-123q0 -4 1 -7t8 -3h453q38 0 39 -50.5t-39 -50.5h-518z" />
    <glyph glyph-name="uniACE8" unicode="&#xace8;" horiz-adv-x="856" 
d="M440 444q0 -23 -13.5 -41.5t-49.5 -18.5h-324q-38 0 -37.5 50.5t37.5 50.5h259q7 0 8 3t1 7v115q0 48 59.5 48t59.5 -48v-166zM714 447q0 -48 -59.5 -48t-59.5 48v244q0 4 -1 7t-8 3h-458q-37 0 -37.5 50.5t37.5 50.5h523q36 0 49.5 -18.5t13.5 -41.5v-295zM785 140
q0 -23 -13.5 -41.5t-49.5 -18.5h-403q-7 0 -8 -3t-1 -7v-31q0 -4 1 -7t8 -3h454q38 0 37.5 -50.5t-37.5 -50.5h-519q-36 0 -49.5 18.5t-13.5 41.5v133q0 23 13.5 41.5t49.5 18.5h403q7 0 8 3t1 7v31q0 4 -1 7t-8 3h-429q-37 0 -37.5 50.5t37.5 50.5h494q36 0 49.5 -18.5
t13.5 -41.5v-133z" />
    <glyph glyph-name="uniACEA" unicode="&#xacea;" horiz-adv-x="856" 
d="M440 449q0 -23 -13.5 -41.5t-49.5 -18.5h-324q-38 0 -37.5 50.5t37.5 50.5h259q7 0 8 3t1 7v115q0 48 59.5 48t59.5 -48v-166zM714 447q0 -48 -59.5 -48t-59.5 48v244q0 4 -1 7t-8 3h-458q-37 0 -37.5 50.5t37.5 50.5h523q36 0 49.5 -18.5t13.5 -41.5v-295zM439 135
q0 -23 -13.5 -41.5t-49.5 -18.5h-147q-7 0 -8 -3t-1 -7v-36q0 -4 1 -7t8 -3h198q38 0 37.5 -50.5t-37.5 -50.5h-263q-36 0 -49.5 18.5t-13.5 41.5v138q0 23 13.5 41.5t49.5 18.5h147q7 0 8 3t1 7v36q0 4 -1 7t-8 3h-178q-37 0 -37.5 50.5t37.5 50.5h243q36 0 49.5 -18.5
t13.5 -41.5v-138zM809 -22q0 -23 -13.5 -41.5t-49.5 -18.5h-204q-36 0 -49.5 18.5t-13.5 41.5v295q0 23 13.5 41.5t49.5 18.5h204q36 0 49.5 -18.5t13.5 -41.5v-295zM690 222q0 4 -1 7t-8 3h-74q-7 0 -8 -3t-1 -7v-193q0 -4 1 -7t8 -3h74q7 0 8 3t1 7v193z" />
    <glyph glyph-name="uniACEC" unicode="&#xacec;" horiz-adv-x="856" 
d="M837 0q29 -52 -24 -73t-74 16l-110 221l-109 -221q-20 -35 -70 -17q-9 -8 -23 -8h-263q-36 0 -49.5 18.5t-13.5 41.5v138q0 23 13.5 41.5t49.5 18.5h147q7 0 8 3t1 7v36q0 4 -1 7t-8 3h-178q-37 0 -37.5 50.5t37.5 50.5h243q36 0 49.5 -18.5t13.5 -41.5v-138
q0 -23 -13.5 -41.5t-49.5 -18.5h-147q-7 0 -8 -3t-1 -7v-36q0 -4 1 -7t8 -3h198h4l140 287q2 6 5 11l2 4q19 35 51 29q32 6 52 -29l3 -8q2 -2 3 -5zM714 447q0 -48 -59.5 -48t-59.5 48v244q0 4 -1 7t-8 3h-458q-37 0 -37.5 50.5t37.5 50.5h523q36 0 49.5 -18.5t13.5 -41.5
v-295zM440 449q0 -23 -13.5 -41.5t-49.5 -18.5h-324q-38 0 -37.5 50.5t37.5 50.5h259q7 0 8 3t1 7v115q0 48 59.5 48t59.5 -48v-166z" />
    <glyph glyph-name="uniACEF" unicode="&#xacef;" horiz-adv-x="856" 
d="M439 135q0 -23 -13.5 -41.5t-49.5 -18.5h-147q-7 0 -8 -3t-1 -7v-36q0 -4 1 -7t8 -3h198q38 0 37.5 -50.5t-37.5 -50.5h-263q-36 0 -49.5 18.5t-13.5 41.5v138q0 23 13.5 41.5t49.5 18.5h147q7 0 8 3t1 7v36q0 4 -1 7t-8 3h-178q-37 0 -37.5 50.5t37.5 50.5h243
q36 0 49 -19q11 -14 13 -31q8 4 19 4h119v51q0 48 59.5 48t59.5 -48v-51h116q39 0 38.5 -50.5t-38.5 -50.5h-43q43 -47 43 -110q0 -69 -51.5 -118.5t-123.5 -49.5q-73 0 -125 49t-52 119q0 63 43 110h-45q-11 0 -18 4v-55zM714 457q0 -48 -59.5 -48t-59.5 48v234q0 4 -1 7
t-8 3h-458q-37 0 -37.5 50.5t37.5 50.5h523q36 0 49.5 -18.5t13.5 -41.5v-285zM440 449q0 -23 -13.5 -41.5t-49.5 -18.5h-324q-38 0 -37.5 50.5t37.5 50.5h259q7 0 8 3t1 7v115q0 48 59.5 48t59.5 -48v-166zM692 76q0 29 -16.5 48.5t-39.5 19.5t-40 -19.5t-17 -48.5
q0 -28 17 -48t40 -20t39.5 20t16.5 48z" />
    <glyph glyph-name="uniACF0" unicode="&#xacf0;" horiz-adv-x="856" 
d="M440 424q0 -23 -13.5 -41.5t-49.5 -18.5h-324q-38 0 -37.5 50.5t37.5 50.5h259q7 0 8 3t1 7v125q0 48 59.5 48t59.5 -48v-176zM714 427q0 -48 -59.5 -48t-59.5 48v264q0 4 -1 7t-8 3h-458q-37 0 -37.5 50.5t37.5 50.5h523q36 0 49.5 -18.5t13.5 -41.5v-315zM785 1
q0 -23 -13.5 -41.5t-49.5 -18.5h-468q-36 0 -49.5 18.5t-13.5 41.5v225q0 23 13.5 41.5t49.5 18.5h468q36 0 49.5 -18.5t13.5 -41.5v-225zM666 175q0 4 -1 7t-8 3h-338q-7 0 -8 -3t-1 -7v-123q0 -4 1 -7t8 -3h338q7 0 8 3t1 7v123z" />
    <glyph glyph-name="uniACF1" unicode="&#xacf1;" horiz-adv-x="856" 
d="M785 -1q-1 -23 -14 -41.5t-49 -18.5h-468q-36 0 -49.5 18.5t-13.5 41.5v286q0 48 59.5 48t59.5 -48v-235q0 -4 1 -7t8 -3h338q7 0 8 3t1 7v77h-303q-37 0 -37.5 50.5t37.5 50.5h303v57q0 48 59.5 48t59.5 -48v-286zM714 437q0 -48 -59.5 -48t-59.5 48v254q0 4 -1 7t-8 3
h-458q-37 0 -37.5 50.5t37.5 50.5h523q36 0 49.5 -18.5t13.5 -41.5v-305zM440 434q0 -23 -13.5 -41.5t-49.5 -18.5h-324q-38 0 -37.5 50.5t37.5 50.5h259q7 0 8 3t1 7v125q0 48 59.5 48t59.5 -48v-176z" />
    <glyph glyph-name="uniACF3" unicode="&#xacf3;" horiz-adv-x="856" 
d="M440 414q0 -23 -13.5 -41.5t-49.5 -18.5h-324q-38 0 -37.5 50.5t37.5 50.5h259q7 0 8 3t1 7v135q0 48 59.5 48t59.5 -48v-186zM714 417q0 -48 -59.5 -48t-59.5 48v274q0 4 -1 7t-8 3h-458q-37 0 -37.5 50.5t37.5 50.5h523q36 0 49.5 -18.5t13.5 -41.5v-325zM243 -46
q-39 -38 -84.5 0t-6.5 74l281 271q11 11 25 15t28 4t28.5 -4t25.5 -15l281 -271q38 -37 -7.5 -73.5t-83.5 -0.5l-243 241z" />
    <glyph glyph-name="uniACF5" unicode="&#xacf5;" horiz-adv-x="856" 
d="M440 414q0 -23 -13.5 -41.5t-49.5 -18.5h-324q-38 0 -37.5 50.5t37.5 50.5h259q7 0 8 3t1 7v135q0 48 59.5 48t59.5 -48v-186zM714 417q0 -48 -59.5 -48t-59.5 48v274q0 4 -1 7t-8 3h-458q-37 0 -37.5 50.5t37.5 50.5h523q36 0 49.5 -18.5t13.5 -41.5v-325zM726 113
q0 -86 -69 -147.5t-168 -61.5q-100 0 -169.5 61t-69.5 148t69.5 148t169.5 61q99 0 168 -61.5t69 -147.5zM607 113q0 45 -34.5 76t-83.5 31t-83.5 -31t-34.5 -76t34.5 -76t83.5 -31t83.5 31t34.5 76z" />
    <glyph glyph-name="uniACF6" unicode="&#xacf6;" horiz-adv-x="856" 
d="M192 217q-37 0 -37.5 50.5t37.5 50.5h594q39 0 38.5 -50.5t-38.5 -50.5h-207l240 -189q38 -30 -4.5 -69.5t-86.5 -4.5l-240 195l-237 -195q-44 -36 -87 3.5t-4 70.5l236 189h-204zM714 437q0 -48 -59.5 -48t-59.5 48v254q0 4 -1 7t-8 3h-458q-37 0 -37.5 50.5t37.5 50.5
h523q36 0 49.5 -18.5t13.5 -41.5v-305zM440 432q0 -23 -13.5 -41.5t-49.5 -18.5h-324q-38 0 -37.5 50.5t37.5 50.5h259q7 0 8 3t1 7v127q0 48 59.5 48t59.5 -48v-178z" />
    <glyph glyph-name="uniACFC" unicode="&#xacfc;" horiz-adv-x="975" 
d="M956 467q0 -32 -22.5 -54.5t-54.5 -22.5t-54.5 22.5t-22.5 54.5t22.5 54.5t54.5 22.5t54.5 -22.5t22.5 -54.5zM769 22q0 -48 -59.5 -48t-59.5 48v754q0 48 59.5 48t59.5 -48v-754zM571 188q0 -48 -59.5 -48t-59.5 48v503q0 4 -1 7t-8 3h-339q-37 0 -37.5 50.5t37.5 50.5
h404q36 0 49.5 -18.5t13.5 -41.5v-554zM360 155q0 -23 -13.5 -41.5t-49.5 -18.5h-244q-38 0 -37.5 50.5t37.5 50.5h179q7 0 8 3t1 7v302q0 48 59.5 48t59.5 -48v-353z" />
    <glyph glyph-name="uniACFD" unicode="&#xacfd;" 
d="M951 -12q0 -48 -59.5 -48t-59.5 48v207q0 4 -1 7t-8 3h-440q-37 0 -37.5 50.5t37.5 50.5h505q36 0 49.5 -18.5t13.5 -41.5v-258zM956 589q0 -32 -22.5 -54.5t-54.5 -22.5t-54.5 22.5t-22.5 54.5t22.5 54.5t54.5 22.5t54.5 -22.5t22.5 -54.5zM769 375q0 -48 -59.5 -48
t-59.5 48v401q0 48 59.5 48t59.5 -48v-401zM571 381q0 -48 -59.5 -48t-59.5 48v310q0 4 -1 7t-8 3h-339q-37 0 -37.5 50.5t37.5 50.5h404q36 0 49.5 -18.5t13.5 -41.5v-361zM360 347q0 -23 -13.5 -41.5t-49.5 -18.5h-244q-38 0 -37.5 50.5t37.5 50.5h179q7 0 8 3t1 7v162
q0 48 59.5 48t59.5 -48v-213z" />
    <glyph glyph-name="uniAD00" unicode="&#xad00;" 
d="M571 371q0 -48 -59.5 -48t-59.5 48v320q0 4 -1 7t-8 3h-339q-37 0 -37.5 50.5t37.5 50.5h404q36 0 49.5 -18.5t13.5 -41.5v-371zM360 337q0 -23 -13.5 -41.5t-49.5 -18.5h-244q-38 0 -37.5 50.5t37.5 50.5h179q7 0 8 3t1 7v172q0 48 59.5 48t59.5 -48v-223zM421 -49
q-36 0 -49.5 18.5t-13.5 41.5v237q0 48 59.5 48t59.5 -48v-186q0 -4 1 -7t8 -3h430q37 0 37.5 -50.5t-37.5 -50.5h-495zM956 547q0 -32 -22.5 -54.5t-54.5 -22.5t-54.5 22.5t-22.5 54.5t22.5 54.5t54.5 22.5t54.5 -22.5t22.5 -54.5zM769 248q0 -48 -59.5 -48t-59.5 48v528
q0 48 59.5 48t59.5 -48v-528z" />
    <glyph glyph-name="uniAD04" unicode="&#xad04;" 
d="M571 425q0 -48 -59.5 -48t-59.5 48v266q0 4 -1 7t-8 3h-339q-37 0 -37.5 50.5t37.5 50.5h404q36 0 49.5 -18.5t13.5 -41.5v-317zM360 391q0 -23 -13.5 -41.5t-49.5 -18.5h-244q-38 0 -37.5 50.5t37.5 50.5h179q7 0 8 3t1 7v128q0 48 59.5 48t59.5 -48v-179zM956 617
q0 -32 -22.5 -54.5t-54.5 -22.5t-54.5 22.5t-22.5 54.5t22.5 54.5t54.5 22.5t54.5 -22.5t22.5 -54.5zM769 418q0 -48 -59.5 -48t-59.5 48v359q0 48 59.5 48t59.5 -48v-359zM951 150q0 -23 -13.5 -41.5t-49.5 -18.5h-403q-7 0 -8 -3t-1 -7v-41q0 -4 1 -7t8 -3h454
q38 0 37.5 -50.5t-37.5 -50.5h-519q-36 0 -49.5 18.5t-13.5 41.5v143q0 23 13.5 41.5t49.5 18.5h403q7 0 8 3t1 7v41q0 4 -1 7t-8 3h-429q-37 0 -37.5 50.5t37.5 50.5h494q36 0 49.5 -18.5t13.5 -41.5v-143z" />
    <glyph glyph-name="uniAD06" unicode="&#xad06;" 
d="M360 391q0 -23 -14 -42q-9 -12 -27 -16h175q36 0 49.5 -18.5t13.5 -41.5v-133q0 -23 -13.5 -41.5t-49.5 -18.5h-163q-7 0 -8 -3t-1 -7v-31q0 -4 1 -7t8 -3h214q38 0 37.5 -50.5t-37.5 -50.5h-279q-36 0 -49.5 18.5t-13.5 41.5v133q0 23 13.5 41.5t49.5 18.5h163q7 0 8 3
t1 7v31q0 4 -1 7t-8 3h-194q-37 0 -38 50q0 41 24 49h-168q-38 0 -37.5 50.5t37.5 50.5h179q7 0 8 3t1 7v128q0 48 59.5 48t59.5 -48v-179zM951 -12q0 -23 -13.5 -41.5t-49.5 -18.5h-228q-36 0 -49.5 18.5t-13.5 41.5v285q0 23 13.5 41.5t49.5 18.5h228q36 0 49.5 -18.5
t13.5 -41.5v-285zM571 413q0 -48 -59.5 -48t-59.5 48v278q0 4 -1 7t-8 3h-339q-37 0 -37.5 50.5t37.5 50.5h404q36 0 49.5 -18.5t13.5 -41.5v-329zM769 406q0 -48 -59.5 -48t-59.5 48v371q0 48 59.5 48t59.5 -48v-371zM832 222q0 4 -1 7t-8 3h-98q-7 0 -8 -3t-1 -7v-183
q0 -4 1 -7t8 -3h98q7 0 8 3t1 7v183zM956 607q0 -32 -22.5 -54.5t-54.5 -22.5t-54.5 22.5t-22.5 54.5t22.5 54.5t54.5 22.5t54.5 -22.5t22.5 -54.5z" />
    <glyph glyph-name="uniAD0C" unicode="&#xad0c;" 
d="M956 599q0 -32 -22.5 -54.5t-54.5 -22.5t-54.5 22.5t-22.5 54.5t22.5 54.5t54.5 22.5t54.5 -22.5t22.5 -54.5zM769 365q0 -48 -59.5 -48t-59.5 48v411q0 48 59.5 48t59.5 -48v-411zM571 365q0 -48 -59.5 -48t-59.5 48v326q0 4 -1 7t-8 3h-339q-37 0 -37.5 50.5t37.5 50.5
h404q36 0 49.5 -18.5t13.5 -41.5v-377zM360 347q0 -23 -13.5 -41.5t-49.5 -18.5h-244q-38 0 -37.5 50.5t37.5 50.5h179q7 0 8 3t1 7v162q0 48 59.5 48t59.5 -48v-213zM951 -1q0 -23 -13.5 -41.5t-49.5 -18.5h-468q-36 0 -49.5 18.5t-13.5 41.5v235q0 23 13.5 41.5t49.5 18.5
h468q36 0 49.5 -18.5t13.5 -41.5v-235zM832 183q0 4 -1 7t-8 3h-338q-7 0 -8 -3t-1 -7v-133q0 -4 1 -7t8 -3h338q7 0 8 3t1 7v133z" />
    <glyph glyph-name="uniAD0D" unicode="&#xad0d;" 
d="M951 -1q-1 -23 -14 -41.5t-49 -18.5h-468q-36 0 -49.5 18.5t-13.5 41.5v301q0 48 59.5 48t59.5 -48v-250q0 -4 1 -7t8 -3h338q7 0 8 3t1 7v86h-303q-37 0 -37.5 50.5t37.5 50.5h303v63q0 48 59.5 48t59.5 -48v-301zM571 401q0 -48 -59.5 -48t-59.5 48v290q0 4 -1 7t-8 3
h-339q-37 0 -37.5 50.5t37.5 50.5h404q36 0 49.5 -18.5t13.5 -41.5v-341zM769 369q0 -48 -59.5 -48t-59.5 48v407q0 48 59.5 48t59.5 -48v-407zM360 377q0 -23 -13.5 -41.5t-49.5 -18.5h-244q-38 0 -37.5 50.5t37.5 50.5h179q7 0 8 3t1 7v152q0 48 59.5 48t59.5 -48v-203z
M956 589q0 -32 -22.5 -54.5t-54.5 -22.5t-54.5 22.5t-22.5 54.5t22.5 54.5t54.5 22.5t54.5 -22.5t22.5 -54.5z" />
    <glyph glyph-name="uniAD0F" unicode="&#xad0f;" 
d="M571 377q0 -48 -59.5 -48t-59.5 48v314q0 4 -1 7t-8 3h-339q-37 0 -37.5 50.5t37.5 50.5h404q36 0 49.5 -18.5t13.5 -41.5v-365zM360 347q0 -23 -13.5 -41.5t-49.5 -18.5h-244q-38 0 -37.5 50.5t37.5 50.5h179q7 0 8 3t1 7v182q0 48 59.5 48t59.5 -48v-233zM769 342
q0 -48 -59.5 -48t-59.5 48v434q0 48 59.5 48t59.5 -48v-434zM329 -46q-37 -36 -83.5 1t-7.5 73l281 271q11 11 25 15t28 4t28.5 -4t25.5 -15l281 -271q38 -37 -7.5 -73.5t-83.5 -0.5l-243 241zM956 577q0 -32 -22.5 -54.5t-54.5 -22.5t-54.5 22.5t-22.5 54.5t22.5 54.5
t54.5 22.5t54.5 -22.5t22.5 -54.5z" />
    <glyph glyph-name="uniAD11" unicode="&#xad11;" 
d="M571 399q0 -48 -59.5 -48t-59.5 48v292q0 4 -1 7t-8 3h-339q-37 0 -37.5 50.5t37.5 50.5h404q36 0 49.5 -18.5t13.5 -41.5v-343zM360 347q0 -23 -13.5 -41.5t-49.5 -18.5h-244q-38 0 -37.5 50.5t37.5 50.5h179q7 0 8 3t1 7v182q0 48 59.5 48t59.5 -48v-233zM769 384
q0 -48 -59.5 -48t-59.5 48v392q0 48 59.5 48t59.5 -48v-392zM956 609q0 -32 -22.5 -54.5t-54.5 -22.5t-54.5 22.5t-22.5 54.5t22.5 54.5t54.5 22.5t54.5 -22.5t22.5 -54.5zM928 113q0 -86 -69 -147.5t-168 -61.5q-100 0 -169.5 61t-69.5 148t69.5 148t169.5 61
q99 0 168 -61.5t69 -147.5zM809 113q0 45 -34.5 76t-83.5 31t-83.5 -31t-34.5 -76t34.5 -76t83.5 -31t83.5 31t34.5 76z" />
    <glyph glyph-name="uniAD18" unicode="&#xad18;" 
d="M700 22q0 -48 -58.5 -48t-58.5 48v754q0 48 58.5 48t58.5 -48v-278h52q15 0 24 -8v286q0 48 59.5 48t59.5 -48v-754q0 -48 -59.5 -48t-59.5 48v383q-9 -8 -24 -8h-52v-375zM507 168q-3 -48 -60 -48t-57 48v523q0 4 -1 7t-8 3h-294q-37 0 -37.5 50.5t37.5 50.5h357
q36 0 49.5 -18.5t13.5 -41.5v-574zM315 154q0 -23 -13.5 -41.5t-49.5 -18.5h-199q-38 0 -37.5 50.5t37.5 50.5h136q7 0 8 3t1 7v345q0 48 58.5 48t58.5 -48v-396z" />
    <glyph glyph-name="uniAD1C" unicode="&#xad1c;" 
d="M700 249q0 -48 -58.5 -48t-58.5 48v527q0 48 58.5 48t58.5 -48v-198h57q11 0 19 -5v203q0 48 59.5 48t59.5 -48v-527q0 -48 -59.5 -48t-59.5 48v232q-8 -4 -19 -4h-57v-228zM507 354q-3 -48 -60 -48t-57 48v337q0 4 -1 7t-8 3h-294q-37 0 -37.5 50.5t37.5 50.5h357
q36 0 49.5 -18.5t13.5 -41.5v-388zM421 -49q-36 0 -49.5 18.5t-13.5 41.5v237q0 48 59.5 48t59.5 -48v-186q0 -4 1 -7t8 -3h430q37 0 37.5 -50.5t-37.5 -50.5h-495zM315 320q0 -23 -13.5 -41.5t-49.5 -18.5h-199q-38 0 -37.5 50.5t37.5 50.5h136q7 0 8 3t1 7v209
q0 48 58.5 48t58.5 -48v-260z" />
    <glyph glyph-name="uniAD20" unicode="&#xad20;" 
d="M951 150q0 -23 -13.5 -41.5t-49.5 -18.5h-403q-7 0 -8 -3t-1 -7v-41q0 -4 1 -7t8 -3h454q38 0 37.5 -50.5t-37.5 -50.5h-519q-36 0 -49.5 18.5t-13.5 41.5v143q0 23 13.5 41.5t49.5 18.5h403q7 0 8 3t1 7v41q0 4 -1 7t-8 3h-429q-37 0 -37.5 50.5t37.5 50.5h494
q36 0 49.5 -18.5t13.5 -41.5v-143zM700 419q0 -48 -58.5 -48t-58.5 48v357q0 48 58.5 48t58.5 -48v-118h52q15 0 24 -8v126q0 48 59.5 48t59.5 -48v-357q0 -48 -59.5 -48t-59.5 48v146q-9 -8 -24 -8h-52v-138zM507 424q-3 -48 -60 -48t-57 48v267q0 4 -1 7t-8 3h-294
q-37 0 -37.5 50.5t37.5 50.5h357q36 0 49.5 -18.5t13.5 -41.5v-318zM315 390q0 -23 -13.5 -41.5t-49.5 -18.5h-199q-38 0 -37.5 50.5t37.5 50.5h136q7 0 8 3t1 7v149q0 48 58.5 48t58.5 -48v-200z" />
    <glyph glyph-name="uniAD29" unicode="&#xad29;" 
d="M951 -1q-1 -23 -14 -41.5t-49 -18.5h-468q-36 0 -49.5 18.5t-13.5 41.5v301q0 48 59.5 48t59.5 -48v-250q0 -4 1 -7t8 -3h338q7 0 8 3t1 7v86h-303q-37 0 -37.5 50.5t37.5 50.5h303v63q0 48 59.5 48t59.5 -48v-301zM700 409q0 -48 -58.5 -48t-58.5 48v367q0 48 58.5 48
t58.5 -48v-123h52q15 0 24 -8v131q0 48 59.5 48t59.5 -48v-367q0 -48 -59.5 -48t-59.5 48v151q-9 -8 -24 -8h-52v-143zM507 414q-3 -48 -60 -48t-57 48v277q0 4 -1 7t-8 3h-294q-37 0 -37.5 50.5t37.5 50.5h357q36 0 49.5 -18.5t13.5 -41.5v-328zM315 390q0 -23 -13.5 -41.5
t-49.5 -18.5h-199q-38 0 -37.5 50.5t37.5 50.5h136q7 0 8 3t1 7v149q0 48 58.5 48t58.5 -48v-200z" />
    <glyph glyph-name="uniAD2C" unicode="&#xad2c;" 
d="M593 -60q-16 -1 -29.5 4t-21.5 18l-119 216l-120 -216q-21 -37 -74 -16t-24 73l161 291q10 18 24 25t32 7q19 0 33 -7t24 -25l112 -202l112 202q10 18 24 25t32 7q19 0 33 -7t24 -25l161 -291q29 -52 -24 -73t-74 16l-119 216l-120 -216q-7 -13 -20 -18t-27 -4zM700 389
q0 -48 -58.5 -48t-58.5 48v387q0 48 58.5 48t58.5 -48v-133h52q15 0 24 -8v141q0 48 59.5 48t59.5 -48v-387q0 -48 -59.5 -48t-59.5 48v161q-9 -8 -24 -8h-52v-153zM507 404q-3 -48 -60 -48t-57 48v287q0 4 -1 7t-8 3h-294q-37 0 -37.5 50.5t37.5 50.5h357q36 0 49.5 -18.5
t13.5 -41.5v-338zM315 380q0 -23 -13.5 -41.5t-49.5 -18.5h-199q-38 0 -37.5 50.5t37.5 50.5h136q7 0 8 3t1 7v149q0 48 58.5 48t58.5 -48v-200z" />
    <glyph glyph-name="uniAD2D" unicode="&#xad2d;" 
d="M928 113q0 -86 -69 -147.5t-168 -61.5q-100 0 -169.5 61t-69.5 148t69.5 148t169.5 61q99 0 168 -61.5t69 -147.5zM700 381q0 -48 -58.5 -48t-58.5 48v395q0 48 58.5 48t58.5 -48v-137h52q15 0 24 -8v145q0 48 59.5 48t59.5 -48v-405q0 -48 -59.5 -48t-59.5 48v175
q-9 -8 -24 -8h-52v-157zM507 361q-3 -48 -60 -48t-57 48v330q0 4 -1 7t-8 3h-294q-37 0 -37.5 50.5t37.5 50.5h357q36 0 49.5 -18.5t13.5 -41.5v-381zM315 317q0 -23 -13.5 -41.5t-49.5 -18.5h-199q-38 0 -37.5 50.5t37.5 50.5h136q7 0 8 3t1 7v202q0 48 58.5 48t58.5 -48
v-253zM809 113q0 45 -34.5 76t-83.5 31t-83.5 -31t-34.5 -76t34.5 -76t83.5 -31t83.5 31t34.5 76z" />
    <glyph glyph-name="uniAD34" unicode="&#xad34;" horiz-adv-x="951" 
d="M832 22q0 -48 -59.5 -48t-59.5 48v754q0 48 59.5 48t59.5 -48v-754zM595 188q0 -48 -59.5 -48t-59.5 48v503q0 4 -1 7t-8 3h-363q-37 0 -37.5 50.5t37.5 50.5h428q36 0 49.5 -18.5t13.5 -41.5v-554zM360 155q0 -23 -13.5 -41.5t-49.5 -18.5h-244q-38 0 -37.5 50.5
t37.5 50.5h179q7 0 8 3t1 7v302q0 48 59.5 48t59.5 -48v-353z" />
    <glyph glyph-name="uniAD35" unicode="&#xad35;" horiz-adv-x="951" 
d="M360 357q0 -23 -14 -42q-5 -7 -13 -11h3h505q36 0 49.5 -18.5t13.5 -41.5v-258q0 -48 -59.5 -48t-59.5 48v207q0 4 -1 7t-8 3h-440q-37 0 -38 50q0 33 16 45q-8 -1 -17 -1h-244q-38 0 -37.5 50.5t37.5 50.5h179q7 0 8 3t1 7v162q0 48 59.5 48t59.5 -48v-213zM595 379
q0 -48 -59.5 -48t-59.5 48v312q0 4 -1 7t-8 3h-363q-37 0 -37.5 50.5t37.5 50.5h428q36 0 49.5 -18.5t13.5 -41.5v-363zM832 373q0 -48 -59.5 -48t-59.5 48v403q0 48 59.5 48t59.5 -48v-403z" />
    <glyph glyph-name="uniAD38" unicode="&#xad38;" horiz-adv-x="951" 
d="M373 -49q-36 0 -49.5 18.5t-13.5 41.5v247q0 19 9 31q-10 -2 -22 -2h-244q-38 0 -37.5 50.5t37.5 50.5h179q7 0 8 3t1 7v172q0 48 59.5 48t59.5 -48v-223q0 -23 -14 -42q-1 -1 -1 -2q11 3 24 3q60 0 60 -48v-196q0 -4 1 -7t8 -3h440q37 0 37.5 -50.5t-37.5 -50.5h-505z
M595 381q0 -48 -59.5 -48t-59.5 48v310q0 4 -1 7t-8 3h-363q-37 0 -37.5 50.5t37.5 50.5h428q36 0 49.5 -18.5t13.5 -41.5v-361zM832 258q0 -48 -59.5 -48t-59.5 48v518q0 48 59.5 48t59.5 -48v-518z" />
    <glyph glyph-name="uniAD3C" unicode="&#xad3c;" horiz-adv-x="951" 
d="M904 150q0 -23 -13.5 -41.5t-49.5 -18.5h-403q-7 0 -8 -3t-1 -7v-41q0 -4 1 -7t8 -3h454q38 0 37.5 -50.5t-37.5 -50.5h-519q-36 0 -49.5 18.5t-13.5 41.5v143q0 23 13.5 41.5t49.5 18.5h403q7 0 8 3t1 7v41q0 4 -1 7t-8 3h-429q-37 0 -38 50q0 18 5 30q-8 -1 -17 -1
h-244q-38 0 -37.5 50.5t37.5 50.5h179q7 0 8 3t1 7v138q0 48 59.5 48t59.5 -48v-189q0 -21 -11 -38h492q36 0 49.5 -18.5t13.5 -41.5v-143zM595 425q0 -48 -59.5 -48t-59.5 48v266q0 4 -1 7t-8 3h-363q-37 0 -37.5 50.5t37.5 50.5h428q36 0 49.5 -18.5t13.5 -41.5v-317z
M832 418q0 -48 -59.5 -48t-59.5 48v359q0 48 59.5 48t59.5 -48v-359z" />
    <glyph glyph-name="uniAD44" unicode="&#xad44;" horiz-adv-x="951" 
d="M904 -1q0 -23 -13.5 -41.5t-49.5 -18.5h-468q-36 0 -49.5 18.5t-13.5 41.5v257q0 23 13 41q2 2 3 4q-12 -4 -29 -4h-244q-38 0 -37.5 50.5t37.5 50.5h179q7 0 8 3t1 7v172q0 48 59.5 48t59.5 -48v-223q0 -23 -14 -42l-3 -4q12 5 30 5h468q36 0 49.5 -18.5t13.5 -41.5
v-257zM595 387q0 -48 -59.5 -48t-59.5 48v304q0 4 -1 7t-8 3h-363q-37 0 -37.5 50.5t37.5 50.5h428q36 0 49.5 -18.5t13.5 -41.5v-355zM785 205q0 4 -1 7t-8 3h-338q-7 0 -8 -3t-1 -7v-155q0 -4 1 -7t8 -3h338q7 0 8 3t1 7v155zM832 387q0 -48 -59.5 -48t-59.5 48v389
q0 48 59.5 48t59.5 -48v-389z" />
    <glyph glyph-name="uniAD45" unicode="&#xad45;" horiz-adv-x="951" 
d="M360 387q0 -23 -14 -42q10 3 23 3q60 0 60 -48v-250q0 -4 1 -7t8 -3h338q7 0 8 3t1 7v86h-303q-37 0 -37.5 50.5t37.5 50.5h303v63q0 48 59.5 48t59.5 -48v-301q-1 -23 -14 -41.5t-49 -18.5h-468q-36 0 -49.5 18.5t-13.5 41.5v301q0 17 8 28q-10 -1 -21 -1h-244
q-38 0 -37.5 50.5t37.5 50.5h179q7 0 8 3t1 7v152q0 48 59.5 48t59.5 -48v-203zM595 411q0 -48 -59.5 -48t-59.5 48v280q0 4 -1 7t-8 3h-363q-37 0 -37.5 50.5t37.5 50.5h428q36 0 49.5 -18.5t13.5 -41.5v-331zM832 399q0 -48 -59.5 -48t-59.5 48v377q0 48 59.5 48t59.5 -48
v-377z" />
    <glyph glyph-name="uniAD47" unicode="&#xad47;" horiz-adv-x="951" 
d="M595 377q0 -48 -59.5 -48t-59.5 48v314q0 4 -1 7t-8 3h-363q-37 0 -37.5 50.5t37.5 50.5h428q36 0 49.5 -18.5t13.5 -41.5v-365zM360 347q0 -23 -13.5 -41.5t-49.5 -18.5h-244q-38 0 -37.5 50.5t37.5 50.5h179q7 0 8 3t1 7v182q0 48 59.5 48t59.5 -48v-233zM832 320
q0 -48 -59.5 -48t-59.5 48v456q0 48 59.5 48t59.5 -48v-456zM339 -46q-37 -36 -83.5 1t-7.5 73l281 271q11 11 25 15t28 4t28.5 -4t25.5 -15l281 -271q38 -37 -7.5 -73.5t-83.5 -0.5l-243 241z" />
    <glyph glyph-name="uniAD49" unicode="&#xad49;" horiz-adv-x="951" 
d="M595 399q0 -48 -59.5 -48t-59.5 48v292q0 4 -1 7t-8 3h-363q-37 0 -37.5 50.5t37.5 50.5h428q36 0 49.5 -18.5t13.5 -41.5v-343zM360 347q0 -23 -13.5 -41.5t-49.5 -18.5h-244q-38 0 -37.5 50.5t37.5 50.5h179q7 0 8 3t1 7v182q0 48 59.5 48t59.5 -48v-233zM832 374
q0 -48 -59.5 -48t-59.5 48v402q0 48 59.5 48t59.5 -48v-402zM882 113q0 -86 -69 -147.5t-168 -61.5q-100 0 -169.5 61t-69.5 148t69.5 148t169.5 61q99 0 168 -61.5t69 -147.5zM763 113q0 45 -34.5 76t-83.5 31t-83.5 -31t-34.5 -76t34.5 -76t83.5 -31t83.5 31t34.5 76z" />
    <glyph glyph-name="uniAD50" unicode="&#xad50;" horiz-adv-x="785" 
d="M714 175q0 -48 -59.5 -48t-59.5 48v516q0 4 -1 7t-8 3h-458q-37 0 -37.5 50.5t37.5 50.5h523q36 0 49.5 -18.5t13.5 -41.5v-567zM323 130q0 -23 -13.5 -41.5t-49.5 -18.5h-207q-38 0 -37.5 50.5t37.5 50.5h142q7 0 8 3t1 7v313q0 48 59.5 48t59.5 -48v-364zM521 115
q0 -48 -59.5 -48t-59.5 48v379q0 48 59.5 48t59.5 -48v-379z" />
    <glyph glyph-name="uniAD54" unicode="&#xad54;" horiz-adv-x="856" 
d="M714 406q0 -48 -59.5 -48t-59.5 48v285q0 4 -1 7t-8 3h-452q-37 0 -37.5 50.5t37.5 50.5h517q36 0 49.5 -18.5t13.5 -41.5v-336zM323 370q0 -23 -13.5 -41.5t-49.5 -18.5h-207q-38 0 -37.5 50.5t37.5 50.5h142q7 0 8 3t1 7v163q0 48 59.5 48t59.5 -48v-214zM521 355
q0 -48 -59.5 -48t-59.5 48v229q0 48 59.5 48t59.5 -48v-229zM255 -49q-36 0 -49.5 18.5t-13.5 41.5v217q0 48 59.5 48t59.5 -48v-166q0 -4 1 -7t8 -3h430q37 0 37.5 -50.5t-37.5 -50.5h-495z" />
    <glyph glyph-name="uniAD58" unicode="&#xad58;" horiz-adv-x="856" 
d="M785 140q0 -23 -13.5 -41.5t-49.5 -18.5h-403q-7 0 -8 -3t-1 -7v-31q0 -4 1 -7t8 -3h454q38 0 37.5 -50.5t-37.5 -50.5h-519q-36 0 -49.5 18.5t-13.5 41.5v133q0 23 13.5 41.5t49.5 18.5h403q7 0 8 3t1 7v31q0 4 -1 7t-8 3h-429q-37 0 -37.5 50.5t37.5 50.5h494
q36 0 49.5 -18.5t13.5 -41.5v-133zM714 473q0 -48 -59.5 -48t-59.5 48v218q0 4 -1 7t-8 3h-452q-37 0 -37.5 50.5t37.5 50.5h517q36 0 49.5 -18.5t13.5 -41.5v-269zM323 437q0 -23 -13.5 -41.5t-49.5 -18.5h-207q-38 0 -37.5 50.5t37.5 50.5h142q7 0 8 3t1 7v116
q0 48 59.5 48t59.5 -48v-167zM521 422q0 -48 -59.5 -48t-59.5 48v182q0 48 59.5 48t59.5 -48v-182z" />
    <glyph glyph-name="uniAD61" unicode="&#xad61;" horiz-adv-x="856" 
d="M785 -1q-1 -23 -14 -41.5t-49 -18.5h-468q-36 0 -49.5 18.5t-13.5 41.5v296q0 48 59.5 48t59.5 -48v-245q0 -4 1 -7t8 -3h338q7 0 8 3t1 7v80h-303q-37 0 -37.5 50.5t37.5 50.5h303v64q0 48 59.5 48t59.5 -48v-296zM714 468q0 -48 -59.5 -48t-59.5 48v223q0 4 -1 7t-8 3
h-452q-37 0 -37.5 50.5t37.5 50.5h517q36 0 49.5 -18.5t13.5 -41.5v-274zM323 432q0 -23 -13.5 -41.5t-49.5 -18.5h-207q-38 0 -37.5 50.5t37.5 50.5h142q7 0 8 3t1 7v121q0 48 59.5 48t59.5 -48v-172zM521 417q0 -48 -59.5 -48t-59.5 48v187q0 48 59.5 48t59.5 -48v-187z
" />
    <glyph glyph-name="uniAD63" unicode="&#xad63;" horiz-adv-x="856" 
d="M714 431q0 -48 -59.5 -48t-59.5 48v260q0 4 -1 7t-8 3h-452q-37 0 -37.5 50.5t37.5 50.5h517q36 0 49.5 -18.5t13.5 -41.5v-311zM323 395q0 -23 -13.5 -41.5t-49.5 -18.5h-207q-38 0 -37.5 50.5t37.5 50.5h142q7 0 8 3t1 7v158q0 48 59.5 48t59.5 -48v-209zM521 390
q0 -48 -59.5 -48t-59.5 48v214q0 48 59.5 48t59.5 -48v-214zM244 -46q-37 -36 -83.5 1t-7.5 73l281 271q11 11 25 15t28 4t28.5 -4t25.5 -15l281 -271q38 -37 -7.5 -73.5t-83.5 -0.5l-243 241z" />
    <glyph glyph-name="uniAD6C" unicode="&#xad6c;" horiz-adv-x="785" 
d="M514 22q0 -48 -59.5 -48t-59.5 48v296q0 4 -1 7t-8 3h-333q-37 0 -37.5 50.5t37.5 50.5h398q36 0 49.5 -18.5t13.5 -41.5v-347zM714 415q0 -48 -59.5 -48t-59.5 48v276q0 4 -1 7t-8 3h-430q-37 0 -37.5 50.5t37.5 50.5h495q36 0 49.5 -18.5t13.5 -41.5v-327z" />
    <glyph glyph-name="uniAD6D" unicode="&#xad6d;" horiz-adv-x="856" 
d="M786 -12q0 -48 -59.5 -48t-59.5 48v187q0 4 -1 7t-8 3h-433q-37 0 -37.5 50.5t37.5 50.5h196v99q0 4 -1 7t-8 3h-359q-37 0 -37.5 50.5t37.5 50.5h424q36 0 49.5 -18.5t13.5 -41.5v-150h183q36 0 49.5 -18.5t13.5 -41.5v-238zM714 475q0 -48 -59.5 -48t-59.5 48v216
q0 4 -1 7t-8 3h-430q-37 0 -37.5 50.5t37.5 50.5h495q36 0 49.5 -18.5t13.5 -41.5v-267z" />
    <glyph glyph-name="uniAD70" unicode="&#xad70;" horiz-adv-x="856" 
d="M544 206q0 -48 -59.5 -48t-59.5 48v149q0 4 -1 7t-8 3h-363q-37 0 -37.5 50.5t37.5 50.5h428q36 0 49.5 -18.5t13.5 -41.5v-200zM714 475q0 -48 -59.5 -48t-59.5 48v216q0 4 -1 7t-8 3h-430q-37 0 -37.5 50.5t37.5 50.5h495q36 0 49.5 -18.5t13.5 -41.5v-267zM254 -49
q-36 0 -49.5 18.5t-13.5 41.5v227q0 48 59.5 48t59.5 -48v-176q0 -4 1 -7t8 -3h430q37 0 37.5 -50.5t-37.5 -50.5h-495z" />
    <glyph glyph-name="uniAD73" unicode="&#xad73;" horiz-adv-x="856" 
d="M254 -59q-36 0 -49.5 18.5t-13.5 41.5v225q0 23 13.5 41.5t49.5 18.5h171v89q0 4 -1 7t-8 3h-363q-37 0 -37.5 50.5t37.5 50.5h428q36 0 49.5 -18.5t13.5 -41.5v-140h205q38 0 39 -50.5t-39 -50.5h-430q-7 0 -8 -3t-1 -7v-123q0 -4 1 -7t8 -3h453q38 0 39 -50.5
t-39 -50.5h-518zM714 475q0 -48 -59.5 -48t-59.5 48v216q0 4 -1 7t-8 3h-430q-37 0 -37.5 50.5t37.5 50.5h495q36 0 49.5 -18.5t13.5 -41.5v-267z" />
    <glyph glyph-name="uniAD74" unicode="&#xad74;" horiz-adv-x="856" 
d="M785 145q0 -23 -13.5 -41.5t-49.5 -18.5h-403q-7 0 -8 -3t-1 -7v-36q0 -4 1 -7t8 -3h454q38 0 37.5 -50.5t-37.5 -50.5h-519q-36 0 -49.5 18.5t-13.5 41.5v138q0 23 13.5 41.5t49.5 18.5h403q7 0 8 3t1 7v36q0 4 -1 7t-8 3h-429q-37 0 -37.5 50.5t37.5 50.5h197v62
q0 4 -1 7t-8 3h-363q-37 0 -37.5 50.5t37.5 50.5h428q36 0 49.5 -18.5t13.5 -41.5v-113h178q36 0 49.5 -18.5t13.5 -41.5v-138zM714 505q0 -48 -59.5 -48t-59.5 48v186q0 4 -1 7t-8 3h-430q-37 0 -37.5 50.5t37.5 50.5h495q36 0 49.5 -18.5t13.5 -41.5v-237z" />
    <glyph glyph-name="uniAD75" unicode="&#xad75;" horiz-adv-x="856" 
d="M455 142q0 -23 -13.5 -41.5t-49.5 -18.5h-163q-7 0 -8 -3t-1 -7v-33q0 -4 1 -7t8 -3h214q38 0 37.5 -50.5t-37.5 -50.5h-279q-36 0 -49.5 18.5t-13.5 41.5v135q0 23 13.5 41.5t49.5 18.5h163q7 0 8 3t1 7v33q0 4 -1 7t-8 3h-194q-37 0 -37.5 50.5t37.5 50.5h259
q5 0 10 -1v69q0 4 -1 7t-8 3h-340q-37 0 -37.5 50.5t37.5 50.5h405q36 0 49.5 -18.5t13.5 -41.5v-119h225q36 0 49.5 -18.5t13.5 -41.5v-305q0 -48 -59.5 -48t-59.5 48v254q0 4 -1 7t-8 3h-176q-25 0 -34 22h-10h-6v-116zM714 505q0 -48 -59.5 -48t-59.5 48v186q0 4 -1 7
t-8 3h-430q-37 0 -37.5 50.5t37.5 50.5h495q36 0 49.5 -18.5t13.5 -41.5v-237z" />
    <glyph glyph-name="uniAD76" unicode="&#xad76;" horiz-adv-x="856" 
d="M439 135q0 -23 -13.5 -41.5t-49.5 -18.5h-147q-7 0 -8 -3t-1 -7v-36q0 -4 1 -7t8 -3h198q38 0 37.5 -50.5t-37.5 -50.5h-263q-36 0 -49.5 18.5t-13.5 41.5v138q0 23 13.5 41.5t49.5 18.5h147q7 0 8 3t1 7v36q0 4 -1 7t-8 3h-178q-37 0 -37.5 50.5t37.5 50.5h243
q14 0 25 -3v6v69q0 4 -1 7t-8 3h-339q-37 0 -37.5 50.5t37.5 50.5h404q36 0 49.5 -18.5t13.5 -41.5v-120v-5q9 2 22 2h204q36 0 49.5 -18.5t13.5 -41.5v-295q0 -23 -13.5 -41.5t-49.5 -18.5h-204q-36 0 -49.5 18.5t-13.5 41.5v295q0 9 2 17q-9 -2 -21 -2q-13 0 -23 2
q2 -8 2 -17v-138zM714 505q0 -48 -59.5 -48t-59.5 48v186q0 4 -1 7t-8 3h-430q-37 0 -37.5 50.5t37.5 50.5h495q36 0 49.5 -18.5t13.5 -41.5v-237zM690 222q0 4 -1 7t-8 3h-74q-7 0 -8 -3t-1 -7v-193q0 -4 1 -7t8 -3h74q7 0 8 3t1 7v193z" />
    <glyph glyph-name="uniAD7B" unicode="&#xad7b;" horiz-adv-x="856" 
d="M520 359q0 -48 -60 -48q-24 0 -39 8q2 -2 4 -5q11 -14 13 -31q8 4 19 4h119v51q0 48 59.5 48t59.5 -48v-51h116q39 0 38.5 -50.5t-38.5 -50.5h-43q43 -47 43 -110q0 -69 -51.5 -118.5t-123.5 -49.5q-73 0 -125 49t-52 119q0 63 43 110h-45q-11 0 -18 4v-55
q0 -23 -13.5 -41.5t-49.5 -18.5h-147q-7 0 -8 -3t-1 -7v-36q0 -4 1 -7t8 -3h198q38 0 37.5 -50.5t-37.5 -50.5h-263q-36 0 -49.5 18.5t-13.5 41.5v138q0 23 13.5 41.5t49.5 18.5h147q7 0 8 3t1 7v36q0 4 -1 7t-8 3h-178q-37 0 -37.5 50.5t37.5 50.5h243q23 0 37 -8
q-12 12 -12 34v46q0 4 -1 7t-8 3h-339q-37 0 -37.5 50.5t37.5 50.5h404q36 0 49.5 -18.5t13.5 -41.5v-97zM714 505q0 -48 -59.5 -48t-59.5 48v186q0 4 -1 7t-8 3h-430q-37 0 -37.5 50.5t37.5 50.5h495q36 0 49.5 -18.5t13.5 -41.5v-237zM692 76q0 29 -16.5 48.5t-39.5 19.5
t-40 -19.5t-17 -48.5q0 -28 17 -48t40 -20t39.5 20t16.5 48z" />
    <glyph glyph-name="uniAD7C" unicode="&#xad7c;" horiz-adv-x="856" 
d="M785 1q0 -23 -13.5 -41.5t-49.5 -18.5h-468q-36 0 -49.5 18.5t-13.5 41.5v235q0 23 13.5 41.5t49.5 18.5h171v79q0 4 -1 7t-8 3h-363q-37 0 -37.5 50.5t37.5 50.5h428q36 0 49.5 -18.5t13.5 -41.5v-130h178q36 0 49.5 -18.5t13.5 -41.5v-235zM714 475q0 -48 -59.5 -48
t-59.5 48v216q0 4 -1 7t-8 3h-430q-37 0 -37.5 50.5t37.5 50.5h495q36 0 49.5 -18.5t13.5 -41.5v-267zM666 185q0 4 -1 7t-8 3h-338q-7 0 -8 -3t-1 -7v-133q0 -4 1 -7t8 -3h338q7 0 8 3t1 7v133z" />
    <glyph glyph-name="uniAD7D" unicode="&#xad7d;" horiz-adv-x="856" 
d="M785 -1q-1 -23 -14 -41.5t-49 -18.5h-468q-36 0 -49.5 18.5t-13.5 41.5v296q0 48 59.5 48t59.5 -48v-245q0 -4 1 -7t8 -3h338q7 0 8 3t1 7v80h-303q-37 0 -37.5 50.5t37.5 50.5h303v64q0 48 59.5 48t59.5 -48v-296zM714 495q0 -48 -59.5 -48t-59.5 48v196q0 4 -1 7t-8 3
h-430q-37 0 -37.5 50.5t37.5 50.5h495q36 0 49.5 -18.5t13.5 -41.5v-247zM548 320q0 -48 -59.5 -48t-59.5 48v85q0 4 -1 7t-8 3h-367q-37 0 -37.5 50.5t37.5 50.5h432q36 0 49.5 -18.5t13.5 -41.5v-136z" />
    <glyph glyph-name="uniAD7F" unicode="&#xad7f;" horiz-adv-x="856" 
d="M243 -46q-39 -38 -84.5 0t-6.5 74l273 263v77q0 4 -1 7t-8 3h-363q-37 0 -37.5 50.5t37.5 50.5h428q36 0 49.5 -18.5t13.5 -41.5v-124l277 -267q38 -37 -7.5 -73.5t-83.5 -0.5l-243 241zM714 463q0 -48 -59.5 -48t-59.5 48v228q0 4 -1 7t-8 3h-430q-37 0 -37.5 50.5
t37.5 50.5h495q36 0 49.5 -18.5t13.5 -41.5v-279z" />
    <glyph glyph-name="uniAD81" unicode="&#xad81;" horiz-adv-x="856" 
d="M726 113q0 -86 -69 -147.5t-168 -61.5q-100 0 -169.5 61t-69.5 148t69 148q46 40 106 54v68q0 4 -1 7t-8 3h-363q-37 0 -37.5 50.5t37.5 50.5h428q36 0 49.5 -18.5t13.5 -41.5v-117q64 -13 113 -57q69 -61 69 -147zM714 485q0 -48 -59.5 -48t-59.5 48v206q0 4 -1 7t-8 3
h-430q-37 0 -37.5 50.5t37.5 50.5h495q36 0 49.5 -18.5t13.5 -41.5v-257zM607 113q0 45 -34.5 76t-83.5 31t-83.5 -31t-34.5 -76t34.5 -76t83.5 -31t83.5 31t34.5 76z" />
    <glyph glyph-name="uniAD82" unicode="&#xad82;" horiz-adv-x="856" 
d="M548 318h238q39 0 38.5 -50.5t-38.5 -50.5h-207l240 -189q38 -30 -4.5 -69.5t-86.5 -4.5l-240 195l-237 -195q-44 -36 -87 3.5t-4 70.5l236 189h-204q-37 0 -37.5 50.5t37.5 50.5h237v6v86q0 4 -1 7t-8 3h-367q-37 0 -37.5 50.5t37.5 50.5h432q36 0 49.5 -18.5
t13.5 -41.5v-137v-6zM714 495q0 -48 -59.5 -48t-59.5 48v196q0 4 -1 7t-8 3h-430q-37 0 -37.5 50.5t37.5 50.5h495q36 0 49.5 -18.5t13.5 -41.5v-247z" />
    <glyph glyph-name="uniAD88" unicode="&#xad88;" horiz-adv-x="951" 
d="M675 257q0 -32 -22.5 -54.5t-54.5 -22.5t-54.5 22.5t-22.5 54.5t22.5 54.5t54.5 22.5t54.5 -22.5t22.5 -54.5zM832 22q0 -48 -59.5 -48t-59.5 48v754q0 48 59.5 48t59.5 -48v-754zM399 22q0 -48 -59.5 -48t-59.5 48v316q0 4 -1 7t-8 3h-218q-37 0 -37.5 50.5t37.5 50.5
h283q36 0 49.5 -18.5t13.5 -41.5v-367zM571 445q0 -48 -59.5 -48t-59.5 48v246q0 4 -1 7t-8 3h-333q-37 0 -37.5 50.5t37.5 50.5h398q36 0 49.5 -18.5t13.5 -41.5v-297z" />
    <glyph glyph-name="uniAD89" unicode="&#xad89;" horiz-adv-x="951" 
d="M903 -14q0 -48 -59.5 -48t-59.5 48v197q0 4 -1 7t-8 3h-440q-37 0 -38 50q0 33 15 44q-30 10 -30 45v86q0 4 -1 7t-8 3h-220q-37 0 -37.5 50.5t37.5 50.5h285q36 0 49.5 -18.5t13.5 -41.5v-137q0 -26 -18 -38h457q36 0 49.5 -18.5t13.5 -41.5v-248zM563 565
q0 -48 -59.5 -48t-59.5 48v126q0 4 -1 7t-8 3h-325q-37 0 -37.5 50.5t37.5 50.5h390q36 0 49.5 -18.5t13.5 -41.5v-177zM832 355q0 -48 -59.5 -48t-59.5 48v421q0 48 59.5 48t59.5 -48v-421zM677 437q0 -32 -22.5 -54.5t-54.5 -22.5t-54.5 22.5t-22.5 54.5t22.5 54.5
t54.5 22.5t54.5 -22.5t22.5 -54.5z" />
    <glyph glyph-name="uniAD8C" unicode="&#xad8c;" horiz-adv-x="951" 
d="M373 -49q-36 0 -49.5 18.5t-13.5 41.5v193q-48 5 -48 48v136q0 4 -1 7t-8 3h-200q-37 0 -37.5 50.5t37.5 50.5h265q36 0 49.5 -18.5t13.5 -41.5v-164q48 -4 48 -47v-166q0 -4 1 -7t8 -3h430q37 0 37.5 -50.5t-37.5 -50.5h-495zM573 495q0 -48 -59.5 -48t-59.5 48v196
q0 4 -1 7t-8 3h-335q-37 0 -37.5 50.5t37.5 50.5h400q36 0 49.5 -18.5t13.5 -41.5v-247zM832 242q0 -48 -59.5 -48t-59.5 48v534q0 48 59.5 48t59.5 -48v-534zM677 347q0 -32 -22.5 -54.5t-54.5 -22.5t-54.5 22.5t-22.5 54.5t22.5 54.5t54.5 22.5t54.5 -22.5t22.5 -54.5z
" />
    <glyph glyph-name="uniAD90" unicode="&#xad90;" horiz-adv-x="951" 
d="M903 140q0 -23 -13.5 -41.5t-49.5 -18.5h-403q-7 0 -8 -3t-1 -7v-31q0 -4 1 -7t8 -3h454q38 0 37.5 -50.5t-37.5 -50.5h-519q-36 0 -49.5 18.5t-13.5 41.5v133q0 23 13.5 41.5t49.5 18.5h403q7 0 8 3t1 7v31q0 4 -1 7t-8 3h-434q-37 0 -38 50q0 7 1 13q-42 6 -42 47v86
q0 4 -1 7t-8 3h-200q-37 0 -37.5 50.5t37.5 50.5h265q36 0 49.5 -18.5t13.5 -41.5v-137q0 -5 -1 -9h460q36 0 49.5 -18.5t13.5 -41.5v-133zM563 575q0 -48 -59.5 -48t-59.5 48v116q0 4 -1 7t-8 3h-325q-37 0 -37.5 50.5t37.5 50.5h390q36 0 49.5 -18.5t13.5 -41.5v-167z
M832 397q0 -48 -59.5 -48t-59.5 48v379q0 48 59.5 48t59.5 -48v-379zM677 437q0 -32 -22.5 -54.5t-54.5 -22.5t-54.5 22.5t-22.5 54.5t22.5 54.5t54.5 22.5t54.5 -22.5t22.5 -54.5z" />
    <glyph glyph-name="uniAD9C" unicode="&#xad9c;" horiz-adv-x="951" 
d="M545 -60q-16 -1 -29.5 4t-21.5 18l-119 206l-120 -206q-21 -37 -74 -16t-24 73l154 269q-29 10 -29 44v86q0 4 -1 7t-8 3h-220q-37 0 -37.5 50.5t37.5 50.5h285q36 0 49.5 -18.5t13.5 -41.5v-137v-5l6 -2q14 -7 24 -25l112 -196l112 196q10 18 24 25t32 7q19 0 33 -7
t24 -25l161 -281q29 -52 -24 -73t-74 16l-119 206l-120 -206q-7 -13 -20 -18t-27 -4zM563 565q0 -48 -59.5 -48t-59.5 48v126q0 4 -1 7t-8 3h-325q-37 0 -37.5 50.5t37.5 50.5h390q36 0 49.5 -18.5t13.5 -41.5v-177zM832 387q0 -48 -59.5 -48t-59.5 48v389q0 48 59.5 48
t59.5 -48v-389zM677 437q0 -32 -22.5 -54.5t-54.5 -22.5t-54.5 22.5t-22.5 54.5t22.5 54.5t54.5 22.5t54.5 -22.5t22.5 -54.5z" />
    <glyph glyph-name="uniAD9D" unicode="&#xad9d;" horiz-adv-x="951" 
d="M677 437q0 -32 -22.5 -54.5t-54.5 -22.5t-54.5 22.5t-22.5 54.5t22.5 54.5t54.5 22.5t54.5 -22.5t22.5 -54.5zM832 372q0 -48 -59.5 -48t-59.5 48v404q0 48 59.5 48t59.5 -48v-404zM401 302q0 -48 -59.5 -48t-59.5 48v116q0 4 -1 7t-8 3h-220q-37 0 -37.5 50.5t37.5 50.5
h285q36 0 49.5 -18.5t13.5 -41.5v-167zM563 565q0 -48 -59.5 -48t-59.5 48v126q0 4 -1 7t-8 3h-325q-37 0 -37.5 50.5t37.5 50.5h390q36 0 49.5 -18.5t13.5 -41.5v-177zM880 113q0 -86 -69 -147.5t-168 -61.5q-100 0 -169.5 61t-69.5 148t69.5 148t169.5 61q99 0 168 -61.5
t69 -147.5zM761 113q0 45 -34.5 76t-83.5 31t-83.5 -31t-34.5 -76t34.5 -76t83.5 -31t83.5 31t34.5 76z" />
    <glyph glyph-name="uniADA4" unicode="&#xada4;" horiz-adv-x="975" 
d="M880 22q0 -48 -59.5 -48t-59.5 48v754q0 48 59.5 48t59.5 -48v-754zM702 22q0 -48 -59.5 -48t-59.5 48v754q0 48 59.5 48t59.5 -48v-754zM354 42q0 -48 -59.5 -48t-59.5 48v296q0 4 -1 7t-8 3h-173q-37 0 -37.5 50.5t37.5 50.5h238q36 0 49.5 -18.5t13.5 -41.5v-347z
M511 445q0 -48 -59.5 -48t-59.5 48v246q0 4 -1 7t-8 3h-273q-37 0 -37.5 50.5t37.5 50.5h338q36 0 49.5 -18.5t13.5 -41.5v-297zM555 257q0 -32 -22.5 -54.5t-54.5 -22.5t-54.5 22.5t-22.5 54.5t22.5 54.5t54.5 22.5t54.5 -22.5t22.5 -54.5z" />
    <glyph glyph-name="uniADB7" unicode="&#xadb7;" 
d="M379 -46q-37 -36 -83.5 1t-7.5 73l281 271q10 10 22 14q-8 11 -8 29v434q0 48 59.5 48t59.5 -48v-434q0 -32 -27 -43h1l281 -271q38 -37 -7.5 -73.5t-83.5 -0.5l-243 241zM880 302q0 -48 -59.5 -48t-59.5 48v474q0 48 59.5 48t59.5 -48v-474zM511 555q0 -48 -59.5 -48
t-59.5 48v136q0 4 -1 7t-8 3h-273q-37 0 -37.5 50.5t37.5 50.5h338q36 0 49.5 -18.5t13.5 -41.5v-187zM369 282q0 -48 -59.5 -48t-59.5 48v136q0 4 -1 7t-8 3h-188q-37 0 -37.5 50.5t37.5 50.5h253q36 0 49.5 -18.5t13.5 -41.5v-187zM561 407q0 -31 -21 -52t-52 -21t-52 21
t-21 52t21 52t52 21t52 -21t21 -52z" />
    <glyph glyph-name="uniADC0" unicode="&#xadc0;" horiz-adv-x="951" 
d="M832 22q0 -48 -59.5 -48t-59.5 48v754q0 48 59.5 48t59.5 -48v-754zM399 22q0 -48 -59.5 -48t-59.5 48v306q0 4 -1 7t-8 3h-218q-37 0 -37.5 50.5t37.5 50.5h283q36 0 49.5 -18.5t13.5 -41.5v-357zM581 435q0 -48 -59.5 -48t-59.5 48v256q0 4 -1 7t-8 3h-343
q-37 0 -37.5 50.5t37.5 50.5h408q36 0 49.5 -18.5t13.5 -41.5v-307z" />
    <glyph glyph-name="uniADC1" unicode="&#xadc1;" horiz-adv-x="951" 
d="M904 -12q0 -48 -59.5 -48t-59.5 48v207q0 4 -1 7t-8 3h-440q-34 0 -38 41q-36 8 -36 46v106q0 4 -1 7t-8 3h-200q-37 0 -37.5 50.5t37.5 50.5h265q36 0 49.5 -18.5t13.5 -41.5v-143h460q36 0 49.5 -18.5t13.5 -41.5v-258zM581 465q0 -48 -59.5 -48t-59.5 48v226q0 4 -1 7
t-8 3h-343q-37 0 -37.5 50.5t37.5 50.5h408q36 0 49.5 -18.5t13.5 -41.5v-277zM832 382q0 -48 -59.5 -48t-59.5 48v394q0 48 59.5 48t59.5 -48v-394z" />
    <glyph glyph-name="uniADC4" unicode="&#xadc4;" horiz-adv-x="951" 
d="M421 -49q-36 0 -49.5 18.5t-13.5 41.5v200q-14 -7 -37 -7q-59 0 -59 48v126q0 4 -1 7t-8 3h-200q-37 0 -37.5 50.5t37.5 50.5h265q36 0 49.5 -18.5t13.5 -41.5v-160q14 7 36 7q60 0 60 -48v-166q0 -4 1 -7t8 -3h410q37 0 37.5 -50.5t-37.5 -50.5h-475zM581 465
q0 -48 -59.5 -48t-59.5 48v226q0 4 -1 7t-8 3h-343q-37 0 -37.5 50.5t37.5 50.5h408q36 0 49.5 -18.5t13.5 -41.5v-277zM832 242q0 -48 -59.5 -48t-59.5 48v534q0 48 59.5 48t59.5 -48v-534z" />
    <glyph glyph-name="uniADC8" unicode="&#xadc8;" horiz-adv-x="951" 
d="M904 150q0 -23 -13.5 -41.5t-49.5 -18.5h-403q-7 0 -8 -3t-1 -7v-41q0 -4 1 -7t8 -3h454q38 0 37.5 -50.5t-37.5 -50.5h-519q-36 0 -49.5 18.5t-13.5 41.5v143q0 23 13.5 41.5t49.5 18.5h403q7 0 8 3t1 7v41q0 4 -1 7t-8 3h-429q-30 0 -36 32q-49 4 -49 48v86q0 4 -1 7
t-8 3h-200q-37 0 -37.5 50.5t37.5 50.5h265q36 0 49.5 -18.5t13.5 -41.5v-116h460q36 0 49.5 -18.5t13.5 -41.5v-143zM581 475q0 -48 -59.5 -48t-59.5 48v216q0 4 -1 7t-8 3h-343q-37 0 -37.5 50.5t37.5 50.5h408q36 0 49.5 -18.5t13.5 -41.5v-267zM832 422q0 -48 -59.5 -48
t-59.5 48v354q0 48 59.5 48t59.5 -48v-354z" />
    <glyph glyph-name="uniADD0" unicode="&#xadd0;" horiz-adv-x="951" 
d="M904 1q0 -23 -13.5 -41.5t-49.5 -18.5h-468q-36 0 -49.5 18.5t-13.5 41.5v233q-48 5 -48 48v116q0 4 -1 7t-8 3h-200q-37 0 -37.5 50.5t37.5 50.5h265q36 0 49.5 -18.5t13.5 -41.5v-143h460q36 0 49.5 -18.5t13.5 -41.5v-245zM581 465q0 -48 -59.5 -48t-59.5 48v226
q0 4 -1 7t-8 3h-343q-37 0 -37.5 50.5t37.5 50.5h408q36 0 49.5 -18.5t13.5 -41.5v-277zM785 195q0 4 -1 7t-8 3h-338q-7 0 -8 -3t-1 -7v-143q0 -4 1 -7t8 -3h338q7 0 8 3t1 7v143zM832 382q0 -48 -59.5 -48t-59.5 48v394q0 48 59.5 48t59.5 -48v-394z" />
    <glyph glyph-name="uniADD1" unicode="&#xadd1;" horiz-adv-x="951" 
d="M904 -1q-1 -23 -14 -41.5t-49 -18.5h-468q-36 0 -49.5 18.5t-13.5 41.5v275q-48 5 -48 48v86q0 4 -1 7t-8 3h-200q-37 0 -37.5 50.5t37.5 50.5h265q36 0 49.5 -18.5t13.5 -41.5v-134q48 -4 48 -47v-228q0 -4 1 -7t8 -3h338q7 0 8 3t1 7v74h-303q-37 0 -37.5 50.5
t37.5 50.5h303v53q0 48 59.5 48t59.5 -48v-279zM581 475q0 -48 -59.5 -48t-59.5 48v216q0 4 -1 7t-8 3h-343q-37 0 -37.5 50.5t37.5 50.5h408q36 0 49.5 -18.5t13.5 -41.5v-267zM832 370q0 -48 -59.5 -48t-59.5 48v406q0 48 59.5 48t59.5 -48v-406z" />
    <glyph glyph-name="uniADD3" unicode="&#xadd3;" horiz-adv-x="951" 
d="M832 292q0 -48 -59.5 -48t-59.5 48v484q0 48 59.5 48t59.5 -48v-484zM381 262q0 -48 -59.5 -48t-59.5 48v136q0 4 -1 7t-8 3h-200q-37 0 -37.5 50.5t37.5 50.5h265q36 0 49.5 -18.5t13.5 -41.5v-187zM581 465q0 -48 -59.5 -48t-59.5 48v226q0 4 -1 7t-8 3h-343
q-37 0 -37.5 50.5t37.5 50.5h408q36 0 49.5 -18.5t13.5 -41.5v-277zM339 -44q-37 -36 -83.5 1t-7.5 73l281 271q11 11 25 15t28 4t28.5 -4t25.5 -15l281 -271q38 -37 -7.5 -73.5t-83.5 -0.5l-243 241z" />
    <glyph glyph-name="uniADDC" unicode="&#xaddc;" horiz-adv-x="785" 
d="M367 22q0 -48 -59.5 -48t-59.5 48v286q0 4 -1 7t-8 3h-186q-37 0 -37.5 50.5t37.5 50.5h251q36 0 49.5 -18.5t13.5 -41.5v-337zM616 22q0 -48 -59.5 -48t-59.5 48v344q0 48 59.5 48t59.5 -48v-344zM714 455q0 -48 -59.5 -48t-59.5 48v236q0 4 -1 7t-8 3h-430
q-37 0 -37.5 50.5t37.5 50.5h495q36 0 49.5 -18.5t13.5 -41.5v-287z" />
    <glyph glyph-name="uniADE0" unicode="&#xade0;" horiz-adv-x="856" 
d="M447 222q0 -48 -59.5 -48t-59.5 48v136q0 4 -1 7t-8 3h-266q-37 0 -37.5 50.5t37.5 50.5h331q36 0 49.5 -18.5t13.5 -41.5v-187zM653 222q0 -48 -59.5 -48t-59.5 48v199q0 48 59.5 48t59.5 -48v-199zM714 515q0 -48 -59.5 -48t-59.5 48v176q0 4 -1 7t-8 3h-430
q-37 0 -37.5 50.5t37.5 50.5h495q36 0 49.5 -18.5t13.5 -41.5v-227zM254 -49q-36 0 -49.5 18.5t-13.5 41.5v207q0 48 59.5 48t59.5 -48v-156q0 -4 1 -7t8 -3h430q37 0 37.5 -50.5t-37.5 -50.5h-495z" />
    <glyph glyph-name="uniADE4" unicode="&#xade4;" horiz-adv-x="856" 
d="M785 145q0 -23 -13.5 -41.5t-49.5 -18.5h-403q-7 0 -8 -3t-1 -7v-36q0 -4 1 -7t8 -3h454q38 0 37.5 -50.5t-37.5 -50.5h-519q-36 0 -49.5 18.5t-13.5 41.5v138q0 23 13.5 41.5t49.5 18.5h403q7 0 8 3t1 7v36q0 4 -1 7t-8 3h-429q-37 0 -37.5 50.5t37.5 50.5h62v65
q0 4 -1 7t-8 3h-228q-37 0 -37.5 50.5t37.5 50.5h293q36 0 49.5 -18.5t13.5 -41.5v-116h102v128q0 48 59.5 48t59.5 -48v-128h92q36 0 49.5 -18.5t13.5 -41.5v-138zM714 555q0 -48 -59.5 -48t-59.5 48v136q0 4 -1 7t-8 3h-430q-37 0 -37.5 50.5t37.5 50.5h495
q36 0 49.5 -18.5t13.5 -41.5v-187z" />
    <glyph glyph-name="uniADF8" unicode="&#xadf8;" horiz-adv-x="785" 
d="M690 265q0 -48 -59.5 -48t-59.5 48v426q0 4 -1 7t-8 3h-434q-37 0 -37.5 50.5t37.5 50.5h499q36 0 49.5 -18.5t13.5 -41.5v-477zM53 70q-37 0 -37.5 50.5t37.5 50.5h682q39 0 38.5 -50.5t-38.5 -50.5h-682z" />
    <glyph glyph-name="uniADF9" unicode="&#xadf9;" horiz-adv-x="856" 
d="M53 385q-37 0 -37.5 50.5t37.5 50.5h542v205q0 4 -1 7t-8 3h-430q-37 0 -37.5 50.5t37.5 50.5h495q36 0 49.5 -18.5t13.5 -41.5v-256h90q39 0 38.5 -50.5t-38.5 -50.5h-751zM786 -12q0 -48 -59.5 -48t-59.5 48v197q0 4 -1 7t-8 3h-433q-37 0 -37.5 50.5t37.5 50.5h498
q36 0 49.5 -18.5t13.5 -41.5v-248z" />
    <glyph glyph-name="uniADFC" unicode="&#xadfc;" horiz-adv-x="856" 
d="M53 351q-37 0 -37.5 50.5t37.5 50.5h542v239q0 4 -1 7t-8 3h-430q-37 0 -37.5 50.5t37.5 50.5h495q36 0 49.5 -18.5t13.5 -41.5v-290h90q39 0 38.5 -50.5t-38.5 -50.5h-751zM254 -49q-36 0 -49.5 18.5t-13.5 41.5v237q0 48 59.5 48t59.5 -48v-186q0 -4 1 -7t8 -3h440
q37 0 37.5 -50.5t-37.5 -50.5h-505z" />
    <glyph glyph-name="uniADFF" unicode="&#xadff;" horiz-adv-x="856" 
d="M53 391q-37 0 -37.5 50.5t37.5 50.5h542v199q0 4 -1 7t-8 3h-430q-37 0 -37.5 50.5t37.5 50.5h495q36 0 49.5 -18.5t13.5 -41.5v-250h90q39 0 38.5 -50.5t-38.5 -50.5h-751zM254 -59q-36 0 -49.5 18.5t-13.5 41.5v235q0 23 13.5 41.5t49.5 18.5h495q38 0 39 -50.5
t-39 -50.5h-430q-7 0 -8 -3t-1 -7v-133q0 -4 1 -7t8 -3h453q38 0 39 -50.5t-39 -50.5h-518z" />
    <glyph glyph-name="uniAE00" unicode="&#xae00;" horiz-adv-x="856" 
d="M785 145q0 -23 -13.5 -41.5t-49.5 -18.5h-403q-7 0 -8 -3t-1 -7v-36q0 -4 1 -7t8 -3h454q38 0 37.5 -50.5t-37.5 -50.5h-519q-36 0 -49.5 18.5t-13.5 41.5v138q0 23 13.5 41.5t49.5 18.5h403q7 0 8 3t1 7v36q0 4 -1 7t-8 3h-429q-37 0 -37.5 50.5t37.5 50.5h494
q36 0 49.5 -18.5t13.5 -41.5v-138zM53 400q-37 0 -37.5 50.5t37.5 50.5h542v190q0 4 -1 7t-8 3h-431q-37 0 -37.5 50.5t37.5 50.5h496q36 0 49.5 -18.5t13.5 -41.5v-241h90q39 0 38.5 -50.5t-38.5 -50.5h-751z" />
    <glyph glyph-name="uniAE01" unicode="&#xae01;" horiz-adv-x="856" 
d="M53 400q-37 0 -37.5 50.5t37.5 50.5h542v190q0 4 -1 7t-8 3h-431q-37 0 -37.5 50.5t37.5 50.5h496q36 0 49.5 -18.5t13.5 -41.5v-241h90q39 0 38.5 -50.5t-38.5 -50.5h-751zM455 142q0 -23 -13.5 -41.5t-49.5 -18.5h-163q-7 0 -8 -3t-1 -7v-33q0 -4 1 -7t8 -3h214
q38 0 37.5 -50.5t-37.5 -50.5h-279q-36 0 -49.5 18.5t-13.5 41.5v135q0 23 13.5 41.5t49.5 18.5h163q7 0 8 3t1 7v33q0 4 -1 7t-8 3h-194q-37 0 -37.5 50.5t37.5 50.5h259q36 0 49.5 -18.5t13.5 -41.5v-135zM809 -28q0 -48 -59.5 -48t-59.5 48v254q0 4 -1 7t-8 3h-176
q-37 0 -37.5 50.5t37.5 50.5h241q36 0 49.5 -18.5t13.5 -41.5v-305z" />
    <glyph glyph-name="uniAE08" unicode="&#xae08;" horiz-adv-x="856" 
d="M785 1q0 -23 -13.5 -41.5t-49.5 -18.5h-468q-36 0 -49.5 18.5t-13.5 41.5v225q0 23 13.5 41.5t49.5 18.5h468q36 0 49.5 -18.5t13.5 -41.5v-225zM53 381q-37 0 -37.5 50.5t37.5 50.5h542v209q0 4 -1 7t-8 3h-430q-37 0 -37.5 50.5t37.5 50.5h495q36 0 49.5 -18.5
t13.5 -41.5v-260h90q39 0 38.5 -50.5t-38.5 -50.5h-751zM666 175q0 4 -1 7t-8 3h-338q-7 0 -8 -3t-1 -7v-123q0 -4 1 -7t8 -3h338q7 0 8 3t1 7v123z" />
    <glyph glyph-name="uniAE09" unicode="&#xae09;" horiz-adv-x="856" 
d="M53 381q-37 0 -37.5 50.5t37.5 50.5h542v209q0 4 -1 7t-8 3h-430q-37 0 -37.5 50.5t37.5 50.5h495q36 0 49.5 -18.5t13.5 -41.5v-260h90q39 0 38.5 -50.5t-38.5 -50.5h-751zM785 -1q-1 -23 -14 -41.5t-49 -18.5h-468q-36 0 -49.5 18.5t-13.5 41.5v296q0 48 59.5 48
t59.5 -48v-245q0 -4 1 -7t8 -3h338q7 0 8 3t1 7v81h-303q-37 0 -37.5 50.5t37.5 50.5h303v63q0 48 59.5 48t59.5 -48v-296z" />
    <glyph glyph-name="uniAE0B" unicode="&#xae0b;" horiz-adv-x="856" 
d="M53 364q-37 0 -37.5 50.5t37.5 50.5h542v226q0 4 -1 7t-8 3h-430q-37 0 -37.5 50.5t37.5 50.5h495q36 0 49.5 -18.5t13.5 -41.5v-277h90q39 0 38.5 -50.5t-38.5 -50.5h-751zM243 -44q-39 -38 -84.5 0t-6.5 74l281 271q11 11 25 15t28 4t28.5 -4t25.5 -15l281 -271
q38 -37 -7.5 -73.5t-83.5 -0.5l-243 241z" />
    <glyph glyph-name="uniAE0D" unicode="&#xae0d;" horiz-adv-x="856" 
d="M53 381q-37 0 -37.5 50.5t37.5 50.5h542v209q0 4 -1 7t-8 3h-430q-37 0 -37.5 50.5t37.5 50.5h495q36 0 49.5 -18.5t13.5 -41.5v-260h90q39 0 38.5 -50.5t-38.5 -50.5h-751zM726 113q0 -86 -69 -147.5t-168 -61.5q-100 0 -169.5 61t-69.5 148t69.5 148t169.5 61
q99 0 168 -61.5t69 -147.5zM607 113q0 45 -34.5 76t-83.5 31t-83.5 -31t-34.5 -76t34.5 -76t83.5 -31t83.5 31t34.5 76z" />
    <glyph glyph-name="uniAE14" unicode="&#xae14;" horiz-adv-x="951" 
d="M832 22q0 -48 -59.5 -48t-59.5 48v754q0 48 59.5 48t59.5 -48v-754zM575 328q0 -48 -59.5 -48t-59.5 48v363q0 4 -1 7t-8 3h-353q-37 0 -37.5 50.5t37.5 50.5h418q36 0 49.5 -18.5t13.5 -41.5v-414zM53 95q-37 0 -37.5 50.5t37.5 50.5h586q39 0 38.5 -50.5t-38.5 -50.5
h-586z" />
    <glyph glyph-name="uniAE30" unicode="&#xae30;" horiz-adv-x="928" 
d="M809 22q0 -48 -59.5 -48t-59.5 48v754q0 48 59.5 48t59.5 -48v-754zM110 73q-57 -21 -77.5 25t19.5 63q110 47 239 156.5t129 251.5v122q0 4 -1 7t-8 3h-324q-37 0 -37.5 50.5t37.5 50.5h389q36 0 49.5 -18.5t13.5 -41.5v-204q0 -105 -108.5 -246.5t-320.5 -218.5z" />
    <glyph glyph-name="uniAE31" unicode="&#xae31;" horiz-adv-x="951" 
d="M904 -12q0 -48 -59.5 -48t-59.5 48v207q0 4 -1 7t-8 3h-440q-37 0 -37.5 50.5t37.5 50.5h505q36 0 49.5 -18.5t13.5 -41.5v-258zM832 375q0 -48 -59.5 -48t-59.5 48v401q0 48 59.5 48t59.5 -48v-401zM539 614q0 -87 -104.5 -209t-324.5 -196q-57 -19 -77.5 27.5
t19.5 60.5q112 40 240 131.5t128 196.5v66q0 4 -1 7t-8 3h-324q-37 0 -37.5 50.5t37.5 50.5h389q36 0 49.5 -18.5t13.5 -41.5v-128z" />
    <glyph glyph-name="uniAE34" unicode="&#xae34;" horiz-adv-x="951" 
d="M373 -49q-36 0 -49.5 18.5t-13.5 41.5v247q0 48 59.5 48t59.5 -48v-196q0 -4 1 -7t8 -3h430q37 0 37.5 -50.5t-37.5 -50.5h-495zM539 614q0 -87 -104.5 -209t-324.5 -196q-57 -19 -77.5 27.5t19.5 60.5q112 40 240 131.5t128 196.5v66q0 4 -1 7t-8 3h-324
q-37 0 -37.5 50.5t37.5 50.5h389q36 0 49.5 -18.5t13.5 -41.5v-128zM832 258q0 -48 -59.5 -48t-59.5 48v518q0 48 59.5 48t59.5 -48v-518z" />
    <glyph glyph-name="uniAE37" unicode="&#xae37;" horiz-adv-x="951" 
d="M373 -59q-36 0 -49.5 18.5t-13.5 41.5v245q0 23 13.5 41.5t49.5 18.5h495q38 0 39 -50.5t-39 -50.5h-430q-7 0 -8 -3t-1 -7v-143q0 -4 1 -7t8 -3h453q38 0 39 -50.5t-39 -50.5h-518zM539 614q0 -87 -104.5 -209t-324.5 -196q-57 -19 -77.5 27.5t19.5 60.5
q112 40 240 131.5t128 196.5v66q0 4 -1 7t-8 3h-324q-37 0 -37.5 50.5t37.5 50.5h389q36 0 49.5 -18.5t13.5 -41.5v-128zM832 375q0 -48 -59.5 -48t-59.5 48v401q0 48 59.5 48t59.5 -48v-401z" />
    <glyph glyph-name="uniAE38" unicode="&#xae38;" horiz-adv-x="951" 
d="M539 614q0 -87 -105 -209q-23 -27 -52 -52h459q36 0 49.5 -18.5t13.5 -41.5v-143q0 -23 -13.5 -41.5t-49.5 -18.5h-403q-7 0 -8 -3t-1 -7v-41q0 -4 1 -7t8 -3h454q38 0 37.5 -50.5t-37.5 -50.5h-519q-36 0 -49.5 18.5t-13.5 41.5v143q0 23 13.5 41.5t49.5 18.5h403
q7 0 8 3t1 7v41q0 4 -1 7t-8 3h-429q-36 0 -38 48q-83 -52 -199 -91q-57 -19 -77.5 27.5t19.5 60.5q112 40 240 131.5t128 196.5v66q0 4 -1 7t-8 3h-324q-37 0 -37.5 50.5t37.5 50.5h389q36 0 49.5 -18.5t13.5 -41.5v-128zM832 418q0 -48 -59.5 -48t-59.5 48v359
q0 48 59.5 48t59.5 -48v-359z" />
    <glyph glyph-name="uniAE3A" unicode="&#xae3a;" horiz-adv-x="951" 
d="M510 150q0 -23 -13.5 -41.5t-49.5 -18.5h-163q-7 0 -8 -3t-1 -7v-41q0 -4 1 -7t8 -3h214q38 0 37.5 -50.5t-37.5 -50.5h-279q-36 0 -49.5 18.5t-13.5 41.5v143q0 23 13.5 41.5t49.5 18.5h163q7 0 8 3t1 7v41q0 4 -1 7t-8 3h-194q-30 0 -36 31l-42 -14q-57 -19 -77.5 27.5
t19.5 60.5q112 40 240 116.5t128 181.5v36q0 4 -1 7t-8 3h-324q-37 0 -37.5 50.5t37.5 50.5h389q36 0 49.5 -18.5t13.5 -41.5v-98q0 -87 -105 -194q-51 -53 -130 -97h143q36 0 49.5 -18.5t13.5 -41.5v-143zM904 -12q0 -23 -13.5 -41.5t-49.5 -18.5h-228q-36 0 -49.5 18.5
t-13.5 41.5v305q0 23 13.5 41.5t49.5 18.5h228q36 0 49.5 -18.5t13.5 -41.5v-305zM832 418q0 -48 -59.5 -48t-59.5 48v359q0 48 59.5 48t59.5 -48v-359zM785 242q0 4 -1 7t-8 3h-98q-7 0 -8 -3t-1 -7v-203q0 -4 1 -7t8 -3h98q7 0 8 3t1 7v203z" />
    <glyph glyph-name="uniAE40" unicode="&#xae40;" horiz-adv-x="951" 
d="M832 375q0 -48 -59.5 -48t-59.5 48v401q0 48 59.5 48t59.5 -48v-401zM904 1q0 -23 -13.5 -41.5t-49.5 -18.5h-468q-36 0 -49.5 18.5t-13.5 41.5v245q0 23 13.5 41.5t49.5 18.5h468q36 0 49.5 -18.5t13.5 -41.5v-245zM785 195q0 4 -1 7t-8 3h-338q-7 0 -8 -3t-1 -7v-143
q0 -4 1 -7t8 -3h338q7 0 8 3t1 7v143zM539 614q0 -87 -104.5 -209t-324.5 -196q-57 -19 -77.5 27.5t19.5 60.5q112 40 240 131.5t128 196.5v66q0 4 -1 7t-8 3h-324q-37 0 -37.5 50.5t37.5 50.5h389q36 0 49.5 -18.5t13.5 -41.5v-128z" />
    <glyph glyph-name="uniAE41" unicode="&#xae41;" horiz-adv-x="951" 
d="M904 -1q-1 -23 -14 -41.5t-49 -18.5h-468q-36 0 -49.5 18.5t-13.5 41.5v301q-84 -52 -200 -91q-57 -19 -77.5 27.5t19.5 60.5q112 40 240 131.5t128 196.5v66q0 4 -1 7t-8 3h-324q-37 0 -37.5 50.5t37.5 50.5h389q36 0 49.5 -18.5t13.5 -41.5v-128q0 -87 -105 -209
q-25 -30 -58 -57q53 -3 53 -48v-250q0 -4 1 -7t8 -3h338q7 0 8 3t1 7v86h-303q-37 0 -37.5 50.5t37.5 50.5h303v63q0 48 59.5 48t59.5 -48v-301zM832 399q0 -48 -59.5 -48t-59.5 48v377q0 48 59.5 48t59.5 -48v-377z" />
    <glyph glyph-name="uniAE43" unicode="&#xae43;" horiz-adv-x="951" 
d="M832 330q0 -48 -59.5 -48t-59.5 48v446q0 48 59.5 48t59.5 -48v-446zM539 614q0 -87 -104.5 -209t-324.5 -196q-57 -19 -77.5 27.5t19.5 60.5q112 40 240 131.5t128 196.5v66q0 4 -1 7t-8 3h-324q-37 0 -37.5 50.5t37.5 50.5h389q36 0 49.5 -18.5t13.5 -41.5v-128z
M359 -46q-37 -36 -83.5 1t-7.5 73l281 271q11 11 25 15t28 4t28.5 -4t25.5 -15l281 -271q38 -37 -7.5 -73.5t-83.5 -0.5l-243 241z" />
    <glyph glyph-name="uniAE45" unicode="&#xae45;" horiz-adv-x="951" 
d="M832 384q0 -48 -59.5 -48t-59.5 48v392q0 48 59.5 48t59.5 -48v-392zM539 614q0 -87 -104.5 -209t-324.5 -196q-57 -19 -77.5 27.5t19.5 60.5q112 40 240 131.5t128 196.5v66q0 4 -1 7t-8 3h-324q-37 0 -37.5 50.5t37.5 50.5h389q36 0 49.5 -18.5t13.5 -41.5v-128z
M881 113q0 -86 -69 -147.5t-168 -61.5q-100 0 -169.5 61t-69.5 148t69.5 148t169.5 61q99 0 168 -61.5t69 -147.5zM762 113q0 45 -34.5 76t-83.5 31t-83.5 -31t-34.5 -76t34.5 -76t83.5 -31t83.5 31t34.5 76z" />
    <glyph glyph-name="uniAE46" unicode="&#xae46;" horiz-adv-x="951" 
d="M322 219q-37 0 -38 50q0 9 1 16q-76 -43 -175 -76q-57 -19 -77.5 27.5t19.5 60.5q112 40 240 131.5t128 196.5v66q0 4 -1 7t-8 3h-324q-37 0 -37.5 50.5t37.5 50.5h389q36 0 49.5 -18.5t13.5 -41.5v-128q0 -87 -105 -209q-39 -46 -95 -85h242q10 4 21 2q9 1 18 -2h266
q39 0 38.5 -50.5t-38.5 -50.5h-155l189 -189q39 -36 -7 -73t-84 -1l-229 232l-228 -232q-37 -36 -83.5 1t-7.5 73l189 189h-148zM832 389q0 -48 -59.5 -48t-59.5 48v387q0 48 59.5 48t59.5 -48v-387z" />
    <glyph glyph-name="uniAE4A" unicode="&#xae4a;" horiz-adv-x="951" 
d="M319 229q-37 0 -38 50v4q-74 -42 -171 -74q-57 -19 -77.5 27.5t19.5 60.5q112 40 240 131.5t128 196.5v66q0 4 -1 7t-8 3h-324q-37 0 -37.5 50.5t37.5 50.5h389q36 0 49.5 -18.5t13.5 -41.5v-128q0 -87 -105 -209q-34 -40 -81 -75h540q39 0 38.5 -50.5t-38.5 -50.5h-574z
M289 -61q-37 0 -37.5 50.5t37.5 50.5h116v132q0 48 59.5 48t59.5 -48v-132h166v132q0 48 59.5 48t59.5 -48v-132h114q39 0 38.5 -50.5t-38.5 -50.5h-634zM832 399q0 -48 -59.5 -48t-59.5 48v377q0 48 59.5 48t59.5 -48v-377z" />
    <glyph glyph-name="uniAE4C" unicode="&#xae4c;" horiz-adv-x="975" 
d="M559 117q0 -48 -59.5 -48t-59.5 48v574q0 4 -1 7t-8 3h-84q-14 0 -23 7v-150q0 -112 -39 -241.5t-183 -236.5q-47 -34 -76.5 7t3.5 69q87 73 131.5 172t44.5 241v122q0 4 -1 7t-8 3h-119q-37 0 -37.5 50.5t37.5 50.5h184q36 0 49 -19q2 -2 3 -4q8 23 34 23h149
q36 0 49.5 -18.5t13.5 -41.5v-625zM769 22q0 -48 -59.5 -48t-59.5 48v754q0 48 59.5 48t59.5 -48v-754zM956 467q0 -32 -22.5 -54.5t-54.5 -22.5t-54.5 22.5t-22.5 54.5t22.5 54.5t54.5 22.5t54.5 -22.5t22.5 -54.5z" />
    <glyph glyph-name="uniAE4D" unicode="&#xae4d;" 
d="M559 375q0 -48 -59.5 -48t-59.5 48v316q0 4 -1 7t-8 3h-84q-14 0 -23 7v-120q0 -75 -42 -176.5t-180 -201.5q-47 -34 -76 7t3 69q84 73 130 143t46 170v92q0 4 -1 7t-8 3h-119q-37 0 -37.5 50.5t37.5 50.5h184q36 0 49 -19q2 -2 3 -4q8 23 34 23h149q36 0 49.5 -18.5
t13.5 -41.5v-367zM951 -12q0 -48 -59.5 -48t-59.5 48v207q0 4 -1 7t-8 3h-440q-37 0 -37.5 50.5t37.5 50.5h505q36 0 49.5 -18.5t13.5 -41.5v-258zM769 375q0 -48 -59.5 -48t-59.5 48v401q0 48 59.5 48t59.5 -48v-401zM956 589q0 -32 -22.5 -54.5t-54.5 -22.5t-54.5 22.5
t-22.5 54.5t22.5 54.5t54.5 22.5t54.5 -22.5t22.5 -54.5z" />
    <glyph glyph-name="uniAE4E" unicode="&#xae4e;" 
d="M559 375q0 -48 -59.5 -48t-59.5 48v316q0 4 -1 7t-8 3h-84q-14 0 -23 7v-120q0 -75 -42 -176.5t-180 -201.5q-47 -34 -76 7t3 69q84 73 130 143t46 170v92q0 4 -1 7t-8 3h-119q-37 0 -37.5 50.5t37.5 50.5h184q36 0 49 -19q2 -2 3 -4q8 23 34 23h149q36 0 49.5 -18.5
t13.5 -41.5v-367zM769 375q0 -48 -59.5 -48t-59.5 48v401q0 48 59.5 48t59.5 -48v-401zM956 599q0 -32 -22.5 -54.5t-54.5 -22.5t-54.5 22.5t-22.5 54.5t22.5 54.5t54.5 22.5t54.5 -22.5t22.5 -54.5zM954 -12q0 -48 -59.5 -48t-59.5 48v205q0 4 -1 7t-8 3h-182
q-37 0 -37.5 50.5t37.5 50.5h247q36 0 49.5 -18.5t13.5 -41.5v-256zM584 -12q0 -48 -59.5 -48t-59.5 48v205q0 4 -1 7t-8 3h-182q-37 0 -37.5 50.5t37.5 50.5h247q36 0 49.5 -18.5t13.5 -41.5v-256z" />
    <glyph glyph-name="uniAE50" unicode="&#xae50;" 
d="M559 365q0 -48 -59.5 -48t-59.5 48v326q0 4 -1 7t-8 3h-84q-14 0 -23 7v-120q0 -75 -42 -176.5t-180 -201.5q-47 -34 -76 7t3 69q84 73 130 143t46 170v92q0 4 -1 7t-8 3h-119q-37 0 -37.5 50.5t37.5 50.5h184q36 0 49 -19q2 -2 3 -4q8 23 34 23h149q36 0 49.5 -18.5
t13.5 -41.5v-377zM421 -49q-36 0 -49.5 18.5t-13.5 41.5v247q0 48 59.5 48t59.5 -48v-196q0 -4 1 -7t8 -3h430q37 0 37.5 -50.5t-37.5 -50.5h-495zM769 258q0 -48 -59.5 -48t-59.5 48v518q0 48 59.5 48t59.5 -48v-518zM956 547q0 -32 -22.5 -54.5t-54.5 -22.5t-54.5 22.5
t-22.5 54.5t22.5 54.5t54.5 22.5t54.5 -22.5t22.5 -54.5z" />
    <glyph glyph-name="uniAE54" unicode="&#xae54;" 
d="M951 150q0 -23 -13.5 -41.5t-49.5 -18.5h-403q-7 0 -8 -3t-1 -7v-41q0 -4 1 -7t8 -3h454q38 0 37.5 -50.5t-37.5 -50.5h-519q-36 0 -49.5 18.5t-13.5 41.5v143q0 23 13.5 41.5t49.5 18.5h403q7 0 8 3t1 7v41q0 4 -1 7t-8 3h-429q-37 0 -37.5 50.5t37.5 50.5h494
q36 0 49.5 -18.5t13.5 -41.5v-143zM559 425q0 -48 -59.5 -48t-59.5 48v266q0 4 -1 7t-8 3h-84q-14 0 -23 7v-120q0 -75 -42 -176.5t-180 -201.5q-47 -34 -76 7t3 69q84 73 130 143t46 170v92q0 4 -1 7t-8 3h-119q-37 0 -37.5 50.5t37.5 50.5h184q36 0 49 -19q2 -2 3 -4
q8 23 34 23h149q36 0 49.5 -18.5t13.5 -41.5v-317zM769 424q0 -48 -59.5 -48t-59.5 48v353q0 48 59.5 48t59.5 -48v-353zM956 607q0 -32 -22.5 -54.5t-54.5 -22.5t-54.5 22.5t-22.5 54.5t22.5 54.5t54.5 22.5t54.5 -22.5t22.5 -54.5z" />
    <glyph glyph-name="uniAE56" unicode="&#xae56;" 
d="M557 150q0 -23 -13.5 -41.5t-49.5 -18.5h-163q-7 0 -8 -3t-1 -7v-41q0 -4 1 -7t8 -3h214q38 0 37.5 -50.5t-37.5 -50.5h-279q-36 0 -49.5 18.5t-13.5 41.5v143q0 23 13.5 41.5t49.5 18.5h163q7 0 8 3t1 7v41q0 4 -1 7t-8 3h-194q-33 0 -37 39q-40 -41 -96 -81
q-47 -34 -76 7t3 69q84 73 130 143t46 170v92q0 4 -1 7t-8 3h-119q-37 0 -37.5 50.5t37.5 50.5h184q36 0 49 -19q2 -2 3 -4q8 23 34 23h149q36 0 49.5 -18.5t13.5 -41.5v-317q0 -48 -59.5 -48t-59.5 48v266q0 4 -1 7t-8 3h-84q-14 0 -23 7v-120q0 -75 -42 -177
q-12 -29 -33 -58h245q36 0 49.5 -18.5t13.5 -41.5v-143zM951 -12q0 -23 -13.5 -41.5t-49.5 -18.5h-228q-36 0 -49.5 18.5t-13.5 41.5v305q0 23 13.5 41.5t49.5 18.5h228q36 0 49.5 -18.5t13.5 -41.5v-305zM769 424q0 -48 -59.5 -48t-59.5 48v353q0 48 59.5 48t59.5 -48v-353
zM832 242q0 4 -1 7t-8 3h-98q-7 0 -8 -3t-1 -7v-203q0 -4 1 -7t8 -3h98q7 0 8 3t1 7v203zM956 607q0 -32 -22.5 -54.5t-54.5 -22.5t-54.5 22.5t-22.5 54.5t22.5 54.5t54.5 22.5t54.5 -22.5t22.5 -54.5z" />
    <glyph glyph-name="uniAE5C" unicode="&#xae5c;" 
d="M951 1q0 -23 -13.5 -41.5t-49.5 -18.5h-468q-36 0 -49.5 18.5t-13.5 41.5v239q0 23 13.5 41.5t49.5 18.5h468q36 0 49.5 -18.5t13.5 -41.5v-239zM559 369q0 -48 -59.5 -48t-59.5 48v322q0 4 -1 7t-8 3h-84q-14 0 -23 7v-120q0 -75 -42 -176.5t-180 -201.5q-47 -34 -76 7
t3 69q84 73 130 143t46 170v92q0 4 -1 7t-8 3h-119q-37 0 -37.5 50.5t37.5 50.5h184q36 0 49 -19q2 -2 3 -4q8 23 34 23h149q36 0 49.5 -18.5t13.5 -41.5v-373zM769 369q0 -48 -59.5 -48t-59.5 48v407q0 48 59.5 48t59.5 -48v-407zM832 189q0 4 -1 7t-8 3h-338q-7 0 -8 -3
t-1 -7v-137q0 -4 1 -7t8 -3h338q7 0 8 3t1 7v137zM956 599q0 -32 -22.5 -54.5t-54.5 -22.5t-54.5 22.5t-22.5 54.5t22.5 54.5t54.5 22.5t54.5 -22.5t22.5 -54.5z" />
    <glyph glyph-name="uniAE5D" unicode="&#xae5d;" 
d="M951 -1q-1 -23 -14 -41.5t-49 -18.5h-468q-36 0 -49.5 18.5t-13.5 41.5v301q0 48 59.5 48t59.5 -48v-250q0 -4 1 -7t8 -3h338q7 0 8 3t1 7v85h-303q-37 0 -37.5 50.5t37.5 50.5h303v64q0 48 59.5 48t59.5 -48v-301zM559 395q0 -48 -59.5 -48t-59.5 48v296q0 4 -1 7t-8 3
h-84q-14 0 -23 7v-120q0 -75 -42 -176.5t-180 -201.5q-47 -34 -76 7t3 69q84 73 130 143t46 170v92q0 4 -1 7t-8 3h-119q-37 0 -37.5 50.5t37.5 50.5h184q36 0 49 -19q2 -2 3 -4q8 23 34 23h149q36 0 49.5 -18.5t13.5 -41.5v-347zM769 369q0 -48 -59.5 -48t-59.5 48v407
q0 48 59.5 48t59.5 -48v-407zM956 589q0 -32 -22.5 -54.5t-54.5 -22.5t-54.5 22.5t-22.5 54.5t22.5 54.5t54.5 22.5t54.5 -22.5t22.5 -54.5z" />
    <glyph glyph-name="uniAE5F" unicode="&#xae5f;" 
d="M559 375q0 -48 -59.5 -48t-59.5 48v316q0 4 -1 7t-8 3h-84q-14 0 -23 7v-120q0 -75 -42 -176.5t-180 -201.5q-47 -34 -76 7t3 69q84 73 130 143t46 170v92q0 4 -1 7t-8 3h-119q-37 0 -37.5 50.5t37.5 50.5h184q36 0 49 -19q2 -2 3 -4q8 23 34 23h149q36 0 49.5 -18.5
t13.5 -41.5v-367zM329 -44q-37 -36 -83.5 1t-7.5 73l281 271q11 11 25 15t28 4t28.5 -4t25.5 -15l281 -271q38 -37 -7.5 -73.5t-83.5 -0.5l-243 241zM769 342q0 -48 -59.5 -48t-59.5 48v434q0 48 59.5 48t59.5 -48v-434zM956 577q0 -32 -22.5 -54.5t-54.5 -22.5t-54.5 22.5
t-22.5 54.5t22.5 54.5t54.5 22.5t54.5 -22.5t22.5 -54.5z" />
    <glyph glyph-name="uniAE60" unicode="&#xae60;" 
d="M563 -61q-16 -1 -29.5 4t-21.5 18l-119 216l-120 -216q-21 -37 -74 -16t-24 73l161 291q10 18 24 25t32 7q19 0 33 -7t24 -25l112 -202l112 202q10 18 24 25t32 7q19 0 33 -7t24 -25l161 -291q29 -52 -24 -73t-74 16l-119 216l-120 -216q-7 -13 -20 -18t-27 -4zM559 395
q0 -48 -59.5 -48t-59.5 48v296q0 4 -1 7t-8 3h-84q-14 0 -23 7v-120q0 -75 -42 -176.5t-180 -201.5q-47 -34 -76 7t3 69q84 73 130 143t46 170v92q0 4 -1 7t-8 3h-119q-37 0 -37.5 50.5t37.5 50.5h184q36 0 49 -19q2 -2 3 -4q8 23 34 23h149q36 0 49.5 -18.5t13.5 -41.5
v-347zM769 399q0 -48 -59.5 -48t-59.5 48v377q0 48 59.5 48t59.5 -48v-377zM956 589q0 -32 -22.5 -54.5t-54.5 -22.5t-54.5 22.5t-22.5 54.5t22.5 54.5t54.5 22.5t54.5 -22.5t22.5 -54.5z" />
    <glyph glyph-name="uniAE61" unicode="&#xae61;" 
d="M559 385q0 -48 -59.5 -48t-59.5 48v306q0 4 -1 7t-8 3h-84q-14 0 -23 7v-120q0 -75 -42 -176.5t-180 -201.5q-47 -34 -76 7t3 69q84 73 130 143t46 170v92q0 4 -1 7t-8 3h-119q-37 0 -37.5 50.5t37.5 50.5h184q36 0 49 -19q2 -2 3 -4q8 23 34 23h149q36 0 49.5 -18.5
t13.5 -41.5v-357zM928 113q0 -86 -69 -147.5t-168 -61.5q-100 0 -169.5 61t-69.5 148t69.5 148t169.5 61q99 0 168 -61.5t69 -147.5zM769 389q0 -48 -59.5 -48t-59.5 48v387q0 48 59.5 48t59.5 -48v-387zM809 113q0 45 -34.5 76t-83.5 31t-83.5 -31t-34.5 -76t34.5 -76
t83.5 -31t83.5 31t34.5 76zM956 599q0 -32 -22.5 -54.5t-54.5 -22.5t-54.5 22.5t-22.5 54.5t22.5 54.5t54.5 22.5t54.5 -22.5t22.5 -54.5z" />
    <glyph glyph-name="uniAE65" unicode="&#xae65;" 
d="M420 -72q-36 0 -49.5 18.5t-13.5 41.5v299q0 23 13.5 41.5t49.5 18.5h495q38 0 39 -50.5t-39 -50.5h-430q-7 0 -8 -3t-1 -7v-44h437q38 0 37.5 -50.5t-37.5 -50.5h-437v-52q0 -4 1 -7t8 -3h453q38 0 39 -50.5t-39 -50.5h-518zM559 417q0 -48 -59.5 -48t-59.5 48v274
q0 4 -1 7t-8 3h-84q-14 0 -23 7v-120q0 -75 -42 -176.5t-180 -201.5q-47 -34 -76 7t3 69q84 73 130 143t46 170v92q0 4 -1 7t-8 3h-119q-37 0 -37.5 50.5t37.5 50.5h184q36 0 49 -19q2 -2 3 -4q8 23 34 23h149q36 0 49.5 -18.5t13.5 -41.5v-325zM769 418q0 -48 -59.5 -48
t-59.5 48v359q0 48 59.5 48t59.5 -48v-359zM956 617q0 -32 -22.5 -54.5t-54.5 -22.5t-54.5 22.5t-22.5 54.5t22.5 54.5t54.5 22.5t54.5 -22.5t22.5 -54.5z" />
    <glyph glyph-name="uniAE68" unicode="&#xae68;" 
d="M707 22q0 -48 -59.5 -48t-59.5 48v754q0 48 59.5 48t59.5 -48v-278h50q11 0 19 -5v283q0 48 59.5 48t59.5 -48v-754q0 -48 -59.5 -48t-59.5 48v379q-8 -4 -19 -4h-50v-375zM519 117q0 -48 -59.5 -48t-59.5 48v574q0 4 -1 7t-8 3h-69q-14 0 -23 7v-150q0 -112 -30 -240
t-167 -238q-46 -37 -75.5 5.5t2.5 70.5q85 74 118 172.5t33 240.5v122q0 4 -1 7t-8 3h-94q-37 0 -37.5 50.5t37.5 50.5h159q36 0 49 -19q2 -2 3 -4q8 23 34 23h134q36 0 49.5 -18.5t13.5 -41.5v-625z" />
    <glyph glyph-name="uniAE69" unicode="&#xae69;" 
d="M519 377q0 -48 -59.5 -48t-59.5 48v314q0 4 -1 7t-8 3h-69q-14 0 -23 7v-100q0 -83 -32.5 -190t-164.5 -208q-46 -35 -77.5 6t-0.5 68q74 64 115 136t41 189v82q0 4 -1 7t-8 3h-94q-37 0 -37.5 50.5t37.5 50.5h159q36 0 49 -19q2 -2 3 -4q8 23 34 23h134q36 0 49.5 -18.5
t13.5 -41.5v-365zM707 378q0 -48 -59.5 -48t-59.5 48v398q0 48 59.5 48t59.5 -48v-148h45q15 0 24 -8v156q0 48 59.5 48t59.5 -48v-398q0 -48 -59.5 -48t-59.5 48v157q-9 -8 -24 -8h-45v-149zM951 -12q0 -48 -59.5 -48t-59.5 48v207q0 4 -1 7t-8 3h-450q-37 0 -37.5 50.5
t37.5 50.5h515q36 0 49.5 -18.5t13.5 -41.5v-258z" />
    <glyph glyph-name="uniAE6C" unicode="&#xae6c;" 
d="M519 357q0 -48 -59.5 -48t-59.5 48v334q0 4 -1 7t-8 3h-69q-14 0 -23 7v-100q0 -83 -32.5 -190t-164.5 -208q-46 -35 -77.5 6t-0.5 68q74 64 115 136t41 189v82q0 4 -1 7t-8 3h-94q-37 0 -37.5 50.5t37.5 50.5h159q36 0 49 -19q2 -2 3 -4q8 23 34 23h134q36 0 49.5 -18.5
t13.5 -41.5v-385zM707 258q0 -48 -59.5 -48t-59.5 48v518q0 48 59.5 48t59.5 -48v-198h45q15 0 24 -8v206q0 48 59.5 48t59.5 -48v-518q0 -48 -59.5 -48t-59.5 48v227q-9 -8 -24 -8h-45v-219zM421 -49q-36 0 -49.5 18.5t-13.5 41.5v247q0 48 59.5 48t59.5 -48v-196
q0 -4 1 -7t8 -3h430q37 0 37.5 -50.5t-37.5 -50.5h-495z" />
    <glyph glyph-name="uniAE70" unicode="&#xae70;" 
d="M951 150q0 -23 -13.5 -41.5t-49.5 -18.5h-403q-7 0 -8 -3t-1 -7v-41q0 -4 1 -7t8 -3h454q38 0 37.5 -50.5t-37.5 -50.5h-519q-36 0 -49.5 18.5t-13.5 41.5v143q0 23 13.5 41.5t49.5 18.5h403q7 0 8 3t1 7v41q0 4 -1 7t-8 3h-434q-37 0 -37.5 50.5t37.5 50.5h499
q36 0 49.5 -18.5t13.5 -41.5v-143zM519 422q0 -48 -59.5 -48t-59.5 48v269q0 4 -1 7t-8 3h-69q-14 0 -23 7v-100q0 -83 -32.5 -190t-164.5 -208q-46 -35 -77.5 6t-0.5 68q74 64 115 136t41 189v82q0 4 -1 7t-8 3h-94q-37 0 -37.5 50.5t37.5 50.5h159q36 0 49 -19q2 -2 3 -4
q8 23 34 23h134q36 0 49.5 -18.5t13.5 -41.5v-320zM707 423q0 -48 -59.5 -48t-59.5 48v353q0 48 59.5 48t59.5 -48v-124h45q15 0 24 -8v132q0 48 59.5 48t59.5 -48v-353q0 -48 -59.5 -48t-59.5 48v136q-9 -8 -24 -8h-45v-128z" />
    <glyph glyph-name="uniAE78" unicode="&#xae78;" 
d="M951 1q0 -23 -13.5 -41.5t-49.5 -18.5h-468q-36 0 -49.5 18.5t-13.5 41.5v245q0 23 13.5 41.5t49.5 18.5h468q36 0 49.5 -18.5t13.5 -41.5v-245zM519 377q0 -48 -59.5 -48t-59.5 48v314q0 4 -1 7t-8 3h-69q-14 0 -23 7v-100q0 -83 -32.5 -190t-164.5 -208
q-46 -35 -77.5 6t-0.5 68q74 64 115 136t41 189v82q0 4 -1 7t-8 3h-94q-37 0 -37.5 50.5t37.5 50.5h159q36 0 49 -19q2 -2 3 -4q8 23 34 23h134q36 0 49.5 -18.5t13.5 -41.5v-365zM707 378q0 -48 -59.5 -48t-59.5 48v398q0 48 59.5 48t59.5 -48v-138h45q15 0 24 -8v146
q0 48 59.5 48t59.5 -48v-398q0 -48 -59.5 -48t-59.5 48v167q-9 -8 -24 -8h-45v-159zM832 195q0 4 -1 7t-8 3h-338q-7 0 -8 -3t-1 -7v-143q0 -4 1 -7t8 -3h338q7 0 8 3t1 7v143z" />
    <glyph glyph-name="uniAE79" unicode="&#xae79;" 
d="M951 -1q-1 -23 -14 -41.5t-49 -18.5h-468q-36 0 -49.5 18.5t-13.5 41.5v301q0 48 59.5 48t59.5 -48v-250q0 -4 1 -7t8 -3h338q7 0 8 3t1 7v87h-303q-37 0 -37.5 50.5t37.5 50.5h303v62q0 48 59.5 48t59.5 -48v-301zM519 402q0 -48 -59.5 -48t-59.5 48v289q0 4 -1 7t-8 3
h-69q-14 0 -23 7v-100q0 -83 -32.5 -190t-164.5 -208q-46 -35 -77.5 6t-0.5 68q74 64 115 136t41 189v82q0 4 -1 7t-8 3h-94q-37 0 -37.5 50.5t37.5 50.5h159q36 0 49 -19q2 -2 3 -4q8 23 34 23h134q36 0 49.5 -18.5t13.5 -41.5v-340zM707 403q0 -48 -59.5 -48t-59.5 48v373
q0 48 59.5 48t59.5 -48v-124h45q15 0 24 -8v132q0 48 59.5 48t59.5 -48v-373q0 -48 -59.5 -48t-59.5 48v156q-9 -8 -24 -8h-45v-148z" />
    <glyph glyph-name="uniAE7B" unicode="&#xae7b;" 
d="M519 375q0 -48 -59.5 -48t-59.5 48v316q0 4 -1 7t-8 3h-69q-14 0 -23 7v-100q0 -83 -32.5 -190t-164.5 -208q-46 -35 -77.5 6t-0.5 68q74 64 115 136t41 189v82q0 4 -1 7t-8 3h-94q-37 0 -37.5 50.5t37.5 50.5h159q36 0 49 -19q2 -2 3 -4q8 23 34 23h134q36 0 49.5 -18.5
t13.5 -41.5v-367zM707 378q0 -48 -59.5 -48t-59.5 48v398q0 48 59.5 48t59.5 -48v-138h45q15 0 24 -8v146q0 48 59.5 48t59.5 -48v-438q0 -48 -59.5 -48t-59.5 48v207q-9 -8 -24 -8h-45v-159zM369 -44q-37 -36 -83.5 1t-7.5 73l281 271q11 11 25 15t28 4t28.5 -4t25.5 -15
l281 -271q38 -37 -7.5 -73.5t-83.5 -0.5l-243 241z" />
    <glyph glyph-name="uniAE7C" unicode="&#xae7c;" 
d="M593 -61q-16 -1 -29.5 4t-21.5 18l-119 216l-120 -216q-21 -37 -74 -16t-24 73l161 291q10 18 24 25t32 7q19 0 33 -7t24 -25l112 -202l112 202q10 18 24 25t32 7q19 0 33 -7t24 -25l161 -291q29 -52 -24 -73t-74 16l-119 216l-120 -216q-7 -13 -20 -18t-27 -4zM519 402
q0 -48 -59.5 -48t-59.5 48v289q0 4 -1 7t-8 3h-69q-14 0 -23 7v-100q0 -83 -32.5 -190t-164.5 -208q-46 -35 -77.5 6t-0.5 68q74 64 115 136t41 189v82q0 4 -1 7t-8 3h-94q-37 0 -37.5 50.5t37.5 50.5h159q36 0 49 -19q2 -2 3 -4q8 23 34 23h134q36 0 49.5 -18.5t13.5 -41.5
v-340zM707 403q0 -48 -59.5 -48t-59.5 48v373q0 48 59.5 48t59.5 -48v-124h45q15 0 24 -8v132q0 48 59.5 48t59.5 -48v-373q0 -48 -59.5 -48t-59.5 48v156q-9 -8 -24 -8h-45v-148z" />
    <glyph glyph-name="uniAE7D" unicode="&#xae7d;" 
d="M928 113q0 -86 -69 -147.5t-168 -61.5q-100 0 -169.5 61t-69.5 148t69.5 148t169.5 61q99 0 168 -61.5t69 -147.5zM519 377q0 -48 -59.5 -48t-59.5 48v314q0 4 -1 7t-8 3h-69q-14 0 -23 7v-100q0 -83 -32.5 -190t-164.5 -208q-46 -35 -77.5 6t-0.5 68q74 64 115 136
t41 189v82q0 4 -1 7t-8 3h-94q-37 0 -37.5 50.5t37.5 50.5h159q36 0 49 -19q2 -2 3 -4q8 23 34 23h134q36 0 49.5 -18.5t13.5 -41.5v-365zM707 378q0 -48 -59.5 -48t-59.5 48v398q0 48 59.5 48t59.5 -48v-138h45q15 0 24 -8v146q0 48 59.5 48t59.5 -48v-418q0 -48 -59.5 -48
t-59.5 48v187q-9 -8 -24 -8h-45v-159zM809 113q0 45 -34.5 76t-83.5 31t-83.5 -31t-34.5 -76t34.5 -76t83.5 -31t83.5 31t34.5 76z" />
    <glyph glyph-name="uniAE84" unicode="&#xae84;" horiz-adv-x="975" 
d="M559 117q0 -48 -59.5 -48t-59.5 48v574q0 4 -1 7t-8 3h-84q-14 0 -23 7v-150q0 -112 -39 -241.5t-183 -236.5q-47 -34 -76.5 7t3.5 69q87 73 131.5 172t44.5 241v122q0 4 -1 7t-8 3h-119q-37 0 -37.5 50.5t37.5 50.5h184q36 0 49 -19q2 -2 3 -4q8 23 34 23h149
q36 0 49.5 -18.5t13.5 -41.5v-625zM769 22q0 -48 -59.5 -48t-59.5 48v754q0 48 59.5 48t59.5 -48v-754zM956 297q0 -32 -22.5 -54.5t-54.5 -22.5t-54.5 22.5t-22.5 54.5t22.5 54.5t54.5 22.5t54.5 -22.5t22.5 -54.5zM956 587q0 -32 -22.5 -54.5t-54.5 -22.5t-54.5 22.5
t-22.5 54.5t22.5 54.5t54.5 22.5t54.5 -22.5t22.5 -54.5z" />
    <glyph glyph-name="uniAE85" unicode="&#xae85;" 
d="M559 375q0 -48 -59.5 -48t-59.5 48v316q0 4 -1 7t-8 3h-84q-14 0 -23 7v-120q0 -75 -42 -176.5t-180 -201.5q-47 -34 -76 7t3 69q84 73 130 143t46 170v92q0 4 -1 7t-8 3h-119q-37 0 -37.5 50.5t37.5 50.5h184q36 0 49 -19q2 -2 3 -4q8 23 34 23h149q36 0 49.5 -18.5
t13.5 -41.5v-367zM951 -12q0 -48 -59.5 -48t-59.5 48v207q0 4 -1 7t-8 3h-440q-37 0 -37.5 50.5t37.5 50.5h505q36 0 49.5 -18.5t13.5 -41.5v-258zM769 375q0 -48 -59.5 -48t-59.5 48v401q0 48 59.5 48t59.5 -48v-401zM956 477q0 -32 -22.5 -54.5t-54.5 -22.5t-54.5 22.5
t-22.5 54.5t22.5 54.5t54.5 22.5t54.5 -22.5t22.5 -54.5zM956 677q0 -32 -22.5 -54.5t-54.5 -22.5t-54.5 22.5t-22.5 54.5t22.5 54.5t54.5 22.5t54.5 -22.5t22.5 -54.5z" />
    <glyph glyph-name="uniAE8C" unicode="&#xae8c;" 
d="M951 150q0 -23 -13.5 -41.5t-49.5 -18.5h-403q-7 0 -8 -3t-1 -7v-41q0 -4 1 -7t8 -3h454q38 0 37.5 -50.5t-37.5 -50.5h-519q-36 0 -49.5 18.5t-13.5 41.5v143q0 23 13.5 41.5t49.5 18.5h403q7 0 8 3t1 7v41q0 4 -1 7t-8 3h-429q-37 0 -37.5 50.5t37.5 50.5h494
q36 0 49.5 -18.5t13.5 -41.5v-143zM559 425q0 -48 -59.5 -48t-59.5 48v266q0 4 -1 7t-8 3h-84q-14 0 -23 7v-120q0 -75 -42 -176.5t-180 -201.5q-47 -34 -76 7t3 69q84 73 130 143t46 170v92q0 4 -1 7t-8 3h-119q-37 0 -37.5 50.5t37.5 50.5h184q36 0 49 -19q2 -2 3 -4
q8 23 34 23h149q36 0 49.5 -18.5t13.5 -41.5v-317zM769 424q0 -48 -59.5 -48t-59.5 48v353q0 48 59.5 48t59.5 -48v-353zM956 517q0 -32 -22.5 -54.5t-54.5 -22.5t-54.5 22.5t-22.5 54.5t22.5 54.5t54.5 22.5t54.5 -22.5t22.5 -54.5zM956 697q0 -32 -22.5 -54.5t-54.5 -22.5
t-54.5 22.5t-22.5 54.5t22.5 54.5t54.5 22.5t54.5 -22.5t22.5 -54.5z" />
    <glyph glyph-name="uniAEBC" unicode="&#xaebc;" horiz-adv-x="951" 
d="M102 80q-47 -34 -76.5 7t3.5 69q87 73 131.5 172t44.5 241v122q0 4 -1 7t-8 3h-119q-37 0 -37.5 50.5t37.5 50.5h184q36 0 49 -19q2 -2 3 -4q8 23 34 23h149q36 0 49.5 -18.5t13.5 -41.5v-259q2 28 22 48q23 23 55 23t54.5 -22.5t22.5 -54.5t-22.5 -54.5t-54.5 -22.5
t-55 22q-20 20 -22 48v-353q0 -48 -59.5 -48t-59.5 48v574q0 4 -1 7t-8 3h-84q-14 0 -23 7v-150q0 -112 -39 -241.5t-183 -236.5zM833 22q0 -48 -59.5 -48t-59.5 48v754q0 48 59.5 48t59.5 -48v-754z" />
    <glyph glyph-name="uniAEBD" unicode="&#xaebd;" horiz-adv-x="951" 
d="M102 210q-47 -34 -76 7t3 69q84 73 130 143t46 170v92q0 4 -1 7t-8 3h-119q-37 0 -37.5 50.5t37.5 50.5h184q36 0 49 -19q2 -2 3 -4q8 23 34 23h149q36 0 49.5 -18.5t13.5 -41.5v-149q2 28 22 48q23 23 55 23t54.5 -22.5t22.5 -54.5t-22.5 -54.5t-54.5 -22.5t-55 22
q-20 20 -22 48v-205q0 -48 -59.5 -48t-59.5 48v316q0 4 -1 7t-8 3h-84q-14 0 -23 7v-120q0 -75 -42 -176.5t-180 -201.5zM903 -12q0 -48 -59.5 -48t-59.5 48v207q0 4 -1 7t-8 3h-440q-37 0 -37.5 50.5t37.5 50.5h505q36 0 49.5 -18.5t13.5 -41.5v-258zM833 376
q0 -48 -59.5 -48t-59.5 48v400q0 48 59.5 48t59.5 -48v-400z" />
    <glyph glyph-name="uniAEBE" unicode="&#xaebe;" horiz-adv-x="951" 
d="M559 385q0 -48 -59.5 -48t-59.5 48v306q0 4 -1 7t-8 3h-84q-14 0 -23 7v-120q0 -75 -42 -177q-20 -47 -61 -95h2h247q36 0 49.5 -18.5t13.5 -41.5v-270q0 -48 -59.5 -48t-59.5 48v219q0 4 -1 7t-8 3h-182q-37 0 -38 50q0 8 1 14q-37 -35 -84 -69t-76 7t3 69
q84 73 130 143t46 170v92q0 4 -1 7t-8 3h-119q-37 0 -37.5 50.5t37.5 50.5h184q36 0 49 -19q2 -2 3 -4q8 23 34 23h149q36 0 49.5 -18.5t13.5 -41.5v-139q2 28 22 48q23 23 55 23t54.5 -22.5t22.5 -54.5t-22.5 -54.5t-54.5 -22.5t-55 22q-20 20 -22 48v-205zM903 -14
q0 -48 -59.5 -48t-59.5 48v219q0 4 -1 7t-8 3h-182q-37 0 -37.5 50.5t37.5 50.5h247q36 0 49.5 -18.5t13.5 -41.5v-270zM833 386q0 -48 -59.5 -48t-59.5 48v390q0 48 59.5 48t59.5 -48v-390z" />
    <glyph glyph-name="uniAEC0" unicode="&#xaec0;" horiz-adv-x="951" 
d="M559 355q0 -48 -59.5 -48t-59.5 48v336q0 4 -1 7t-8 3h-84q-14 0 -23 7v-120q0 -75 -42 -176.5t-180 -201.5q-47 -34 -76 7t3 69q84 73 130 143t46 170v92q0 4 -1 7t-8 3h-119q-37 0 -37.5 50.5t37.5 50.5h184q36 0 49 -19q2 -2 3 -4q8 23 34 23h149q36 0 49.5 -18.5
t13.5 -41.5v-387zM833 258q0 -48 -59.5 -48t-59.5 48v302q-3 -28 -23 -48q-22 -22 -54 -22t-54.5 22.5t-22.5 54.5t22.5 54.5t54.5 22.5t54 -23q20 -20 23 -48v203q0 48 59.5 48t59.5 -48v-518zM373 -49q-36 0 -49.5 18.5t-13.5 41.5v247q0 48 59.5 48t59.5 -48v-196
q0 -4 1 -7t8 -3h430q37 0 37.5 -50.5t-37.5 -50.5h-495z" />
    <glyph glyph-name="uniAEC4" unicode="&#xaec4;" horiz-adv-x="951" 
d="M903 150q0 -23 -13.5 -41.5t-49.5 -18.5h-403q-7 0 -8 -3t-1 -7v-41q0 -4 1 -7t8 -3h454q38 0 37.5 -50.5t-37.5 -50.5h-519q-36 0 -49.5 18.5t-13.5 41.5v143q0 23 13.5 41.5t49.5 18.5h403q7 0 8 3t1 7v41q0 4 -1 7t-8 3h-434q-37 0 -37.5 50.5t37.5 50.5h499
q36 0 49.5 -18.5t13.5 -41.5v-143zM559 425q0 -48 -59.5 -48t-59.5 48v266q0 4 -1 7t-8 3h-84q-14 0 -23 7v-120q0 -75 -42 -176.5t-180 -201.5q-47 -34 -76 7t3 69q84 73 130 143t46 170v92q0 4 -1 7t-8 3h-119q-37 0 -37.5 50.5t37.5 50.5h184q36 0 49 -19q2 -2 3 -4
q8 23 34 23h149q36 0 49.5 -18.5t13.5 -41.5v-317zM714 777q0 48 59.5 48t59.5 -48v-359q0 -48 -59.5 -48t-59.5 48v182q-3 -28 -23 -48q-22 -22 -54 -22t-54.5 22.5t-22.5 54.5t22.5 54.5t54.5 22.5t54.5 -22.5t22.5 -54.5v170z" />
    <glyph glyph-name="uniAECC" unicode="&#xaecc;" horiz-adv-x="951" 
d="M713 776q0 48 59.5 48t59.5 -48v-401q0 -48 -59.5 -48t-59.5 48v205q-3 -28 -23 -48q-22 -22 -54 -22t-55 22q-20 20 -22 48v-203q0 -48 -59.5 -48t-59.5 48v314q0 4 -1 7t-8 3h-84q-14 0 -23 7v-120q0 -75 -42 -176.5t-180 -201.5q-47 -34 -76 7t3 69q84 73 130 143
t46 170v92q0 4 -1 7t-8 3h-119q-37 0 -37.5 50.5t37.5 50.5h184q36 0 49 -19q2 -2 3 -4q8 23 34 23h149q36 0 49.5 -18.5t13.5 -41.5v-149q2 28 22 48q23 23 55 23t54.5 -22.5t22.5 -54.5v189zM901 1q0 -23 -13.5 -41.5t-49.5 -18.5h-468q-36 0 -49.5 18.5t-13.5 41.5v245
q0 23 13.5 41.5t49.5 18.5h468q36 0 49.5 -18.5t13.5 -41.5v-245zM782 195q0 4 -1 7t-8 3h-338q-7 0 -8 -3t-1 -7v-143q0 -4 1 -7t8 -3h338q7 0 8 3t1 7v143z" />
    <glyph glyph-name="uniAECD" unicode="&#xaecd;" horiz-adv-x="951" 
d="M904 -1q-1 -23 -14 -41.5t-49 -18.5h-468q-36 0 -49.5 18.5t-13.5 41.5v301q0 48 59.5 48t59.5 -48v-250q0 -4 1 -7t8 -3h338q7 0 8 3t1 7v86h-303q-37 0 -37.5 50.5t37.5 50.5h303v63q0 48 59.5 48t59.5 -48v-301zM559 405q0 -48 -59.5 -48t-59.5 48v286q0 4 -1 7t-8 3
h-84q-14 0 -23 7v-120q0 -75 -42 -176.5t-180 -201.5q-47 -34 -76 7t3 69q84 73 130 143t46 170v92q0 4 -1 7t-8 3h-119q-37 0 -37.5 50.5t37.5 50.5h184q36 0 49 -19q2 -2 3 -4q8 23 34 23h149q36 0 49.5 -18.5t13.5 -41.5v-337zM833 412q0 -48 -59.5 -48t-59.5 48v178
q-3 -28 -23 -48q-22 -22 -54 -22t-54.5 22.5t-22.5 54.5t22.5 54.5t54.5 22.5t54 -23q20 -20 23 -48v174q0 48 59.5 48t59.5 -48v-365z" />
    <glyph glyph-name="uniAECF" unicode="&#xaecf;" horiz-adv-x="951" 
d="M559 365q0 -48 -59.5 -48t-59.5 48v326q0 4 -1 7t-8 3h-84q-14 0 -23 7v-120q0 -75 -42 -176.5t-180 -201.5q-47 -34 -76 7t3 69q84 73 130 143t46 170v92q0 4 -1 7t-8 3h-119q-37 0 -37.5 50.5t37.5 50.5h184q36 0 49 -19q2 -2 3 -4q8 23 34 23h149q36 0 49.5 -18.5
t13.5 -41.5v-377zM359 -46q-37 -36 -83.5 1t-7.5 73l281 271q11 11 25 15t28 4t28.5 -4t25.5 -15l281 -271q38 -37 -7.5 -73.5t-83.5 -0.5l-243 241zM833 330q0 -48 -59.5 -48t-59.5 48v240q-3 -28 -23 -48q-22 -22 -54 -22t-54.5 22.5t-22.5 54.5t22.5 54.5t54.5 22.5
t54 -23q20 -20 23 -48v193q0 48 59.5 48t59.5 -48v-446z" />
    <glyph glyph-name="uniAED0" unicode="&#xaed0;" horiz-adv-x="951" 
d="M559 375q0 -48 -59.5 -48t-59.5 48v316q0 4 -1 7t-8 3h-84q-14 0 -23 7v-120q0 -75 -42 -176.5t-180 -201.5q-47 -34 -76 7t3 69q84 73 130 143t46 170v92q0 4 -1 7t-8 3h-119q-37 0 -37.5 50.5t37.5 50.5h184q36 0 49 -19q2 -2 3 -4q8 23 34 23h149q36 0 49.5 -18.5
t13.5 -41.5v-367zM563 -60q-16 -1 -29.5 4t-21.5 18l-119 206l-120 -206q-21 -37 -74 -16t-24 73l161 281q10 18 24 25t32 7q19 0 33 -7t24 -25l112 -192l112 192q10 18 24 25t32 7q19 0 33 -7t24 -25l161 -281q29 -52 -24 -73t-74 16l-119 206l-120 -206q-7 -13 -20 -18
t-27 -4zM714 777q0 48 59.5 48t59.5 -48v-395q0 -48 -59.5 -48t-59.5 48v203q-3 -28 -23 -48q-22 -22 -54 -22t-54.5 22.5t-22.5 54.5t22.5 54.5t54.5 22.5t54.5 -22.5t22.5 -54.5v185z" />
    <glyph glyph-name="uniAED1" unicode="&#xaed1;" horiz-adv-x="951" 
d="M559 365q0 -48 -59.5 -48t-59.5 48v326q0 4 -1 7t-8 3h-84q-14 0 -23 7v-120q0 -75 -42 -176.5t-180 -201.5q-47 -34 -76 7t3 69q84 73 130 143t46 170v92q0 4 -1 7t-8 3h-119q-37 0 -37.5 50.5t37.5 50.5h184q36 0 49 -19q2 -2 3 -4q8 23 34 23h149q36 0 49.5 -18.5
t13.5 -41.5v-377zM881 113q0 -86 -69 -147.5t-168 -61.5q-100 0 -169.5 61t-69.5 148t69.5 148t169.5 61q99 0 168 -61.5t69 -147.5zM833 374q0 -48 -59.5 -48t-59.5 48v206q-3 -28 -23 -48q-22 -22 -54 -22t-54.5 22.5t-22.5 54.5t22.5 54.5t54.5 22.5t54 -23
q20 -20 23 -48v183q0 48 59.5 48t59.5 -48v-402zM762 113q0 45 -34.5 76t-83.5 31t-83.5 -31t-34.5 -76t34.5 -76t83.5 -31t83.5 31t34.5 76z" />
    <glyph glyph-name="uniAED8" unicode="&#xaed8;" 
d="M102 80q-46 -37 -75.5 5.5t2.5 70.5q85 74 118 172.5t33 240.5v122q0 4 -1 7t-8 3h-94q-37 0 -37.5 50.5t37.5 50.5h159q36 0 49 -19q2 -2 3 -4q8 23 34 23h134q36 0 49.5 -18.5t13.5 -41.5v-252q9 14 29 14h50v272q0 48 59.5 48t59.5 -48v-754q0 -48 -59.5 -48t-59.5 48
v381h-50q-20 0 -29 14v-300q0 -48 -59.5 -48t-59.5 48v574q0 4 -1 7t-8 3h-69q-14 0 -23 7v-150q0 -112 -30 -240t-167 -238zM895 22q0 -48 -59.5 -48t-59.5 48v754q0 48 59.5 48t59.5 -48v-754z" />
    <glyph glyph-name="uniAED9" unicode="&#xaed9;" 
d="M102 210q-46 -35 -77.5 6t-0.5 68q74 64 115 136t41 189v82q0 4 -1 7t-8 3h-94q-37 0 -37.5 50.5t37.5 50.5h159q36 0 49 -19q2 -2 3 -4q8 23 34 23h134q36 0 49.5 -18.5t13.5 -41.5v-116q9 8 24 8h55v142q0 48 59.5 48t59.5 -48v-398q0 -48 -59.5 -48t-59.5 48v155h-55
q-15 0 -24 8v-164q0 -48 -59.5 -48t-59.5 48v314q0 4 -1 7t-8 3h-69q-14 0 -23 7v-100q0 -83 -32.5 -190t-164.5 -208zM951 -12q0 -48 -59.5 -48t-59.5 48v207q0 4 -1 7t-8 3h-450q-37 0 -37.5 50.5t37.5 50.5h515q36 0 49.5 -18.5t13.5 -41.5v-258zM895 378
q0 -48 -59.5 -48t-59.5 48v398q0 48 59.5 48t59.5 -48v-398z" />
    <glyph glyph-name="uniAEDC" unicode="&#xaedc;" 
d="M102 210q-46 -35 -77.5 6t-0.5 68q74 64 115 136t41 189v82q0 4 -1 7t-8 3h-94q-37 0 -37.5 50.5t37.5 50.5h159q36 0 49 -19q2 -2 3 -4q8 23 34 23h134q36 0 49.5 -18.5t13.5 -41.5v-142q9 14 29 14h50v162q0 48 59.5 48t59.5 -48v-518q0 -48 -59.5 -48t-59.5 48v255
h-50q-20 0 -29 13v-169q0 -48 -59.5 -48t-59.5 48v334q0 4 -1 7t-8 3h-69q-14 0 -23 7v-100q0 -83 -32.5 -190t-164.5 -208zM421 -49q-36 0 -49.5 18.5t-13.5 41.5v247q0 48 59.5 48t59.5 -48v-196q0 -4 1 -7t8 -3h430q37 0 37.5 -50.5t-37.5 -50.5h-495zM895 258
q0 -48 -59.5 -48t-59.5 48v518q0 48 59.5 48t59.5 -48v-518z" />
    <glyph glyph-name="uniAEE8" unicode="&#xaee8;" 
d="M102 210q-46 -35 -77.5 6t-0.5 68q74 64 115 136t41 189v82q0 4 -1 7t-8 3h-94q-37 0 -37.5 50.5t37.5 50.5h159q36 0 49 -19q2 -2 3 -4q8 23 34 23h134q36 0 49.5 -18.5t13.5 -41.5v-122q9 14 29 14h50v142q0 48 59.5 48t59.5 -48v-398q0 -48 -59.5 -48t-59.5 48v155
h-50q-20 0 -29 13v-169q0 -48 -59.5 -48t-59.5 48v314q0 4 -1 7t-8 3h-69q-14 0 -23 7v-100q0 -83 -32.5 -190t-164.5 -208zM951 1q0 -23 -13.5 -41.5t-49.5 -18.5h-468q-36 0 -49.5 18.5t-13.5 41.5v245q0 23 13.5 41.5t49.5 18.5h468q36 0 49.5 -18.5t13.5 -41.5v-245z
M832 195q0 4 -1 7t-8 3h-338q-7 0 -8 -3t-1 -7v-143q0 -4 1 -7t8 -3h338q7 0 8 3t1 7v143zM895 378q0 -48 -59.5 -48t-59.5 48v398q0 48 59.5 48t59.5 -48v-398z" />
    <glyph glyph-name="uniAEEB" unicode="&#xaeeb;" 
d="M102 210q-46 -35 -77.5 6t-0.5 68q74 64 115 136t41 189v82q0 4 -1 7t-8 3h-94q-37 0 -37.5 50.5t37.5 50.5h159q36 0 49 -19q2 -2 3 -4q8 23 34 23h134q36 0 49.5 -18.5t13.5 -41.5v-116q9 8 24 8h55v142q0 48 59.5 48t59.5 -48v-398q0 -48 -59.5 -48t-59.5 48v155h-55
q-15 0 -24 8v-166q0 -48 -59.5 -48t-59.5 48v316q0 4 -1 7t-8 3h-69q-14 0 -23 7v-100q0 -83 -32.5 -190t-164.5 -208zM369 -44q-37 -36 -83.5 1t-7.5 73l281 271q11 11 25 15t28 4t28.5 -4t25.5 -15l281 -271q38 -37 -7.5 -73.5t-83.5 -0.5l-243 241zM895 338
q0 -48 -59.5 -48t-59.5 48v438q0 48 59.5 48t59.5 -48v-438z" />
    <glyph glyph-name="uniAEED" unicode="&#xaeed;" 
d="M102 210q-46 -35 -77.5 6t-0.5 68q74 64 115 136t41 189v82q0 4 -1 7t-8 3h-94q-37 0 -37.5 50.5t37.5 50.5h159q36 0 49 -19q2 -2 3 -4q8 23 34 23h134q36 0 49.5 -18.5t13.5 -41.5v-122q9 14 29 14h50v142q0 48 59.5 48t59.5 -48v-398q0 -48 -59.5 -48t-59.5 48v155
h-50q-20 0 -29 13v-179q0 -48 -59.5 -48t-59.5 48v324q0 4 -1 7t-8 3h-69q-14 0 -23 7v-100q0 -83 -32.5 -190t-164.5 -208zM928 113q0 -86 -69 -147.5t-168 -61.5q-100 0 -169.5 61t-69.5 148t69.5 148t169.5 61q99 0 168 -61.5t69 -147.5zM895 358q0 -48 -59.5 -48
t-59.5 48v418q0 48 59.5 48t59.5 -48v-418zM809 113q0 45 -34.5 76t-83.5 31t-83.5 -31t-34.5 -76t34.5 -76t83.5 -31t83.5 31t34.5 76z" />
    <glyph glyph-name="uniAEF4" unicode="&#xaef4;" horiz-adv-x="951" 
d="M559 117q0 -48 -59.5 -48t-59.5 48v574q0 4 -1 7t-8 3h-84q-14 0 -23 7v-150q0 -112 -39 -241.5t-183 -236.5q-47 -34 -76.5 7t3.5 69q87 73 131.5 172t44.5 241v122q0 4 -1 7t-8 3h-119q-37 0 -37.5 50.5t37.5 50.5h184q36 0 49 -19q2 -2 3 -4q8 23 34 23h149
q36 0 49.5 -18.5t13.5 -41.5v-625zM833 22q0 -48 -59.5 -48t-59.5 48v754q0 48 59.5 48t59.5 -48v-754zM713 334q0 -31 -21 -52.5t-52 -21.5t-52 21.5t-21 52.5q0 30 21 51.5t52 21.5t52 -21.5t21 -51.5zM713 580q0 -30 -21 -51.5t-52 -21.5t-52 21.5t-21 51.5q0 31 21 52.5
t52 21.5t52 -21.5t21 -52.5z" />
    <glyph glyph-name="uniAEF8" unicode="&#xaef8;" horiz-adv-x="951" 
d="M559 335q0 -48 -59.5 -48t-59.5 48v356q0 4 -1 7t-8 3h-84q-14 0 -23 7v-120q0 -75 -42 -176.5t-180 -201.5q-47 -34 -76 7t3 69q84 73 130 143t46 170v92q0 4 -1 7t-8 3h-119q-37 0 -37.5 50.5t37.5 50.5h184q36 0 49 -19q2 -2 3 -4q8 23 34 23h149q36 0 49.5 -18.5
t13.5 -41.5v-407zM374 -49q-36 0 -49.5 18.5t-13.5 41.5v247q0 48 59.5 48t59.5 -48v-196q0 -4 1 -7t8 -3h430q37 0 37.5 -50.5t-37.5 -50.5h-495zM833 258q0 -48 -59.5 -48t-59.5 48v518q0 48 59.5 48t59.5 -48v-518zM713 433q0 -31 -21 -52.5t-52 -21.5t-52 21.5t-21 52.5
q0 30 21 51.5t52 21.5t52 -21.5t21 -51.5zM713 641q0 -30 -21 -51.5t-52 -21.5t-52 21.5t-21 51.5q0 31 21 52.5t52 21.5t52 -21.5t21 -52.5z" />
    <glyph glyph-name="uniAEFC" unicode="&#xaefc;" horiz-adv-x="951" 
d="M904 150q0 -23 -13.5 -41.5t-49.5 -18.5h-403q-7 0 -8 -3t-1 -7v-41q0 -4 1 -7t8 -3h454q38 0 37.5 -50.5t-37.5 -50.5h-519q-36 0 -49.5 18.5t-13.5 41.5v143q0 23 13.5 41.5t49.5 18.5h403q7 0 8 3t1 7v41q0 4 -1 7t-8 3h-434q-37 0 -37.5 50.5t37.5 50.5h499
q36 0 49.5 -18.5t13.5 -41.5v-143zM559 425q0 -48 -59.5 -48t-59.5 48v266q0 4 -1 7t-8 3h-84q-14 0 -23 7v-120q0 -75 -42 -176.5t-180 -201.5q-47 -34 -76 7t3 69q84 73 130 143t46 170v92q0 4 -1 7t-8 3h-119q-37 0 -37.5 50.5t37.5 50.5h184q36 0 49 -19q2 -2 3 -4
q8 23 34 23h149q36 0 49.5 -18.5t13.5 -41.5v-317zM833 418q0 -48 -59.5 -48t-59.5 48v359q0 48 59.5 48t59.5 -48v-359zM713 682q0 -31 -21 -52t-52 -21t-52 21t-21 52t21 52t52 21t52 -21t21 -52zM713 502q0 -31 -21 -52t-52 -21t-52 21t-21 52t21 52t52 21t52 -21t21 -52
z" />
    <glyph glyph-name="uniAF07" unicode="&#xaf07;" horiz-adv-x="951" 
d="M559 365q0 -48 -59.5 -48t-59.5 48v326q0 4 -1 7t-8 3h-84q-14 0 -23 7v-120q0 -75 -42 -176.5t-180 -201.5q-47 -34 -76 7t3 69q84 73 130 143t46 170v92q0 4 -1 7t-8 3h-119q-37 0 -37.5 50.5t37.5 50.5h184q36 0 49 -19q2 -2 3 -4q8 23 34 23h149q36 0 49.5 -18.5
t13.5 -41.5v-377zM349 -44q-37 -36 -83.5 1t-7.5 73l281 271q11 11 25 15t28 4t28.5 -4t25.5 -15l281 -271q38 -37 -7.5 -73.5t-83.5 -0.5l-243 241zM833 330q0 -48 -59.5 -48t-59.5 48v446q0 48 59.5 48t59.5 -48v-446zM713 662q0 -31 -21 -52t-52 -21t-52 21t-21 52t21 52
t52 21t52 -21t21 -52zM713 472q0 -31 -21 -52t-52 -21t-52 21t-21 52t21 52t52 21t52 -21t21 -52z" />
    <glyph glyph-name="uniAF08" unicode="&#xaf08;" horiz-adv-x="951" 
d="M563 -60q-16 -1 -29.5 4t-21.5 18l-119 216l-120 -216q-21 -37 -74 -16t-24 73l161 291q10 18 24 25t32 7q19 0 33 -7t24 -25l112 -202l112 202q10 18 24 25t32 7q19 0 33 -7t24 -25l161 -291q29 -52 -24 -73t-74 16l-119 216l-120 -216q-7 -13 -20 -18t-27 -4zM559 385
q0 -48 -59.5 -48t-59.5 48v306q0 4 -1 7t-8 3h-84q-14 0 -23 7v-120q0 -75 -42 -176.5t-180 -201.5q-47 -34 -76 7t3 69q84 73 130 143t46 170v92q0 4 -1 7t-8 3h-119q-37 0 -37.5 50.5t37.5 50.5h184q36 0 49 -19q2 -2 3 -4q8 23 34 23h149q36 0 49.5 -18.5t13.5 -41.5
v-357zM833 392q0 -48 -59.5 -48t-59.5 48v385q0 48 59.5 48t59.5 -48v-385zM713 488q0 -31 -21 -52.5t-52 -21.5t-52 21.5t-21 52.5q0 30 21 51.5t52 21.5t52 -21.5t21 -51.5zM713 668q0 -30 -21 -51.5t-52 -21.5t-52 21.5t-21 51.5q0 31 21 52.5t52 21.5t52 -21.5t21 -52.5
z" />
    <glyph glyph-name="uniAF0D" unicode="&#xaf0d;" horiz-adv-x="951" 
d="M373 -49q-36 0 -49.5 18.5t-13.5 41.5v275q0 23 13.5 41.5t49.5 18.5h495q38 0 39 -50.5t-39 -50.5h-430q-7 0 -8 -3t-1 -7v-32h437q38 0 37.5 -50.5t-37.5 -50.5h-437v-40q0 -4 1 -7t8 -3h453q38 0 39 -50.5t-39 -50.5h-518zM559 425q0 -48 -59.5 -48t-59.5 48v266
q0 4 -1 7t-8 3h-84q-14 0 -23 7v-120q0 -75 -42 -176.5t-180 -201.5q-47 -34 -76 7t3 69q84 73 130 153t46 180v72q0 4 -1 7t-8 3h-119q-37 0 -37.5 50.5t37.5 50.5h184q36 0 49 -19q2 -2 3 -4q8 23 34 23h149q36 0 49.5 -18.5t13.5 -41.5v-317zM833 418q0 -48 -59.5 -48
t-59.5 48v359q0 48 59.5 48t59.5 -48v-359zM713 492q0 -31 -21 -52t-52 -21t-52 21t-21 52t21 52t52 21t52 -21t21 -52zM713 682q0 -31 -21 -52t-52 -21t-52 21t-21 52t21 52t52 21t52 -21t21 -52z" />
    <glyph glyph-name="uniAF10" unicode="&#xaf10;" 
d="M102 80q-45 -37 -73.5 4.5t0.5 71.5q85 87 113 179t28 234v122q0 4 -1 7t-8 3h-84q-37 0 -37.5 50.5t37.5 50.5h149q36 0 49 -19q2 -2 3 -4q8 23 34 23h129q36 0 49.5 -18.5t13.5 -41.5v-112q9 14 29 14h65v132q0 48 59.5 48t59.5 -48v-754q0 -48 -59.5 -48t-59.5 48v241
h-65q-20 0 -29 14v-160q0 -48 -59.5 -48t-59.5 48v574q0 4 -1 7t-8 3h-64q-14 0 -23 7v-150q0 -112 -29 -241t-158 -237zM895 22q0 -48 -59.5 -48t-59.5 48v754q0 48 59.5 48t59.5 -48v-754zM533 543q-20 0 -29 13v-206q9 14 29 14h65v179h-65z" />
    <glyph glyph-name="uniAF2C" unicode="&#xaf2c;" horiz-adv-x="785" 
d="M714 261q0 -48 -59.5 -48t-59.5 48v430q0 4 -1 7t-8 3h-168q-37 0 -37.5 50.5t37.5 50.5h233q36 0 49.5 -18.5t13.5 -41.5v-481zM520 130q0 -23 -13.5 -41.5t-49.5 -18.5h-404q-38 0 -37.5 50.5t37.5 50.5h339q7 0 8 3t1 7v303q0 48 59.5 48t59.5 -48v-354zM335 261
q0 -48 -59.5 -48t-59.5 48v430q0 4 -1 7t-8 3h-119q-37 0 -37.5 50.5t37.5 50.5h184q36 0 49.5 -18.5t13.5 -41.5v-481z" />
    <glyph glyph-name="uniAF2D" unicode="&#xaf2d;" horiz-adv-x="856" 
d="M714 491q0 -48 -59.5 -48t-59.5 48v200q0 4 -1 7t-8 3h-168q-37 0 -37.5 50.5t37.5 50.5h233q36 0 49.5 -18.5t13.5 -41.5v-251zM520 400q0 -23 -13.5 -41.5t-49.5 -18.5h-404q-38 0 -37.5 50.5t37.5 50.5h339q7 0 8 3t1 7v153q0 48 59.5 48t59.5 -48v-204zM335 521
q0 -48 -59.5 -48t-59.5 48v170q0 4 -1 7t-8 3h-119q-37 0 -37.5 50.5t37.5 50.5h184q36 0 49.5 -18.5t13.5 -41.5v-221zM786 -12q0 -48 -59.5 -48t-59.5 48v187q0 4 -1 7t-8 3h-433q-37 0 -37.5 50.5t37.5 50.5h498q36 0 49.5 -18.5t13.5 -41.5v-238z" />
    <glyph glyph-name="uniAF30" unicode="&#xaf30;" horiz-adv-x="856" 
d="M714 471q0 -48 -59.5 -48t-59.5 48v220q0 4 -1 7t-8 3h-168q-37 0 -37.5 50.5t37.5 50.5h233q36 0 49.5 -18.5t13.5 -41.5v-271zM520 385q0 -23 -13.5 -41.5t-49.5 -18.5h-404q-38 0 -37.5 50.5t37.5 50.5h339q7 0 8 3t1 7v163q0 48 59.5 48t59.5 -48v-214zM335 501
q0 -48 -59.5 -48t-59.5 48v190q0 4 -1 7t-8 3h-119q-37 0 -37.5 50.5t37.5 50.5h184q36 0 49.5 -18.5t13.5 -41.5v-241zM254 -49q-36 0 -49.5 18.5t-13.5 41.5v227q0 48 59.5 48t59.5 -48v-176q0 -4 1 -7t8 -3h430q37 0 37.5 -50.5t-37.5 -50.5h-495z" />
    <glyph glyph-name="uniAF32" unicode="&#xaf32;" horiz-adv-x="856" 
d="M407 186q-37 0 -37.5 50.5t37.5 50.5h149v51q0 48 59.5 48t59.5 -48v-51h136q39 0 38.5 -50.5t-38.5 -50.5h-50q48 -47 48 -110q0 -69 -56.5 -118.5t-136.5 -49.5q-81 0 -138 49t-57 119q0 63 47 110h-61zM520 418q0 -23 -13.5 -41.5t-49.5 -18.5h-404q-38 0 -37.5 50.5
t37.5 50.5h339q7 0 8 3t1 7v123q0 48 59.5 48t59.5 -48v-174zM165 -61q-36 0 -49.5 18.5t-13.5 41.5v266q0 48 59.5 48t59.5 -48v-215q0 -4 1 -7t8 -3h165q37 0 37.5 -50.5t-37.5 -50.5h-230zM714 501q0 -48 -59.5 -48t-59.5 48v190q0 4 -1 7t-8 3h-168q-37 0 -37.5 50.5
t37.5 50.5h233q36 0 49.5 -18.5t13.5 -41.5v-241zM335 541q0 -48 -59.5 -48t-59.5 48v150q0 4 -1 7t-8 3h-119q-37 0 -37.5 50.5t37.5 50.5h184q36 0 49.5 -18.5t13.5 -41.5v-201zM690 84q0 32 -22 53.5t-52 21.5q-31 0 -53 -21.5t-22 -53.5q0 -31 22 -53t53 -22q30 0 52 22
t22 53z" />
    <glyph glyph-name="uniAF34" unicode="&#xaf34;" horiz-adv-x="856" 
d="M714 491q0 -48 -59.5 -48t-59.5 48v200q0 4 -1 7t-8 3h-168q-37 0 -37.5 50.5t37.5 50.5h233q36 0 49.5 -18.5t13.5 -41.5v-251zM520 443q0 -23 -13.5 -41.5t-49.5 -18.5h-404q-38 0 -37.5 50.5t37.5 50.5h339q7 0 8 3t1 7v123q0 48 59.5 48t59.5 -48v-174zM335 556
q0 -48 -59.5 -48t-59.5 48v135q0 4 -1 7t-8 3h-119q-37 0 -37.5 50.5t37.5 50.5h184q36 0 49.5 -18.5t13.5 -41.5v-186zM785 140q0 -23 -13.5 -41.5t-49.5 -18.5h-403q-7 0 -8 -3t-1 -7v-31q0 -4 1 -7t8 -3h454q38 0 37.5 -50.5t-37.5 -50.5h-519q-36 0 -49.5 18.5
t-13.5 41.5v133q0 23 13.5 41.5t49.5 18.5h403q7 0 8 3t1 7v31q0 4 -1 7t-8 3h-429q-37 0 -37.5 50.5t37.5 50.5h494q36 0 49.5 -18.5t13.5 -41.5v-133z" />
    <glyph glyph-name="uniAF3C" unicode="&#xaf3c;" horiz-adv-x="856" 
d="M714 491q0 -48 -59.5 -48t-59.5 48v200q0 4 -1 7t-8 3h-168q-37 0 -37.5 50.5t37.5 50.5h233q36 0 49.5 -18.5t13.5 -41.5v-251zM520 406q0 -23 -13.5 -41.5t-49.5 -18.5h-404q-38 0 -37.5 50.5t37.5 50.5h339q7 0 8 3t1 7v153q0 48 59.5 48t59.5 -48v-204zM335 521
q0 -48 -59.5 -48t-59.5 48v170q0 4 -1 7t-8 3h-119q-37 0 -37.5 50.5t37.5 50.5h184q36 0 49.5 -18.5t13.5 -41.5v-221zM785 1q0 -23 -13.5 -41.5t-49.5 -18.5h-468q-36 0 -49.5 18.5t-13.5 41.5v225q0 23 13.5 41.5t49.5 18.5h468q36 0 49.5 -18.5t13.5 -41.5v-225z
M666 175q0 4 -1 7t-8 3h-338q-7 0 -8 -3t-1 -7v-123q0 -4 1 -7t8 -3h338q7 0 8 3t1 7v123z" />
    <glyph glyph-name="uniAF3D" unicode="&#xaf3d;" horiz-adv-x="856" 
d="M785 -1q-1 -23 -14 -41.5t-49 -18.5h-468q-36 0 -49.5 18.5t-13.5 41.5v286q0 48 59.5 48t59.5 -48v-235q0 -4 1 -7t8 -3h338q7 0 8 3t1 7v76h-303q-37 0 -37.5 50.5t37.5 50.5h303v58q0 48 59.5 48t59.5 -48v-286zM520 426q0 -23 -13.5 -41.5t-49.5 -18.5h-404
q-38 0 -37.5 50.5t37.5 50.5h339q7 0 8 3t1 7v133q0 48 59.5 48t59.5 -48v-184zM714 511q0 -48 -59.5 -48t-59.5 48v180q0 4 -1 7t-8 3h-168q-37 0 -37.5 50.5t37.5 50.5h233q36 0 49.5 -18.5t13.5 -41.5v-231zM335 541q0 -48 -59.5 -48t-59.5 48v150q0 4 -1 7t-8 3h-119
q-37 0 -37.5 50.5t37.5 50.5h184q36 0 49.5 -18.5t13.5 -41.5v-201z" />
    <glyph glyph-name="uniAF3F" unicode="&#xaf3f;" horiz-adv-x="856" 
d="M714 491q0 -48 -59.5 -48t-59.5 48v200q0 4 -1 7t-8 3h-168q-37 0 -37.5 50.5t37.5 50.5h233q36 0 49.5 -18.5t13.5 -41.5v-251zM520 396q0 -23 -13.5 -41.5t-49.5 -18.5h-404q-38 0 -37.5 50.5t37.5 50.5h339q7 0 8 3t1 7v163q0 48 59.5 48t59.5 -48v-214zM335 521
q0 -48 -59.5 -48t-59.5 48v170q0 4 -1 7t-8 3h-119q-37 0 -37.5 50.5t37.5 50.5h184q36 0 49.5 -18.5t13.5 -41.5v-221zM243 -44q-39 -38 -84.5 0t-6.5 74l281 261q11 11 25 15t28 4t28.5 -4t25.5 -15l281 -261q38 -37 -7.5 -73.5t-83.5 -0.5l-243 227z" />
    <glyph glyph-name="uniAF41" unicode="&#xaf41;" horiz-adv-x="856" 
d="M714 491q0 -48 -59.5 -48t-59.5 48v200q0 4 -1 7t-8 3h-168q-37 0 -37.5 50.5t37.5 50.5h233q36 0 49.5 -18.5t13.5 -41.5v-251zM520 401q0 -23 -13.5 -41.5t-49.5 -18.5h-404q-38 0 -37.5 50.5t37.5 50.5h339q7 0 8 3t1 7v153q0 48 59.5 48t59.5 -48v-204zM335 521
q0 -48 -59.5 -48t-59.5 48v170q0 4 -1 7t-8 3h-119q-37 0 -37.5 50.5t37.5 50.5h184q36 0 49.5 -18.5t13.5 -41.5v-221zM719 107q0 -84 -67 -143.5t-163 -59.5q-97 0 -164.5 59t-67.5 144t67.5 144t164.5 59q96 0 163 -59.5t67 -143.5zM600 107q0 42 -32.5 71.5t-78.5 29.5
t-78.5 -29.5t-32.5 -71.5t32.5 -71.5t78.5 -29.5t78.5 29.5t32.5 71.5z" />
    <glyph glyph-name="uniAF42" unicode="&#xaf42;" horiz-adv-x="856" 
d="M192 219q-37 0 -37.5 50.5t37.5 50.5h594q39 0 38.5 -50.5t-38.5 -50.5h-218l251 -189q38 -30 -4.5 -69.5t-86.5 -4.5l-240 185l-237 -185q-44 -36 -87 3.5t-4 70.5l247 189h-215zM520 426q0 -23 -13.5 -41.5t-49.5 -18.5h-404q-38 0 -37.5 50.5t37.5 50.5h339q7 0 8 3
t1 7v133q0 48 59.5 48t59.5 -48v-184zM714 511q0 -48 -59.5 -48t-59.5 48v180q0 4 -1 7t-8 3h-168q-37 0 -37.5 50.5t37.5 50.5h233q36 0 49.5 -18.5t13.5 -41.5v-231zM335 541q0 -48 -59.5 -48t-59.5 48v150q0 4 -1 7t-8 3h-119q-37 0 -37.5 50.5t37.5 50.5h184
q36 0 49.5 -18.5t13.5 -41.5v-201z" />
    <glyph glyph-name="uniAF43" unicode="&#xaf43;" horiz-adv-x="856" 
d="M211 199q-37 0 -37.5 50.5t37.5 50.5h222v58q0 15 5 25h-385q-38 0 -37.5 50.5t37.5 50.5h339q7 0 8 3t1 7v116q0 48 59.5 48t59.5 -48v-167q0 -21 -11 -38q43 -6 43 -47v-58h222q39 0 38.5 -50.5t-38.5 -50.5h-164l191 -171q35 -31 -5 -74t-86 0l-216 201l-225 -201
q-40 -37 -82.5 3.5t-8.5 70.5l197 171h-164zM714 488q0 -48 -59.5 -48t-59.5 48v203q0 4 -1 7t-8 3h-168q-37 0 -37.5 50.5t37.5 50.5h233q36 0 49.5 -18.5t13.5 -41.5v-254zM335 576q0 -48 -59.5 -48t-59.5 48v115q0 4 -1 7t-8 3h-119q-37 0 -37.5 50.5t37.5 50.5h184
q36 0 49.5 -18.5t13.5 -41.5v-166z" />
    <glyph glyph-name="uniAF48" unicode="&#xaf48;" horiz-adv-x="975" 
d="M956 467q0 -32 -22.5 -54.5t-54.5 -22.5t-54.5 22.5t-22.5 54.5t22.5 54.5t54.5 22.5t54.5 -22.5t22.5 -54.5zM769 22q0 -48 -59.5 -48t-59.5 48v754q0 48 59.5 48t59.5 -48v-754zM594 236q0 -48 -59.5 -48t-59.5 48v455q0 4 -1 7t-8 3h-96q-37 0 -37.5 50.5t37.5 50.5
h161q36 0 49.5 -18.5t13.5 -41.5v-506zM420 155q0 -23 -13.5 -41.5t-49.5 -18.5h-304q-38 0 -37.5 50.5t37.5 50.5h239q7 0 8 3t1 7v239q0 48 59.5 48t59.5 -48v-290zM152 250q-43 -37 -77.5 -1t-5.5 67q56 59 86 138t30 175v62q0 4 -1 7t-8 3h-89q-37 0 -37.5 50.5
t37.5 50.5h154q36 0 49.5 -18.5t13.5 -41.5v-114q0 -82 -29.5 -190t-122.5 -188z" />
    <glyph glyph-name="uniAF49" unicode="&#xaf49;" 
d="M415 341q0 -19 -9 -35h482q36 0 49.5 -18.5t13.5 -41.5v-258q0 -48 -59.5 -48t-59.5 48v207q0 4 -1 7t-8 3h-440q-37 0 -38 50q0 15 3 26h-295q-38 0 -37.5 50.5t37.5 50.5h234q7 0 8 3t1 7v163q0 48 59.5 48t59.5 -48v-214zM591 432q0 -48 -59.5 -48t-59.5 48v259
q0 4 -1 7t-8 3h-96q-37 0 -37.5 50.5t37.5 50.5h161q36 0 49.5 -18.5t13.5 -41.5v-310zM172 416q-42 -39 -77.5 -1.5t-5.5 67.5q35 35 65.5 100t30.5 109q0 4 -1 7t-8 3h-89q-37 0 -37.5 50.5t37.5 50.5h154q36 0 49.5 -17t13.5 -43q0 -73 -24.5 -161.5t-107.5 -164.5z
M769 375q0 -48 -59.5 -48t-59.5 48v401q0 48 59.5 48t59.5 -48v-401zM956 589q0 -32 -22.5 -54.5t-54.5 -22.5t-54.5 22.5t-22.5 54.5t22.5 54.5t54.5 22.5t54.5 -22.5t22.5 -54.5z" />
    <glyph glyph-name="uniAF50" unicode="&#xaf50;" 
d="M415 391q0 -21 -11 -38h484q36 0 49.5 -18.5t13.5 -41.5v-143q0 -23 -13.5 -41.5t-49.5 -18.5h-403q-7 0 -8 -3t-1 -7v-41q0 -4 1 -7t8 -3h454q38 0 37.5 -50.5t-37.5 -50.5h-519q-36 0 -49.5 18.5t-13.5 41.5v143q0 23 13.5 41.5t49.5 18.5h403q7 0 8 3t1 7v41q0 4 -1 7
t-8 3h-429q-37 0 -38 50q0 18 4 29h-8h-299q-38 0 -37.5 50.5t37.5 50.5h234q7 0 8 3t1 7v123q0 48 59.5 48t59.5 -48v-174zM591 472q0 -48 -59.5 -48t-59.5 48v219q0 4 -1 7t-8 3h-96q-37 0 -37.5 50.5t37.5 50.5h161q36 0 49.5 -18.5t13.5 -41.5v-270zM182 466
q-44 -36 -79 1t-4 65q38 35 62 79t24 80q0 4 -1 7t-8 3h-89q-37 0 -37.5 50.5t37.5 50.5h154q36 0 49.5 -17t13.5 -43q0 -55 -16 -128.5t-106 -147.5zM769 418q0 -48 -59.5 -48t-59.5 48v359q0 48 59.5 48t59.5 -48v-359zM956 607q0 -32 -22.5 -54.5t-54.5 -22.5t-54.5 22.5
t-22.5 54.5t22.5 54.5t54.5 22.5t54.5 -22.5t22.5 -54.5z" />
    <glyph glyph-name="uniAF5C" unicode="&#xaf5c;" 
d="M573 -59q-16 -1 -29.5 4t-21.5 18l-119 216l-120 -216q-21 -37 -74 -16t-24 73l161 291q7 13 16 20h-10h-299q-38 0 -37.5 50.5t37.5 50.5h234q7 0 8 3t1 7v123q0 48 59.5 48t59.5 -48v-174q0 -23 -14 -42q-2 -3 -6 -6h7q19 0 33 -7t24 -25l112 -202l112 202q10 18 24 25
t32 7q19 0 33 -7t24 -25l161 -291q29 -52 -24 -73t-74 16l-119 216l-120 -216q-7 -13 -20 -18t-27 -4zM591 452q0 -48 -59.5 -48t-59.5 48v239q0 4 -1 7t-8 3h-96q-37 0 -37.5 50.5t37.5 50.5h161q36 0 49.5 -18.5t13.5 -41.5v-290zM182 466q-44 -36 -79 1t-4 65
q38 35 62 79t24 80q0 4 -1 7t-8 3h-89q-37 0 -37.5 50.5t37.5 50.5h154q36 0 49.5 -17t13.5 -43q0 -55 -16 -128.5t-106 -147.5zM769 398q0 -48 -59.5 -48t-59.5 48v379q0 48 59.5 48t59.5 -48v-379zM956 607q0 -32 -22.5 -54.5t-54.5 -22.5t-54.5 22.5t-22.5 54.5
t22.5 54.5t54.5 22.5t54.5 -22.5t22.5 -54.5z" />
    <glyph glyph-name="uniAF5D" unicode="&#xaf5d;" 
d="M769 384q0 -48 -59.5 -48t-59.5 48v392q0 48 59.5 48t59.5 -48v-392zM956 599q0 -32 -22.5 -54.5t-54.5 -22.5t-54.5 22.5t-22.5 54.5t22.5 54.5t54.5 22.5t54.5 -22.5t22.5 -54.5zM928 113q0 -86 -69 -147.5t-168 -61.5q-100 0 -169.5 61t-69.5 148t69.5 148t169.5 61
q99 0 168 -61.5t69 -147.5zM809 113q0 45 -34.5 76t-83.5 31t-83.5 -31t-34.5 -76t34.5 -76t83.5 -31t83.5 31t34.5 76zM591 398q0 -48 -59.5 -48t-59.5 48v293q0 4 -1 7t-8 3h-96q-37 0 -37.5 50.5t37.5 50.5h161q36 0 49.5 -18.5t13.5 -41.5v-344zM415 341
q0 -23 -13.5 -41.5t-49.5 -18.5h-299q-38 0 -37.5 50.5t37.5 50.5h234q7 0 8 3t1 7v163q0 48 59.5 48t59.5 -48v-214zM172 416q-42 -39 -77.5 -1.5t-5.5 67.5q35 35 65.5 100t30.5 109q0 4 -1 7t-8 3h-89q-37 0 -37.5 50.5t37.5 50.5h154q36 0 49.5 -17t13.5 -43
q0 -73 -24.5 -161.5t-107.5 -164.5z" />
    <glyph glyph-name="uniAF64" unicode="&#xaf64;" 
d="M715 22q0 -48 -58.5 -48t-58.5 48v754q0 48 58.5 48t58.5 -48v-268h37q15 0 24 -8v276q0 48 59.5 48t59.5 -48v-754q0 -48 -59.5 -48t-59.5 48v393q-9 -8 -24 -8h-37v-385zM544 236q0 -48 -59.5 -48t-59.5 48v455q0 4 -1 7t-8 3h-91q-37 0 -37.5 50.5t37.5 50.5h156
q36 0 49.5 -18.5t13.5 -41.5v-506zM147 255q-42 -38 -79 -4t-9 65q53 61 72 140.5t19 152.5v82q0 4 -1 7t-8 3h-54q-37 0 -37.5 50.5t37.5 50.5h119q36 0 49.5 -18.5t13.5 -41.5v-134q0 -67 -21.5 -174t-100.5 -179zM377 155q0 -23 -13.5 -41.5t-49.5 -18.5h-261
q-38 0 -37.5 50.5t37.5 50.5h196q7 0 8 3t1 7v239q0 48 59.5 48t59.5 -48v-290z" />
    <glyph glyph-name="uniAF65" unicode="&#xaf65;" 
d="M951 -12q0 -48 -59.5 -48t-59.5 48v207q0 4 -1 7t-8 3h-450q-37 0 -38 50q0 22 7 34q-13 -4 -30 -4h-259q-38 0 -37.5 50.5t37.5 50.5h194q7 0 8 3t1 7v139q0 48 59.5 48t59.5 -48v-190q0 -22 -13 -40q5 1 11 1h515q36 0 49.5 -18.5t13.5 -41.5v-258zM715 381
q0 -48 -58.5 -48t-58.5 48v395q0 48 58.5 48t58.5 -48v-128h37q15 0 24 -8v136q0 48 59.5 48t59.5 -48v-395q0 -48 -59.5 -48t-59.5 48v174q-9 -8 -24 -8h-37v-166zM544 416q0 -48 -59.5 -48t-59.5 48v275q0 4 -1 7t-8 3h-91q-37 0 -37.5 50.5t37.5 50.5h156
q36 0 49.5 -18.5t13.5 -41.5v-326zM167 425q-43 -37 -80 -3t-8 64q38 39 54.5 81t16.5 92v32q0 4 -1 7t-8 3h-54q-37 0 -37.5 50.5t37.5 50.5h119q36 0 49.5 -18.5t13.5 -41.5v-84q0 -43 -19 -110.5t-83 -122.5z" />
    <glyph glyph-name="uniAF79" unicode="&#xaf79;" 
d="M928 113q0 -86 -69 -147.5t-168 -61.5q-100 0 -169.5 61t-69.5 148t69.5 148t169.5 61q99 0 168 -61.5t69 -147.5zM715 381q0 -48 -58.5 -48t-58.5 48v395q0 48 58.5 48t58.5 -48v-128h37q15 0 24 -8v136q0 48 59.5 48t59.5 -48v-405q0 -48 -59.5 -48t-59.5 48v184
q-9 -8 -24 -8h-37v-166zM544 406q0 -48 -59.5 -48t-59.5 48v285q0 4 -1 7t-8 3h-91q-37 0 -37.5 50.5t37.5 50.5h156q36 0 49.5 -18.5t13.5 -41.5v-336zM375 345q0 -23 -13.5 -41.5t-49.5 -18.5h-259q-38 0 -37.5 50.5t37.5 50.5h194q7 0 8 3t1 7v149q0 48 59.5 48t59.5 -48
v-200zM167 425q-43 -37 -80 -3t-8 64q38 39 54.5 81t16.5 92v32q0 4 -1 7t-8 3h-54q-37 0 -37.5 50.5t37.5 50.5h119q36 0 49.5 -18.5t13.5 -41.5v-84q0 -43 -19 -110.5t-83 -122.5zM809 113q0 45 -34.5 76t-83.5 31t-83.5 -31t-34.5 -76t34.5 -76t83.5 -31t83.5 31t34.5 76
z" />
    <glyph glyph-name="uniAF80" unicode="&#xaf80;" horiz-adv-x="951" 
d="M832 22q0 -48 -59.5 -48t-59.5 48v754q0 48 59.5 48t59.5 -48v-754zM634 236q0 -48 -59.5 -48t-59.5 48v455q0 4 -1 7t-8 3h-116q-37 0 -37.5 50.5t37.5 50.5h181q36 0 49.5 -18.5t13.5 -41.5v-506zM440 155q0 -23 -13.5 -41.5t-49.5 -18.5h-324q-38 0 -37.5 50.5
t37.5 50.5h259q7 0 8 3t1 7v259q0 48 59.5 48t59.5 -48v-310zM172 250q-43 -37 -77.5 -1t-5.5 67q56 59 86 128t30 165v82q0 4 -1 7t-8 3h-109q-37 0 -37.5 50.5t37.5 50.5h174q36 0 49.5 -18.5t13.5 -41.5v-134q0 -82 -29.5 -180t-122.5 -178z" />
    <glyph glyph-name="uniAF84" unicode="&#xaf84;" horiz-adv-x="951" 
d="M440 335q0 -23 -14 -42q-7 -9 -20 -14q23 -12 23 -41v-176q0 -4 1 -7t8 -3h430q37 0 37.5 -50.5t-37.5 -50.5h-495q-36 0 -49.5 18.5t-13.5 41.5v227q0 25 16 37h-273q-38 0 -37.5 50.5t37.5 50.5h259q7 0 8 3t1 7v159q0 48 59.5 48t59.5 -48v-210zM832 248
q0 -48 -59.5 -48t-59.5 48v528q0 48 59.5 48t59.5 -48v-528zM634 396q0 -48 -59.5 -48t-59.5 48v295q0 4 -1 7t-8 3h-116q-37 0 -37.5 50.5t37.5 50.5h181q36 0 49.5 -18.5t13.5 -41.5v-346zM182 410q-46 -34 -80 1.5t-3 64.5q57 55 81.5 97t24.5 86v32q0 4 -1 7t-8 3h-104
q-37 0 -37.5 50.5t37.5 50.5h169q36 0 49.5 -18.5t13.5 -41.5v-84q0 -54 -32.5 -122.5t-109.5 -125.5z" />
    <glyph glyph-name="uniAF88" unicode="&#xaf88;" horiz-adv-x="951" 
d="M440 375q0 -12 -3 -22h404q36 0 49.5 -18.5t13.5 -41.5v-143q0 -23 -13.5 -41.5t-49.5 -18.5h-403q-7 0 -8 -3t-1 -7v-41q0 -4 1 -7t8 -3h454q38 0 37.5 -50.5t-37.5 -50.5h-519q-36 0 -49.5 18.5t-13.5 41.5v143q0 23 13.5 41.5t49.5 18.5h403q7 0 8 3t1 7v41q0 4 -1 7
t-8 3h-429q-37 0 -38 50q0 7 1 13h-257q-38 0 -37.5 50.5t37.5 50.5h259q7 0 8 3t1 7v139q0 48 59.5 48t59.5 -48v-190zM634 446q0 -48 -59.5 -48t-59.5 48v245q0 4 -1 7t-8 3h-116q-37 0 -37.5 50.5t37.5 50.5h181q36 0 49.5 -18.5t13.5 -41.5v-296zM182 450
q-43 -35 -78.5 2t-4.5 64q43 37 74.5 89.5t31.5 85.5q0 4 -1 7t-8 3h-104q-37 0 -37.5 50.5t37.5 50.5h169q36 0 49.5 -17t13.5 -43q0 -84 -34 -158t-108 -134zM832 418q0 -48 -59.5 -48t-59.5 48v359q0 48 59.5 48t59.5 -48v-359z" />
    <glyph glyph-name="uniAF90" unicode="&#xaf90;" horiz-adv-x="951" 
d="M904 1q0 -23 -13.5 -41.5t-49.5 -18.5h-468q-36 0 -49.5 18.5t-13.5 41.5v245q0 23 13 41q3 4 7 8h-277q-38 0 -37.5 50.5t37.5 50.5h259q7 0 8 3t1 7v149q0 48 59.5 48t59.5 -48v-200q0 -23 -14 -42q-3 -4 -7 -7h422q36 0 49.5 -18.5t13.5 -41.5v-245zM634 406
q0 -48 -59.5 -48t-59.5 48v285q0 4 -1 7t-8 3h-116q-37 0 -37.5 50.5t37.5 50.5h181q36 0 49.5 -18.5t13.5 -41.5v-336zM182 450q-45 -34 -79.5 2.5t-3.5 63.5q43 37 74.5 89.5t31.5 85.5q0 4 -1 7t-8 3h-104q-37 0 -37.5 50.5t37.5 50.5h169q36 0 49.5 -17t13.5 -43
q0 -76 -34 -156t-108 -136zM785 195q0 4 -1 7t-8 3h-338q-7 0 -8 -3t-1 -7v-143q0 -4 1 -7t8 -3h338q7 0 8 3t1 7v143zM832 377q0 -48 -59.5 -48t-59.5 48v399q0 48 59.5 48t59.5 -48v-399z" />
    <glyph glyph-name="uniAF91" unicode="&#xaf91;" horiz-adv-x="951" 
d="M904 -1q-1 -23 -14 -41.5t-49 -18.5h-468q-36 0 -49.5 18.5t-13.5 41.5v291q0 15 5 25h-262q-38 0 -37.5 50.5t37.5 50.5h259q7 0 8 3t1 7v139q0 48 59.5 48t59.5 -48v-190q0 -23 -14 -42q-4 -5 -10 -9q13 -12 13 -34v-240q0 -4 1 -7t8 -3h338q7 0 8 3t1 7v81h-303
q-37 0 -37.5 50.5t37.5 50.5h303v58q0 48 59.5 48t59.5 -48v-291zM634 426q0 -48 -59.5 -48t-59.5 48v265q0 4 -1 7t-8 3h-116q-37 0 -37.5 50.5t37.5 50.5h181q36 0 49.5 -18.5t13.5 -41.5v-316zM182 450q-45 -34 -79.5 2.5t-3.5 63.5q43 37 74.5 89.5t31.5 85.5q0 4 -1 7
t-8 3h-104q-37 0 -37.5 50.5t37.5 50.5h169q36 0 49.5 -17t13.5 -43q0 -76 -34 -156t-108 -136zM832 388q0 -48 -59.5 -48t-59.5 48v388q0 48 59.5 48t59.5 -48v-388z" />
    <glyph glyph-name="uniAF95" unicode="&#xaf95;" horiz-adv-x="951" 
d="M634 406q0 -48 -59.5 -48t-59.5 48v285q0 4 -1 7t-8 3h-116q-37 0 -37.5 50.5t37.5 50.5h181q36 0 49.5 -18.5t13.5 -41.5v-336zM440 355q0 -23 -13.5 -41.5t-49.5 -18.5h-324q-38 0 -37.5 50.5t37.5 50.5h259q7 0 8 3t1 7v149q0 48 59.5 48t59.5 -48v-200zM182 450
q-45 -34 -79.5 2.5t-3.5 63.5q43 37 74.5 89.5t31.5 85.5q0 4 -1 7t-8 3h-104q-37 0 -37.5 50.5t37.5 50.5h169q36 0 49.5 -17t13.5 -43q0 -76 -34 -156t-108 -136zM832 374q0 -48 -59.5 -48t-59.5 48v402q0 48 59.5 48t59.5 -48v-402zM881 113q0 -86 -69 -147.5t-168 -61.5
q-100 0 -169.5 61t-69.5 148t69.5 148t169.5 61q99 0 168 -61.5t69 -147.5zM762 113q0 45 -34.5 76t-83.5 31t-83.5 -31t-34.5 -76t34.5 -76t83.5 -31t83.5 31t34.5 76z" />
    <glyph glyph-name="uniAF9C" unicode="&#xaf9c;" horiz-adv-x="880" 
d="M122 234q-48 -34 -76 5t3 67q81 72 123.5 143t42.5 180v62q0 4 -1 7t-8 3h-119q-37 0 -37.5 50.5t37.5 50.5h184q36 0 49.5 -18.5t13.5 -41.5v-114q0 -46 -16 -111q13 5 32 5q60 0 60 -48v-344q0 -23 -13.5 -41.5t-49.5 -18.5h-294q-38 0 -37.5 50.5t37.5 50.5h229
q7 0 8 3t1 7v246q-41 -103 -169 -193zM785 156q0 -48 -59.5 -48t-59.5 48v535q0 4 -1 7t-8 3h-219q-37 0 -37.5 50.5t37.5 50.5h284q36 0 49.5 -18.5t13.5 -41.5v-586zM601 115q0 -48 -59.5 -48t-59.5 48v359q0 48 59.5 48t59.5 -48v-359z" />
    <glyph glyph-name="uniAFB8" unicode="&#xafb8;" horiz-adv-x="785" 
d="M514 22q0 -48 -59.5 -48t-59.5 48v286q0 4 -1 7t-8 3h-333q-37 0 -37.5 50.5t37.5 50.5h147q24 35 40 78q22 59 22 112v82q0 4 -1 7t-8 3h-131q-37 0 -37.5 50.5t37.5 50.5h196q36 0 49.5 -18.5t13.5 -41.5v-134q0 -41 -18 -106q-14 -47 -32 -83h120q36 0 49.5 -18.5
t13.5 -41.5v-337zM714 415q0 -48 -59.5 -48t-59.5 48v276q0 4 -1 7t-8 3h-132q-37 0 -37.5 50.5t37.5 50.5h197q36 0 49.5 -18.5t13.5 -41.5v-327z" />
    <glyph glyph-name="uniAFB9" unicode="&#xafb9;" horiz-adv-x="856" 
d="M786 -14q0 -48 -59.5 -48t-59.5 48v187q0 4 -1 7t-8 3h-433q-37 0 -37.5 50.5t37.5 50.5h176v79q0 4 -1 7t-8 3h-339q-37 0 -37.5 50.5t37.5 50.5h144q23 38 41 94q24 74 24 121v2q0 4 -1 7t-8 3h-131q-37 0 -37.5 50.5t37.5 50.5h196q36 0 49.5 -18.5t13.5 -41.5v-44
q0 -41 -19 -123q-15 -63 -34 -101h129q36 0 49.5 -18.5t13.5 -41.5v-130h203q36 0 49.5 -18.5t13.5 -41.5v-238zM714 475q0 -48 -59.5 -48t-59.5 48v216q0 4 -1 7t-8 3h-132q-37 0 -37.5 50.5t37.5 50.5h197q36 0 49.5 -18.5t13.5 -41.5v-267z" />
    <glyph glyph-name="uniAFBC" unicode="&#xafbc;" horiz-adv-x="856" 
d="M544 206q0 -48 -59.5 -48t-59.5 48v149q0 4 -1 7t-8 3h-363q-37 0 -37.5 50.5t37.5 50.5h151q19 31 34 68q24 58 24 105v52q0 4 -1 7t-8 3h-131q-37 0 -37.5 50.5t37.5 50.5h196q36 0 49.5 -18.5t13.5 -41.5v-94q0 -41 -19 -107q-13 -43 -28 -75h147q36 0 49.5 -18.5
t13.5 -41.5v-200zM254 -49q-36 0 -49.5 18.5t-13.5 41.5v227q0 48 59.5 48t59.5 -48v-176q0 -4 1 -7t8 -3h430q37 0 37.5 -50.5t-37.5 -50.5h-495zM714 445q0 -48 -59.5 -48t-59.5 48v246q0 4 -1 7t-8 3h-132q-37 0 -37.5 50.5t37.5 50.5h197q36 0 49.5 -18.5t13.5 -41.5
v-297z" />
    </font>
</defs>
</svg>
