<?xml version="1.0" standalone="no"?>
<!DOCTYPE svg PUBLIC "-//W3C//DTD SVG 1.1//EN" "http://www.w3.org/Graphics/SVG/1.1/DTD/svg11.dtd" >
<svg xmlns="http://www.w3.org/2000/svg">
<metadata>Generated by IcoMoon</metadata>
<defs>
<font id="impression" horiz-adv-x="1024">
<font-face units-per-em="1024" ascent="960" descent="-64" />
<missing-glyph horiz-adv-x="1024" />
<glyph unicode="&#x20;" horiz-adv-x="512" d="" />
<glyph unicode="&#xe900;" glyph-name="add-user" d="M332.8 268.8h89.353c7.206 0 13.047-5.938 13.047-12.8 0-7.069-5.695-12.8-13.047-12.8h-89.353v-89.353c0-7.206-5.938-13.047-12.8-13.047-7.069 0-12.8 5.695-12.8 13.047v89.353h-89.353c-7.206 0-13.047 5.938-13.047 12.8 0 7.069 5.695 12.8 13.047 12.8h89.353v89.353c0 7.206 5.938 13.047 12.8 13.047 7.069 0 12.8-5.695 12.8-13.047v-89.353zM528.036 192h239.964v128h25.6v-128h64.144c6.99 0 12.656 5.906 12.656 12.806v191.919c0 4.879-2.369 74.172-109.055 108.745-19.216-62.903-77.845-108.67-146.945-108.67-69.222 0-127.75 45.935-146.944 108.727-36.495-11.795-60.783-27.646-76.945-43.605 85.57-29.293 147.089-110.423 147.089-205.922 0-22.273-3.346-43.765-9.564-64zM333.287 473.201c21.039 30.87 59.010 63.764 127.513 83.804v147.155c0 84.742 68.942 153.44 153.6 153.44 84.831 0 153.6-68.986 153.6-153.44v-147.125c149.778-43.752 153.6-148.889 153.6-160.31v-204.75c0-28.263-22.964-51.175-51.327-51.175h-365.635c-38.449-61.495-106.767-102.4-184.639-102.4-120.177 0-217.6 97.423-217.6 217.6s97.423 217.6 217.6 217.6c4.462 0 8.892-0.134 13.287-0.399zM512 704.16v-153.921c0-56.279 45.949-102.24 102.4-102.24 56.462 0 102.4 45.855 102.4 102.24v153.921c0 56.279-45.949 102.24-102.4 102.24-56.462 0-102.4-45.855-102.4-102.24zM320 89.6c91.9 0 166.4 74.5 166.4 166.4s-74.5 166.4-166.4 166.4c-91.9 0-166.4-74.5-166.4-166.4s74.5-166.4 166.4-166.4z" />
<glyph unicode="&#xe901;" glyph-name="add" d="M537.6 473.6v358.4c0 14.138-11.462 25.6-25.6 25.6s-25.6-11.462-25.6-25.6v0-358.4h-358.4c-14.138 0-25.6-11.462-25.6-25.6s11.462-25.6 25.6-25.6h358.4v-358.4c0-14.138 11.462-25.6 25.6-25.6s25.6 11.462 25.6 25.6v358.4h358.4c14.138 0 25.6 11.462 25.6 25.6s-11.462 25.6-25.6 25.6h-358.4z" />
<glyph unicode="&#xe902;" glyph-name="alert" d="M512 38.4c-226.216 0-409.6 183.384-409.6 409.6s183.384 409.6 409.6 409.6c226.216 0 409.6-183.384 409.6-409.6s-183.384-409.6-409.6-409.6zM512 89.6c197.939 0 358.4 160.461 358.4 358.4s-160.461 358.4-358.4 358.4c-197.939 0-358.4-160.461-358.4-358.4s160.461-358.4 358.4-358.4zM512 243.2c-28.277 0-51.2 22.923-51.2 51.2s22.923 51.2 51.2 51.2c28.277 0 51.2-22.923 51.2-51.2s-22.923-51.2-51.2-51.2zM465.675 604.046c-2.693 26.926 16.841 48.754 43.925 48.754h4.798c26.952 0 46.618-21.826 43.925-48.754l-18.176-181.764c-1.407-14.073-13.911-25.482-28.148-25.482-14.138 0-26.733 11.33-28.148 25.482l-18.176 181.764z" />
<glyph unicode="&#xe903;" glyph-name="app" d="M653.511 806.4c28.125 31.424 68.997 51.2 114.489 51.2 84.831 0 153.6-68.769 153.6-153.6 0-45.491-19.776-86.363-51.2-114.489v-397.541c0-84.815-68.831-153.57-153.57-153.57h-460.859c-84.815 0-153.57 68.831-153.57 153.57v460.859c0 84.815 68.831 153.57 153.57 153.57h397.541zM623.14 755.2h-366.999c-56.792 0-102.541-45.909-102.541-102.541v-460.517c0-56.792 45.909-102.541 102.541-102.541h460.517c56.792 0 102.541 45.909 102.541 102.541v366.999c-16.014-5.66-33.247-8.74-51.2-8.74-84.831 0-153.6 68.769-153.6 153.6 0 17.953 3.080 35.186 8.74 51.2zM768 576c70.692 0 128 57.308 128 128s-57.308 128-128 128c-70.692 0-128-57.308-128-128s57.308-128 128-128z" />
<glyph unicode="&#xe904;" glyph-name="arrow-back" d="M189.804 473.6h706.196c14.138 0 25.6-11.462 25.6-25.6s-11.462-25.6-25.6-25.6h-706.196l237.898-237.898c9.997-9.997 9.997-26.206 0-36.204s-26.206-9.997-36.204 0l-281.6 281.6c-9.997 9.997-9.997 26.206 0 36.204l281.6 281.6c9.997 9.997 26.206 9.997 36.204 0s9.997-26.206 0-36.204l-237.898-237.898z" />
<glyph unicode="&#xe905;" glyph-name="arrow-back-2" d="M669.842 843.118c7.998 7.998 7.998 20.965 0 28.963s-20.965 7.998-28.963 0l-307.2-307.2c-7.998-7.998-7.998-20.965 0-28.963l307.2-307.2c7.998-7.998 20.965-7.998 28.963 0s7.998 20.965 0 28.963l-292.718 292.718 292.718 292.718z" />
<glyph unicode="&#xe906;" glyph-name="bookmark" d="M768 793.57c0 7.086-5.75 12.83-12.656 12.83h-486.687c-6.99 0-12.656-5.812-12.656-12.83v-659.502l256 170.667 256-170.667v659.502zM204.8 806.355c0 28.302 22.964 51.245 51.327 51.245h511.747c28.347 0 51.327-22.765 51.327-51.245v-742.54c0-14.037-9.531-19.061-21.115-11.339l-286.085 190.723-286.085-190.723c-11.662-7.774-21.115-2.496-21.115 11.339v742.54z" />
<glyph unicode="&#xe907;" glyph-name="bullet-list" d="M102.4 806.355c0 28.302 22.765 51.245 51.245 51.245h716.711c28.302 0 51.245-22.765 51.245-51.245v-716.711c0-28.302-22.765-51.245-51.245-51.245h-716.711c-28.302 0-51.245 22.765-51.245 51.245v716.711zM153.6 793.347v-690.693c0-7.283 5.844-13.053 13.053-13.053h690.693c7.283 0 13.053 5.844 13.053 13.053v690.693c0 7.283-5.844 13.053-13.053 13.053h-690.693c-7.283 0-13.053-5.844-13.053-13.053zM409.6 268.8c0 14.138 11.667 25.6 25.663 25.6h255.873c14.173 0 25.663-11.363 25.663-25.6 0-14.138-11.667-25.6-25.663-25.6h-255.873c-14.173 0-25.663 11.363-25.663 25.6zM409.6 371.2c0 14.138 11.667 25.6 25.663 25.6h255.873c14.173 0 25.663-11.363 25.663-25.6 0-14.138-11.667-25.6-25.663-25.6h-255.873c-14.173 0-25.663 11.363-25.663 25.6zM409.6 473.6c0 14.138 11.667 25.6 25.663 25.6h255.873c14.173 0 25.663-11.363 25.663-25.6 0-14.138-11.667-25.6-25.663-25.6h-255.873c-14.173 0-25.663 11.363-25.663 25.6zM332.8 243.2c-14.138 0-25.6 11.462-25.6 25.6s11.462 25.6 25.6 25.6c14.138 0 25.6-11.462 25.6-25.6s-11.462-25.6-25.6-25.6zM332.8 345.6c-14.138 0-25.6 11.462-25.6 25.6s11.462 25.6 25.6 25.6c14.138 0 25.6-11.462 25.6-25.6s-11.462-25.6-25.6-25.6zM332.8 448c-14.138 0-25.6 11.462-25.6 25.6s11.462 25.6 25.6 25.6c14.138 0 25.6-11.462 25.6-25.6s-11.462-25.6-25.6-25.6zM307.2 627.2c0 14.138 11.667 25.6 25.663 25.6h255.873c14.173 0 25.663-11.363 25.663-25.6 0-14.138-11.667-25.6-25.663-25.6h-255.873c-14.173 0-25.663 11.363-25.663 25.6z" />
<glyph unicode="&#xe908;" glyph-name="burger-menu" d="M102.4 166.4c0 14.138 11.58 25.6 25.415 25.6h768.369c14.037 0 25.415-11.363 25.415-25.6 0-14.138-11.58-25.6-25.415-25.6h-768.369c-14.037 0-25.415 11.363-25.415 25.6zM102.4 448c0 14.138 11.58 25.6 25.415 25.6h768.369c14.037 0 25.415-11.363 25.415-25.6 0-14.138-11.58-25.6-25.415-25.6h-768.369c-14.037 0-25.415 11.363-25.415 25.6zM102.4 729.6c0 14.138 11.58 25.6 25.415 25.6h768.369c14.037 0 25.415-11.363 25.415-25.6 0-14.138-11.58-25.6-25.415-25.6h-768.369c-14.037 0-25.415 11.363-25.415 25.6z" />
<glyph unicode="&#xe909;" glyph-name="calendar" d="M230.4 755.2h-63.747c-7.283 0-13.053-5.687-13.053-12.702v-89.698h716.8v89.698c0 6.948-5.844 12.702-13.053 12.702h-63.747v-25.836c0-14.008-11.35-25.364-25.84-25.364h-50.72c-14.271 0-25.84 11.545-25.84 25.364v25.836h-358.4v-25.836c0-14.008-11.35-25.364-25.84-25.364h-50.72c-14.271 0-25.84 11.545-25.84 25.364v25.836zM332.8 806.4h358.4v25.836c0 14.008 11.35 25.364 25.84 25.364h50.72c14.271 0 25.84-11.545 25.84-25.364v-25.836h76.755c28.302 0 51.245-22.985 51.245-50.985v-666.029c0-28.158-22.765-50.985-51.245-50.985h-716.711c-28.302 0-51.245 22.985-51.245 50.985v666.029c0 28.158 22.765 50.985 51.245 50.985h76.755v25.836c0 14.008 11.35 25.364 25.84 25.364h50.72c14.271 0 25.84-11.545 25.84-25.364v-25.836zM870.4 627.2h-716.8v-524.898c0-6.948 5.844-12.702 13.053-12.702h690.693c7.283 0 13.053 5.687 13.053 12.702v524.898zM716.8 243.2h51.2v-51.2h-51.2v51.2zM563.2 243.2h51.2v-51.2h-51.2v51.2zM409.6 243.2h51.2v-51.2h-51.2v51.2zM256 243.2h51.2v-51.2h-51.2v51.2zM716.8 396.8h51.2v-51.2h-51.2v51.2zM563.2 396.8h51.2v-51.2h-51.2v51.2zM409.6 396.8h51.2v-51.2h-51.2v51.2zM256 396.8h51.2v-51.2h-51.2v51.2zM716.8 550.4h51.2v-51.2h-51.2v51.2zM563.2 550.4h51.2v-51.2h-51.2v51.2zM409.6 550.4h51.2v-51.2h-51.2v51.2zM256 550.4h51.2v-51.2h-51.2v51.2zM716.8 832v-102.4h51.2v102.4h-51.2zM256 832v-102.4h51.2v102.4h-51.2z" />
<glyph unicode="&#xe90a;" glyph-name="camera" d="M716.8 581.12l182.974 109.784c12.054 7.233 21.826 1.44 21.826-12.294v-461.22c0-14.023-9.723-19.556-21.826-12.294l-182.974 109.784v-71.916c0-28.147-22.964-50.964-51.327-50.964h-511.747c-28.347 0-51.327 22.994-51.327 50.964v410.071c0 28.147 22.964 50.964 51.327 50.964h511.747c28.347 0 51.327-22.994 51.327-50.964v-71.916zM716.8 515.657v-135.314l153.6-98.743v332.8l-153.6-98.743zM153.6 640.092v-384.185c0-6.917 5.666-12.708 12.656-12.708h486.687c6.906 0 12.656 5.689 12.656 12.708v384.185c0 6.917-5.666 12.708-12.656 12.708h-486.687c-6.906 0-12.656-5.689-12.656-12.708zM409.6 320c-70.692 0-128 57.308-128 128s57.308 128 128 128c70.692 0 128-57.308 128-128s-57.308-128-128-128zM409.6 345.6c56.554 0 102.4 45.846 102.4 102.4s-45.846 102.4-102.4 102.4c-56.554 0-102.4-45.846-102.4-102.4s45.846-102.4 102.4-102.4z" />
<glyph unicode="&#xe90b;" glyph-name="chat" d="M870.4 494.86c29.814-10.519 51.182-38.993 51.182-72.546v-204.628c0-42.463-34.471-76.886-76.8-76.886h-76.8v-102.4l-153.6 102.4h-127.957c-42.439 0-76.843 34.365-76.843 76.886v25.499l-179.182-153.585v153.6h-25.595c-56.557 0-102.405 45.608-102.405 102.4v409.6c0 56.632 45.799 102.4 102.509 102.4h562.982c56.614 0 102.509-45.608 102.509-102.4v-260.34zM819.2 499.2v256c0 28.451-22.908 51.2-51.309 51.2h-562.982c-28.389 0-51.309-22.801-51.309-51.2v-409.6c0-28.463 22.873-51.2 51.205-51.2h76.795v-89.6l102.4 89.6h25.582v127.914c0 42.463 34.389 76.886 76.652 76.886h332.966zM716.782 192h128.236c14.008 0 25.364 11.665 25.364 25.482v205.036c0 14.073-11.383 25.482-25.622 25.482h-358.355c-14.151 0-25.622-11.665-25.622-25.482v-205.036c0-14.073 11.623-25.482 25.683-25.482h143.419l86.898-57.932v57.932zM767.982 294.4c-14.138 0-25.6 11.462-25.6 25.6s11.462 25.6 25.6 25.6c14.138 0 25.6-11.462 25.6-25.6s-11.462-25.6-25.6-25.6zM665.582 294.4c-14.138 0-25.6 11.462-25.6 25.6s11.462 25.6 25.6 25.6c14.138 0 25.6-11.462 25.6-25.6s-11.462-25.6-25.6-25.6zM563.182 294.4c-14.138 0-25.6 11.462-25.6 25.6s11.462 25.6 25.6 25.6c14.138 0 25.6-11.462 25.6-25.6s-11.462-25.6-25.6-25.6z" />
<glyph unicode="&#xe90c;" glyph-name="clock" d="M537.6 492.35c7.773-4.496 14.254-10.977 18.75-18.75h160.567c14.073 0 25.482-11.363 25.482-25.6 0-14.138-11.665-25.6-25.482-25.6h-160.567c-8.853-15.304-25.399-25.6-44.35-25.6-28.277 0-51.2 22.923-51.2 51.2 0 18.951 10.296 35.498 25.6 44.35v185.986c0 14.173 11.363 25.663 25.6 25.663 14.138 0 25.6-11.667 25.6-25.663v-185.986zM512 38.4c-226.216 0-409.6 183.384-409.6 409.6s183.384 409.6 409.6 409.6c226.216 0 409.6-183.384 409.6-409.6s-183.384-409.6-409.6-409.6zM512 89.6c197.939 0 358.4 160.461 358.4 358.4s-160.461 358.4-358.4 358.4c-197.939 0-358.4-160.461-358.4-358.4s160.461-358.4 358.4-358.4zM524.8 729.72c0-7.135-5.938-12.92-12.8-12.92-7.069 0-12.8 5.479-12.8 12.92v25.36c0 7.135 5.938 12.92 12.8 12.92 7.069 0 12.8-5.479 12.8-12.92v-25.36zM382.225 698.377c3.568-6.18 1.318-14.158-4.625-17.589-6.122-3.535-13.825-1.655-17.545 4.789l-12.68 21.963c-3.568 6.18-1.318 14.158 4.625 17.589 6.122 3.535 13.825 1.655 17.545-4.789l12.68-21.963zM274.423 599.945c6.18-3.568 8.22-11.602 4.789-17.545-3.535-6.122-11.145-8.345-17.589-4.625l-21.963 12.68c-6.18 3.568-8.22 11.602-4.789 17.545 3.535 6.122 11.145 8.345 17.589 4.625l21.963-12.68zM230.28 460.8c7.135 0 12.92-5.938 12.92-12.8 0-7.069-5.479-12.8-12.92-12.8h-25.36c-7.135 0-12.92 5.938-12.92 12.8 0 7.069 5.479 12.8 12.92 12.8h25.36zM252.461 283.375c-6.18-3.568-14.158-1.318-17.589 4.625-3.535 6.122-1.655 13.825 4.789 17.545l21.963 12.68c6.18 3.568 14.158 1.318 17.589-4.625 3.535-6.122 1.655-13.825-4.789-17.545l-21.963-12.68zM369.545 175.661c-3.568-6.18-11.602-8.22-17.545-4.789-6.122 3.535-8.345 11.145-4.625 17.589l12.68 21.963c3.568 6.18 11.602 8.22 17.545 4.789 6.122-3.535 8.345-11.145 4.625-17.589l-12.68-21.963zM524.8 140.92c0-7.135-5.938-12.92-12.8-12.92-7.069 0-12.8 5.479-12.8 12.92v25.36c0 7.135 5.938 12.92 12.8 12.92 7.069 0 12.8-5.479 12.8-12.92v-25.36zM676.625 188.461c3.568-6.18 1.318-14.158-4.625-17.589-6.122-3.535-13.825-1.655-17.545 4.789l-12.68 21.963c-3.568 6.18-1.318 14.158 4.625 17.589 6.122 3.535 13.825 1.655 17.545-4.789l12.68-21.963zM784.339 305.545c6.18-3.568 8.22-11.602 4.789-17.545-3.535-6.122-11.145-8.345-17.589-4.625l-21.963 12.68c-6.18 3.568-8.22 11.602-4.789 17.545 3.535 6.122 11.145 8.345 17.589 4.625l21.963-12.68zM819.080 460.8c7.135 0 12.92-5.938 12.92-12.8 0-7.069-5.479-12.8-12.92-12.8h-25.36c-7.135 0-12.92 5.938-12.92 12.8 0 7.069 5.479 12.8 12.92 12.8h25.36zM762.377 577.775c-6.18-3.568-14.158-1.318-17.589 4.625-3.535 6.122-1.655 13.825 4.789 17.545l21.963 12.68c6.18 3.568 14.158 1.318 17.589-4.625 3.535-6.122 1.655-13.825-4.789-17.545l-21.963-12.68zM663.945 685.577c-3.568-6.18-11.602-8.22-17.545-4.789-6.122 3.535-8.345 11.145-4.625 17.589l12.68 21.963c3.568 6.18 11.602 8.22 17.545 4.789 6.122-3.535 8.345-11.145 4.625-17.589l-12.68-21.963z" />
<glyph unicode="&#xe90d;" glyph-name="close" d="M548.204 448l253.427 253.427c9.997 9.997 9.997 26.206 0 36.204s-26.206 9.997-36.204 0l-253.427-253.427-253.427 253.427c-9.997 9.997-26.206 9.997-36.204 0s-9.997-26.206 0-36.204l253.427-253.427-253.427-253.427c-9.997-9.997-9.997-26.206 0-36.204s26.206-9.997 36.204 0l253.427 253.427 253.427-253.427c9.997-9.997 26.206-9.997 36.204 0s9.997 26.206 0 36.204l-253.427 253.427z" />
<glyph unicode="&#xe90e;" glyph-name="cloud" d="M393.944 622.2c-11.285 3.255-23.211 5-35.544 5-70.692 0-128-57.308-128-128 0-14.818 2.518-29.047 7.149-42.285-49.864-25.401-83.949-77.175-83.949-136.915 0-84.658 68.846-153.6 153.772-153.6h409.257c85.042 0 153.772 68.769 153.772 153.6 0 58.6-32.987 109.67-81.46 135.557 3.052 14.063 4.66 28.665 4.66 43.643 0 113.108-91.692 204.8-204.8 204.8-35.619 0-69.115-9.093-98.292-25.085-63.473-34.789-106.508-102.227-106.508-179.715 0-7.069-5.731-12.8-12.8-12.8s-12.8 5.731-12.8 12.8c0 45.227 13.031 87.411 35.544 123zM179.2 499.2c0 98.969 80.231 179.2 179.2 179.2 14.531 0 28.839-1.741 42.675-5.124 47.697 51.455 115.15 81.924 187.725 81.924 141.385 0 256-114.615 256-256 0-6.316-0.23-12.606-0.687-18.862 48.103-38.208 77.487-96.734 77.487-160.338 0-113.155-91.7-204.8-204.972-204.8h-409.257c-113.139 0-204.972 91.801-204.972 204.8 0 63.878 29.511 122.501 77.753 160.644-0.633 6.135-0.953 12.327-0.953 18.556z" />
<glyph unicode="&#xe90f;" glyph-name="copy" d="M256 755.2v51.424c0 28.153 22.964 50.976 51.327 50.976h511.747c28.347 0 51.327-23.037 51.327-50.976v-614.848c0-28.153-22.964-50.976-51.327-50.976h-51.073v-51.424c0-28.153-22.964-50.976-51.327-50.976h-511.747c-28.347 0-51.327 23.037-51.327 50.976v614.848c0 28.153 22.964 50.976 51.327 50.976h51.073zM256 704h-38.544c-6.906 0-12.656-5.745-12.656-12.833v-588.735c0-7.143 5.666-12.833 12.656-12.833h486.687c6.906 0 12.656 5.745 12.656 12.833v38.367h-409.473c-28.347 0-51.327 23.037-51.327 50.976v512.224zM307.2 793.567v-588.735c0-7.143 5.666-12.833 12.656-12.833h486.687c6.906 0 12.656 5.745 12.656 12.833v588.735c0 7.143-5.666 12.833-12.656 12.833h-486.687c-6.906 0-12.656-5.745-12.656-12.833zM409.6 563.2c0 7.069 5.862 12.8 12.809 12.8h281.582c7.074 0 12.809-5.938 12.809-12.8 0-7.069-5.862-12.8-12.809-12.8h-281.582c-7.074 0-12.809 5.938-12.809 12.8zM409.6 460.8c0 7.069 5.862 12.8 12.809 12.8h281.582c7.074 0 12.809-5.938 12.809-12.8 0-7.069-5.862-12.8-12.809-12.8h-281.582c-7.074 0-12.809 5.938-12.809 12.8zM409.6 358.4c0 7.069 5.862 12.8 12.809 12.8h281.582c7.074 0 12.809-5.938 12.809-12.8 0-7.069-5.862-12.8-12.809-12.8h-281.582c-7.074 0-12.809 5.938-12.809 12.8zM409.6 665.6c0 7.069 5.862 12.8 12.809 12.8h281.582c7.074 0 12.809-5.938 12.809-12.8 0-7.069-5.862-12.8-12.809-12.8h-281.582c-7.074 0-12.809 5.938-12.809 12.8z" />
<glyph unicode="&#xe910;" glyph-name="credit-card" d="M208.593 751.576c0 31.326 25.302 56.72 56.815 56.72h493.185c31.378 0 56.815-25.444 56.815-56.72v-341.671c0-31.326-25.302-56.72-56.815-56.72h-493.185c-31.378 0-56.815 25.444-56.815 56.72v341.671zM246.519 618.667v-208.546c0-10.367 8.461-19.010 18.897-19.010h493.168c10.557 0 18.897 8.511 18.897 19.010v208.546h-530.963zM246.519 751.23v-56.711h530.963v56.711c0 10.733-8.461 19.141-18.897 19.141h-493.168c-10.557 0-18.897-8.57-18.897-19.141z" />
<glyph unicode="&#xe911;" glyph-name="dashboard" d="M537.992 495.872l128.249 96.469c11.359 8.544 28.602 7.436 38.669-2.632 9.997-9.997 11.223-27.247 2.632-38.669l-96.469-128.249c1.635-6.251 2.695-12.735 3.118-19.392 111.209-12.821 208.093-41.991 242.689-53.249 8.807 31.103 13.52 63.925 13.52 97.849 0 197.939-160.461 358.4-358.4 358.4s-358.4-160.461-358.4-358.4c0-33.923 4.713-66.746 13.52-97.849 34.596 11.259 131.48 40.429 242.689 53.249 3.402 53.478 47.854 95.8 102.191 95.8 8.981 0 17.692-1.156 25.992-3.328zM612.673 377.974c-8.838-47.562-50.55-83.574-100.673-83.574s-91.835 36.012-100.673 83.574c-104.678-11.913-196.887-38.416-236.765-51.036 49.648-138.368 181.985-237.338 337.438-237.338s287.79 98.971 337.438 237.338c-39.878 12.62-132.087 39.122-236.765 51.036zM512 38.4c-226.216 0-409.6 183.384-409.6 409.6s183.384 409.6 409.6 409.6c226.216 0 409.6-183.384 409.6-409.6s-183.384-409.6-409.6-409.6zM512 320c42.415 0 76.8 34.385 76.8 76.8s-34.385 76.8-76.8 76.8c-42.415 0-76.8-34.385-76.8-76.8s34.385-76.8 76.8-76.8zM499.2 767.88c0 7.135 5.938 12.92 12.8 12.92 7.069 0 12.8-5.479 12.8-12.92v-25.36c0-7.135-5.938-12.92-12.8-12.92-7.069 0-12.8 5.479-12.8 12.92v25.36zM230.28 473.6c7.135 0 12.92-5.938 12.92-12.8 0-7.069-5.479-12.8-12.92-12.8h-25.36c-7.135 0-12.92 5.938-12.92 12.8 0 7.069 5.479 12.8 12.92 12.8h25.36zM819.080 473.6c7.135 0 12.92-5.938 12.92-12.8 0-7.069-5.479-12.8-12.92-12.8h-25.36c-7.135 0-12.92 5.938-12.92 12.8 0 7.069 5.479 12.8 12.92 12.8h25.36zM720.087 686.989c5.046 5.046 13.334 4.937 18.187 0.085 4.999-4.999 5.177-12.925-0.085-18.187l-17.932-17.932c-5.046-5.046-13.334-4.937-18.187-0.085-4.999 4.999-5.177 12.925 0.085 18.187l17.932 17.932zM321.845 669.057c5.046-5.046 4.937-13.334 0.085-18.187-4.999-4.999-12.925-5.177-18.187 0.085l-17.932 17.932c-5.046 5.046-4.937 13.334-0.085 18.187 4.999 4.999 12.925 5.177 18.187-0.085l17.932-17.932zM618.909 748.13c2.731 6.592 10.43 9.664 16.77 7.038 6.531-2.705 9.729-9.961 6.881-16.835l-9.705-23.43c-2.731-6.592-10.43-9.664-16.77-7.038-6.531 2.705-9.729 9.961-6.881 16.835l9.705 23.43zM257.843 579.162c6.592-2.731 9.664-10.43 7.038-16.77-2.705-6.531-9.961-9.729-16.835-6.881l-23.43 9.705c-6.592 2.731-9.664 10.43-7.038 16.77 2.705 6.531 9.961 9.729 16.835 6.881l23.43-9.705zM792.027 588.867c6.592 2.731 14.209-0.541 16.835-6.881 2.705-6.531-0.164-13.922-7.038-16.77l-23.43-9.705c-6.592-2.731-14.209 0.541-16.835 6.881-2.705 6.531 0.164 13.922 7.038 16.77l23.43 9.705zM417.236 724.7c2.731-6.592-0.541-14.209-6.881-16.835-6.531-2.705-13.922 0.164-16.77 7.038l-9.705 23.43c-2.731 6.592 0.541 14.209 6.881 16.835 6.531 2.705 13.922-0.164 16.77-7.038l9.705-23.43z" />
<glyph unicode="&#xe912;" glyph-name="edit" d="M102.4 806.355c0 28.302 22.776 51.245 50.974 51.245h486.563c14.173 0 25.663-11.363 25.663-25.6 0-14.138-11.656-25.6-25.39-25.6h-473.954c-6.99 0-12.656-5.771-12.656-12.748v-691.453c0-7.041 5.77-12.748 13.053-12.748h690.693c7.209 0 13.053 5.752 13.053 12.66v474.092c0 14.027 11.363 25.398 25.6 25.398 14.138 0 25.6-11.25 25.6-25.663v-486.563c0-28.152-22.765-50.974-51.245-50.974h-716.711c-28.302 0-51.245 22.765-51.245 51.245v716.711zM307.2 396.8l442.736 442.736c9.976 9.976 26.322 9.806 36.287-0.159l117.154-117.154c10.064-10.064 10.225-26.221 0.159-36.287l-442.736-442.736h-153.6v153.6zM332.8 384v-115.2h115.2l-115.2 115.2zM352 403.2l115.2-115.2 339.2 339.2-115.2 115.2-339.2-339.2zM710.4 761.6l115.2-115.2 57.6 57.6-115.2 115.2-57.6-57.6z" />
<glyph unicode="&#xe913;" glyph-name="enter" d="M624.62 473.6l-78.413 70.572c-10.509 9.458-11.361 25.645-1.903 36.154s25.645 11.361 36.154 1.903l130.254-117.228c10.443-9.399 10.432-24.611 0-34l-130.254-117.228c-10.509-9.458-26.696-8.606-36.154 1.903s-8.606 26.696 1.903 36.154l78.413 70.572h-496.541c-14.182 0-25.679 11.363-25.679 25.6 0 14.138 11.236 25.6 25.679 25.6h496.541zM895.978 38.4h-358.355c-14.24 0-25.622 11.462-25.622 25.6 0 14.237 11.54 25.6 25.775 25.6h332.625v716.8h-332.625c-14.257 0-25.775 11.462-25.775 25.6 0 14.237 11.472 25.6 25.622 25.6h358.355c14.24 0 25.622-11.379 25.622-25.415v-768.369c0-13.835-11.472-25.415-25.622-25.415z" />
<glyph unicode="&#xe914;" glyph-name="envelope" d="M181.169 704l312.066-289.776c10.363-9.623 27.27-9.526 37.529 0l312.066 289.776h-661.662zM870.357 680.067l-320.838-299.449c-20.721-19.34-54.266-19.387-75.037 0l-320.881 299.489c0 0.147 0-0.67 0-1.497v-461.22c0-13.734 11.422-25.39 25.511-25.39h665.777c14.252 0 25.511 11.368 25.511 25.39v461.22c0 0.488-0.014 0.974-0.043 1.457zM921.6 192.127c0-28.347-22.765-51.327-51.245-51.327h-716.711c-28.302 0-51.245 22.964-51.245 51.327v511.747c0 28.347 22.765 51.327 51.245 51.327h716.711c28.302 0 51.245-22.964 51.245-51.327v-511.747z" />
<glyph unicode="&#xe915;" glyph-name="flask" d="M673.736 440.779l-59.336 94.937v245.084h-204.8v-245.084l-59.336-94.937 45.316-22.658c7.342-3.671 20.671-3.684 28.039 0l62.913 31.456c14.541 7.271 36.353 7.292 50.936 0l62.913-31.456c7.342-3.671 20.671-3.684 28.039 0l45.316 22.658zM687.365 418.972l-47.497-23.749c-14.583-7.292-36.395-7.271-50.936 0l-62.913 31.456c-7.368 3.684-20.696 3.671-28.039 0l-62.913-31.456c-14.583-7.292-36.395-7.271-50.936 0l-47.497 23.749-183.035-292.856v-23.744c0-7.054 5.77-12.772 13.053-12.772h690.693c7.209 0 13.053 5.706 13.053 12.772v23.744l-183.035 292.856zM307.2 819.2c0 21.208 17.079 38.4 38.534 38.4h332.532c21.282 0 38.534-17.044 38.534-38.4 0-21.208-17.334-38.4-38.28-38.4h-12.92v-230.4l256-409.6v-51.2c0-28.277-22.765-51.2-51.245-51.2h-716.711c-28.302 0-51.245 22.726-51.245 51.2v51.2l256 409.6v230.4h-12.92c-21.142 0-38.28 17.044-38.28 38.4zM332.8 819.2c0-6.863 5.711-12.8 12.756-12.8h332.889c7.126 0 12.756 5.731 12.756 12.8 0 6.863-5.711 12.8-12.756 12.8h-332.889c-7.126 0-12.756-5.731-12.756-12.8z" />
<glyph unicode="&#xe916;" glyph-name="exit" d="M196.305 473.6h494.832c14.173 0 25.663-11.363 25.663-25.6 0-14.138-11.25-25.6-25.663-25.6h-494.832l78.362-70.572c10.502-9.458 11.354-25.645 1.902-36.154s-25.628-11.361-36.13-1.903l-130.169 117.228c-10.436 9.399-10.425 24.611 0 34l130.169 117.228c10.502 9.458 26.678 8.606 36.13-1.903s8.601-26.696-1.902-36.154l-78.362-70.572zM895.978 38.4h-358.355c-14.24 0-25.622 11.462-25.622 25.6 0 14.237 11.54 25.6 25.775 25.6h332.625v716.8h-332.625c-14.257 0-25.775 11.462-25.775 25.6 0 14.237 11.472 25.6 25.622 25.6h358.355c14.24 0 25.622-11.379 25.622-25.415v-768.369c0-13.835-11.472-25.415-25.622-25.415z" />
<glyph unicode="&#xe917;" glyph-name="export" d="M537.6 763.695v-494.832c0-14.173-11.363-25.663-25.6-25.663-14.138 0-25.6 11.25-25.6 25.663v494.832l-70.572-78.362c-9.458-10.502-25.645-11.354-36.154-1.902s-11.361 25.628-1.903 36.13l117.228 130.169c9.399 10.436 24.611 10.425 34 0l117.228-130.169c9.458-10.502 8.606-26.678-1.903-36.13s-26.696-8.601-36.154 1.902l-70.572 78.362zM102.4 64.022v358.355c0 14.24 11.462 25.622 25.6 25.622 14.237 0 25.6-11.54 25.6-25.775v-332.625h716.8v332.625c0 14.257 11.462 25.775 25.6 25.775 14.237 0 25.6-11.472 25.6-25.622v-358.355c0-14.24-11.379-25.622-25.415-25.622h-768.369c-13.835 0-25.415 11.472-25.415 25.622z" />
<glyph unicode="&#xe918;" glyph-name="finger-print" d="M561.782 118.63c31.561 4.386 61.808 12.882 90.182 24.929-31.106 38.429-41.768 83.282-37.77 137.853 1.635 22.319 4.916 42.034 12.121 77.595 11.336 55.951 14.011 74.591 11.878 97.494-13.39 143.8-182.62 159.597-242.045 43.306-50.597-99.017-133.251-160.527-212.143-170.895 11.428-25.869 25.827-50.131 42.764-72.355 1.194 0.527 2.53 1.124 4 1.792 8.024 3.647 16.988 8.028 26.654 13.14 27.64 14.618 55.282 32.117 81.023 52.436 44.711 35.293 78.785 75.243 98.122 119.578 41.831 95.91 148.005 57.075 137.865-51.804-8.692-93.332-63.708-202.956-133.035-269.548 22.826-4.56 46.435-6.952 70.603-6.952 8.137 0 16.21 0.271 24.211 0.805-0.831 4.8-1.129 9.769-0.934 14.877 0.576 15.051 5.316 30.594 12.797 46.040 4.699 9.703 9.414 17.313 12.706 21.887 4.13 5.737 12.129 7.040 17.866 2.91s7.040-12.129 2.91-17.866c-2.495-3.465-6.461-9.869-10.443-18.090-6.072-12.537-9.835-24.878-10.256-35.861-0.154-4.029 0.149-7.79 0.923-11.273zM310.446 177.202c6.043 3.598 12.707 7.889 19.848 12.888 22.732 15.916 45.494 35.569 66.733 59.112 34.036 37.728 60.805 81.765 77.598 132.449 2.223 6.71 9.466 10.348 16.176 8.125s10.348-9.466 8.125-16.176c-17.965-54.222-46.581-101.296-82.891-141.545-22.604-25.056-46.816-45.962-71.058-62.935-3.564-2.495-7.025-4.831-10.369-7.010 24.010-13.703 49.757-24.71 76.83-32.609 70.478 60.47 128.885 172.008 137.506 264.574 7.622 81.838-59.589 106.422-88.91 39.196-21.223-48.66-57.964-91.738-105.726-129.438-27.057-21.358-55.986-39.671-84.916-54.972-9.246-4.89-17.9-9.153-25.783-12.788 19.724-22.271 42.178-42.069 66.838-58.87zM174.192 353.573c71.98 6.478 150.79 63.226 199.16 157.883 70.341 137.654 274.39 118.607 290.33-52.581 2.463-26.448-0.364-46.149-12.277-104.95-6.999-34.546-10.147-53.46-11.68-74.382-3.723-50.817 6.392-90.625 36.23-124.725 21.451 11.055 41.641 24.211 60.3 39.196-24.182 25.426-37.14 50.108-41.112 76.615-4.172 27.834-2.202 38.493 14.803 104.664 10.596 41.231 15.353 69.995 15.353 104.859 0 151.95-204.504 263.25-348.036 146.066-20.793-16.976-36.359-36.962-58.306-71.821-2.391-3.798-10.816-17.313-10.594-16.958-46.84-74.91-83.001-105.669-152.432-104.937 3.124-27.364 9.33-53.791 18.261-78.927zM153.927 458.144c60.096-1.19 89.751 24.13 132.73 92.865-0.249-0.399 8.209 13.17 10.636 17.026 23.314 37.030 40.306 58.846 63.78 78.011 160.938 131.394 389.826 6.823 389.826-165.896 0-37.418-5.074-68.099-16.159-111.231-15.91-61.906-17.707-71.634-14.28-94.497 3.188-21.27 13.944-41.606 35.19-63.664 70.579 65.456 114.75 158.991 114.75 262.843 0 197.939-160.461 358.4-358.4 358.4s-358.4-160.461-358.4-358.4c0-5.178 0.11-10.331 0.327-15.456zM512 64c-226.216 0-409.6 183.384-409.6 409.6s183.384 409.6 409.6 409.6c226.216 0 409.6-183.384 409.6-409.6s-183.384-409.6-409.6-409.6zM218.735 538.734c-2.463-6.626-9.832-10.001-16.458-7.538s-10.001 9.832-7.538 16.458c101.333 272.585 457.975 336.925 589.553 67.863 3.106-6.351 0.475-14.016-5.876-17.122s-14.016-0.475-17.122 5.876c-120.705 246.828-448.417 187.707-542.56-65.537zM784.469 549.129c-2.276 6.693 1.305 13.963 7.998 16.239s13.963-1.305 16.239-7.998c1.759-5.172 4.285-14.358 6.778-26.897 12.999-65.364 9.005-136.8-24.185-204.324-1.381-2.81-2.811-5.603-4.289-8.378-3.323-6.239-11.075-8.603-17.315-5.28s-8.603 11.075-5.28 17.315c1.347 2.53 2.65 5.075 3.909 7.637 30.36 61.767 34.048 127.718 22.052 188.038-2.263 11.381-4.494 19.495-5.907 23.65z" />
<glyph unicode="&#xe919;" glyph-name="flag" d="M153.6 857.6h716.8l-102.4-256 102.4-256h-665.6v-281.537c0-14.173-11.363-25.663-25.6-25.663-14.138 0-25.6 11.58-25.6 25.415v793.785zM204.8 806.4v-409.6h588.8l-76.8 204.8 76.8 204.8h-588.8z" />
<glyph unicode="&#xe91a;" glyph-name="flash" d="M256 371.2c-17.663 0-30.019 17.464-24.141 34.12l153.6 435.2c3.612 10.235 13.287 17.080 24.141 17.080h358.4c21.096 0 33.137-24.084 20.48-40.96l-199.68-266.24h153.6c22.456 0 34.031-26.852 18.612-43.178l-435.2-460.8c-18.599-19.693-51.046-0.784-43.079 25.106l92.207 299.671h-118.939zM292.183 422.4h117.417c17.224 0 29.533-16.666 24.468-33.129l-70.125-227.907 319.067 337.836h-145.41c-21.096 0-33.137 24.084-20.48 40.96l199.68 266.24h-289.088l-135.529-384z" />
<glyph unicode="&#xe91b;" glyph-name="floppy" d="M102.331 806.355c-0.004 28.302 22.907 51.245 51.122 51.245h614.547l153.6-153.6-0.041-614.477c-0.002-28.235-22.766-51.123-51.242-51.123h-716.633c-28.299 0-51.242 22.765-51.247 51.245l-0.106 716.711zM742.4 806.4h-25.6v-230.604c0-27.951-22.924-50.996-51.203-50.996h-332.795c-28.417 0-51.203 22.832-51.203 50.996v230.604h-128v-716.8h51.2v307.050c0 28.385 22.98 51.35 51.327 51.35h511.747c28.363 0 51.327-22.99 51.327-51.35v-307.050h51.2v588.8l-128 128zM230.4 89.6h563.2v307.238c0 14.106-11.49 25.562-25.663 25.562h-511.874c-14.413 0-25.663-11.444-25.663-25.562v-307.238zM307.2 806.4v-230.518c0-14.073 11.492-25.482 25.792-25.482h332.417c14.244 0 25.792 11.665 25.792 25.482v230.518h-384zM640 755.2v-153.6h-51.2v153.6h51.2z" />
<glyph unicode="&#xe91c;" glyph-name="flux-capacitor" d="M427.152 587.154l60.801-60.801c14.996-14.996 14.996-39.31 0-54.306s-39.31-14.996-54.306 0l-60.801 60.801c-12.286-5.217-25.802-8.103-39.991-8.103-56.554 0-102.4 45.846-102.4 102.4s45.846 102.4 102.4 102.4c56.554 0 102.4-45.846 102.4-102.4 0-14.189-2.886-27.705-8.103-39.991zM407.050 607.256c1.697 6.345 2.601 13.013 2.601 19.893 0 42.415-34.385 76.8-76.8 76.8s-76.8-34.385-76.8-76.8c0-42.415 34.385-76.8 76.8-76.8 6.88 0 13.548 0.905 19.893 2.601l-47.097 47.097c-14.996 14.996-14.996 39.31 0 54.306s39.31 14.996 54.306 0l47.097-47.097zM651.179 532.873l-60.826-60.826c-14.996-14.996-39.31-14.996-54.306 0s-14.996 39.31 0 54.306l60.86 60.86c-5.201 12.27-8.078 25.765-8.078 39.931 0 56.554 45.846 102.4 102.4 102.4s102.4-45.846 102.4-102.4c0-56.554-45.846-102.4-102.4-102.4-14.212 0-27.748 2.895-40.051 8.128zM671.272 552.967c6.363-1.707 13.052-2.617 19.953-2.617 42.415 0 76.8 34.385 76.8 76.8s-34.385 76.8-76.8 76.8c-42.415 0-76.8-34.385-76.8-76.8 0-6.858 0.899-13.506 2.585-19.833l47.036 47.036c14.996 14.996 39.31 14.996 54.306 0s14.996-39.31 0-54.306l-47.080-47.081zM550.4 338.144c37.55-15.18 64.042-51.983 64.042-94.974 0-56.554-45.846-102.4-102.4-102.4s-102.4 45.846-102.4 102.4c0 42.958 26.453 79.738 63.958 94.939v84.29c0 21.208 17.192 38.4 38.4 38.4s38.4-17.192 38.4-38.4v-84.256zM473.6 309.678c-22.935-13.285-38.362-38.092-38.362-66.503 0-42.415 34.385-76.8 76.8-76.8s76.8 34.385 76.8 76.8c0 28.443-15.462 53.274-38.438 66.548v-66.522c0-21.208-17.192-38.4-38.4-38.4s-38.4 17.192-38.4 38.4v66.478zM102.4 755.091c0 56.614 45.799 102.509 102.509 102.509h614.182c56.614 0 102.509-45.799 102.509-102.509v-614.182c0-56.614-45.799-102.509-102.509-102.509h-614.182c-56.614 0-102.509 45.799-102.509 102.509v614.182zM153.659 755.365v-614.848c0-27.938 22.823-50.976 50.976-50.976h614.848c27.938 0 50.976 22.823 50.976 50.976v614.848c0 27.938-22.823 50.976-50.976 50.976h-614.848c-27.938 0-50.976-22.823-50.976-50.976zM499.2 422.4v-179.2c0-7.069 5.731-12.8 12.8-12.8s12.8 5.731 12.8 12.8v179.2c0 7.069-5.731 12.8-12.8 12.8s-12.8-5.731-12.8-12.8zM554.149 508.251c-4.999-4.999-4.999-13.103 0-18.102s13.103-4.999 18.102 0l128 128c4.999 4.999 4.999 13.103 0 18.102s-13.103 4.999-18.102 0l-128-128zM451.749 490.149c4.999-4.999 13.103-4.999 18.102 0s4.999 13.103 0 18.102l-128 128c-4.999 4.999-13.103 4.999-18.102 0s-4.999-13.103 0-18.102l128-128z" />
<glyph unicode="&#xe91d;" glyph-name="folder" d="M486.4 780.8h358.534c14.065 0 25.466-11.598 25.466-25.524v-51.276c28.291-0.081 51.2-23.014 51.2-51.326v-511.747c0-28.347-22.765-51.327-51.245-51.327h-716.711c-28.302 0-51.245 23.037-51.245 50.976v614.848c0 28.153 22.965 50.976 51.35 50.976h307.050l25.6-25.6zM512 755.2l51.2-51.2h281.6v44.6c0 3.934-2.754 6.6-6.152 6.6h-326.648zM435.2 755.2h-268.768c-6.95 0-12.832-5.745-12.832-12.833v-588.735c0-7.143 5.844-12.833 13.053-12.833h690.693c7.283 0 13.053 5.666 13.053 12.656v486.687c0 6.906-5.659 12.656-12.64 12.656h-320.16l-102.4 102.4z" />
<glyph unicode="&#xe91e;" glyph-name="grid" d="M563.2 345.45c0 28.36 22.965 51.35 51.35 51.35h255.7c28.36 0 51.35-22.965 51.35-51.35v-255.7c0-28.36-22.965-51.35-51.35-51.35h-255.7c-28.36 0-51.35 22.965-51.35 51.35v255.7zM614.4 332.553v-229.906c0-7.219 5.841-13.047 13.047-13.047h229.906c7.219 0 13.047 5.841 13.047 13.047v229.906c0 7.219-5.841 13.047-13.047 13.047h-229.906c-7.219 0-13.047-5.841-13.047-13.047zM102.4 345.45c0 28.36 22.965 51.35 51.35 51.35h255.7c28.36 0 51.35-22.965 51.35-51.35v-255.7c0-28.36-22.965-51.35-51.35-51.35h-255.7c-28.36 0-51.35 22.965-51.35 51.35v255.7zM153.6 332.553v-229.906c0-7.219 5.841-13.047 13.047-13.047h229.906c7.219 0 13.047 5.841 13.047 13.047v229.906c0 7.219-5.841 13.047-13.047 13.047h-229.906c-7.219 0-13.047-5.841-13.047-13.047zM563.2 806.25c0 28.36 22.965 51.35 51.35 51.35h255.7c28.36 0 51.35-22.965 51.35-51.35v-255.7c0-28.36-22.965-51.35-51.35-51.35h-255.7c-28.36 0-51.35 22.965-51.35 51.35v255.7zM614.4 793.353v-229.906c0-7.219 5.841-13.047 13.047-13.047h229.906c7.219 0 13.047 5.841 13.047 13.047v229.906c0 7.219-5.841 13.047-13.047 13.047h-229.906c-7.219 0-13.047-5.841-13.047-13.047zM102.4 806.25c0 28.36 22.965 51.35 51.35 51.35h255.7c28.36 0 51.35-22.965 51.35-51.35v-255.7c0-28.36-22.965-51.35-51.35-51.35h-255.7c-28.36 0-51.35 22.965-51.35 51.35v255.7zM153.6 793.353v-229.906c0-7.219 5.841-13.047 13.047-13.047h229.906c7.219 0 13.047 5.841 13.047 13.047v229.906c0 7.219-5.841 13.047-13.047 13.047h-229.906c-7.219 0-13.047-5.841-13.047-13.047z" />
<glyph unicode="&#xe91f;" glyph-name="grid-2" d="M102.4 806.355c0 28.302 22.765 51.245 51.245 51.245h716.711c28.302 0 51.245-22.765 51.245-51.245v-716.711c0-28.302-22.765-51.245-51.245-51.245h-716.711c-28.302 0-51.245 22.765-51.245 51.245v716.711zM153.6 793.347v-690.693c0-7.283 5.844-13.053 13.053-13.053h690.693c7.283 0 13.053 5.844 13.053 13.053v690.693c0 7.283-5.844 13.053-13.053 13.053h-690.693c-7.283 0-13.053-5.844-13.053-13.053zM563.2 371.436c0 14.008 11.545 25.364 25.364 25.364h102.872c14.008 0 25.364-11.545 25.364-25.364v-102.872c0-14.008-11.545-25.364-25.364-25.364h-102.872c-14.008 0-25.364 11.545-25.364 25.364v102.872zM307.2 371.436c0 14.008 11.545 25.364 25.364 25.364h102.872c14.008 0 25.364-11.545 25.364-25.364v-102.872c0-14.008-11.545-25.364-25.364-25.364h-102.872c-14.008 0-25.364 11.545-25.364 25.364v102.872zM563.2 627.436c0 14.008 11.545 25.364 25.364 25.364h102.872c14.008 0 25.364-11.545 25.364-25.364v-102.872c0-14.008-11.545-25.364-25.364-25.364h-102.872c-14.008 0-25.364 11.545-25.364 25.364v102.872zM307.2 627.436c0 14.008 11.545 25.364 25.364 25.364h102.872c14.008 0 25.364-11.545 25.364-25.364v-102.872c0-14.008-11.545-25.364-25.364-25.364h-102.872c-14.008 0-25.364 11.545-25.364 25.364v102.872z" />
<glyph unicode="&#xe920;" glyph-name="group" d="M691.2 627.2h51.326c28.208 0 51.074-22.851 51.074-51.074v-358.651c0-28.208-22.851-51.074-51.074-51.074h-358.651c-28.208 0-51.074 22.851-51.074 51.074v51.326h-51.326c-28.208 0-51.074 22.851-51.074 51.074v358.651c0 28.208 22.851 51.074 51.074 51.074h358.651c28.208 0 51.074-22.851 51.074-51.074v-51.326zM691.2 576v-256.126c0-28.208-22.851-51.074-51.074-51.074h-256.126v-38.444c0-7.126 5.711-12.756 12.756-12.756h332.889c7.126 0 12.756 5.711 12.756 12.756v332.889c0 7.126-5.711 12.756-12.756 12.756h-38.444zM179.2 832h665.6v25.6h76.8v-76.8h-25.6v-665.6h25.6v-76.8h-76.8v25.6h-665.6v-25.6h-76.8v76.8h25.6v665.6h-25.6v76.8h76.8v-25.6zM179.2 806.4v-25.6h-25.6v-665.6h25.6v-25.6h665.6v25.6h25.6v665.6h-25.6v25.6h-665.6zM870.4 64h25.6v25.6h-25.6v-25.6zM128 64h25.6v25.6h-25.6v-25.6zM870.4 806.4h25.6v25.6h-25.6v-25.6zM128 806.4h25.6v25.6h-25.6v-25.6zM281.6 665.644v-332.889c0-7.126 5.711-12.756 12.756-12.756h332.889c7.126 0 12.756 5.711 12.756 12.756v332.889c0 7.126-5.711 12.756-12.756 12.756h-332.889c-7.126 0-12.756-5.711-12.756-12.756z" />
<glyph unicode="&#xe921;" glyph-name="heart" d="M512 710.164l31.336 31.336c86.533 86.533 226.831 86.533 313.364 0s86.533-226.831 0-313.364l-290.394-290.394c-29.992-29.992-78.619-29.992-108.612 0l-290.394 290.394c-86.533 86.533-86.533 226.831 0 313.364s226.831 86.533 313.364 0l31.336-31.336zM512 637.756l-67.54 67.54c-66.538 66.538-174.418 66.538-240.956 0s-66.538-174.418 0-240.956l290.394-290.394c9.997-9.997 26.206-9.997 36.204 0l290.394 290.394c66.538 66.538 66.538 174.418 0 240.956s-174.418 66.538-240.956 0l-67.54-67.54zM819.2 588.8c0-7.069-5.731-12.8-12.8-12.8s-12.8 5.731-12.8 12.8c0 49.485-40.115 89.6-89.6 89.6-7.069 0-12.8 5.731-12.8 12.8s5.731 12.8 12.8 12.8c63.623 0 115.2-51.577 115.2-115.2z" />
<glyph unicode="&#xe922;" glyph-name="help" d="M335.536 552.048l-92.304 92.304c-85.385-116.569-85.385-276.138 0-392.707l92.304 92.304c-37.791 63.986-37.791 144.112 0 208.099zM616.042 271.541c-63.986-37.791-144.112-37.791-208.099 0l-92.304-92.304c116.569-85.385 276.138-85.385 392.707 0l-92.304 92.304zM407.944 624.455c63.986 37.791 144.112 37.791 208.099 0l92.304 92.304c-116.569 85.385-276.138 85.385-392.707 0l92.304-92.304zM688.45 343.949l92.304-92.304c85.385 116.569 85.385 276.138 0 392.707l-92.304-92.304c37.791-63.986 37.791-144.112 0-208.099zM240.464 176.469c-149.961 149.961-149.961 393.097 0 543.058s393.097 149.961 543.058 0c149.961-149.961 149.961-393.097 0-543.058s-393.097-149.961-543.058 0zM403.381 339.387c59.985-59.985 157.239-59.985 217.223 0s59.985 157.239 0 217.223c-59.985 59.985-157.239 59.985-217.223 0s-59.985-157.239 0-217.223z" />
<glyph unicode="&#xe923;" glyph-name="home" d="M793.677 38.4h-563.353c-28.212 0-51.123 22.844-51.123 51.024v333.214l-33.293-33.447c-9.907-9.953-25.925-9.936-35.815 0l-15.385 15.457c-9.907 9.953-9.783 26.11 0.239 36.126l380.698 380.49c20.090 20.079 52.634 20.068 72.713 0l380.698-380.49c10.032-10.026 10.129-26.191 0.239-36.126l-15.385-15.457c-9.907-9.953-25.925-9.936-35.815 0l-33.293 33.447v-333.214c0-28.139-22.889-51.024-51.123-51.024zM384 89.6v358.4h256v-358.4h128.236c14.008 0 25.364 11.492 25.364 25.792v358.208l-263.556 263.556c-9.965 9.965-26.168 9.92-36.087 0l-263.556-263.556v-358.208c0-14.244 11.545-25.792 25.364-25.792h128.236zM409.6 422.4v-332.8h204.8v332.8h-204.8z" />
<glyph unicode="&#xe924;" glyph-name="key" d="M793.6 345.6v-25.836c0-14.008-11.363-25.364-25.6-25.364-14.138 0-25.6 11.545-25.6 25.364v102.636h-180.606c-12.735-115.199-110.4-204.8-228.994-204.8-127.246 0-230.4 103.154-230.4 230.4s103.154 230.4 230.4 230.4c118.593 0 216.259-89.601 228.994-204.8h334.015c14.244 0 25.792-11.363 25.792-25.6 0-14.138-11.363-25.6-25.6-25.6v-102.636c0-14.008-11.363-25.364-25.6-25.364-14.138 0-25.6 11.545-25.6 25.364v25.836h-51.2zM332.8 268.8c98.969 0 179.2 80.231 179.2 179.2s-80.231 179.2-179.2 179.2c-98.969 0-179.2-80.231-179.2-179.2s80.231-179.2 179.2-179.2z" />
<glyph unicode="&#xe925;" glyph-name="laptop" d="M921.6 243.2v-25.6c0-14.138-11.58-25.6-25.415-25.6h-768.369c-14.036 0-25.415 11.363-25.415 25.6v25.6h819.2zM179.2 704.169c0 14.045 11.553 25.431 25.684 25.431h614.231c14.185 0 25.684-11.391 25.684-25.431v-435.369h-665.6v435.369zM230.4 678.4v-358.4h563.2v358.4h-563.2z" />
<glyph unicode="&#xe926;" glyph-name="layers" d="M140.047 291.388l371.953-198.375 371.953 198.375c12.475 6.653 27.982 1.934 34.635-10.541s1.934-27.982-10.541-34.635l-384-204.8c-7.529-4.016-16.565-4.016-24.094 0l-384 204.8c-12.475 6.653-17.195 22.16-10.541 34.635s22.16 17.195 34.635 10.541zM140.047 470.588l371.953-198.375 371.953 198.375c12.475 6.653 27.982 1.934 34.635-10.541s1.934-27.982-10.541-34.635l-384-204.8c-7.529-4.016-16.565-4.016-24.094 0l-384 204.8c-12.475 6.653-17.195 22.16-10.541 34.635s22.16 17.195 34.635 10.541zM524.047 854.588l384-204.8c18.071-9.638 18.071-35.539 0-45.176l-384-204.8c-7.529-4.016-16.565-4.016-24.094 0l-384 204.8c-18.071 9.638-18.071 35.539 0 45.176l384 204.8c7.529 4.016 16.565 4.016 24.094 0zM182.4 627.2l329.6-175.787 329.6 175.787-329.6 175.787-329.6-175.787z" />
<glyph unicode="&#xe927;" glyph-name="bulb" d="M615.424 243.2h-206.848c0.671-4.244 1.024-8.507 1.024-12.8v-12.8h204.8v12.8c0 4.293 0.353 8.556 1.024 12.8zM623.134 268.8c32.539 75.059 144.866 150.248 144.866 281.6 0 144.062-115.2 256-256 256s-256-111.938-256-256c0-131.352 112.327-206.541 144.866-281.6h222.267zM614.4 192h-204.8v-25.6h204.8v25.6zM614.4 140.8h-204.8v-25.6h204.8v25.6zM204.8 550.4c0 169.662 137.538 307.2 307.2 307.2s307.2-137.538 307.2-307.2c0-190.507-153.6-245.898-153.6-332.8v-102.453c0-28.247-22.904-51.147-51.2-51.147 0-14.138-11.598-25.6-25.524-25.6h-153.752c-14.096 0-25.524 11.602-25.524 25.6-28.277 0-51.2 22.995-51.2 51.147v102.453c0 86.902-153.6 142.293-153.6 332.8zM537.6 422.4h-51.2v-153.6h-25.6v153.6h-25.6c-28.277 0-51.2 22.923-51.2 51.2s22.923 51.2 51.2 51.2c28.277 0 51.2-22.923 51.2-51.2v-25.6h51.2v25.6c0 28.277 22.923 51.2 51.2 51.2s51.2-22.923 51.2-51.2c0-28.277-22.923-51.2-51.2-51.2h-25.6v-153.6h-25.6v153.6zM588.8 448c14.138 0 25.6 11.462 25.6 25.6s-11.462 25.6-25.6 25.6c-14.138 0-25.6-11.462-25.6-25.6v-25.6c0 0 18.277 0 25.6 0zM435.2 448c7.323 0 25.6 0 25.6 0v25.6c0 14.138-11.462 25.6-25.6 25.6s-25.6-11.462-25.6-25.6c0-14.138 11.462-25.6 25.6-25.6z" />
<glyph unicode="&#xe928;" glyph-name="graph" d="M810.682 558.37l-115.552-159.333c13.392-13.824 21.635-32.668 21.635-53.438 0-42.415-34.377-76.8-76.782-76.8s-76.782 34.385-76.782 76.8c0 5.58 0.595 11.022 1.725 16.264l-115.381 46.14c-13.488-22.073-37.805-36.804-65.561-36.804-18.275 0-35.059 6.386-48.243 17.049l-91.065-79.34c7.161-11.674 11.29-25.409 11.29-40.108 0-42.415-34.377-76.8-76.782-76.8s-76.782 34.385-76.782 76.8c0 42.415 34.377 76.8 76.782 76.8 18.379 0 35.25-6.459 48.468-17.232l90.727 79.707c-7.092 11.634-11.177 25.302-11.177 39.925 0 42.415 34.377 76.8 76.782 76.8s76.782-34.385 76.782-76.8c0-5.567-0.592-10.995-1.717-16.226l115.393-46.145c13.492 22.054 37.798 36.771 65.541 36.771 12.188 0 23.712-2.84 33.948-7.895l115.925 159.031c-13.522 13.844-21.856 32.781-21.856 53.665 0 42.415 34.377 76.8 76.782 76.8s76.782-34.385 76.782-76.8c0-42.415-34.377-76.8-76.782-76.8-12.248 0-23.826 2.868-34.1 7.97zM921.6 89.474c0-28.208-22.76-51.074-51.233-51.074h-716.547c-28.295 0-51.288 22.726-51.358 51.2l-0.062 25.36c-0.035 14.271 11.322 25.84 25.588 25.84 14.167 0 25.651-11.363 25.651-25.6v-12.68c0-7.135 5.77-12.92 13.053-12.92h690.679c7.209 0 13.053 5.79 13.053 12.708v371.27c0 14.151 11.358 25.622 25.588 25.622 14.132 0 25.588-11.391 25.588-25.431v-384.295zM102.462 806.526c0 28.208 22.761 51.074 51.236 51.074h716.588c28.297 0 51.291-22.726 51.361-51.2l0.062-25.36c0.035-14.271-11.338-25.84-25.623-25.84-14.186 0-25.686 11.363-25.686 25.6v12.68c0 7.135-5.77 12.92-13.053 12.92h-690.656c-7.209 0-13.053-5.79-13.053-12.708v-371.27c0-14.151-11.358-25.622-25.588-25.622-14.132 0-25.588 11.391-25.588 25.431v384.295zM179.2 217.577c28.277 0 51.2 22.928 51.2 51.212s-22.923 51.212-51.2 51.212c-28.277 0-51.2-22.928-51.2-51.212s22.923-51.212 51.2-51.212zM384 396.777c28.277 0 51.2 22.928 51.2 51.212s-22.923 51.212-51.2 51.212c-28.277 0-51.2-22.928-51.2-51.212s22.923-51.212 51.2-51.212zM640 294.377c28.277 0 51.2 22.928 51.2 51.212s-22.923 51.212-51.2 51.212c-28.277 0-51.2-22.928-51.2-51.212s22.923-51.212 51.2-51.212zM844.8 575.977c28.277 0 51.2 22.928 51.2 51.212s-22.923 51.212-51.2 51.212c-28.277 0-51.2-22.928-51.2-51.212s22.923-51.212 51.2-51.212z" />
<glyph unicode="&#xe929;" glyph-name="link" d="M674.962 791.892c-10.022 10.022-26.31 9.983-36.082 0.212l-72.742-72.742c-9.905-9.905-25.97-9.9-36.037 0.167-9.997 9.997-9.901 26.303-0.054 36.15l72.431 72.431c30.009 30.009 78.532 30.14 108.813-0.141l180.676-180.676c30.087-30.087 30.165-78.79 0.146-108.808l-289.581-289.581c-30.006-30.006-78.64-30.021-108.618-0.044l-134.358 134.358c-9.927 9.927-9.94 26.009 0.127 36.077 9.997 9.997 26.321 9.882 36.339-0.136l133.941-133.941c10.072-10.072 26.292-10.183 36.22-0.255l289.87 289.87c9.931 9.931 9.732 26.233-0.164 36.129l-180.93 180.93zM349.038 104.108c10.022-10.022 26.31-9.983 36.082-0.212l72.742 72.742c9.905 9.905 25.97 9.9 36.037-0.167 9.997-9.997 9.901-26.303 0.054-36.15l-72.431-72.431c-30.009-30.009-78.532-30.14-108.813 0.141l-180.676 180.676c-30.087 30.087-30.165 78.79-0.146 108.808l289.581 289.581c30.006 30.006 78.648 30.014 108.634 0.028l134.398-134.398c9.93-9.93 9.932-26.001-0.153-36.051-10.014-9.981-26.352-9.852-36.37 0.166l-133.941 133.941c-10.072 10.072-26.292 10.183-36.22 0.255l-289.87-289.87c-9.931-9.931-9.732-26.233 0.164-36.129l180.93-180.93z" />
<glyph unicode="&#xe92a;" glyph-name="search" d="M738.539 247.061l164.887-164.887c9.893-9.893 10.028-26.321-0.021-36.37l-14.809-14.809c-10.195-10.195-26.332-10.058-36.37-0.021l-164.887 164.887c-61.742-50.42-140.609-80.661-226.539-80.661-197.939 0-358.4 160.461-358.4 358.4s160.461 358.4 358.4 358.4c197.939 0 358.4-160.461 358.4-358.4 0-85.93-30.241-164.797-80.661-226.539zM460.8 166.4c169.662 0 307.2 137.538 307.2 307.2s-137.538 307.2-307.2 307.2c-169.662 0-307.2-137.538-307.2-307.2s137.538-307.2 307.2-307.2z" />
<glyph unicode="&#xe92b;" glyph-name="mail" d="M844.8 268.8v-25.836c0-28.147-22.726-50.964-51.2-50.964h-25.6v-25.836c0-28.147-22.911-50.964-51.123-50.964h-563.353c-28.235 0-51.123 22.994-51.123 50.964v410.071c0 28.147 22.911 50.964 51.123 50.964h25.677v25.6c0 28.277 22.911 51.2 51.123 51.2h25.677v25.6c0 28.277 22.911 51.2 51.123 51.2h563.353c28.235 0 51.123-22.994 51.123-50.964v-410.071c0-28.147-22.726-50.964-51.2-50.964h-25.6zM844.8 294.4h25.627c14.124 0 25.573 11.391 25.573 25.431v409.938c0 14.045-11.455 25.431-25.618 25.431h-563.164c-14.148 0-25.618-11.332-25.618-25.573v-25.627h512.077c28.235 0 51.123-22.994 51.123-50.964v-358.636zM204.8 627.2h512.077c28.235 0 51.123-22.994 51.123-50.964v-358.636h25.627c14.124 0 25.573 11.391 25.573 25.431v409.938c0 14.045-11.455 25.431-25.618 25.431h-563.164c-14.148 0-25.618-11.332-25.618-25.573v-25.627zM716.8 552.533l-243.931-223.604c-20.804-19.070-54.623-18.989-75.338 0l-243.931 223.604v-373.426c0-6.917 5.74-12.708 12.821-12.708h537.557c7.247 0 12.821 5.689 12.821 12.708v373.426zM181.76 576l234.526-213.206c10.446-9.496 27.342-9.533 37.828 0l234.526 213.206h-506.88z" />
<glyph unicode="&#xe92c;" glyph-name="man-sign" d="M819.2 718.996l-167.596-167.596c40.707-48.832 65.196-111.656 65.196-180.2 0-155.523-126.077-281.6-281.6-281.6s-281.6 126.077-281.6 281.6c0 155.523 126.077 281.6 281.6 281.6 68.544 0 131.368-24.49 180.2-65.196l167.596 167.596h-142.996c-14.138 0-25.6 11.462-25.6 25.6v0 0c0 14.138 11.462 25.6 25.6 25.6v0h179.2c28.277 0 51.2-22.923 51.2-51.2v-179.2c0-14.138-11.462-25.6-25.6-25.6s-25.6 11.462-25.6 25.6v142.996zM435.2 140.8c127.246 0 230.4 103.154 230.4 230.4s-103.154 230.4-230.4 230.4c-127.246 0-230.4-103.154-230.4-230.4s103.154-230.4 230.4-230.4z" />
<glyph unicode="&#xe92d;" glyph-name="man" d="M440.317 676.354c-46.612-9.492-81.917-50.89-81.917-100.52v-204.672c0-14.106 11.462-25.562 25.601-25.562h2.517c14.208 0 25.601 11.427 25.601 25.524v179.276h23.081v-435.369c0-14.040 11.462-25.431 25.6-25.431 14.237 0 25.6 11.409 25.6 25.482v205.036c0 13.817 11.462 25.482 25.6 25.482 14.237 0 25.6-11.409 25.6-25.482v-205.036c0-13.817 11.462-25.482 25.6-25.482 14.237 0 25.6 11.386 25.6 25.431v435.369h25.6v-179.276c0-13.926 11.462-25.524 25.6-25.524 14.237 0 25.6 11.444 25.6 25.562v204.672c0 49.655-35.197 91.074-81.941 100.536-11.122-28.765-39.060-49.17-71.659-49.17-32.679 0-60.59 20.347-71.683 49.154zM614.4 720.876c59.666-21.093 102.4-78.087 102.4-145.043v-204.672c0-42.415-34.307-76.762-76.8-76.762v-179.369c0-42.402-34.365-76.631-76.8-76.631-19.62 0-37.543 7.409-51.131 19.553-13.59-12.163-31.555-19.553-51.269-19.553-42.34 0-76.8 34.237-76.8 76.631v179.369c-42.398 0-76.8 34.361-76.8 76.762v204.672c0 66.896 42.794 123.898 102.4 145.018v34.099c0 56.692 45.961 102.65 102.4 102.65 56.554 0 102.4-45.768 102.4-102.65v-34.074zM460.8 755.253v-51.307c0-28.151 22.923-51.147 51.2-51.147 28.474 0 51.2 22.899 51.2 51.147v51.307c0 28.151-22.923 51.147-51.2 51.147-28.474 0-51.2-22.899-51.2-51.147z" />
<glyph unicode="&#xe92e;" glyph-name="menu" d="M102.4 806.355c0 28.302 22.765 51.245 51.245 51.245h716.711c28.302 0 51.245-22.765 51.245-51.245v-716.711c0-28.302-22.765-51.245-51.245-51.245h-716.711c-28.302 0-51.245 22.765-51.245 51.245v716.711zM153.6 793.347v-690.693c0-7.283 5.844-13.053 13.053-13.053h690.693c7.283 0 13.053 5.844 13.053 13.053v690.693c0 7.283-5.844 13.053-13.053 13.053h-690.693c-7.283 0-13.053-5.844-13.053-13.053zM307.2 294.4c0 14.138 11.383 25.6 25.622 25.6h358.355c14.151 0 25.622-11.363 25.622-25.6 0-14.138-11.383-25.6-25.622-25.6h-358.355c-14.151 0-25.622 11.363-25.622 25.6zM307.2 448c0 14.138 11.383 25.6 25.622 25.6h358.355c14.151 0 25.622-11.363 25.622-25.6 0-14.138-11.383-25.6-25.622-25.6h-358.355c-14.151 0-25.622 11.363-25.622 25.6zM307.2 601.6c0 14.138 11.383 25.6 25.622 25.6h358.355c14.151 0 25.622-11.363 25.622-25.6 0-14.138-11.383-25.6-25.622-25.6h-358.355c-14.151 0-25.622 11.363-25.622 25.6z" />
<glyph unicode="&#xe92f;" glyph-name="monitor" d="M102.4 806.273c0 28.347 22.765 51.327 51.245 51.327h716.711c28.302 0 51.245-22.964 51.245-51.327v-511.747c0-28.347-22.965-51.327-51.35-51.327h-307.050v-153.6h179.276c14.096 0 25.524-11.363 25.524-25.6v-25.6h-512v25.6c0 14.138 11.598 25.6 25.524 25.6h179.276v153.6h-307.050c-28.36 0-51.35 22.964-51.35 51.327v511.747zM153.6 371.2v-64.118c0-7.159 5.844-12.682 13.053-12.682h690.693c7.283 0 13.053 5.678 13.053 12.682v64.118h-716.8zM153.6 793.692v-396.892h716.8v396.892c0 6.917-5.844 12.708-13.053 12.708h-690.693c-7.283 0-13.053-5.689-13.053-12.708z" />
<glyph unicode="&#xe930;" glyph-name="pencil" d="M590.353 735.545l-33.098-33.098 209.192-209.192 33.098 33.098-209.192 209.192zM608.455 753.647l209.192-209.192 28.461 28.461c29.971 29.971 29.926 78.642-0.162 108.73l-100.3 100.3c-30.226 30.226-78.667 30.225-108.73 0.162l-28.461-28.461zM539.153 684.345l-365.898-365.898 44.345-44.345 365.898 365.898-44.345 44.345zM748.345 475.153l-44.345 44.345-365.898-365.898 44.345-44.345 365.898 365.898zM685.898 537.6l-84.298 84.298-365.898-365.898 84.298-84.298 365.898 365.898zM155.153 300.345l-1.553-1.553v-132.392l76.8-76.8h132.392l1.553 1.553-209.192 209.192zM127.887 38.4c-14.076 0-25.487 11.388-25.487 25.487v256.113l498.312 498.312c49.975 49.975 130.834 50.141 181.138-0.162l100.3-100.3c50.065-50.065 50.146-131.154 0.162-181.138l-498.312-498.312h-256.113z" />
<glyph unicode="&#xe931;" glyph-name="phone" d="M896 812.351l-194.042 19.139c-28.008 2.762-57.922-16.625-66.966-43.756l-39.916-119.748c-8.976-26.929 0.442-64.655 19.691-85.23 0 0 47.827-37.36 37.173-76.907-21.485-79.745-118.047-172.957-199.032-198.532-24.622-7.776-73.357 40.397-73.357 40.397-21.419 18.479-60.409 26.251-87.541 17.207l-119.748-39.916c-26.929-8.976-46.531-38.84-43.756-66.966l19.139-194.042c426.638 0 748.355 321.718 748.355 748.355zM191.279 113.48l-13.453 136.396c-1.376 13.95 8.6 28.956 21.605 33.291l106.025 35.342c13.308 4.436 32.511 0.368 43.284-8.751 0 0 64.614-64.308 118.706-48.482 98.427 28.797 205.446 137.315 231.111 232.012 19.96 73.644-45.763 122.453-45.763 122.453-10.235 9.458-14.893 28.042-10.403 41.514l34.339 103.018c4.49 13.469 19.755 23.242 33.388 21.897l136.396-13.453c-20.165-363.563-291.673-635.071-655.236-655.236z" />
<glyph unicode="&#xe932;" glyph-name="pie-chart" d="M460.8 38.4c-197.939 0-358.4 160.461-358.4 358.4s160.461 358.4 358.4 358.4v-358.4h358.4c0-197.939-160.461-358.4-358.4-358.4zM128 396.8c0-183.8 149-332.8 332.8-332.8 175.187 0 318.758 135.361 331.83 307.2h-357.43v357.43c-171.839-13.072-307.2-156.643-307.2-331.83zM896 473.6h-358.4v358.4c197.939 0 358.4-160.461 358.4-358.4zM609.523 524.8h123.849c59.854 0 81.704 0 107.181 0-21.582 128.64-123.112 230.171-251.753 251.753 0-24.794 0-50.849 0-118.221v-127.003c0-2.287 0-4.461 0-6.529 5.933 0 12.776 0 20.723 0z" />
<glyph unicode="&#xe933;" glyph-name="pin" d="M512 38.4c0 0-307.2 239.938-307.2 512 0 169.662 137.538 307.2 307.2 307.2s307.2-137.538 307.2-307.2c0-272.062-307.2-512-307.2-512zM525.159 117.659c34.377 31.924 68.783 67.938 100.793 107.114 89.228 109.203 142.048 220.624 142.048 325.627 0 141.385-114.615 256-256 256s-256-114.615-256-256c0-105.003 52.819-216.424 142.048-325.627 32.010-39.176 66.416-75.19 100.793-107.114 4.519-4.196 8.911-8.203 13.159-12.015 4.249 3.812 8.64 7.819 13.159 12.015zM512 422.4c-70.692 0-128 57.308-128 128s57.308 128 128 128c70.692 0 128-57.308 128-128s-57.308-128-128-128zM512 448c56.554 0 102.4 45.846 102.4 102.4s-45.846 102.4-102.4 102.4c-56.554 0-102.4-45.846-102.4-102.4s45.846-102.4 102.4-102.4z" />
<glyph unicode="&#xe934;" glyph-name="portfolio" d="M614.4 325.013v-30.618c0-14.136-11.598-25.595-25.524-25.595h-153.752c-14.096 0-25.524 11.359-25.524 25.595v30.622c-48.592 4.427-99.2 11.585-150.355 20.785-31.331 5.635-60.818 11.672-87.595 17.712-6.513 1.469-12.542 2.866-18.050 4.174v-265.266c0-7.247 5.844-12.821 13.053-12.821h690.693c7.283 0 13.053 5.74 13.053 12.821v265.162c-5.403-1.278-11.299-2.641-17.656-4.071-26.832-6.039-56.374-12.076-87.756-17.711-51.248-9.202-101.936-16.361-150.588-20.788zM614.4 350.721c47.149 4.37 96.322 11.346 146.064 20.277 30.996 5.565 60.176 11.528 86.659 17.489 8.668 1.951 16.457 3.77 23.277 5.417v246.074c0 7.247-5.844 12.821-13.053 12.821h-690.693c-7.283 0-13.053-5.74-13.053-12.821v-245.965c6.913-1.676 14.839-3.533 23.683-5.527 26.427-5.961 55.551-11.923 86.494-17.488 49.647-8.929 98.736-15.902 145.823-20.272v20.479c0 14.136 11.598 25.595 25.524 25.595h153.752c14.096 0 25.524-11.359 25.524-25.595v-20.483zM102.4 652.877c0 28.235 22.934 51.123 51.133 51.123h179.267v102.453c0 28.247 22.965 51.147 51.35 51.147h255.7c28.36 0 51.35-22.995 51.35-51.147v-102.453h179.267c28.24 0 51.133-22.911 51.133-51.123v-563.353c0-28.235-22.765-51.123-51.245-51.123h-716.711c-28.302 0-51.245 22.911-51.245 51.123v563.353zM435.2 371.2v-76.8h153.6v76.8h-153.6zM384 793.844v-89.844h256v89.844c0 7.051-5.841 12.556-13.047 12.556h-229.906c-7.219 0-13.047-5.622-13.047-12.556z" />
<glyph unicode="&#xe935;" glyph-name="receipt" d="M384 38.4c0 14.138-11.462 25.6-25.6 25.6s-25.6-11.462-25.6-25.6h-76.8c-28.277 0-51.2 22.923-51.2 51.2v716.8c0 28.277 22.923 51.2 51.2 51.2h512c28.277 0 51.2-22.923 51.2-51.2v-716.8c0-28.277-22.923-51.2-51.2-51.2h-76.8c0 14.138-11.462 25.6-25.6 25.6s-25.6-11.462-25.6-25.6h-102.4c0 14.138-11.462 25.6-25.6 25.6s-25.6-11.462-25.6-25.6h-102.4zM454.756 89.6c14.063 15.712 34.499 25.6 57.244 25.6s43.182-9.888 57.244-25.6h39.111c14.063 15.712 34.499 25.6 57.244 25.6s43.182-9.888 57.244-25.6h32.356c7.069 0 12.8 5.731 12.8 12.8v691.2c0 7.069-5.731 12.8-12.8 12.8h-486.4c-7.069 0-12.8-5.731-12.8-12.8v-691.2c0-7.069 5.731-12.8 12.8-12.8h32.356c14.063 15.712 34.499 25.6 57.244 25.6s43.182-9.888 57.244-25.6h39.111zM614.4 294.4h76.8v-25.6h-76.8v25.6zM614.4 371.2h76.8v-25.6h-76.8v25.6zM614.4 448h76.8v-25.6h-76.8v25.6zM332.8 294.4h153.6v-25.6h-153.6v25.6zM332.8 371.2h128v-25.6h-128v25.6zM332.8 448h204.8v-25.6h-204.8v25.6zM332.8 576h281.6v-25.6h-281.6v25.6zM332.8 652.8h358.4v-25.6h-358.4v25.6zM332.8 729.6h358.4v-25.6h-358.4v25.6z" />
<glyph unicode="&#xe936;" glyph-name="safe" d="M594.195 277.92l-14.539 35.099 23.651 9.797 14.535-35.090c13.415 6.73 25.868 15.094 37.099 24.831l-26.831 26.831 18.102 18.102 26.831-26.831c9.738 11.23 18.102 23.683 24.831 37.099l-35.090 14.535 9.797 23.651 35.099-14.539c4.629 13.918 7.597 28.595 8.67 43.795h-37.95v25.6h37.95c-1.073 15.2-4.041 29.876-8.67 43.795l-35.099-14.539-9.797 23.651 35.090 14.535c-6.73 13.415-15.094 25.868-24.831 37.099l-26.831-26.831-18.102 18.102 26.831 26.831c-11.23 9.738-23.683 18.102-37.099 24.831l-14.535-35.090-23.651 9.797 14.539 35.099c-13.918 4.629-28.595 7.597-43.795 8.67v-37.95h-25.6v37.95c-15.2-1.073-29.877-4.041-43.795-8.67l14.539-35.099-23.651-9.797-14.535 35.090c-13.415-6.73-25.868-15.094-37.099-24.831l26.831-26.831-18.102-18.102-26.831 26.831c-9.738-11.23-18.102-23.683-24.831-37.099l35.090-14.535-9.797-23.651-35.099 14.539c-4.629-13.918-7.597-28.595-8.67-43.795h37.95v-25.6h-37.95c1.073-15.2 4.041-29.876 8.67-43.795l35.099 14.539 9.797-23.651-35.090-14.535c6.73-13.415 15.094-25.868 24.831-37.099l26.831 26.831 18.102-18.102-26.831-26.831c11.23-9.738 23.683-18.102 37.099-24.831l14.535 35.090 23.651-9.797-14.539-35.099c13.918-4.629 28.595-7.597 43.795-8.67v37.95h25.6v-37.95c15.2 1.073 29.877 4.041 43.795 8.67zM153.6 729.6v76.755c0 28.48 22.827 51.245 50.985 51.245h666.029c28.001 0 50.985-22.943 50.985-51.245v-716.711c0-28.48-22.827-51.245-50.985-51.245h-666.029c-28.001 0-50.985 22.943-50.985 51.245v76.755h-25.676c-14.096 0-25.524 11.35-25.524 25.84v50.72c0 14.271 11.598 25.84 25.524 25.84h25.676v358.4h-25.676c-14.096 0-25.524 11.35-25.524 25.84v50.72c0 14.271 11.598 25.84 25.524 25.84h25.676zM204.8 729.6h25.6v38.498c0 6.948 5.745 12.702 12.833 12.702h588.735c7.143 0 12.833-5.687 12.833-12.702v-640.196c0-6.948-5.745-12.702-12.833-12.702h-588.735c-7.143 0-12.833 5.687-12.833 12.702v38.498h-25.6v-63.747c0-7.209 5.754-13.053 12.702-13.053h640.196c7.015 0 12.702 5.77 12.702 13.053v690.693c0 7.209-5.754 13.053-12.702 13.053h-640.196c-7.015 0-12.702-5.77-12.702-13.053v-63.747zM204.8 627.2v-358.4h25.6v358.4h-25.6zM256 729.6h25.676c14.096 0 25.524-11.35 25.524-25.84v-50.72c0-14.271-11.598-25.84-25.524-25.84h-25.676v-358.4h25.676c14.096 0 25.524-11.35 25.524-25.84v-50.72c0-14.271-11.598-25.84-25.524-25.84h-25.676v-25.6h563.2v614.4h-563.2v-25.6zM128 243.2v-51.2h153.6v51.2h-153.6zM128 704v-51.2h153.6v51.2h-153.6zM537.6 652.8c113.108 0 204.8-91.692 204.8-204.8s-91.692-204.8-204.8-204.8c-113.108 0-204.8 91.692-204.8 204.8s91.692 204.8 204.8 204.8zM537.6 550.4c56.554 0 102.4-45.846 102.4-102.4s-45.846-102.4-102.4-102.4c-56.554 0-102.4 45.846-102.4 102.4s45.846 102.4 102.4 102.4zM537.6 524.8c-42.415 0-76.8-34.385-76.8-76.8s34.385-76.8 76.8-76.8c42.415 0 76.8 34.385 76.8 76.8s-34.385 76.8-76.8 76.8z" />
<glyph unicode="&#xe937;" glyph-name="settings" d="M154.5 422.4h-26.685c-14.036 0-25.415 11.363-25.415 25.6 0 14.138 11.58 25.6 25.415 25.6h26.685c2.145 30.4 8.082 59.753 17.34 87.589l-24.578 10.18c-12.968 5.372-19.132 20.224-13.684 33.377 5.411 13.062 20.496 19.22 33.277 13.925l24.595-10.188c13.459 26.83 30.187 51.737 49.663 74.197l-18.876 18.876c-9.925 9.925-9.937 26.006 0.131 36.073 9.997 9.997 26.291 9.913 36.073 0.131l18.876-18.876c20.899 18.121 43.915 33.864 68.629 46.808l-10.617 24.418c-5.597 12.872 0.286 27.838 13.342 33.515 12.966 5.638 28.094-0.412 33.611-13.099l10.608-24.396c29.584 10.421 60.946 17.069 93.509 19.367v26.685c0 14.037 11.363 25.415 25.6 25.415 14.138 0 25.6-11.58 25.6-25.415v-26.685c30.4-2.145 59.753-8.082 87.589-17.34l10.18 24.578c5.372 12.968 20.224 19.132 33.377 13.684 13.062-5.411 19.22-20.496 13.925-33.277l-10.188-24.595c26.83-13.459 51.737-30.187 74.197-49.663l18.876 18.876c9.925 9.925 26.006 9.937 36.073-0.131 9.997-9.997 9.913-26.291 0.131-36.073l-18.876-18.876c18.121-20.899 33.864-43.915 46.808-68.629l24.418 10.617c12.872 5.597 27.838-0.286 33.515-13.342 5.638-12.966-0.412-28.094-13.099-33.611l-24.396-10.608c10.421-29.584 17.069-60.946 19.367-93.509h26.685c14.036 0 25.415-11.363 25.415-25.6 0-14.138-11.58-25.6-25.415-25.6h-26.685c-2.145-30.4-8.082-59.753-17.34-87.589l24.578-10.18c12.968-5.372 19.132-20.224 13.684-33.377-5.411-13.062-20.496-19.22-33.277-13.925l-24.595 10.188c-13.459-26.83-30.187-51.737-49.663-74.197l18.876-18.876c9.925-9.925 9.937-26.006-0.131-36.073-9.997-9.997-26.291-9.913-36.073-0.131l-18.876 18.876c-20.899-18.121-43.915-33.864-68.629-46.808l10.617-24.418c5.597-12.872-0.286-27.838-13.342-33.515-12.966-5.638-28.094 0.412-33.611 13.099l-10.608 24.396c-29.584-10.421-60.946-17.069-93.509-19.367v-26.685c0-14.037-11.363-25.415-25.6-25.415-14.138 0-25.6 11.58-25.6 25.415v26.685c-30.4 2.145-59.753 8.082-87.589 17.34l-10.18-24.578c-5.372-12.968-20.224-19.132-33.377-13.684-13.062 5.411-19.22 20.496-13.925 33.277l10.188 24.595c-26.83 13.459-51.737 30.187-74.197 49.663l-18.876-18.876c-9.925-9.925-26.006-9.937-36.073 0.131-9.997 9.997-9.913 26.291-0.131 36.073l18.876 18.876c-18.121 20.899-33.864 43.915-46.808 68.629l-24.418-10.617c-12.872-5.597-27.838 0.286-33.515 13.342-5.638 12.966 0.412 28.094 13.099 33.611l24.396 10.608c-10.421 29.584-17.069 60.946-19.367 93.509zM512 140.8c169.662 0 307.2 137.538 307.2 307.2s-137.538 307.2-307.2 307.2c-169.662 0-307.2-137.538-307.2-307.2s137.538-307.2 307.2-307.2zM512 320c-70.692 0-128 57.308-128 128s57.308 128 128 128c70.692 0 128-57.308 128-128s-57.308-128-128-128zM512 345.6c56.554 0 102.4 45.846 102.4 102.4s-45.846 102.4-102.4 102.4c-56.554 0-102.4-45.846-102.4-102.4s45.846-102.4 102.4-102.4z" />
<glyph unicode="&#xe938;" glyph-name="share" d="M621.052 659.148c-4.325 14.189-6.652 29.249-6.652 44.852 0 84.831 68.769 153.6 153.6 153.6s153.6-68.769 153.6-153.6c0-84.831-68.769-153.6-153.6-153.6-50.935 0-96.079 24.792-124.023 62.967l-241.029-120.514c4.325-14.189 6.652-29.249 6.652-44.852s-2.327-30.664-6.652-44.852l241.029-120.514c27.945 38.175 73.089 62.967 124.023 62.967 84.831 0 153.6-68.769 153.6-153.6s-68.769-153.6-153.6-153.6c-84.831 0-153.6 68.769-153.6 153.6 0 15.604 2.327 30.664 6.652 44.852l-241.029 120.514c-27.945-38.175-73.089-62.967-124.023-62.967-84.831 0-153.6 68.769-153.6 153.6s68.769 153.6 153.6 153.6c50.935 0 96.079-24.792 124.023-62.967l241.029 120.514zM768 89.6c56.554 0 102.4 45.846 102.4 102.4s-45.846 102.4-102.4 102.4c-56.554 0-102.4-45.846-102.4-102.4s45.846-102.4 102.4-102.4zM256 345.6c56.554 0 102.4 45.846 102.4 102.4s-45.846 102.4-102.4 102.4c-56.554 0-102.4-45.846-102.4-102.4s45.846-102.4 102.4-102.4zM768 601.6c56.554 0 102.4 45.846 102.4 102.4s-45.846 102.4-102.4 102.4c-56.554 0-102.4-45.846-102.4-102.4s45.846-102.4 102.4-102.4z" />
<glyph unicode="&#xe939;" glyph-name="shield" d="M499.2 789.487c-79.038-53.43-268.416-70.045-294.4-71.141 0-14.842 0-336.776 0-336.776 0-161.925 237.167-262.321 294.4-284.388v692.305zM524.8 789.451v-691.685c60.066 23.214 294.4 123.319 294.4 283.804 0 0 0 326.183 0 336.773-25.983 1.096-215.316 17.705-294.4 71.108zM153.6 381.57v388.199c0 0 179.185-14.568 358.371 87.831 179.214-102.401 358.429-87.834 358.429-87.834v-388.196c0-227.97-359.227-343.17-359.227-343.17s-357.573 115.2-357.573 343.17z" />
<glyph unicode="&#xe93a;" glyph-name="shopping-cart" d="M307.536 524.8l15.36-76.8h61.104v76.8h-76.464zM302.416 550.4h81.584v76.8h-96.944l15.36-76.8zM798.298 524.8h-81.498v-76.8h70.757l10.741 76.8zM801.878 550.4l10.741 76.8h-95.819v-76.8h85.078zM691.2 524.8h-76.8v-76.8h76.8v76.8zM691.2 550.4v76.8h-76.8v-76.8h76.8zM588.8 524.8h-76.8v-76.8h76.8v76.8zM588.8 550.4v76.8h-76.8v-76.8h76.8zM486.4 524.8h-76.8v-76.8h76.8v76.8zM486.4 550.4v76.8h-76.8v-76.8h76.8zM328.016 422.4l15.36-76.8h429.859l10.741 76.8h-67.176v-76.8h-25.6v76.8h-76.8v-76.8h-25.6v76.8h-76.8v-76.8h-25.6v76.8h-76.8v-76.8h-25.6v76.8h-55.984zM276.816 678.4h574.663c14.193 0 23.65-11.28 21.366-25.195l-54.746-333.609c-2.317-14.117-15.565-25.195-29.664-25.195h-434.819l15.509-77.543c28.695-4.010 52.31-23.875 61.705-50.457h239.14c10.543 29.829 38.991 51.2 72.43 51.2 42.415 0 76.8-34.385 76.8-76.8s-34.385-76.8-76.8-76.8c-33.439 0-61.887 21.371-72.43 51.2h-239.14c-10.543-29.829-38.991-51.2-72.43-51.2-42.415 0-76.8 34.385-76.8 76.8 0 28.115 15.107 52.701 37.647 66.084l-109.663 548.316h-81.783c-13.93 0-25.401 11.462-25.401 25.6 0 14.237 11.454 25.6 25.582 25.6h97.651c13.905 0 27.829-11.233 30.6-25.089l20.582-102.911zM742.4 115.2c14.138 0 25.6 11.462 25.6 25.6s-11.462 25.6-25.6 25.6c-14.138 0-25.6-11.462-25.6-25.6s11.462-25.6 25.6-25.6zM358.4 115.2c14.138 0 25.6 11.462 25.6 25.6s-11.462 25.6-25.6 25.6c-14.138 0-25.6-11.462-25.6-25.6s11.462-25.6 25.6-25.6z" />
<glyph unicode="&#xe93b;" glyph-name="smartphone" d="M204.8 806.355c0 28.302 22.964 51.245 51.327 51.245h511.747c28.347 0 51.327-22.765 51.327-51.245v-716.711c0-28.302-22.964-51.245-51.327-51.245h-511.747c-28.347 0-51.327 22.765-51.327 51.245v716.711zM256 793.347v-690.693c0-7.283 5.666-13.053 12.656-13.053h486.687c6.906 0 12.656 5.844 12.656 13.053v690.693c0 7.283-5.666 13.053-12.656 13.053h-486.687c-6.906 0-12.656-5.844-12.656-13.053zM512 115.2c-28.277 0-51.2 22.923-51.2 51.2s22.923 51.2 51.2 51.2c28.277 0 51.2-22.923 51.2-51.2s-22.923-51.2-51.2-51.2zM512 140.8c14.138 0 25.6 11.462 25.6 25.6s-11.462 25.6-25.6 25.6c-14.138 0-25.6-11.462-25.6-25.6s11.462-25.6 25.6-25.6z" />
<glyph unicode="&#xe93c;" glyph-name="structure" d="M819.424 857.6c28.153 0 50.976-23.090 50.976-51.418v-204.363c0-28.398-22.875-51.418-51.271-51.418h-281.529v-76.8h179.267c28.24 0 51.133-22.884 51.133-51.325v-76.675h102.453c28.247 0 51.147-23.090 51.147-51.418v-204.363c0-28.398-22.965-51.418-51.35-51.418h-255.7c-28.36 0-51.35 23.090-51.35 51.418v204.363c0 28.398 22.995 51.418 51.147 51.418h102.453v64.118c0 7.004-5.79 12.682-12.708 12.682h-384.185c-7.018 0-12.708-5.523-12.708-12.682v-64.118h102.453c28.247 0 51.147-23.090 51.147-51.418v-204.363c0-28.398-22.965-51.418-51.35-51.418h-255.7c-28.36 0-51.35 23.090-51.35 51.418v204.363c0 28.398 22.995 51.418 51.147 51.418h102.453v76.675c0 28.346 22.934 51.325 51.133 51.325h179.267v76.8h-281.529c-28.316 0-51.271 23.090-51.271 51.418v204.363c0 28.398 23.037 51.418 50.976 51.418h614.848zM857.353 294.4h-229.906c-7.219 0-13.047-5.736-13.047-12.811v-179.178c0-6.903 5.841-12.811 13.047-12.811h229.906c7.219 0 13.047 5.736 13.047 12.811v179.178c0 6.903-5.841 12.811-13.047 12.811zM396.553 294.4h-229.906c-7.219 0-13.047-5.736-13.047-12.811v-179.178c0-6.903 5.841-12.811 13.047-12.811h229.906c7.219 0 13.047 5.736 13.047 12.811v179.178c0 6.903-5.841 12.811-13.047 12.811zM806.367 806.4h-588.735c-7.143 0-12.833-5.736-12.833-12.811v-179.178c0-6.903 5.745-12.811 12.833-12.811h588.735c7.143 0 12.833 5.736 12.833 12.811v179.178c0 6.903-5.745 12.811-12.833 12.811z" />
<glyph unicode="&#xe93d;" glyph-name="tag" d="M138.558 432.958l424.642 424.642h307.050c28.385 0 51.35-22.99 51.35-51.35v-307.050l-424.642-424.642c-20.028-20.028-52.427-19.889-72.496 0.179l-285.725 285.725c-20.007 20.007-20.149 52.526-0.179 72.496zM188.136 405.736c-4.935-4.935-4.955-12.917 0.114-17.986l263.499-263.499c4.998-4.998 13.104-4.996 17.986-0.114l400.664 400.664v268.768c0 7.087-5.882 12.832-12.832 12.832h-268.768l-400.664-400.664zM691.2 550.4c-42.415 0-76.8 34.385-76.8 76.8s34.385 76.8 76.8 76.8c42.415 0 76.8-34.385 76.8-76.8s-34.385-76.8-76.8-76.8zM691.2 576c28.277 0 51.2 22.923 51.2 51.2s-22.923 51.2-51.2 51.2c-28.277 0-51.2-22.923-51.2-51.2s22.923-51.2 51.2-51.2zM341.754 405.754l7.693 7.693c4.954 4.954 13.075 4.832 18.159-0.252l109.589-109.589c5.234-5.234 5.197-13.214 0.252-18.159l-7.693-7.693c-4.954-4.954-13.075-4.832-18.159 0.252l-109.589 109.589c-5.234 5.234-5.197 13.214-0.252 18.159zM418.554 482.554l7.693 7.693c4.954 4.954 13.075 4.832 18.159-0.252l109.589-109.589c5.234-5.234 5.197-13.214 0.252-18.159l-7.693-7.693c-4.954-4.954-13.075-4.832-18.159 0.252l-109.589 109.589c-5.234 5.234-5.197 13.214-0.252 18.159z" />
<glyph unicode="&#xe93e;" glyph-name="target" d="M847.678 704.709l48.375-0.345c28.248-0.201 34.928-16.484 14.883-36.407l-33.994-33.786c28.552-55.857 44.657-119.134 44.657-186.172 0-226.216-183.384-409.6-409.6-409.6s-409.6 183.384-409.6 409.6c0 226.216 183.384 409.6 409.6 409.6 80.237 0 155.085-23.071 218.273-62.941l27.064 26.898c20.028 19.906 36.264 12.88 36.264-15.164v-47.13l13.409 12.292c16.102 13.802 40.344 11.937 54.146-4.165s11.937-40.344-4.165-54.146l-9.311-8.535zM652.608 525.894l-24.989-22.906c7.937-16.66 12.38-35.305 12.38-54.988 0-70.693-57.308-128-128-128s-128 57.308-128 128c0 70.693 57.308 128 128 128 23.060 0 44.696-6.098 63.383-16.769l39.017 35.766v59.454c-30.847 15.33-65.617 23.949-102.4 23.949-127.246 0-230.4-103.154-230.4-230.4s103.154-230.4 230.4-230.4c127.246 0 230.4 103.154 230.4 230.4 0 27.338-4.761 53.565-13.5 77.895h-76.292zM555.3 540.822c-13.152 6.146-27.825 9.578-43.3 9.578-56.554 0-102.4-45.846-102.4-102.4s45.846-102.4 102.4-102.4c56.554 0 102.4 45.846 102.4 102.4 0 12.923-2.394 25.286-6.762 36.672l-57.848-53.027c-16.102-13.802-40.344-11.937-54.146 4.165s-11.937 40.344 4.165 54.146l55.49 50.866zM768 735.797v57.803l-128.001-128v-47.137l128 117.334zM819.636 679.004l-139.517-127.891 75.081-0.713 128 128-63.564 0.604zM692.867 757.482c-53.091 31.094-114.897 48.918-180.867 48.918-197.939 0-358.4-160.461-358.4-358.4s160.461-358.4 358.4-358.4c197.939 0 358.4 160.461 358.4 358.4 0 52.768-11.404 102.872-31.881 147.983l-70.519-70.088h-12.066c7.837-24.562 12.066-50.734 12.066-77.895 0-141.385-114.615-256-256-256s-256 114.615-256 256c0 141.385 114.615 256 256 256 37.274 0 72.687-7.966 104.63-22.289l76.237 75.771zM840.329 732.682c5.367 4.601 5.989 12.681 1.388 18.049s-12.681 5.989-18.049 1.388l-307.2-281.6c-5.367-4.601-5.989-12.681-1.388-18.049s12.681-5.989 18.049-1.388l307.2 281.6z" />
<glyph unicode="&#xe93f;" glyph-name="template" d="M102.4 806.355c0 28.302 22.765 51.245 51.245 51.245h716.711c28.302 0 51.245-22.765 51.245-51.245v-716.711c0-28.302-22.765-51.245-51.245-51.245h-716.711c-28.302 0-51.245 22.765-51.245 51.245v716.711zM435.2 601.6v-512h422.645c7.053 0 12.555 5.666 12.555 12.656v499.344h-435.2zM153.6 601.6v-499.344c0-6.906 5.841-12.656 13.047-12.656h242.953v512h-256zM153.6 793.512v-166.312h716.8v166.312c0 6.925-5.844 12.888-13.053 12.888h-690.693c-7.283 0-13.053-5.77-13.053-12.888z" />
<glyph unicode="&#xe940;" glyph-name="thumbs-up" d="M384 89.656c172.258-0.025 388.286-0.056 409.6-0.056 25.6 0 42.074 16.164 46.163 39.016 3.8 21.238-10.236 37.784-46.163 37.784s-32.881 51.2 0 51.2c60.556 0 70.008 18.778 72.542 41.267 2.188 19.418-14.123 35.533-46.942 35.533s-40.088 51.2 0 51.2c40.088 0 51.714 16.844 52.833 38.96 1.047 20.694-13.493 36.374-40.033 36.374-38.4 0-38.4 51.136-0.048 51.2 26.703 0.044 42.115 16.669 41.328 38.264-0.832 22.836-19.462 40.002-54.080 40.002h-230.4c-17.468 0-29.806 17.108-24.291 33.683 0.927 2.785 45.516 129.142 27.376 177.445-7.217 19.217-22.454 34.684-36.592 40.38-10.217 4.117-15.647 2.392-20.471-7.103-9.266-18.238-127.518-229.606-128.56-231.442-4.548-8.012-13.050-12.963-22.263-12.963v-460.744zM358.4 89.66v460.74h-191.657c-7.203 0-13.019-5.825-12.991-12.803l1.727-435.105c0.028-7.071 5.738-12.804 12.799-12.805 0 0 83.796-0.012 190.122-0.028zM887.432 123.491c-8.18-45.716-48.062-85.091-93.832-85.091-35.939 0-640.149 0.086-640.149 0.086-28.195 0.004-51.051 22.779-51.051 50.972v461.176c0 28.147 22.737 50.965 51.419 50.965h215.264c4.097 7.235 111.261 199.010 120.094 216.395 17.397 34.244 51.398 45.044 85.253 31.403 27.579-11.113 49.786-38.308 64.922-68.676 23.042-46.228-13.914-171.243-16.119-179.122 3.776 0 195.967 0 195.967 0 61.67 0 103.391-38.444 105.246-89.338 0.937-25.714-8.636-49.052-25.759-65.699 16.653-16.398 25.759-39.306 24.48-64.589-1.262-24.955-12.271-46.882-30.494-62.553 17.988-16.757 27.287-40.204 24.347-66.288-3.119-27.677-19.134-51.010-44.257-66.479 13.698-16.49 19.088-38.464 14.669-63.163zM256 140.8c-28.277 0-51.2 22.923-51.2 51.2s22.923 51.2 51.2 51.2c28.277 0 51.2-22.923 51.2-51.2s-22.923-51.2-51.2-51.2zM256 166.4c14.138 0 25.6 11.462 25.6 25.6s-11.462 25.6-25.6 25.6c-14.138 0-25.6-11.462-25.6-25.6s11.462-25.6 25.6-25.6z" />
<glyph unicode="&#xe941;" glyph-name="trash" d="M204.8 652.8h-51.2v25.6c0 14.138 11.598 25.6 25.524 25.6h179.276v128.236c0 14.008 11.667 25.364 25.663 25.364h255.873c14.173 0 25.663-11.545 25.663-25.364v-128.236h179.276c14.096 0 25.524-11.363 25.524-25.6v-25.6h-51.2v-563.073c0-28.347-22.964-51.327-51.327-51.327h-511.747c-28.347 0-51.327 22.964-51.327 51.327v563.073zM409.6 806.4v-102.4h204.8v102.4h-204.8zM256 652.8v-550.379c0-7.247 5.666-12.821 12.656-12.821h486.687c6.906 0 12.656 5.74 12.656 12.821v550.379h-512zM640 537.644c0 7.045 5.938 12.756 12.8 12.756 7.069 0 12.8-5.63 12.8-12.756v-332.889c0-7.045-5.938-12.756-12.8-12.756-7.069 0-12.8 5.63-12.8 12.756v332.889zM499.2 537.644c0 7.045 5.938 12.756 12.8 12.756 7.069 0 12.8-5.63 12.8-12.756v-332.889c0-7.045-5.938-12.756-12.8-12.756-7.069 0-12.8 5.63-12.8 12.756v332.889zM358.4 537.644c0 7.045 5.938 12.756 12.8 12.756 7.069 0 12.8-5.63 12.8-12.756v-332.889c0-7.045-5.938-12.756-12.8-12.756-7.069 0-12.8 5.63-12.8 12.756v332.889z" />
<glyph unicode="&#xe942;" glyph-name="versions" d="M179.2 268.8v-25.836c0-28.147 22.726-50.964 51.2-50.964h25.6v-25.836c0-28.147 22.911-50.964 51.123-50.964h563.353c28.235 0 51.123 22.994 51.123 50.964v410.071c0 28.147-22.911 50.964-51.123 50.964h-25.677v25.6c0 28.277-22.911 51.2-51.123 51.2h-25.677v25.6c0 28.277-22.911 51.2-51.123 51.2h-563.353c-28.235 0-51.123-22.994-51.123-50.964v-410.071c0-28.147 22.726-50.964 51.2-50.964h25.6zM179.2 294.4h-25.627c-14.124 0-25.573 11.391-25.573 25.431v409.938c0 14.045 11.455 25.431 25.618 25.431h563.164c14.148 0 25.618-11.332 25.618-25.573v-25.627h-512.077c-28.235 0-51.123-22.994-51.123-50.964v-358.636zM204.8 268.8v384.169c0 14.045 11.455 25.431 25.618 25.431h563.164c14.148 0 25.618-11.332 25.618-25.573v-25.627h-512.077c-28.235 0-51.123-22.994-51.123-50.964v-358.636h-25.627c-14.124 0-25.573 11.391-25.573 25.431v25.769zM320.021 576h537.557c7.247 0 12.821-5.689 12.821-12.708v-384.185c0-6.917-5.74-12.708-12.821-12.708h-537.557c-7.247 0-12.821 5.689-12.821 12.708v384.185c0 6.917 5.74 12.708 12.821 12.708z" />
<glyph unicode="&#xe943;" glyph-name="video" d="M257.28 217.6c5.93 29.213 31.757 51.2 62.72 51.2s56.79-21.987 62.72-51.2h423.648c7.087 0 12.833-5.938 12.833-12.8 0-7.069-5.69-12.8-12.833-12.8h-423.648c-5.93-29.213-31.757-51.2-62.72-51.2s-56.79 21.987-62.72 51.2h-39.648c-7.087 0-12.833 5.938-12.833 12.8 0 7.069 5.69 12.8 12.833 12.8h39.648zM102.4 806.355c0 28.302 22.765 51.245 51.245 51.245h716.711c28.302 0 51.245-22.765 51.245-51.245v-716.711c0-28.302-22.765-51.245-51.245-51.245h-716.711c-28.302 0-51.245 22.765-51.245 51.245v716.711zM153.6 793.347v-690.693c0-7.283 5.844-13.053 13.053-13.053h690.693c7.283 0 13.053 5.844 13.053 13.053v690.693c0 7.283-5.844 13.053-13.053 13.053h-690.693c-7.283 0-13.053-5.844-13.053-13.053zM320 166.4c21.208 0 38.4 17.192 38.4 38.4s-17.192 38.4-38.4 38.4c-21.208 0-38.4-17.192-38.4-38.4s17.192-38.4 38.4-38.4zM431.87 368.629c-12.3-6.871-22.27-1.175-22.27 13.363v245.016c0 14.251 9.723 19.97 21.826 12.708l212.347-127.419c12.054-7.233 11.791-18.703-0.444-25.538l-211.459-118.13z" />
<glyph unicode="&#xe944;" glyph-name="wallet" d="M896 517.95c15.304-8.853 25.6-25.399 25.6-44.35v-102.4c0-18.951-10.296-35.498-25.6-44.35v-134.85c0-56.554-45.846-102.4-102.4-102.4h-588.8c-56.554 0-102.4 45.846-102.4 102.4v512c0 56.554 45.846 102.4 102.4 102.4v0h512c28.277 0 51.2-22.923 51.2-51.2v-25.6h25.6c56.554 0 102.4-45.846 102.4-102.4v-109.25zM844.8 524.8v102.4c0 28.277-22.923 51.2-51.2 51.2v0h-576c-7.069 0-12.8 5.731-12.8 12.8s5.731 12.8 12.8 12.8h499.2v51.2h-512c-28.277 0-51.2-22.923-51.2-51.2v0-512c0-28.277 22.923-51.2 51.2-51.2v0h588.8c28.277 0 51.2 22.923 51.2 51.2v0 128h-179.2c-56.554 0-102.4 45.846-102.4 102.4v0 0c0 56.554 45.846 102.4 102.4 102.4v0h179.2zM665.6 499.2c-42.415 0-76.8-34.385-76.8-76.8v0 0c0-42.415 34.385-76.8 76.8-76.8h204.8c14.138 0 25.6 11.462 25.6 25.6v102.4c0 14.138-11.462 25.6-25.6 25.6h-204.8zM665.6 371.2c-28.277 0-51.2 22.923-51.2 51.2s22.923 51.2 51.2 51.2c28.277 0 51.2-22.923 51.2-51.2s-22.923-51.2-51.2-51.2zM665.6 396.8c14.138 0 25.6 11.462 25.6 25.6s-11.462 25.6-25.6 25.6c-14.138 0-25.6-11.462-25.6-25.6s11.462-25.6 25.6-25.6z" />
<glyph unicode="&#xe945;" glyph-name="webinar" d="M921.6 140.8v-51.2c0-28.277-22.765-51.2-51.245-51.2h-716.711c-28.302 0-51.245 22.726-51.245 51.2v51.2h819.2zM819.2 448h51.2v-256h-716.8v461.036c0 27.97 22.899 50.964 51.147 50.964h102.453v-51.2h-102.4v-409.6h614.4v204.8zM870.4 857.6c28.277 0 51.2-22.923 51.2-51.2v-256c0-28.277-22.923-51.2-51.2-51.2h-204.8l-153.6-102.4v102.4h-102.4c-28.277 0-51.2 22.923-51.2 51.2v256c0 28.277 22.923 51.2 51.2 51.2h460.8zM870.61 832h-461.22c-13.734 0-25.39-11.49-25.39-25.663v-255.873c0-13.996 11.356-25.663 25.364-25.663h128.236v-76.8l115.2 76.8h217.633c14.163 0 25.567 11.49 25.567 25.663v255.873c0 13.996-11.368 25.663-25.39 25.663zM742.4 652.8c-14.138 0-25.6 11.462-25.6 25.6s11.462 25.6 25.6 25.6c14.138 0 25.6-11.462 25.6-25.6s-11.462-25.6-25.6-25.6zM640 652.8c-14.138 0-25.6 11.462-25.6 25.6s11.462 25.6 25.6 25.6c14.138 0 25.6-11.462 25.6-25.6s-11.462-25.6-25.6-25.6zM537.6 652.8c-14.138 0-25.6 11.462-25.6 25.6s11.462 25.6 25.6 25.6c14.138 0 25.6-11.462 25.6-25.6s-11.462-25.6-25.6-25.6z" />
<glyph unicode="&#xe946;" glyph-name="widget" d="M460.8 371.408c0 28.162 22.851 50.992 51.074 50.992h358.651c28.208 0 51.074-22.871 51.074-50.992v-282.016c0-28.162-22.851-50.992-51.074-50.992h-358.651c-28.208 0-51.074 22.871-51.074 50.992v282.016zM512 358.368v-255.937c0-6.95 5.711-12.832 12.756-12.832h332.889c7.126 0 12.756 5.745 12.756 12.832v255.937c0 6.95-5.711 12.832-12.756 12.832h-332.889c-7.126 0-12.756-5.745-12.756-12.832zM102.4 371.408c0 28.162 23.090 50.992 51.418 50.992h204.363c28.398 0 51.418-22.871 51.418-50.992v-282.016c0-28.162-23.090-50.992-51.418-50.992h-204.363c-28.398 0-51.418 22.871-51.418 50.992v282.016zM153.6 358.368v-255.937c0-6.95 5.736-12.832 12.811-12.832h179.178c6.903 0 12.811 5.745 12.811 12.832v255.937c0 6.95-5.736 12.832-12.811 12.832h-179.178c-6.903 0-12.811-5.745-12.811-12.832zM640 806.608c0 28.162 23.045 50.992 50.996 50.992h179.609c28.164 0 50.996-22.871 50.996-50.992v-282.016c0-28.162-23.045-50.992-50.996-50.992h-179.609c-28.164 0-50.996 22.871-50.996 50.992v282.016zM691.2 793.568v-255.937c0-6.95 5.77-12.832 12.888-12.832h153.425c6.925 0 12.888 5.745 12.888 12.832v255.937c0 6.95-5.77 12.832-12.888 12.832h-153.425c-6.925 0-12.888-5.745-12.888-12.832zM102.4 806.608c0 28.162 22.808 50.992 51.134 50.992h384.132c28.241 0 51.134-22.871 51.134-50.992v-282.016c0-28.162-22.808-50.992-51.134-50.992h-384.132c-28.241 0-51.134 22.871-51.134 50.992v282.016zM153.6 793.568v-255.937c0-6.95 5.72-12.832 12.776-12.832h358.447c7.050 0 12.776 5.745 12.776 12.832v255.937c0 6.95-5.72 12.832-12.776 12.832h-358.447c-7.050 0-12.776-5.745-12.776-12.832z" />
<glyph unicode="&#xe947;" glyph-name="woman-sign" d="M537.6 295.548v-103.548h76.8c14.138 0 25.6-11.462 25.6-25.6s-11.462-25.6-25.6-25.6h-76.8v-76.8c0-14.138-11.462-25.6-25.6-25.6s-25.6 11.462-25.6 25.6v76.8h-76.8c-14.138 0-25.6 11.462-25.6 25.6s11.462 25.6 25.6 25.6h76.8v103.548c-143.526 12.934-256 133.558-256 280.452 0 155.523 126.077 281.6 281.6 281.6s281.6-126.077 281.6-281.6c0-146.894-112.474-267.518-256-280.452zM512 345.6c127.246 0 230.4 103.154 230.4 230.4s-103.154 230.4-230.4 230.4c-127.246 0-230.4-103.154-230.4-230.4s103.154-230.4 230.4-230.4z" />
<glyph unicode="&#xe948;" glyph-name="bell" d="M461.048 801.327c-0.164 1.669-0.248 3.361-0.248 5.073 0 28.277 22.923 51.2 51.2 51.2s51.2-22.923 51.2-51.2c0-1.712-0.084-3.404-0.248-5.073 116.974-23.636 205.048-127.061 205.048-251.131v-230.196c0 0 0-76.8 51.2-76.8h-83.846c-3.738 6.921-6.911 14.363-9.526 22.209-6.88 20.64-9.027 39.967-9.027 54.591v230.196c0 113.253-91.687 205.004-204.8 205.004-113.118 0-204.8-91.763-204.8-205.004v-230.196c0-14.624-2.148-33.951-9.027-54.591-2.615-7.846-5.788-15.288-9.526-22.209h-83.846c51.2 0 51.2 76.8 51.2 76.8v230.196c0 124.040 88.054 227.492 205.048 251.131zM409.6 140.8h-205.024c-28.153 0-50.976 22.726-50.976 51.2 0 28.277 23.037 51.2 50.976 51.2h614.848c28.153 0 50.976-22.726 50.976-51.2 0-28.277-23.037-51.2-50.976-51.2h-205.024c0-56.554-45.846-102.4-102.4-102.4s-102.4 45.846-102.4 102.4zM179.2 192c0-14.237 11.499-25.6 25.684-25.6h614.231c14.132 0 25.684 11.462 25.684 25.6 0 14.237-11.499 25.6-25.684 25.6h-614.231c-14.132 0-25.684-11.462-25.684-25.6z" />
<glyph unicode="&#xe949;" glyph-name="book" d="M102.4 831.974c0 18.377 18.79 30.767 35.683 23.529l373.917-123.366 373.914 123.365c16.893 7.241 35.686-5.15 35.686-23.528v-639.981c0-10.24-6.103-19.495-15.516-23.529l-384-127.995c-6.44-2.76-13.729-2.76-20.169 0l-384 127.995c-9.413 4.034-15.516 13.288-15.516 23.529v639.981zM153.6 793.6v-584.96l332.8-106.24v583.68l-332.8 107.52zM537.6 686.080v-583.68l332.8 106.24v584.96l-332.8-107.52z" />
<glyph unicode="&#xe94a;" glyph-name="clipboard" d="M204.8 755.2h-12.712c-6.925 0-12.888-5.687-12.888-12.702v-640.196c0-6.948 5.687-12.702 12.702-12.702h640.196c6.948 0 12.702 5.687 12.702 12.702v640.196c0 6.948-5.77 12.702-12.888 12.702h-12.712v-640h-614.4v640zM230.4 755.2v-614.4h563.2v614.4h-128v-51.227c0-14.241-11.49-25.573-25.663-25.573h-255.873c-13.996 0-25.663 11.45-25.663 25.573v51.227h-128zM460.8 806.4c0 28.277 22.923 51.2 51.2 51.2s51.2-22.923 51.2-51.2h281.815c28.158 0 50.985-22.985 50.985-50.985v-666.029c0-28.158-22.985-50.985-50.985-50.985h-666.029c-28.158 0-50.985 22.985-50.985 50.985v666.029c0 28.158 22.985 50.985 50.985 50.985h281.815zM512 780.8c14.138 0 25.6 11.462 25.6 25.6s-11.462 25.6-25.6 25.6c-14.138 0-25.6-11.462-25.6-25.6s11.462-25.6 25.6-25.6zM384 755.2v-51.2h256v51.2h-256zM307.2 230.494c0 7.069 5.79 12.8 12.708 12.8h384.185c7.018 0 12.708-5.938 12.708-12.8 0-7.069-5.79-12.8-12.708-12.8h-384.185c-7.018 0-12.708 5.938-12.708 12.8zM307.2 332.894c0 7.069 5.79 12.8 12.708 12.8h384.185c7.018 0 12.708-5.938 12.708-12.8 0-7.069-5.79-12.8-12.708-12.8h-384.185c-7.018 0-12.708 5.938-12.708 12.8zM307.2 435.294c0 7.069 5.79 12.8 12.708 12.8h384.185c7.018 0 12.708-5.938 12.708-12.8 0-7.069-5.79-12.8-12.708-12.8h-384.185c-7.018 0-12.708 5.938-12.708 12.8zM307.2 537.694c0 7.069 5.79 12.8 12.708 12.8h384.185c7.018 0 12.708-5.938 12.708-12.8 0-7.069-5.79-12.8-12.708-12.8h-384.185c-7.018 0-12.708 5.938-12.708 12.8z" />
<glyph unicode="&#xe94b;" glyph-name="check-box" d="M102.4 806.355c0 28.302 22.765 51.245 51.245 51.245h716.711c28.302 0 51.245-22.765 51.245-51.245v-716.711c0-28.302-22.765-51.245-51.245-51.245h-716.711c-28.302 0-51.245 22.765-51.245 51.245v716.711zM844.889 806.4h-665.777c-14.252 0-25.511-11.422-25.511-25.511v-665.777c0-14.252 11.422-25.511 25.511-25.511h665.777c14.252 0 25.511 11.422 25.511 25.511v665.777c0 14.252-11.422 25.511-25.511 25.511zM264.954 431.354l7.693 7.693c4.954 4.954 13.049 4.858 18.102-0.195l126.229-126.228c9.965-9.965 26.62-10.526 36.977-1.032l278.915 255.672c5.188 4.756 13.539 4.728 18.484-0.217l7.693-7.693c4.954-4.954 4.813-12.776-0.295-17.491l-286.022-264.021c-20.568-18.986-53.765-18.407-73.793 1.621l-133.803 133.803c-5.053 5.053-5.124 13.142-0.179 18.087z" />
<glyph unicode="&#xe94c;" glyph-name="delivery" d="M204.8 192h-51.155c-28.302 0-51.245 22.776-51.245 50.974v461.253c0 28.152 22.994 50.974 50.964 50.974h410.071c28.147 0 50.964-22.884 50.964-51.325v-76.675h141.030c6.942 0 16.066-4.371 20.612-10.052l137.516-171.895c4.441-5.552 8.042-15.589 8.042-22.785v-179.484c0-28.157-22.765-50.983-51.245-50.983h-51.155c0-56.554-45.846-102.4-102.4-102.4s-102.4 45.846-102.4 102.4h-204.8c0-56.554-45.846-102.4-102.4-102.4s-102.4 45.846-102.4 102.4zM395.901 243.2h154.592c6.917 0 12.708 5.733 12.708 12.805v435.189c0 6.979-5.689 12.805-12.708 12.805h-384.185c-6.917 0-12.708-5.733-12.708-12.805v-435.189c0-6.979 5.689-12.805 12.708-12.805h52.192c17.705 30.607 50.798 51.2 88.701 51.2s70.995-20.593 88.701-51.2zM805.501 243.2h64.899v153.6h-256v-153.6h13.699c17.705 30.607 50.798 51.2 88.701 51.2s70.995-20.593 88.701-51.2zM614.4 576v-153.6h256l-128 153.6h-128zM716.8 115.2c42.415 0 76.8 34.385 76.8 76.8s-34.385 76.8-76.8 76.8c-42.415 0-76.8-34.385-76.8-76.8s34.385-76.8 76.8-76.8zM716.8 166.4c-14.138 0-25.6 11.462-25.6 25.6s11.462 25.6 25.6 25.6c14.138 0 25.6-11.462 25.6-25.6s-11.462-25.6-25.6-25.6zM307.2 115.2c42.415 0 76.8 34.385 76.8 76.8s-34.385 76.8-76.8 76.8c-42.415 0-76.8-34.385-76.8-76.8s34.385-76.8 76.8-76.8zM307.2 166.4c-14.138 0-25.6 11.462-25.6 25.6s11.462 25.6 25.6 25.6c14.138 0 25.6-11.462 25.6-25.6s-11.462-25.6-25.6-25.6z" />
<glyph unicode="&#xe94d;" glyph-name="diagram" d="M242.435 489.347l95.797 83.823c-3.505 8.793-5.433 18.386-5.433 28.43 0 42.415 34.377 76.8 76.782 76.8s76.782-34.385 76.782-76.8c0-3.207-0.197-6.368-0.578-9.472l75.295-37.647c13.809 13.324 32.598 21.519 53.301 21.519 7.613 0 14.968-1.108 21.911-3.172l119.609 164.462c-8.516 12.368-13.502 27.357-13.502 43.51 0 42.415 34.377 76.8 76.782 76.8s76.782-34.385 76.782-76.8c0-42.415-34.377-76.8-76.782-76.8-7.603 0-14.947 1.105-21.882 3.164l-119.621-164.479c8.506-12.363 13.485-27.343 13.485-43.485 0-42.415-34.377-76.8-76.782-76.8s-76.782 34.385-76.782 76.8c0 3.213 0.197 6.379 0.58 9.488l-75.285 37.642c-13.811-13.331-32.604-21.531-53.313-21.531-13.673 0-26.511 3.575-37.632 9.841l-95.81-83.833c3.499-8.787 5.424-18.372 5.424-28.407 0-42.415-34.377-76.8-76.782-76.8s-76.782 34.385-76.782 76.8c0 42.415 34.377 76.8 76.782 76.8 13.682 0 26.528-3.579 37.653-9.853zM793.6 575.937c0 14.173 11.363 25.663 25.6 25.663 14.138 0 25.6-11.25 25.6-25.663v-511.874c0-14.173-11.363-25.663-25.6-25.663-14.138 0-25.6 11.25-25.6 25.663v511.874zM588.8 294.513c0 14.076 11.363 25.487 25.6 25.487 14.138 0 25.6-11.388 25.6-25.487v-230.626c0-14.076-11.363-25.487-25.6-25.487-14.138 0-25.6 11.388-25.6 25.487v230.626zM384 396.608c0 14.244 11.363 25.792 25.6 25.792 14.138 0 25.6-11.492 25.6-25.792v-332.417c0-14.244-11.363-25.792-25.6-25.792-14.138 0-25.6 11.492-25.6 25.792v332.417zM179.2 217.676c0 14.096 11.363 25.524 25.6 25.524 14.138 0 25.6-11.598 25.6-25.524v-153.752c0-14.096-11.363-25.524-25.6-25.524-14.138 0-25.6 11.598-25.6 25.524v153.752zM819.2 755.188c14.138 0 25.6 11.464 25.6 25.606s-11.462 25.606-25.6 25.606c-14.138 0-25.6-11.464-25.6-25.606s11.462-25.606 25.6-25.606zM614.4 473.588c14.138 0 25.6 11.464 25.6 25.606s-11.462 25.606-25.6 25.606c-14.138 0-25.6-11.464-25.6-25.606s11.462-25.606 25.6-25.606zM409.6 575.988c14.138 0 25.6 11.464 25.6 25.606s-11.462 25.606-25.6 25.606c-14.138 0-25.6-11.464-25.6-25.606s11.462-25.606 25.6-25.606zM204.8 396.788c14.138 0 25.6 11.464 25.6 25.606s-11.462 25.606-25.6 25.606c-14.138 0-25.6-11.464-25.6-25.606s11.462-25.606 25.6-25.606z" />
<glyph unicode="&#xe94e;" glyph-name="filters" d="M208.026 780.8c11.368 44.166 51.46 76.8 99.174 76.8s87.806-32.634 99.174-76.8h489.811c14.036 0 25.415-11.363 25.415-25.6 0-14.138-11.58-25.6-25.415-25.6h-489.811c-11.368-44.166-51.46-76.8-99.174-76.8s-87.806 32.634-99.174 76.8h-80.211c-14.036 0-25.415 11.363-25.415 25.6 0 14.138 11.58 25.6 25.415 25.6h80.211zM617.626 473.6c11.368 44.166 51.46 76.8 99.174 76.8s87.806-32.634 99.174-76.8h80.211c14.036 0 25.415-11.363 25.415-25.6 0-14.138-11.58-25.6-25.415-25.6h-80.211c-11.368-44.166-51.46-76.8-99.174-76.8s-87.806 32.634-99.174 76.8h-489.811c-14.036 0-25.415 11.363-25.415 25.6 0 14.138 11.58 25.6 25.415 25.6h489.811zM412.826 166.4c11.368 44.166 51.46 76.8 99.174 76.8s87.806-32.634 99.174-76.8h285.011c14.036 0 25.415-11.363 25.415-25.6 0-14.138-11.58-25.6-25.415-25.6h-285.011c-11.368-44.166-51.46-76.8-99.174-76.8s-87.806 32.634-99.174 76.8h-285.011c-14.036 0-25.415 11.363-25.415 25.6 0 14.138 11.58 25.6 25.415 25.6h285.011zM512 64c42.415 0 76.8 34.385 76.8 76.8s-34.385 76.8-76.8 76.8c-42.415 0-76.8-34.385-76.8-76.8s34.385-76.8 76.8-76.8zM716.8 371.2c42.415 0 76.8 34.385 76.8 76.8s-34.385 76.8-76.8 76.8c-42.415 0-76.8-34.385-76.8-76.8s34.385-76.8 76.8-76.8zM307.2 678.4c42.415 0 76.8 34.385 76.8 76.8s-34.385 76.8-76.8 76.8c-42.415 0-76.8-34.385-76.8-76.8s34.385-76.8 76.8-76.8z" />
<glyph unicode="&#xe94f;" glyph-name="noun_export_1466008" d="M230.4 38.4c-14.138 0-25.6 11.462-25.6 25.6v512c0 14.138 11.462 25.6 25.6 25.6h179.2c14.138 0 25.6-11.462 25.6-25.6s-11.462-25.6-25.6-25.6h-153.6v-460.8h512v460.8h-153.6c-14.138 0-25.6 11.462-25.6 25.6s11.462 25.6 25.6 25.6h179.2c14.138 0 25.6-11.462 25.6-25.6v-512c0-14.138-11.462-25.6-25.6-25.6h-563.2zM537.6 763.695v-494.832c0-14.173-11.363-25.663-25.6-25.663-14.138 0-25.6 11.25-25.6 25.663v494.832l-70.572-78.362c-9.458-10.502-25.645-11.354-36.154-1.902s-11.361 25.628-1.903 36.13l117.228 130.169c9.399 10.436 24.611 10.425 34 0l117.228-130.169c9.458-10.502 8.606-26.678-1.903-36.13s-26.696-8.601-36.154 1.902l-70.572 78.362z" />
<glyph unicode="&#xe950;" glyph-name="funnel" d="M143.734 780.8h-2.921c-21.215 0-38.413 17.044-38.413 38.4 0 21.208 17.11 38.4 38.413 38.4h742.374c21.215 0 38.413-17.044 38.413-38.4 0-21.208-17.11-38.4-38.413-38.4h-2.899c-1.722-3.559-4.013-7.090-6.909-10.512l-258.979-306.066v-390.551c0-28.218-20.386-40.901-45.961-28.113l-136.139 68.070c-12.537 6.268-22.7 22.637-22.7 36.848v313.746l-258.979 306.066c-2.892 3.417-5.176 6.949-6.888 10.512zM447.073 499.2h129.853l238.277 281.6h-606.407l238.277-281.6zM563.2 473.6h-102.4v-304.185c0-7.066 4.939-15.263 11.35-18.468l79.7-39.85c6.268-3.134 11.35 0.256 11.35 6.887v355.616zM128 819.2c0-7.149 5.668-12.8 12.813-12.8h742.374c7.127 0 12.813 5.693 12.813 12.8 0 7.149-5.668 12.8-12.813 12.8h-742.374c-7.127 0-12.813-5.693-12.813-12.8z" />
<glyph unicode="&#xe951;" glyph-name="gallery" d="M307.2 652.8v153.473c0 28.347 22.964 51.327 51.327 51.327h511.747c28.347 0 51.327-22.964 51.327-51.327v-511.747c0-28.347-22.964-51.327-51.327-51.327h-153.473v-153.473c0-28.347-22.964-51.327-51.327-51.327h-511.747c-28.347 0-51.327 22.964-51.327 51.327v511.747c0 28.347 22.964 51.327 51.327 51.327h153.473zM307.2 601.6h-140.944c-6.906 0-12.656-5.666-12.656-12.656v-486.687c0-6.906 5.666-12.656 12.656-12.656h486.687c6.906 0 12.656 5.666 12.656 12.656v140.944h-307.073c-28.347 0-51.327 22.964-51.327 51.327v307.073zM358.4 793.744v-486.687c0-6.906 5.666-12.656 12.656-12.656h486.687c6.906 0 12.656 5.666 12.656 12.656v486.687c0 6.906-5.666 12.656-12.656 12.656h-486.687c-6.906 0-12.656-5.666-12.656-12.656z" />
<glyph unicode="&#xe952;" glyph-name="import" d="M537.6 335.38l70.572 78.413c9.458 10.509 25.645 11.361 36.154 1.903s11.361-25.645 1.903-36.154l-117.228-130.254c-9.399-10.443-24.611-10.432-34 0l-117.228 130.254c-9.458 10.509-8.606 26.696 1.903 36.154s26.696 8.606 36.154-1.903l70.572-78.413v496.541c0 14.182 11.363 25.679 25.6 25.679 14.138 0 25.6-11.236 25.6-25.679v-496.541zM102.4 64.022v358.355c0 14.24 11.462 25.622 25.6 25.622 14.237 0 25.6-11.54 25.6-25.775v-332.625h716.8v332.625c0 14.257 11.462 25.775 25.6 25.775 14.237 0 25.6-11.472 25.6-25.622v-358.355c0-14.24-11.379-25.622-25.415-25.622h-768.369c-13.835 0-25.415 11.472-25.415 25.622z" />
<glyph unicode="&#xe953;" glyph-name="image" d="M870.445 363.657v429.688c0 7.284-5.844 13.055-13.053 13.055h-690.693c-7.283 0-13.053-5.845-13.053-13.055v-532.019l153.555 153.576 153.601-153.601 256 256 153.645-153.645zM870.445 327.453l-153.645 153.645-256-256-153.599 153.599-153.556-153.577v-122.543c0-7.284 5.844-13.055 13.053-13.055h690.693c7.283 0 13.053 5.845 13.053 13.055v224.877zM102.445 806.355c0 28.302 22.763 51.245 51.239 51.245h716.633c28.299 0 51.239-22.765 51.239-51.245v-716.711c0-28.302-22.763-51.245-51.239-51.245h-716.633c-28.299 0-51.239 22.765-51.239 51.245v716.711zM332.8 524.8c-56.554 0-102.4 45.846-102.4 102.4s45.846 102.4 102.4 102.4c56.554 0 102.4-45.846 102.4-102.4s-45.846-102.4-102.4-102.4zM332.8 550.4c42.415 0 76.8 34.385 76.8 76.8s-34.385 76.8-76.8 76.8c-42.415 0-76.8-34.385-76.8-76.8s34.385-76.8 76.8-76.8z" />
<glyph unicode="&#xe954;" glyph-name="lock" d="M742.4 499.2h51.277c28.235 0 51.123-22.851 51.123-51.074v-358.651c0-28.208-22.911-51.074-51.123-51.074h-563.353c-28.235 0-51.123 22.851-51.123 51.074v358.651c0 28.208 22.911 51.074 51.123 51.074h51.277v128c0 127.246 103.126 230.4 230.4 230.4 127.246 0 230.4-103.126 230.4-230.4v-128zM691.2 499.2v128c0 98.768-80.231 179.2-179.2 179.2-98.768 0-179.2-80.231-179.2-179.2v-128h358.4zM230.4 435.244v-332.889c0-7.126 5.74-12.756 12.821-12.756h537.557c7.247 0 12.821 5.711 12.821 12.756v332.889c0 7.126-5.74 12.756-12.821 12.756h-537.557c-7.247 0-12.821-5.711-12.821-12.756zM230.4 166.4h563.2v-25.6h-563.2v25.6zM230.4 243.2h563.2v-25.6h-563.2v25.6zM230.4 320h563.2v-25.6h-563.2v25.6zM230.4 396.8h563.2v-25.6h-563.2v25.6z" />
<glyph unicode="&#xe955;" glyph-name="new-file" d="M153.6 806.355c0 28.302 22.851 51.245 51.074 51.245h409.726l256-256v-512.226c0-28.152-23.037-50.974-50.976-50.974h-614.848c-28.153 0-50.976 22.765-50.976 51.245v716.711zM204.8 806.4v-716.8h614.4v486.4h-179.267c-28.199 0-51.133 22.893-51.133 51.133v179.267h-384zM614.4 806.537v-179.276c0-13.926 11.427-25.524 25.524-25.524h179.276l-204.8 204.8z" />
<glyph unicode="&#xe956;" glyph-name="magnet" d="M428.345 539.153l-81.192 81.192-111.817-111.817c-89.988-89.988-91.976-234.609 5.304-331.889s241.882-95.31 331.889-5.304l111.817 111.817-81.192 81.192-103.054-103.054c-47.95-47.95-130.988-49.971-177.855-3.045s-44.944 129.861 3.048 177.853l103.054 103.054zM446.447 557.255l69.945 69.945-81.192 81.192-69.945-69.945 81.192-81.192zM621.255 382.447l81.192-81.192 69.945 69.945-81.192 81.192-69.945-69.945zM463.895 297.495l209.261 209.261c9.92 9.92 26.202 9.885 36.267-0.179l117.154-117.154c9.965-9.965 10.099-26.347 0.077-36.369l-217.922-217.922c-110.013-110.013-285.549-112.882-404.024 5.76s-115.553 293.862-5.576 403.84l217.922 217.922c10.221 10.221 26.305 9.987 36.369-0.077l117.154-117.154c9.965-9.965 10.145-26.302 0.179-36.267l-209.261-209.261c-28.008-28.008-31.255-77.335-3.095-105.495s77.539-24.861 105.495 3.095zM588.8 780.8c132.608 0 256-123.392 256-256-0.531-19.3-25.6-19.234-25.6 0 0 118.528-111.872 230.4-230.4 230.4-19.122 0-19.296 25.6 0 25.6zM588.8 857.6c183.808 0 332.8-148.992 332.8-332.8 0-19.19-25.6-19.229-25.6 0 0 169.728-137.472 307.2-307.2 307.2-19.2 0-19.2 25.6 0 25.6z" />
<glyph unicode="&#xe957;" glyph-name="newspaper" d="M921.6 806.355v-665.446c0-56.71-45.895-102.509-102.509-102.509h-614.182c-56.71 0-102.509 45.732-102.509 102.145v486.637c0 14.163 11.569 25.618 25.84 25.618h76.56v153.649c0 28.452 22.823 51.151 50.976 51.151h614.848c27.938 0 50.976-22.943 50.976-51.245zM870.4 793.347c0 7.209-5.69 13.053-12.833 13.053h-588.735c-7.087 0-12.833-5.754-12.833-12.702v-627.214c0-14.185-11.363-25.684-25.6-25.684-14.138 0-25.6 11.391-25.6 25.431v435.369h-51.2v-461.036c0-28.147 23.037-50.964 50.976-50.964h614.848c28.153 0 50.976 23.037 50.976 50.976v652.771zM307.2 192h512v-25.6h-512v25.6zM307.2 268.8h512v-25.6h-512v25.6zM307.2 345.6h512v-25.6h-512v25.6zM307.2 422.4h512v-25.6h-512v25.6zM307.2 755.2h512v-281.6h-512v281.6zM332.8 729.6v-230.4h460.8v230.4h-460.8z" />
<glyph unicode="&#xe958;" glyph-name="rocket" d="M307.2 550.4c0 204.8 205.031 307.2 205.031 307.2s204.569-102.4 204.569-307.2c0-63.325 0-179.2 0-179.2l153.6-179.2v-102.4h-153.6v-25.6c0-14.138-11.38-25.6-25.616-25.6h-358.268c-14.147 0-25.638 11.363-25.666 25.6l-0.050 25.6h-153.6v102.4l153.6 179.131v179.269zM358.4 524.8v-435.2h307.2v435.2h-307.2zM358.4 550.4c51.2 0 256.175 0 307.2 0 0 166.4-153.484 245.76-153.484 245.76s-153.716-79.36-153.716-245.76zM512 320c-42.415 0-76.8 34.385-76.8 76.8s34.385 76.8 76.8 76.8c42.415 0 76.8-34.385 76.8-76.8s-34.385-76.8-76.8-76.8zM512 345.6c28.277 0 51.2 22.923 51.2 51.2s-22.923 51.2-51.2 51.2c-28.277 0-51.2-22.923-51.2-51.2s22.923-51.2 51.2-51.2zM716.8 331.52v-216.32h128v67.84l-128 148.48zM179.2 183.040v-67.84h128v216.321l-128-148.48z" />
<glyph unicode="&#xe959;" glyph-name="reload" d="M235.043 396.8c24.077-131.078 138.918-230.4 276.957-230.4 69.946 0 135.851 25.563 187.052 71.096 10.565 9.395 26.746 8.447 36.142-2.118s8.447-26.746-2.118-36.142c-60.486-53.789-138.464-84.036-221.076-84.036-166.389 0-304.258 122.107-328.886 281.6h-54.082c-7.069 0-12.8 5.731-12.8 12.8 0 2.907 0.989 5.726 2.805 7.996l75.768 94.71c4.416 5.52 12.471 6.415 17.991 1.999 0.738-0.59 1.409-1.261 1.999-1.999l75.768-94.71c4.416-5.52 3.521-13.575-1.999-17.991-2.27-1.816-5.090-2.805-7.996-2.805h-45.525zM792.452 473.6c-12.934 143.526-133.558 256-280.452 256-81.617 0-157.542-34.88-210.68-94.746-9.386-10.574-25.566-11.537-36.14-2.152s-11.537 25.566-2.152 36.14c62.755 70.7 152.561 111.958 248.971 111.958 175.187 0 318.758-135.361 331.83-307.2h51.138c7.069 0 12.8-5.731 12.8-12.8 0-2.907-0.989-5.726-2.805-7.996l-75.768-94.71c-4.416-5.52-12.471-6.415-17.991-1.999-0.738 0.59-1.409 1.261-1.999 1.999l-75.768 94.71c-4.416 5.52-3.521 13.575 1.999 17.991 2.27 1.816 5.090 2.805 7.996 2.805h49.020z" />
<glyph unicode="&#xe95a;" glyph-name="woman" d="M454.724 652.8h-19.6c-13.926 0-29.673-10.633-34.792-23.749l-83.864-214.902c-5.127-13.138 1.388-27.745 14.533-32.675l3.597-1.349c12.943-4.854 27.831 1.82 32.801 15.075l48.6 129.6h19.2l-76.8-230.4h76.8v-179.276c0-13.926 11.462-25.524 25.6-25.524 14.237 0 25.6 11.427 25.6 25.524v179.276h51.2v-179.276c0-13.926 11.462-25.524 25.6-25.524 14.237 0 25.6 11.427 25.6 25.524v179.276h76.8l-76.8 230.4h19.2l48.6-129.6c5.041-13.442 19.656-20.004 32.801-15.075l3.597 1.349c12.943 4.854 19.652 19.558 14.533 32.675l-83.864 214.902c-5.127 13.138-20.695 23.749-34.792 23.749h-19.674c-14.075-15.712-34.509-25.6-57.202-25.6-22.763 0-43.213 9.873-57.276 25.6zM409.688 699.944c-0.058 1.428-0.088 2.863-0.088 4.306v50.7c0 56.692 45.961 102.65 102.4 102.65 56.554 0 102.4-45.768 102.4-102.65v-50.7c0-1.434-0.029-2.862-0.088-4.281 25.358-8.063 47.391-27.548 57.052-52.304l83.864-214.902c15.481-39.669-4.546-84.338-44.253-99.228l-3.597-1.349c-0.12-0.045 13.211-40.345 13.211-40.345 8.862-26.863-6.856-48.641-35.102-48.641h-45.488v-128.076c0-42.411-34.324-76.724-76.8-76.724-19.634 0-37.56 7.402-51.147 19.549-13.585-12.159-31.541-19.549-51.253-19.549-42.375 0-76.8 34.481-76.8 76.724v128.076h-45.488c-28.248 0-43.978 21.508-34.953 48.585l13.422 40.266c-0.12 0.044-3.957 1.483-3.957 1.483-39.903 14.964-59.744 59.532-44.253 99.228l83.864 214.902c9.641 24.705 31.738 44.195 57.053 52.28zM460.8 755.253v-51.307c0-28.151 22.923-51.147 51.2-51.147 28.474 0 51.2 22.899 51.2 51.147v51.307c0 28.151-22.923 51.147-51.2 51.147-28.474 0-51.2-22.899-51.2-51.147z" />
<glyph unicode="&#xe95b;" glyph-name="user" d="M321.735 423.35c-9.377 23.493-14.535 49.129-14.535 75.971v153.357c0 113.175 91.922 204.921 204.8 204.921 113.108 0 204.8-91.741 204.8-204.921v-153.357c0-26.839-5.169-52.473-14.562-75.963 169.25-49.743 207.896-157.458 207.896-157.458 6.332-12.537 11.466-34.297 11.466-48.224v-128.125c0-28.25-22.765-51.151-51.245-51.151h-716.711c-28.302 0-51.245 22.7-51.245 51.151v128.125c0 14.096 4.765 35.962 11.466 48.224 0 0 38.642 107.704 207.869 157.45zM347.44 377.312c-138.971-36.919-179.095-113.396-179.095-113.396-8.492-11.107-14.744-32.071-14.744-46.079v-115.666c0-6.736 5.844-12.57 13.053-12.57h690.693c7.283 0 13.053 5.628 13.053 12.57v115.666c0 13.819-6.601 34.638-14.744 46.079 0 0-40.135 76.498-179.153 113.412-37.361-50.318-97.208-82.927-164.503-82.927-67.426 0-127.242 32.601-164.56 82.912zM358.4 652.96v-153.921c0-84.453 68.769-153.44 153.6-153.44 84.658 0 153.6 68.697 153.6 153.44v153.921c0 84.453-68.769 153.44-153.6 153.44-84.658 0-153.6-68.697-153.6-153.44z" />
<glyph unicode="&#xe95c;" glyph-name="speech" d="M486.4 217.6l-191.836-168.603c-21.298-18.719-38.564-11.058-38.564 17.205v151.398h-76.8c-42.415 0-76.8 34.409-76.8 76.563v486.873c0 42.285 34.157 76.563 76.7 76.563h665.8c42.36 0 76.7-34.409 76.7-76.563v-486.873c0-42.285-34.149-76.563-76.803-76.563h-358.397zM179.111 806.4c-14.089 0-25.511-11.229-25.511-25.568v-486.464c0-14.121 11.545-25.568 25.364-25.568h128.236v-140.8l148.525 140.8h389.048c14.153 0 25.627 11.229 25.627 25.568v486.464c0 14.121-11.259 25.568-25.511 25.568h-665.777zM268.8 396.8c-7.069 0-12.8 5.731-12.8 12.8s5.731 12.8 12.8 12.8h486.4c7.069 0 12.8-5.731 12.8-12.8s-5.731-12.8-12.8-12.8h-486.4zM268.8 524.8c-7.069 0-12.8 5.731-12.8 12.8s5.731 12.8 12.8 12.8h486.4c7.069 0 12.8-5.731 12.8-12.8s-5.731-12.8-12.8-12.8h-486.4zM268.8 652.8c-7.069 0-12.8 5.731-12.8 12.8s5.731 12.8 12.8 12.8h486.4c7.069 0 12.8-5.731 12.8-12.8s-5.731-12.8-12.8-12.8h-486.4z" />
<glyph unicode="&#xe95d;" glyph-name="star" d="M900.674 553.174c19.919-3.68 27.877-27.94 14.007-42.703l-169.906-180.853 32.627-246.257c2.652-20.013-17.824-35.078-36.142-26.59l-229.237 106.227-229.237-106.227c-18.32-8.489-38.798 6.581-36.141 26.596l32.692 246.25-169.969 180.849c-13.873 14.762-5.918 39.025 14.003 42.706l244.525 45.184 121.717 220.417c9.738 17.636 35.089 17.633 44.823-0.005l121.647-220.412 244.59-45.183zM634.873 550.21c-7.54 1.393-14.058 6.092-17.763 12.804l-105.093 190.417-105.153-190.422c-3.705-6.71-10.222-11.406-17.759-12.799l-210.302-38.86 146.166-155.522c5.267-5.604 7.735-13.278 6.723-20.901l-28.16-212.111 197.728 91.626c6.827 3.164 14.7 3.164 21.527 0l197.741-91.632-28.104 212.124c-1.010 7.619 1.458 15.289 6.72 20.891l146.108 155.521-210.379 38.864z" />
<glyph unicode="&#xe95e;" glyph-name="users" d="M256 352.205v147.155c0 84.742 68.942 153.44 153.6 153.44 84.831 0 153.6-68.986 153.6-153.44v-147.125c149.778-43.752 153.6-148.889 153.6-160.31v-102.403c0-28.234-22.964-51.122-51.327-51.122h-511.747c-28.347 0-51.327 22.984-51.327 51.122v102.403c0 11.195 3.822 116.463 153.6 160.28zM262.656 300.727c-106.687-34.48-109.056-103.625-109.056-108.802v-89.778c0-6.93 5.75-12.547 12.656-12.547h486.687c6.99 0 12.656 5.501 12.656 12.547v89.778c0 4.879-2.369 74.172-109.055 108.745-19.216-62.903-77.845-108.67-146.945-108.67-69.222 0-127.75 45.935-146.944 108.727zM761.212 505.029c-19.326-62.688-77.727-108.229-146.812-108.229-14.138 0-25.6 11.462-25.6 25.6s11.462 25.6 25.6 25.6c56.587 0 102.4 45.794 102.4 102.315v153.77c0 56.432-45.885 102.315-102.4 102.315-56.468 0-102.4-45.866-102.4-102.315 0-14.138-11.462-25.6-25.6-25.6s-25.6 11.462-25.6 25.6c0 84.743 68.871 153.515 153.6 153.515 84.791 0 153.6-68.806 153.6-153.515v-148.353c46.435-15.707 153.6-64.913 153.6-184.526v-76.678c0-28.442-22.899-51.327-51.147-51.327h-102.453c-14.138 0-25.6 11.462-25.6 25.6s11.462 25.6 25.6 25.6h89.844c7.051 0 12.556 5.678 12.556 12.683v64.122c0 84.799-69.747 120.445-109.188 133.824zM307.2 499.36v-153.921c0-56.279 45.949-102.24 102.4-102.24 56.462 0 102.4 45.855 102.4 102.24v153.921c0 56.279-45.949 102.24-102.4 102.24-56.462 0-102.4-45.855-102.4-102.24z" />
</font>
</defs>
</svg>
